<?xml version="1.0" standalone="no"?>
<!DOCTYPE svg PUBLIC "-//W3C//DTD SVG 1.1//EN" "http://www.w3.org/Graphics/SVG/1.1/DTD/svg11.dtd" >
<svg xmlns="http://www.w3.org/2000/svg">
<metadata></metadata>
<defs>
<font id="catorze27_style_1semibold" horiz-adv-x="819" >
<font-face units-per-em="2048" ascent="1898" descent="-150" />
<missing-glyph horiz-adv-x="512" />
<glyph horiz-adv-x="0" />
<glyph horiz-adv-x="682" />
<glyph horiz-adv-x="0" />
<glyph horiz-adv-x="0" />
<glyph unicode="&#xd;" horiz-adv-x="512" />
<glyph unicode=" "  horiz-adv-x="512" />
<glyph unicode="&#x09;" horiz-adv-x="512" />
<glyph unicode="&#xa0;" horiz-adv-x="512" />
<glyph unicode="!" horiz-adv-x="409" d="M111 289q0 38 28 66t66 28t66 -28t28 -66t-28 -66t-66 -28q-41 0 -67.5 27.5t-26.5 66.5zM123 973v461h164v-461l-27 -461h-113q-24 360 -24 461z" />
<glyph unicode="&#x22;" horiz-adv-x="768" d="M123 1233v201h164v-201q0 -77 -21 -197l-6 -43h-113q-24 163 -24 240zM481 1233v201h164v-201q0 -55 -20 -197l-7 -43h-112q-25 170 -25 240z" />
<glyph unicode="#" horiz-adv-x="1052" d="M25 496v153h143l74 338h-166v154h200l70 315l168 -47l-59 -268h252l69 315l168 -47l-59 -268h112v-154h-145l-72 -338h166v-153h-198l-68 -316l-174 47l59 269h-248l-67 -316l-174 47l59 269h-110zM350 649h248l74 338h-250z" />
<glyph unicode="$" horiz-adv-x="798" d="M113 479v94h163v-104q0 -51 36 -87t87 -36t87 36t36 87v10q0 38 -18 62l-320 432q-71 77 -71 186q0 97 58.5 174t150.5 103v151h153v-151q93 -26 152 -103.5t59 -173.5v-94h-164v104q0 51 -36 87t-87 36t-87 -36t-36 -87v-10q0 -37 21 -67l319 -433q70 -79 70 -180 q0 -98 -58 -174.5t-151 -101.5v-152h-155v152q-93 25 -151 101.5t-58 174.5z" />
<glyph unicode="%" horiz-adv-x="1556" d="M123 991v168q0 119 84 203t203 84q118 0 202 -84t84 -203v-168q0 -119 -84 -203q-83 -83 -202 -83q-120 0 -203 83q-84 84 -84 203zM287 981q0 -51 36 -87t87 -36t86.5 36t35.5 87v188q0 51 -35.5 87t-86.5 36t-87 -36t-36 -87v-188zM381 164l641 1282l145 -74 l-641 -1282zM860 377v168q0 119 84 203q83 83 203 83t203 -83q84 -84 84 -203v-168q0 -119 -84 -203t-203 -84t-203 84t-84 203zM1024 367q0 -51 36 -87t87 -36t87 36t36 87v188q0 51 -36 87t-87 36t-87 -36t-36 -87v-188z" />
<glyph unicode="&#x26;" d="M123 479v17q0 126 92 209q-92 86 -92 210v244q0 119 84 203t203 84q118 0 202 -84t84 -203v-110h-164v120q0 51 -35.5 87t-86.5 36t-87 -36t-36 -87v-264q0 -49 32 -83.5t80 -39.5h369v-153h-72v-150q0 -119 -84 -203q-83 -83 -202 -83q-120 0 -203 83q-84 84 -84 203z M287 469q0 -51 36 -87t87 -36t86.5 36t35.5 87v160h-133q-47 -4 -79.5 -40t-32.5 -83v-37z" />
<glyph unicode="'" horiz-adv-x="409" d="M123 1233v201h164v-201q0 -77 -21 -197l-6 -43h-113q-24 163 -24 240z" />
<glyph unicode="(" horiz-adv-x="491" d="M113 819q0 270 28 516q25 221 60 336l28 98l150 -57q-19 -54 -29 -98q-21 -89 -45 -297q-29 -248 -29 -498q0 -255 25 -489q27 -226 51 -314l27 -90l-150 -57l-32 108q-17 67 -52 316q-32 231 -32 526z" />
<glyph unicode=")" horiz-adv-x="491" d="M113 -74q15 43 28 99q21 89 45 297q29 248 29 497q0 265 -27 490q-23 218 -49 313l-26 90l147 57l33 -108q17 -56 53 -318q33 -235 33 -524q0 -271 -31 -516q-25 -218 -57 -336l-31 -98z" />
<glyph unicode="*" horiz-adv-x="757" d="M123 1124v133h76l86 -12l-54 68l-38 67l114 66l39 -66l33 -80l31 80l39 66l114 -66l-37 -67l-53 -68l84 12h78v-133h-78l-84 13l53 -68l37 -68l-114 -65l-39 68l-31 77l-33 -77l-39 -68l-114 68l38 65l54 68l-86 -13h-76z" />
<glyph unicode="+" horiz-adv-x="1044" d="M61 696v154h379v379h164v-379h379v-154h-379v-389h-164v389h-379z" />
<glyph unicode="," horiz-adv-x="409" d="M123 25v344h164v-123q0 -41 -11.5 -97t-25.5 -92l-14 -32h-113z" />
<glyph unicode="-" horiz-adv-x="634" d="M61 696v154h512v-154h-512z" />
<glyph unicode="." horiz-adv-x="440" d="M111 289q0 38 28 66t66 28t66 -28t28 -66t-28 -66t-66 -28q-41 0 -67.5 27.5t-26.5 66.5z" />
<glyph unicode="/" horiz-adv-x="1189" d="M113 37l819 1638l145 -73l-819 -1639z" />
<glyph unicode="0" horiz-adv-x="1024" d="M123 377v885q0 161 113 274q115 115 276 115q159 0 274 -115t115 -274v-885q0 -162 -115 -277q-112 -112 -274 -112q-164 0 -276 112q-113 113 -113 277zM287 367q0 -94 65.5 -160t159.5 -66q92 0 158 66q67 64 67 160v905q0 94 -67 158q-64 67 -158 67q-96 0 -160 -67 q-65 -65 -65 -158v-905z" />
<glyph unicode="1" horiz-adv-x="645" d="M82 1485v153h420v-1638h-164v1485h-256z" />
<glyph unicode="2" horiz-adv-x="1024" d="M123 0v154l584 985q30 55 30 112v21q0 93 -65 158q-64 67 -160 67t-160 -67q-65 -65 -65 -158v-84h-164v74q0 161 113 274q115 115 276 115q159 0 274 -115t115 -274q0 -118 -65 -213l-531 -895h596v-154h-778z" />
<glyph unicode="3" horiz-adv-x="1024" d="M123 377v74h164v-84q0 -94 65.5 -160t159.5 -66t159.5 66t65.5 160v401q0 93 -65 158q-64 67 -160 67h-231v154l364 338h-510v153h733v-153l-362 -338h6q159 0 274 -115t115 -274v-381q0 -162 -115 -277q-112 -112 -274 -112q-164 0 -276 112q-113 113 -113 277z" />
<glyph unicode="4" horiz-adv-x="993" d="M123 481v154l584 1003h163v-1638h-163v481h-584zM313 635h394v676z" />
<glyph unicode="5" horiz-adv-x="1024" d="M123 377v74h164v-84q0 -94 65.5 -160t159.5 -66t159.5 66t65.5 160v401q0 93 -65 158q-64 67 -160 67h-377v645h733v-153h-569v-338h213q159 0 274 -115t115 -274v-381q0 -162 -115 -277q-112 -112 -274 -112q-164 0 -276 112q-113 113 -113 277z" />
<glyph unicode="6" horiz-adv-x="1024" d="M123 377v885q0 161 113 274q115 115 276 115q159 0 274 -115t115 -274v-54h-164v64q0 94 -67 158q-64 67 -158 67q-96 0 -160 -67q-65 -65 -65 -158v-205q104 72 225 72q159 0 274 -115t115 -274v-373q0 -162 -115 -277q-112 -112 -274 -112q-164 0 -276 112 q-113 113 -113 277zM287 367q0 -94 65.5 -160t159.5 -66q92 0 158 66q67 64 67 160v393q0 94 -67 158q-64 67 -158 67q-96 0 -160 -67q-65 -65 -65 -158v-393z" />
<glyph unicode="7" horiz-adv-x="921" d="M41 1485v153h737v-153l-364 -1485h-168l362 1485h-567z" />
<glyph unicode="8" horiz-adv-x="991" d="M106 377q0 167 125 280l154 168l-139 154q-129 114 -129 283q0 161 110 274q112 115 269 115t266 -115q110 -113 110 -274q0 -171 -127 -283l-141 -154l154 -168q125 -113 125 -280q0 -164 -113 -277q-112 -112 -274 -112q-165 0 -277 112q-113 113 -113 277zM270 367 q0 -94 66 -160t160 -66q93 0 158 66t65 160v10q0 83 -60 149l-165 181l-164 -181q-60 -66 -60 -149v-10zM281 1262q-3 -79 63 -154l152 -166l151 166q65 71 62 154v10q0 94 -64 158q-61 67 -149 67q-90 0 -154 -67q-61 -64 -61 -158v-10z" />
<glyph unicode="9" horiz-adv-x="1024" d="M123 377v53h164v-63q0 -94 65.5 -160t159.5 -66t159.5 66t65.5 160v204q-103 -71 -225 -71q-164 0 -276 112q-113 113 -113 277v373q0 161 113 274q115 115 276 115q159 0 274 -115t115 -274v-885q0 -162 -115 -277q-112 -112 -274 -112q-164 0 -276 112 q-113 113 -113 277zM287 879q0 -94 65.5 -160t159.5 -66q91 0 155.5 62t69.5 153v404q0 94 -65.5 159.5t-159.5 65.5t-159.5 -65.5t-65.5 -159.5v-393z" />
<glyph unicode=":" horiz-adv-x="440" d="M111 289q0 38 28 66t66 28t66 -28t28 -66t-28 -66t-66 -28q-41 0 -67.5 27.5t-26.5 66.5zM111 1149q0 38 28 66t66 28t66 -28t28 -66t-28 -66t-66 -28q-41 0 -67.5 27.5t-26.5 66.5z" />
<glyph unicode=";" horiz-adv-x="440" d="M111 1149q0 38 28 66t66 28t66 -28t28 -66t-28 -66t-66 -28q-41 0 -67.5 27.5t-26.5 66.5zM123 25v344h164v-123q0 -41 -11.5 -97t-25.5 -92l-14 -32h-113z" />
<glyph unicode="&#x3c;" horiz-adv-x="729" d="M82 819l418 627l137 -90l-358 -537l358 -538l-137 -91z" />
<glyph unicode="=" horiz-adv-x="942" d="M61 492v153h820v-153h-820zM61 891v153h820v-153h-820z" />
<glyph unicode="&#x3e;" horiz-adv-x="729" d="M82 281l358 538l-358 537l137 90l418 -627l-418 -629z" />
<glyph unicode="?" d="M123 1065v96q0 119 84 203t203 84q118 0 202 -84t84 -203v-61q0 -59 -27.5 -128.5t-66.5 -113.5l-78 -129q-32 -49 -32 -115v-10l-21 -92h-123q-20 67 -20 92v10q-2 49 19 104t52 104.5t62 97t52 95t19 85.5v71q0 51 -35.5 87t-86.5 36t-87 -36t-36 -87v-106h-164z M315 289q0 38 28.5 66t66.5 28t66 -28t28 -66t-28 -66t-66 -28q-41 0 -68 27.5t-27 66.5z" />
<glyph unicode="@" horiz-adv-x="1638" d="M123 696v258q0 289 203 492q202 205 493 205q290 0 492 -205q205 -202 205 -492v-270q0 -119 -84 -203t-203 -84q-122 0 -205 86q-89 -86 -205 -86q-119 0 -203 84t-84 203v270q0 119 84 203t203 84t203 -84t84 -203v-280q5 -48 39.5 -80.5t83.5 -32.5q51 0 87 36t36 87 v281q0 216 -158 374t-375 158q-219 0 -377 -158q-155 -155 -155 -374v-279q0 -222 155 -377t377 -155h359v-154h-359q-290 0 -493 203t-203 493zM696 674q0 -51 36 -87t87 -36t86 35t37 86v293q0 51 -36 86.5t-87 35.5t-87 -35.5t-36 -86.5v-291z" />
<glyph unicode="A" horiz-adv-x="1028" d="M80 0l350 1638h164l354 -1638h-166l-59 276h-420l-57 -276h-166zM334 430h356l-178 848z" />
<glyph unicode="B" horiz-adv-x="1024" d="M123 0v1638h389q160 0 274 -114q115 -115 115 -275v-235q0 -196 -158 -314q158 -115 158 -311q0 -161 -115 -276q-113 -113 -274 -113h-389zM287 154h225q93 0 158 65q67 64 67 160v20q0 94 -67 158q-65 68 -158 68h-225v-471zM287 778h233q91 5 154 69.5t63 156.5v256 q0 93 -67 157q-65 68 -158 68h-225v-707z" />
<glyph unicode="C" horiz-adv-x="1024" d="M123 377v885q0 161 113 274q115 115 276 115q159 0 274 -115t115 -274v-74h-164v84q0 94 -67 158q-64 67 -158 67q-96 0 -160 -67q-65 -65 -65 -158v-905q0 -94 65.5 -160t159.5 -66q92 0 158 66q67 64 67 160v84h164v-74q0 -162 -115 -277q-112 -112 -274 -112 q-164 0 -276 112q-113 113 -113 277z" />
<glyph unicode="D" horiz-adv-x="1024" d="M123 0v1638h389q160 0 274 -114q115 -115 115 -275v-860q0 -161 -115 -276q-113 -113 -274 -113h-389zM287 154h225q93 0 158 65q67 64 67 160v881q0 93 -67 157q-65 68 -158 68h-225v-1331z" />
<glyph unicode="E" horiz-adv-x="860" d="M123 0v1638h635v-153h-471v-846h368v-154h-368v-331h471v-154h-635z" />
<glyph unicode="F" horiz-adv-x="849" d="M123 0v1638h676v-153h-512v-795h409v-153h-409v-537h-164z" />
<glyph unicode="G" horiz-adv-x="1024" d="M123 377v885q0 161 113 274q115 115 276 115q159 0 274 -115t115 -274v-74h-164v84q0 94 -67 158q-64 67 -158 67q-96 0 -160 -67q-65 -65 -65 -158v-905q0 -94 65.5 -160t159.5 -66q92 0 158 66q67 64 67 160v118h-225v154h389v-262q0 -162 -115 -277 q-112 -112 -274 -112q-164 0 -276 112q-113 113 -113 277z" />
<glyph unicode="H" horiz-adv-x="1024" d="M123 0v1638h164v-999h450v999h164v-1638h-164v485h-450v-485h-164z" />
<glyph unicode="I" horiz-adv-x="440" d="M137 0v1638h164v-1638h-164z" />
<glyph unicode="J" horiz-adv-x="409" d="M-113 -358h113q51 0 87 35.5t36 86.5v1874h164v-1863q0 -119 -84 -203t-203 -84h-113v154z" />
<glyph unicode="K" horiz-adv-x="1024" d="M123 0v1638h164v-809l432 809h184l-360 -673l370 -965h-176l-297 774l-153 -289v-485h-164z" />
<glyph unicode="L" horiz-adv-x="849" d="M123 0v1638h164v-1484h471v-154h-635z" />
<glyph unicode="M" horiz-adv-x="1126" d="M123 0v1638h164l276 -464l277 464h164v-1638h-164v1317l-195 -330h-164l-194 328v-1315h-164z" />
<glyph unicode="N" horiz-adv-x="1075" d="M123 0v1638h164l501 -1208v1208h164v-1638h-164l-501 1208v-1208h-164z" />
<glyph unicode="O" horiz-adv-x="1024" d="M123 377v885q0 161 113 274q115 115 276 115q159 0 274 -115t115 -274v-885q0 -162 -115 -277q-112 -112 -274 -112q-164 0 -276 112q-113 113 -113 277zM287 367q0 -94 65.5 -160t159.5 -66q92 0 158 66q67 64 67 160v905q0 94 -67 158q-64 67 -158 67q-96 0 -160 -67 q-65 -65 -65 -158v-905z" />
<glyph unicode="P" horiz-adv-x="1024" d="M123 0v1638h389q160 0 274 -114q115 -115 115 -275v-375q0 -161 -115 -276q-113 -113 -274 -113h-225v-485h-164zM287 639h225q92 0 158 66q67 64 67 159v396q0 93 -67 157q-65 68 -158 68h-225v-846z" />
<glyph unicode="Q" horiz-adv-x="1024" d="M123 377v885q0 161 113 274q115 115 276 115q159 0 274 -115t115 -274v-885q0 -139 -88 -246q-83 -105 -219 -133v-305h-164v305q-137 27 -221 131q-86 109 -86 248zM287 367q0 -94 65.5 -160t159.5 -66q92 0 158 66q67 64 67 160v905q0 94 -67 158q-64 67 -158 67 q-96 0 -160 -67q-65 -65 -65 -158v-905z" />
<glyph unicode="R" horiz-adv-x="1024" d="M123 0v1638h389q160 0 274 -114q115 -115 115 -275v-375q0 -194 -158 -313q158 -115 158 -311v-250h-164v260q0 93 -63 156q-66 66 -154 69h-233v-485h-164zM287 639h233q91 5 154 69t63 156v396q0 93 -67 157q-65 68 -158 68h-225v-846z" />
<glyph unicode="S" horiz-adv-x="1003" d="M113 377v74h163v-84q0 -94 66 -160t160 -66t159.5 66t65.5 160v10q0 84 -59 149l-416 453q-127 112 -127 283q0 160 108 274q112 115 269 115q154 0 266 -115q111 -114 111 -274v-74h-164v84q0 94 -64 158q-61 67 -149 67q-90 0 -151.5 -66t-61.5 -159v-10v-7 q0 -80 61 -147l416 -451q125 -113 125 -280q0 -162 -115 -277q-112 -112 -274 -112q-165 0 -277 112t-112 277z" />
<glyph unicode="T" horiz-adv-x="839" d="M61 1485v153h717v-153h-278v-1485h-164v1485h-275z" />
<glyph unicode="U" horiz-adv-x="1024" d="M123 377v1261h164v-1271q0 -94 65.5 -160t159.5 -66q92 0 158 66q67 64 67 160v1271h164v-1261q0 -162 -115 -277q-112 -112 -274 -112q-164 0 -276 112q-113 113 -113 277z" />
<glyph unicode="V" horiz-adv-x="987" d="M80 1638h166l248 -1208l247 1208h166l-332 -1638h-163z" />
<glyph unicode="W" horiz-adv-x="1126" d="M123 0v1638h164v-1316l194 327h164l195 -330v1319h164v-1638h-164l-277 465l-276 -465h-164z" />
<glyph unicode="X" horiz-adv-x="976" d="M86 0l309 844l-297 794h176l218 -581l210 581h175l-297 -815l309 -823h-174l-232 612l-221 -612h-176z" />
<glyph unicode="Y" horiz-adv-x="962" d="M80 1638h170l231 -862l232 862h170l-320 -1153v-485h-164v485z" />
<glyph unicode="Z" horiz-adv-x="1003" d="M123 0v154l567 1331h-555v153h733v-153l-567 -1331h580v-154h-758z" />
<glyph unicode="[" horiz-adv-x="665" d="M123 -102v1843h420v-154h-256v-1536h256v-153h-420z" />
<glyph unicode="\" horiz-adv-x="1189" d="M113 1602l145 73l819 -1638l-145 -74z" />
<glyph unicode="]" horiz-adv-x="665" d="M123 51h256v1536h-256v154h420v-1843h-420v153z" />
<glyph unicode="_" horiz-adv-x="1024" d="M61 0h902v-143h-902v143z" />
<glyph unicode="`" horiz-adv-x="512" d="M61 1679l45 138l347 -127l-39 -117z" />
<glyph unicode="a" horiz-adv-x="800" d="M80 205l237 1229h164l240 -1229h-154l-45 235h-243l-46 -235h-153zM307 594h185l-93 485z" />
<glyph unicode="b" d="M123 205v1229h287q118 0 202 -84t84 -203v-236q0 -122 -92 -211q92 -86 92 -208q0 -119 -84 -203t-202 -84h-287zM287 358h123q51 0 86.5 36t35.5 87v21q0 51 -35.5 87t-86.5 36h-123v-267zM287 778h133q48 5 80 39.5t32 83.5v256q0 51 -35.5 87t-86.5 36h-123v-502z" />
<glyph unicode="c" d="M123 479v680q0 119 84 203t203 84q118 0 202 -84t84 -203v-110h-164v120q0 51 -35.5 87t-86.5 36t-87 -36t-36 -87v-700q0 -51 36 -87t87 -36t86.5 36t35.5 87v119h164v-109q0 -119 -84 -203q-83 -83 -202 -83q-120 0 -203 83q-84 84 -84 203z" />
<glyph unicode="d" d="M123 205v1229h287q118 0 202 -84t84 -203v-655q0 -119 -84 -203t-202 -84h-287zM287 358h123q51 0 86.5 36t35.5 87v676q0 51 -35.5 87t-86.5 36h-123v-922z" />
<glyph unicode="e" horiz-adv-x="716" d="M123 205v1229h491v-154h-327v-549h276v-153h-276v-220h327v-153h-491z" />
<glyph unicode="f" horiz-adv-x="665" d="M123 205v1229h491v-154h-327v-549h276v-153h-276v-373h-164z" />
<glyph unicode="g" d="M123 479v680q0 119 84 203t203 84q118 0 202 -84t84 -203v-110h-164v120q0 51 -35.5 87t-86.5 36t-87 -36t-36 -87v-700q0 -51 36 -87t87 -36t86.5 36t35.5 87v115h-122v153h286v-258q0 -119 -84 -203q-83 -83 -202 -83q-120 0 -203 83q-84 84 -84 203z" />
<glyph unicode="h" d="M123 205v1229h164v-703h245v703h164v-1229h-164v373h-245v-373h-164z" />
<glyph unicode="i" horiz-adv-x="440" d="M137 205v1229h164v-1229h-164z" />
<glyph unicode="j" horiz-adv-x="409" d="M-61 39h61q51 0 87 36t36 87v1272h164v-1262q0 -119 -84 -203t-203 -84h-61v154z" />
<glyph unicode="k" d="M123 205v1229h164v-498l241 498h181l-246 -506l246 -723h-172l-177 514l-73 -154v-360h-164z" />
<glyph unicode="l" horiz-adv-x="645" d="M123 205v1229h164v-1076h276v-153h-440z" />
<glyph unicode="m" horiz-adv-x="921" d="M123 205v1229h164l174 -344l174 344h164v-1229h-164v878l-103 -192h-143l-102 190v-876h-164z" />
<glyph unicode="n" horiz-adv-x="870" d="M123 205v1229h164l297 -801v801h164v-1229h-164l-297 794v-794h-164z" />
<glyph unicode="o" d="M123 479v680q0 119 84 203t203 84q118 0 202 -84t84 -203v-680q0 -119 -84 -203q-83 -83 -202 -83q-120 0 -203 83q-84 84 -84 203zM287 469q0 -51 36 -87t87 -36t86.5 36t35.5 87v700q0 51 -35.5 87t-86.5 36t-87 -36t-36 -87v-700z" />
<glyph unicode="p" d="M123 205v1229h287q118 0 202 -84t84 -203v-283q0 -118 -84 -202t-202 -84h-123v-373h-164zM287 731h123q51 0 86.5 36t35.5 87v303q0 51 -35.5 87t-86.5 36h-123v-549z" />
<glyph unicode="q" d="M123 479v680q0 119 84 203t203 84q118 0 202 -84t84 -203v-680q0 -96 -57.5 -171.5t-146.5 -102.5v-205h-164v205q-91 26 -148 102t-57 172zM287 469q0 -51 36 -87t87 -36t86.5 36t35.5 87v700q0 51 -35.5 87t-86.5 36t-87 -36t-36 -87v-700z" />
<glyph unicode="r" d="M123 205v1229h287q118 0 202 -84t84 -203v-283q0 -122 -92 -211q92 -86 92 -209v-239h-164v250q0 51 -35.5 87t-86.5 36h-123v-373h-164zM287 731h123q51 0 86.5 36t35.5 87v303q0 51 -35.5 87t-86.5 36h-123v-549z" />
<glyph unicode="s" horiz-adv-x="798" d="M113 479v94h163v-104q0 -51 36 -87t87 -36t87 36t36 87v10q0 38 -18 62l-320 432q-71 77 -71 186q0 119 84 203t202 84q119 0 203 -84t84 -203v-94h-164v104q0 51 -36 87t-87 36t-87 -36t-36 -87v-10q0 -37 21 -67l319 -433q70 -79 70 -180q0 -119 -84 -203 q-83 -83 -203 -83q-119 0 -202 83q-84 84 -84 203z" />
<glyph unicode="t" horiz-adv-x="634" d="M61 1280v154h512v-154h-174v-1075h-163v1075h-175z" />
<glyph unicode="u" d="M123 479v955h164v-965q0 -51 36 -87t87 -36t86.5 36t35.5 87v965h164v-955q0 -119 -84 -203q-83 -83 -202 -83q-120 0 -203 83q-84 84 -84 203z" />
<glyph unicode="v" horiz-adv-x="800" d="M80 1434h153l166 -875l168 875h154l-240 -1229h-164z" />
<glyph unicode="w" horiz-adv-x="921" d="M123 205v1229h164v-879l102 193h143l103 -195v881h164v-1229h-164l-174 342l-174 -342h-164z" />
<glyph unicode="x" horiz-adv-x="800" d="M106 205l203 622l-203 607h173l124 -379l117 379h172l-203 -627l203 -602h-172l-123 377l-116 -377h-175z" />
<glyph unicode="y" horiz-adv-x="751" d="M66 1434h153l156 -596l155 596h154l-227 -856v-373h-164v373z" />
<glyph unicode="z" d="M123 205v153l391 922h-379v154h549v-154l-393 -922h405v-153h-573z" />
<glyph unicode="{" horiz-adv-x="786" d="M113 819l123 123q12 15 12 31v635q0 56 38 94.5t95 38.5h283v-154h-252v-614q0 -88 -60 -148l-8 -8l8 -6q25 -25 42.5 -67t17.5 -78v-615h252v-153h-283q-56 0 -94.5 38t-38.5 95v635q0 16 -12 28z" />
<glyph unicode="|" horiz-adv-x="440" d="M137 -102v1843h164v-1843h-164z" />
<glyph unicode="}" horiz-adv-x="786" d="M123 51h252l-2 615q0 35 17 77.5t42 67.5l6 6l-6 8q-59 65 -59 148v614h-250v154h280q57 0 95.5 -38.5t38.5 -94.5v-635q0 -17 14 -31l123 -123l-123 -125q-14 -8 -14 -28l2 -635q0 -57 -38.5 -95t-94.5 -38h-283v153z" />
<glyph unicode="&#xa1;" horiz-adv-x="409" d="M111 1350q0 38 28 66t66 28t66 -28t28 -66t-28 -66.5t-66 -28.5q-40 0 -67 28t-27 67zM123 205v461l24 460h113q27 -360 27 -460v-461h-164z" />
<glyph unicode="&#xa2;" d="M123 479v680q0 97 58.5 174t150.5 103v151h153v-151q93 -26 152 -103.5t59 -173.5v-110h-164v120q0 51 -35.5 87t-86.5 36t-87 -36t-36 -87v-700q0 -51 36 -87t87 -36t86.5 36t35.5 87v119h164v-109q0 -98 -58 -174.5t-151 -101.5v-152h-155v152q-93 25 -151 101.5 t-58 174.5z" />
<glyph unicode="&#xa3;" horiz-adv-x="821" d="M41 205v153h123v801q0 119 84 203t203 84q118 0 202 -84t84 -203v-110h-164v120q0 51 -35.5 87t-86.5 36t-87 -36t-36 -87v-335h276v-154h-276v-322h422v-153h-709z" />
<glyph unicode="&#xa4;" horiz-adv-x="1024" d="M123 221q0 158 123 260q-123 102 -123 262v152q0 158 123 260q-123 102 -123 262h164q0 -74 51.5 -129t122.5 -55h108q69 1 118.5 56.5t49.5 127.5h164q0 -158 -125 -262q125 -101 125 -260v-152q0 -158 -125 -262q125 -101 125 -260h-164q0 73 -50 128.5t-118 56.5h-116 q-67 -1 -116.5 -57t-49.5 -128h-164zM287 733q0 -72 51 -123t123 -51h102q72 0 123 51t51 123v172q0 72 -51 123t-123 51h-102q-72 0 -123 -51t-51 -123v-172z" />
<glyph unicode="&#xa5;" horiz-adv-x="792" d="M74 322v153h239v103l-16 57h-223v153h182l-170 646h154l155 -596l156 596h154l-173 -646h185v-153h-225l-15 -57v-103h240v-153h-240v-117h-164v117h-239z" />
<glyph unicode="&#xa6;" horiz-adv-x="440" d="M137 -102v843h164v-843h-164zM137 895v846h164v-846h-164z" />
<glyph unicode="&#xa7;" horiz-adv-x="849" d="M113 274v95h163v-105q0 -51 36 -87t87 -36t87 36t36 87v10q0 38 -18 62l-320 432q-71 77 -71 186q0 148 114 230q-63 75 -63 180q0 119 84 203t203 84q118 0 202 -84t84 -203v-94h-164v104q0 51 -35.5 87t-86.5 36t-87 -36t-36 -87v-10q0 -39 20 -68l320 -432 q69 -78 69 -180q0 -143 -119 -231q68 -83 68 -179q0 -118 -84 -202t-203 -84q-118 0 -202 84t-84 202zM276 954q0 -37 21 -67l229 -312q47 38 47 99v10q0 37 -18 61l-233 314q-46 -40 -46 -94v-11z" />
<glyph unicode="&#xa8;" d="M172 1689.5q0 34.5 25 59.5t59 25t59 -25t25 -59.5t-25 -59.5t-59 -25t-59 25t-25 59.5zM479 1689.5q0 34.5 25 59.5t59.5 25t59.5 -25t25 -59.5t-25 -59.5t-59.5 -25t-59.5 25t-25 59.5z" />
<glyph unicode="&#xa9;" horiz-adv-x="1638" d="M123 684v270q0 289 203 492q202 205 493 205q290 0 492 -205q205 -202 205 -492v-270q0 -292 -205 -494q-202 -202 -492 -202q-291 0 -493 202q-203 203 -203 494zM287 674q0 -222 155 -377q156 -156 377 -156q219 0 375 156q158 158 158 377v291q0 216 -158 374 t-375 158q-219 0 -377 -158q-155 -155 -155 -374v-291zM532 684v270q0 119 84 203t203 84t203 -84t84 -203v-32h-164v43q0 51 -36 86.5t-87 35.5t-87 -35.5t-36 -86.5v-291q0 -51 36 -87t87 -36t87 36t36 87v43h164v-33q0 -119 -84 -203t-203 -84t-203 84t-84 203z" />
<glyph unicode="&#xaa;" d="M123 1159q0 119 84 203t203 84q59 0 122 -29v17h164v-543h-164v8q-58 -27 -122 -27q-119 0 -203 84t-84 203zM287 1149q0 -51 36 -87t87 -36q47 0 82 33t40 80v30q0 51 -35.5 87t-86.5 36t-87 -36t-36 -87v-20z" />
<glyph unicode="&#xab;" horiz-adv-x="1179" d="M82 819l418 627l137 -90l-358 -537l358 -538l-137 -91zM532 819l418 627l137 -90l-358 -537l358 -538l-137 -91z" />
<glyph unicode="&#xac;" horiz-adv-x="1003" d="M61 696v154h820v-440h-164v286h-656z" />
<glyph unicode="&#xad;" horiz-adv-x="634" d="M61 696v154h512v-154h-512z" />
<glyph unicode="&#xae;" horiz-adv-x="1638" d="M123 684v270q0 289 203 492q202 205 493 205q290 0 492 -205q205 -202 205 -492v-270q0 -292 -205 -494q-202 -202 -492 -202q-291 0 -493 202q-203 203 -203 494zM287 674q0 -222 155 -377q156 -156 377 -156q219 0 375 156q158 158 158 377v291q0 216 -158 374 t-375 158q-219 0 -377 -158q-155 -155 -155 -374v-291zM532 410v819h287q119 0 203 -84t84 -203v-78q0 -122 -92 -211q92 -86 92 -209v-34h-164v45q0 51 -36 87t-87 36h-123v-168h-164zM696 731h133q48 5 80.5 39.5t32.5 83.5v98q0 51 -36 87t-87 36h-123v-344z" />
<glyph unicode="&#xaf;" horiz-adv-x="409" d="M-37 1618v133h481v-133h-481z" />
<glyph unicode="&#xb0;" d="M123 1159q0 119 84 203t203 84q118 0 202 -84t84 -203t-84 -203t-202 -84q-119 0 -203 84t-84 203zM287 1149q0 -51 36 -87t87 -36t86.5 36t35.5 87v20q0 51 -35.5 87t-86.5 36t-87 -36t-36 -87v-20z" />
<glyph unicode="&#xb1;" horiz-adv-x="1044" d="M86 184v154h870v-154h-870zM86 901v154h354v352h164v-352h352v-154h-352v-364h-164v364h-354z" />
<glyph unicode="&#xb4;" horiz-adv-x="512" d="M61 1690l347 127l45 -138l-353 -106z" />
<glyph unicode="&#xb5;" horiz-adv-x="921" d="M123 205v1229h164l174 -344l174 344h164v-1229h-164v878l-103 -192h-143l-102 190v-876h-164z" />
<glyph unicode="&#xb6;" horiz-adv-x="880" d="M123 864v283q0 119 84 203t203 84h409v-154h-123v-819q0 -119 -84 -203t-202 -84h-62v154h62q51 0 86.5 36t35.5 87v127h-122q-119 0 -203 84t-84 202z" />
<glyph unicode="&#xb7;" horiz-adv-x="440" d="M111 614q0 40 28.5 67.5t64 27t66.5 -28.5q28 -31 28.5 -66.5t-26.5 -64.5t-67 -29q-41 0 -67.5 26.5t-26.5 67.5z" />
<glyph unicode="&#xb8;" horiz-adv-x="1075" d="M274 -287l35 60q70 -76 162 -76q42 0 67 29t25 69q0 30 -20 51t-54 21h-124l75 133h113l-31 -59h60q56 0 88 -40.5t32 -105.5q0 -73 -63 -126.5t-168 -53.5q-53 0 -103 23t-73 51z" />
<glyph unicode="&#xba;" d="M123 1159q0 119 84 203t203 84q118 0 202 -84t84 -203t-84 -203t-202 -84q-119 0 -203 84t-84 203zM287 1149q0 -51 36 -87t87 -36t86.5 36t35.5 87v20q0 51 -35.5 87t-86.5 36t-87 -36t-36 -87v-20z" />
<glyph unicode="&#xbb;" horiz-adv-x="1179" d="M82 281l358 538l-358 537l137 90l418 -627l-418 -629zM532 281l359 538l-359 537l138 90l417 -627l-417 -629z" />
<glyph unicode="&#xbf;" d="M123 481v62q0 57 27 127.5t65 113.5l78 129q35 62 35 115v10l20 92h123q21 -70 21 -92v-10q0 -60 -27 -130t-66 -112l-80 -127q-32 -51 -32 -116v-72q0 -51 36 -87t87 -36t86.5 36t35.5 87v107h164v-97q0 -118 -84 -202t-202 -84q-119 0 -203 84t-84 202zM315 1354 q0 39 27 66.5t68 27.5q38 0 66 -28t28 -66t-28 -66t-66 -28t-66.5 28t-28.5 66z" />
<glyph unicode="&#xc0;" horiz-adv-x="1028" d="M80 0l350 1638h164l354 -1638h-166l-59 276h-420l-57 -276h-166zM227 1884l107 137l284 -127l-38 -116zM334 430h356l-178 848z" />
<glyph unicode="&#xc1;" horiz-adv-x="1028" d="M80 0l350 1638h164l354 -1638h-166l-59 276h-420l-57 -276h-166zM334 430h356l-178 848zM407 1895l347 127l45 -138l-353 -106z" />
<glyph unicode="&#xc2;" horiz-adv-x="1028" d="M80 0l350 1638h164l354 -1638h-166l-59 276h-420l-57 -276h-166zM279 1892l196 179h74l194 -179l-96 -106l-135 131l-137 -131zM334 430h356l-178 848z" />
<glyph unicode="&#xc3;" horiz-adv-x="1028" d="M80 0l350 1638h164l354 -1638h-166l-59 276h-420l-57 -276h-166zM225 1925l17 10q80 45 180 45q36 0 94 -24q64 -25 94 -25q28 0 56.5 6.5t43.5 12.5t15 8l16 8l56 -115l-17 -8q-77 -45 -174 -45q-33 0 -100 25q-65 24 -94 24q-27 0 -55 -6t-43 -12t-15 -8l-18 -11z M334 430h356l-178 848z" />
<glyph unicode="&#xc4;" horiz-adv-x="1028" d="M80 0l350 1638h164l354 -1638h-166l-59 276h-420l-57 -276h-166zM256 1894q0 35 24.5 59.5t59.5 24.5q33 0 58.5 -24.5t25.5 -59.5t-24.5 -59.5t-59.5 -24.5t-59.5 24.5t-24.5 59.5zM334 430h356l-178 848zM604 1894q0 35 24.5 59.5t59.5 24.5q33 0 58.5 -24.5 t25.5 -59.5t-24.5 -59.5t-59.5 -24.5t-59.5 24.5t-24.5 59.5z" />
<glyph unicode="&#xc5;" horiz-adv-x="1028" d="M80 0l350 1638h164l354 -1638h-166l-59 276h-420l-57 -276h-166zM289 1894q0 93 65 158q65 68 160 68q93 0 158 -68q67 -64 67 -158q0 -95 -67 -159q-66 -66 -158 -66q-94 0 -159.5 65.5t-65.5 159.5zM334 430h356l-178 848zM422 1894q0 -38 27 -65t65 -27q37 0 64.5 27 t27.5 65q0 37 -27 65t-65 28t-65 -28t-27 -65z" />
<glyph unicode="&#xc6;" horiz-adv-x="1402" d="M59 0l453 1638h788v-153h-471v-846h369v-154h-369v-331h471v-154h-634v276h-365l-76 -276h-166zM342 430h324v1055h-33z" />
<glyph unicode="&#xc7;" horiz-adv-x="1024" d="M123 377v885q0 161 113 274q115 115 276 115q159 0 274 -115t115 -274v-74h-164v84q0 94 -67 158q-64 67 -158 67q-96 0 -160 -67q-65 -65 -65 -158v-905q0 -94 65.5 -160t159.5 -66q92 0 158 66q67 64 67 160v84h164v-74q0 -153 -102 -264t-252 -123l-25 -49h60 q56 0 88 -40.5t32 -105.5q0 -73 -63 -126.5t-168 -53.5q-53 0 -103 23t-73 51l-21 24l35 60q70 -76 162 -76q42 0 67 29t25 69q0 30 -20 51t-54 21h-124l71 129q-137 24 -225 131t-88 250z" />
<glyph unicode="&#xc8;" horiz-adv-x="860" d="M123 0v1638h635v-153h-471v-846h368v-154h-368v-331h471v-154h-635zM244 1884l45 137l346 -127l-39 -116z" />
<glyph unicode="&#xc9;" horiz-adv-x="860" d="M123 0v1638h635v-153h-471v-846h368v-154h-368v-331h471v-154h-635zM233 1894l347 127l45 -137l-353 -106z" />
<glyph unicode="&#xca;" horiz-adv-x="860" d="M123 0v1638h635v-153h-471v-846h368v-154h-368v-331h471v-154h-635zM211 1892l197 179h73l195 -179l-96 -106l-136 131l-137 -131z" />
<glyph unicode="&#xcb;" horiz-adv-x="860" d="M123 0v1638h635v-153h-471v-846h368v-154h-368v-331h471v-154h-635zM182 1894q0 35 24.5 59.5t59.5 24.5q33 0 58.5 -24.5t25.5 -59.5t-24.5 -59.5t-59.5 -24.5t-59.5 24.5t-24.5 59.5zM530 1894q0 35 24.5 59.5t59.5 24.5q33 0 58.5 -24.5t25.5 -59.5t-24.5 -59.5 t-59.5 -24.5t-59.5 24.5t-24.5 59.5z" />
<glyph unicode="&#xcc;" horiz-adv-x="440" d="M-74 1884l45 137l346 -127l-38 -116zM137 0v1638h164v-1638h-164z" />
<glyph unicode="&#xcd;" horiz-adv-x="440" d="M121 1894l346 127l45 -137l-352 -106zM137 0v1638h164v-1638h-164z" />
<glyph unicode="&#xce;" horiz-adv-x="440" d="M-14 1892l196 179h74l195 -179l-97 -106l-135 131l-137 -131zM137 0v1638h164v-1638h-164z" />
<glyph unicode="&#xcf;" horiz-adv-x="440" d="M-39 1894q0 35 24.5 59.5t59.5 24.5q33 0 58.5 -24.5t25.5 -59.5t-24.5 -59.5t-59.5 -24.5t-59.5 24.5t-24.5 59.5zM137 0v1638h164v-1638h-164zM309 1894q0 35 24.5 59.5t59.5 24.5q33 0 58.5 -24.5t25.5 -59.5t-24.5 -59.5t-59.5 -24.5t-59.5 24.5t-24.5 59.5z" />
<glyph unicode="&#xd0;" horiz-adv-x="1024" d="M-27 485v154h150v999h389q160 0 274 -114q115 -115 115 -275v-860q0 -161 -115 -276q-113 -113 -274 -113h-389v485h-150zM287 154h225q93 0 158 65q67 64 67 160v881q0 93 -67 157q-65 68 -158 68h-225v-846h147v-154h-147v-331z" />
<glyph unicode="&#xd1;" horiz-adv-x="1075" d="M123 0v1638h164l501 -1208v1208h164v-1638h-164l-501 1208v-1208h-164zM250 1925l16 10q80 45 180 45q36 0 95 -24q64 -25 94 -25q28 0 56.5 6.5t43.5 12.5t15 8l16 8l55 -115l-16 -8q-77 -45 -174 -45q-34 0 -101 25q-65 24 -94 24q-27 0 -55 -6t-42.5 -12t-14.5 -8 l-19 -11z" />
<glyph unicode="&#xd2;" horiz-adv-x="1024" d="M123 377v885q0 161 113 274q115 115 276 115q159 0 274 -115t115 -274v-885q0 -162 -115 -277q-112 -112 -274 -112q-164 0 -276 112q-113 113 -113 277zM266 1884l45 137l346 -127l-39 -116zM287 367q0 -94 65.5 -160t159.5 -66q92 0 158 66q67 64 67 160v905 q0 94 -67 158q-64 67 -158 67q-96 0 -160 -67q-65 -65 -65 -158v-905z" />
<glyph unicode="&#xd3;" horiz-adv-x="1024" d="M123 377v885q0 161 113 274q115 115 276 115q159 0 274 -115t115 -274v-885q0 -162 -115 -277q-112 -112 -274 -112q-164 0 -276 112q-113 113 -113 277zM287 367q0 -94 65.5 -160t159.5 -66q92 0 158 66q67 64 67 160v905q0 94 -67 158q-64 67 -158 67q-96 0 -160 -67 q-65 -65 -65 -158v-905zM367 1894l346 127l45 -137l-352 -106z" />
<glyph unicode="&#xd4;" horiz-adv-x="1024" d="M123 377v885q0 161 113 274q115 115 276 115q159 0 274 -115t115 -274v-885q0 -162 -115 -277q-112 -112 -274 -112q-164 0 -276 112q-113 113 -113 277zM279 1892l196 179h74l194 -179l-96 -106l-135 131l-137 -131zM287 367q0 -94 65.5 -160t159.5 -66q92 0 158 66 q67 64 67 160v905q0 94 -67 158q-64 67 -158 67q-96 0 -160 -67q-65 -65 -65 -158v-905z" />
<glyph unicode="&#xd5;" horiz-adv-x="1024" d="M123 377v885q0 161 113 274q115 115 276 115q159 0 274 -115t115 -274v-885q0 -162 -115 -277q-112 -112 -274 -112q-164 0 -276 112q-113 113 -113 277zM225 1925l17 10q80 45 180 45q36 0 94 -24q64 -25 94 -25q28 0 56.5 6.5t43.5 12.5t15 8l16 8l56 -115l-17 -8 q-77 -45 -174 -45q-33 0 -100 25q-65 24 -94 24q-27 0 -55 -6t-43 -12t-15 -8l-18 -11zM287 367q-3 -94 63 -160q69 -66 162 -66q92 0 158 66q67 64 67 160v905q0 94 -67 158q-64 67 -158 67q-96 0 -160 -67q-65 -65 -65 -158v-905z" />
<glyph unicode="&#xd6;" horiz-adv-x="1024" d="M123 377v885q0 161 113 274q115 115 276 115q159 0 274 -115t115 -274v-885q0 -162 -115 -277q-112 -112 -274 -112q-164 0 -276 112q-113 113 -113 277zM254 1894.5q0 34.5 25 59.5t59 25t59 -25t25 -59.5t-25 -59.5t-59 -25t-59 25t-25 59.5zM287 367q0 -94 65.5 -160 t159.5 -66q92 0 158 66q67 64 67 160v905q0 94 -67 158q-64 67 -158 67q-96 0 -160 -67q-65 -65 -65 -158v-905zM602 1894.5q0 34.5 25 59.5t59 25t59 -25t25 -59.5t-25 -59.5t-59 -25t-59 25t-25 59.5z" />
<glyph unicode="&#xd7;" horiz-adv-x="1105" d="M82 360l360 406l-360 408l123 108l348 -393l348 393l123 -108l-362 -408l362 -406l-123 -108l-348 391l-348 -391z" />
<glyph unicode="&#xd8;" horiz-adv-x="1024" d="M113 29l61 151q-51 86 -51 197v885q0 161 113 274q115 115 276 115q125 0 229 -76l37 92l133 -57l-63 -154q53 -89 53 -194v-885q0 -162 -115 -277q-112 -112 -274 -112q-128 0 -229 73l-37 -90zM287 459l391 962q-64 76 -166 76q-96 0 -160 -67q-65 -65 -65 -158v-813z M344 215q68 -74 168 -74q92 0 158 66q67 64 67 160v813z" />
<glyph unicode="&#xd9;" horiz-adv-x="1024" d="M123 377v1261h164v-1271q0 -94 65.5 -160t159.5 -66q92 0 158 66q67 64 67 160v1271h164v-1261q0 -162 -115 -277q-112 -112 -274 -112q-164 0 -276 112q-113 113 -113 277zM264 1884l45 137l346 -127l-39 -116z" />
<glyph unicode="&#xda;" horiz-adv-x="1024" d="M123 377v1261h164v-1271q0 -94 65.5 -160t159.5 -66q92 0 158 66q67 64 67 160v1271h164v-1261q0 -162 -115 -277q-112 -112 -274 -112q-164 0 -276 112q-113 113 -113 277zM367 1894l346 127l45 -137l-352 -106z" />
<glyph unicode="&#xdb;" horiz-adv-x="1024" d="M123 377v1261h164v-1271q0 -94 65.5 -160t159.5 -66q92 0 158 66q67 64 67 160v1271h164v-1261q0 -162 -115 -277q-112 -112 -274 -112q-164 0 -276 112q-113 113 -113 277zM279 1892l196 179h74l194 -179l-96 -106l-135 131l-137 -131z" />
<glyph unicode="&#xdc;" horiz-adv-x="1024" d="M123 377v1261h164v-1271q0 -94 65.5 -160t159.5 -66q92 0 158 66q67 64 67 160v1271h164v-1261q0 -162 -115 -277q-112 -112 -274 -112q-164 0 -276 112q-113 113 -113 277zM254 1894.5q0 34.5 25 59.5t59 25t59 -25t25 -59.5t-25 -59.5t-59 -25t-59 25t-25 59.5z M602 1894.5q0 34.5 25 59.5t59 25t59 -25t25 -59.5t-25 -59.5t-59 -25t-59 25t-25 59.5z" />
<glyph unicode="&#xdd;" horiz-adv-x="962" d="M80 1638h170l231 -862l232 862h170l-320 -1153v-485h-164v485zM364 1895l347 127l45 -138l-353 -106z" />
<glyph unicode="&#xde;" horiz-adv-x="1024" d="M123 0v1638h164v-256h225q160 0 274 -114q115 -115 115 -275v-348q0 -161 -115 -276q-113 -113 -274 -113h-225v-256h-164zM287 410h225q93 0 158 65q67 64 67 160v369q0 95 -67 159q-66 66 -158 66h-225v-819z" />
<glyph unicode="&#xe0;" horiz-adv-x="800" d="M80 205l237 1229h164l240 -1229h-154l-45 235h-243l-46 -235h-153zM133 1679l45 138l346 -127l-39 -117zM307 594h178l-86 485z" />
<glyph unicode="&#xe1;" horiz-adv-x="800" d="M80 205l237 1229h164l240 -1229h-154l-45 235h-243l-46 -235h-153zM274 1690l347 127l100 -138l-408 -106zM307 594h185l-93 485z" />
<glyph unicode="&#xe2;" horiz-adv-x="800" d="M80 205l237 1229h164l240 -1229h-154l-45 235h-243l-46 -235h-153zM166 1688l196 178h74l195 -178l-96 -107l-136 131l-137 -131zM307 594h228l-136 485z" />
<glyph unicode="&#xe3;" horiz-adv-x="800" d="M80 205l237 1229h164l240 -1229h-154l-45 235h-243l-46 -235h-153zM113 1720l16 11q80 45 180 45q33 0 94 -25q64 -25 95 -25q28 0 56.5 6.5t43 12.5t14.5 8l17 8l55 -114l-16 -9q-77 -45 -174 -45q-37 0 -101 25q-61 24 -94 24q-27 0 -55 -6t-43 -12t-15 -8l-18 -10z M307 594h185l-93 485z" />
<glyph unicode="&#xe4;" horiz-adv-x="800" d="M80 205l237 1229h164l240 -1229h-154l-45 235h-243l-46 -235h-153zM162 1690q0 35 24.5 59.5t59.5 24.5q33 0 58.5 -24.5t25.5 -59.5t-24.5 -59.5t-59.5 -24.5t-59.5 24.5t-24.5 59.5zM307 594h185l-93 485zM469 1690q0 35 24.5 59.5t59.5 24.5q33 0 58.5 -24.5 t25.5 -59.5t-24.5 -59.5t-59.5 -24.5t-59.5 24.5t-24.5 59.5z" />
<glyph unicode="&#xe5;" horiz-adv-x="800" d="M80 205l237 1229h164l240 -1229h-154l-45 235h-243l-46 -235h-153zM174 1690q0 91 66 157q65 68 159 68q93 0 158 -68q68 -65 68 -157q0 -95 -68 -160q-66 -66 -158 -66q-94 0 -159.5 66t-65.5 160zM307 594h185l-93 485zM307 1690q0 -38 27 -65.5t65 -27.5q37 0 65 27.5 t28 65.5q0 37 -27.5 64.5t-65.5 27.5t-65 -27.5t-27 -64.5z" />
<glyph unicode="&#xe6;" horiz-adv-x="1122" d="M80 205l289 1229h651v-154h-328v-549h277v-153h-277v-220h328v-153h-492v235h-239l-58 -235h-151zM326 594h202v686h-34z" />
<glyph unicode="&#xe7;" d="M123 479v680q0 119 84 203t203 84q118 0 202 -84t84 -203v-110h-164v120q0 51 -35.5 87t-86.5 36t-87 -36t-36 -87v-700q0 -51 36 -87t87 -36t86.5 36t35.5 87v119h164v-109q0 -105 -69 -186t-170 -96l-27 -52h59q56 0 88.5 -40.5t32.5 -104.5q0 -73 -63 -126.5 t-168 -53.5q-53 0 -103 23t-73 51l-21 24l35 59q69 -75 162 -75q42 0 67 29t25 69q0 30 -20 51t-54 21h-125l72 127q-97 23 -159 101.5t-62 178.5z" />
<glyph unicode="&#xe8;" horiz-adv-x="716" d="M123 205v1229h491v-154h-327v-549h276v-153h-276v-220h327v-153h-491zM172 1679l45 138l346 -127l-39 -117z" />
<glyph unicode="&#xe9;" horiz-adv-x="716" d="M123 205v1229h491v-154h-327v-549h276v-153h-276v-220h327v-153h-491zM203 1690l346 127l45 -138l-352 -106z" />
<glyph unicode="&#xea;" horiz-adv-x="716" d="M123 205v1229h491v-154h-327v-549h276v-153h-276v-220h327v-153h-491zM135 1688l197 178h74l194 -178l-96 -107l-135 131l-138 -131z" />
<glyph unicode="&#xeb;" horiz-adv-x="716" d="M123 205v1229h491v-154h-327v-549h276v-153h-276v-220h327v-153h-491zM131 1689.5q0 34.5 25 59.5t59 25t59 -25t25 -59.5t-25 -59.5t-59 -25t-59 25t-25 59.5zM438 1689.5q0 34.5 25 59.5t59.5 25t59.5 -25t25 -59.5t-25 -59.5t-59.5 -25t-59.5 25t-25 59.5z" />
<glyph unicode="&#xec;" horiz-adv-x="440" d="M-74 1679l45 138l346 -127l-38 -117zM137 205v1229h164v-1229h-164z" />
<glyph unicode="&#xed;" horiz-adv-x="440" d="M121 1690l346 127l45 -138l-352 -106zM137 205v1229h164v-1229h-164z" />
<glyph unicode="&#xee;" horiz-adv-x="440" d="M-14 1688l196 178h74l195 -178l-97 -107l-135 131l-137 -131zM137 205v1229h164v-1229h-164z" />
<glyph unicode="&#xef;" horiz-adv-x="440" d="M-23 1690q0 35 24.5 59.5t59.5 24.5q33 0 58.5 -24.5t25.5 -59.5t-24.5 -59.5t-59.5 -24.5t-59.5 24.5t-24.5 59.5zM137 205v1229h164v-1229h-164zM285 1690q0 35 24.5 59.5t59.5 24.5q33 0 58.5 -24.5t25.5 -59.5t-24.5 -59.5t-59.5 -24.5t-59.5 24.5t-24.5 59.5z" />
<glyph unicode="&#xf0;" d="M25 578v153h98v703h287q118 0 202 -84t84 -203v-655q0 -119 -84 -203t-202 -84h-287v373h-98zM287 358h123q51 0 86.5 36t35.5 87v676q0 51 -35.5 87t-86.5 36h-123v-549h96v-153h-96v-220z" />
<glyph unicode="&#xf1;" horiz-adv-x="870" d="M123 205v1229h164l297 -801v801h164v-1229h-164l-297 794v-794h-164zM147 1720l17 11q80 45 180 45q33 0 94 -25q64 -25 94 -25q28 0 56.5 6.5t43.5 12.5t15 8l17 8l55 -114l-17 -9q-77 -45 -174 -45q-33 0 -100 25q-65 24 -94 24q-27 0 -55 -6t-43 -12t-15 -8l-18 -10z " />
<glyph unicode="&#xf2;" d="M123 479v680q0 119 84 203t203 84q118 0 202 -84t84 -203v-680q0 -119 -84 -203q-83 -83 -202 -83q-120 0 -203 83q-84 84 -84 203zM162 1679l45 138l346 -127l-39 -117zM287 469q0 -51 36 -87t87 -36t86.5 36t35.5 87v700q0 51 -35.5 87t-86.5 36t-87 -36t-36 -87v-700z " />
<glyph unicode="&#xf3;" d="M123 479v680q0 119 84 203t203 84q118 0 202 -84t84 -203v-680q0 -119 -84 -203q-83 -83 -202 -83q-120 0 -203 83q-84 84 -84 203zM264 1690l346 127l45 -138l-352 -106zM287 469q-1 -51 35.5 -87t87.5 -36t86.5 36t35.5 87v700q0 51 -35.5 87t-86.5 36t-87 -36t-36 -87 v-700z" />
<glyph unicode="&#xf4;" d="M123 479v680q0 119 84 203t203 84q118 0 202 -84t84 -203v-680q0 -119 -84 -203q-83 -83 -202 -83q-120 0 -203 83q-84 84 -84 203zM176 1688l197 178h73l195 -178l-96 -107l-135 131l-138 -131zM287 469q0 -51 36 -87t87 -36t86.5 36t35.5 87v700q0 51 -35.5 87 t-86.5 36t-87 -36t-36 -87v-700z" />
<glyph unicode="&#xf5;" d="M123 479v680q0 119 84 203t203 84q118 0 202 -84t84 -203v-680q0 -119 -84 -203q-83 -83 -202 -83q-120 0 -203 83q-84 84 -84 203zM123 1720l16 11q80 45 180 45q34 0 95 -25q64 -25 94 -25q28 0 56.5 6.5t43.5 12.5t15 8l16 8l55 -114l-16 -9q-77 -45 -174 -45 q-34 0 -101 25q-64 24 -94 24q-27 0 -55 -6t-42.5 -12t-14.5 -8l-19 -10zM287 469q0 -51 36 -87t87 -36t86.5 36t35.5 87v700q0 51 -35.5 87t-86.5 36t-87 -36t-36 -87v-700z" />
<glyph unicode="&#xf6;" d="M123 479v680q0 119 84 203t203 84q118 0 202 -84t84 -203v-680q0 -119 -84 -203q-83 -83 -202 -83q-120 0 -203 83q-84 84 -84 203zM172 1689.5q0 34.5 25 59.5t59 25t59 -25t25 -59.5t-25 -59.5t-59 -25t-59 25t-25 59.5zM287 469q0 -51 36 -87t87 -36t86.5 36t35.5 87 v700q0 51 -35.5 87t-86.5 36t-87 -36t-36 -87v-700zM479 1689.5q0 34.5 25 59.5t59.5 25t59.5 -25t25 -59.5t-25 -59.5t-59.5 -25t-59.5 25t-25 59.5z" />
<glyph unicode="&#xf7;" horiz-adv-x="921" d="M51 639v154h819v-154h-819zM367 289q0 39 26 65q29 29 68 29t65 -29q29 -26 29 -65t-29 -68q-26 -26 -65 -26t-68 26q-26 29 -26 68zM367 1149q0 39 26 65q29 29 68 29t65 -29q29 -26 29 -65t-29 -68q-26 -26 -65 -26t-68 26q-26 29 -26 68z" />
<glyph unicode="&#xf8;" d="M113 231l43 115q-33 56 -33 133v680q0 119 84 203t203 84q78 0 143 -39l20 53l134 -55l-43 -115q32 -57 32 -131v-680q0 -119 -84 -203q-83 -83 -202 -83q-83 0 -144 38l-20 -55zM287 694l209 561q-37 37 -86 37q-51 0 -87 -36t-36 -87v-475zM322 381q35 -35 88 -35 q51 0 86.5 36t35.5 87v471z" />
<glyph unicode="&#xf9;" d="M123 479v955h164v-965q0 -51 36 -87t87 -36t86.5 36t35.5 87v965h164v-955q0 -119 -84 -203q-83 -83 -202 -83q-120 0 -203 83q-84 84 -84 203zM162 1679l45 138l346 -127l-39 -117z" />
<glyph unicode="&#xfa;" d="M123 479v955h164v-965q-1 -51 35.5 -87t87.5 -36t86.5 36t35.5 87v965h164v-955q0 -119 -84 -203q-83 -83 -202 -83q-120 0 -203 83q-84 84 -84 203zM264 1690l346 127l45 -138l-352 -106z" />
<glyph unicode="&#xfb;" d="M123 479v955h164v-965q0 -51 36 -87t87 -36t86.5 36t35.5 87v965h164v-955q0 -119 -84 -203q-83 -83 -202 -83q-120 0 -203 83q-84 84 -84 203zM176 1688l197 178h73l195 -178l-96 -107l-135 131l-138 -131z" />
<glyph unicode="&#xfc;" d="M123 479v955h164v-965q0 -51 36 -87t87 -36t86.5 36t35.5 87v965h164v-955q0 -119 -84 -203q-83 -83 -202 -83q-120 0 -203 83q-84 84 -84 203zM172 1689.5q0 34.5 25 59.5t59 25t59 -25t25 -59.5t-25 -59.5t-59 -25t-59 25t-25 59.5zM479 1689.5q0 34.5 25 59.5t59.5 25 t59.5 -25t25 -59.5t-25 -59.5t-59.5 -25t-59.5 25t-25 59.5z" />
<glyph unicode="&#xfd;" horiz-adv-x="792" d="M86 1434h154l155 -596l156 596h154l-228 -856v-373h-164v373zM281 1690l346 127l45 -138l-353 -106z" />
<glyph unicode="&#xfe;" d="M123 205v1229h164v-181h123q118 0 202 -84t84 -202v-297q0 -119 -84 -203t-202 -84h-123v-178h-164zM287 537h123q51 0 86.5 35.5t35.5 86.5v318q0 51 -35.5 87t-86.5 36h-123v-563z" />
<glyph unicode="&#xff;" horiz-adv-x="792" d="M86 1434h154l155 -596l156 596h154l-228 -856v-373h-164v373zM159 1689.5q0 34.5 25 59.5t59.5 25t59.5 -25t25 -59.5t-25 -59.5t-59.5 -25t-59.5 25t-25 59.5zM467 1689.5q0 34.5 25 59.5t59 25t59 -25t25 -59.5t-25 -59.5t-59 -25t-59 25t-25 59.5z" />
<glyph unicode="&#x152;" horiz-adv-x="1474" d="M123 377v885q0 161 113 274q115 115 276 115q121 0 225 -72v59h635v-153h-471v-846h369v-154h-369v-331h471v-154h-635v57q-97 -69 -225 -69q-164 0 -276 112q-113 113 -113 277zM287 367q0 -94 65.5 -160t159.5 -66q91 0 155.5 62t69.5 153v924q-3 89 -71 154 q-63 63 -154 63q-96 0 -160 -67q-65 -65 -65 -158v-905z" />
<glyph unicode="&#x153;" horiz-adv-x="1126" d="M123 479v680q0 119 84 203t203 84q59 0 122 -29v17h492v-154h-328v-549h277v-153h-277v-220h328v-153h-492v14q-56 -26 -122 -26q-120 0 -203 83q-84 84 -84 203zM287 469q0 -51 36 -87t87 -36t86.5 36t35.5 87v711q-5 47 -40 79.5t-82 32.5q-51 0 -87 -36t-36 -87v-700z " />
<glyph unicode="&#x178;" horiz-adv-x="962" d="M80 1638h170l231 -862l232 862h170l-320 -1153v-485h-164v485zM223 1894q0 35 24.5 59.5t59.5 24.5q33 0 58.5 -24.5t25.5 -59.5t-24.5 -59.5t-59.5 -24.5t-59.5 24.5t-24.5 59.5zM571 1894q0 35 24.5 59.5t59.5 24.5q33 0 58.5 -24.5t25.5 -59.5t-24.5 -59.5 t-59.5 -24.5t-59.5 24.5t-24.5 59.5z" />
<glyph unicode="&#x2c6;" horiz-adv-x="675" d="M104 1688l197 178h74l194 -178l-96 -107l-135 131l-137 -131z" />
<glyph unicode="&#x2dc;" horiz-adv-x="409" d="M-82 1720l16 11q80 45 181 45q33 0 94 -25q64 -25 94 -25q28 0 56.5 6.5t43.5 12.5t15 8l16 8l55 -114l-16 -9q-77 -45 -174 -45q-33 0 -100 25q-65 24 -95 24q-27 0 -55 -6t-42.5 -12t-14.5 -8l-19 -10z" />
<glyph unicode="&#x2000;" horiz-adv-x="1060" />
<glyph unicode="&#x2001;" horiz-adv-x="2120" />
<glyph unicode="&#x2002;" horiz-adv-x="1060" />
<glyph unicode="&#x2003;" horiz-adv-x="2120" />
<glyph unicode="&#x2004;" horiz-adv-x="706" />
<glyph unicode="&#x2005;" horiz-adv-x="530" />
<glyph unicode="&#x2006;" horiz-adv-x="353" />
<glyph unicode="&#x2007;" horiz-adv-x="353" />
<glyph unicode="&#x2008;" horiz-adv-x="265" />
<glyph unicode="&#x2009;" horiz-adv-x="424" />
<glyph unicode="&#x200a;" horiz-adv-x="117" />
<glyph unicode="&#x2010;" horiz-adv-x="634" d="M61 696v154h512v-154h-512z" />
<glyph unicode="&#x2011;" horiz-adv-x="634" d="M61 696v154h512v-154h-512z" />
<glyph unicode="&#x2012;" horiz-adv-x="634" d="M61 696v154h512v-154h-512z" />
<glyph unicode="&#x2013;" horiz-adv-x="716" d="M61 696v154h594v-154h-594z" />
<glyph unicode="&#x2014;" horiz-adv-x="1126" d="M61 696v154h1004v-154h-1004z" />
<glyph unicode="&#x2018;" horiz-adv-x="409" d="M123 1090v122q0 41 11.5 97t25.5 92l14 33h113v-344h-164z" />
<glyph unicode="&#x2019;" horiz-adv-x="409" d="M123 1090v344h164v-123q0 -41 -11.5 -97t-25.5 -92l-14 -32h-113z" />
<glyph unicode="&#x201a;" horiz-adv-x="409" d="M123 205v342h164v-123q0 -41 -12 -96t-25 -90l-14 -33h-113z" />
<glyph unicode="&#x201c;" horiz-adv-x="768" d="M123 1090v122q0 41 11.5 97t25.5 92l14 33h113v-344h-164zM481 1090v122q0 84 39 189l12 33h113v-344h-164z" />
<glyph unicode="&#x201d;" horiz-adv-x="768" d="M123 1090v344h164v-123q0 -41 -11.5 -97t-25.5 -92l-14 -32h-113zM481 1090v344h164v-123q0 -84 -39 -189l-12 -32h-113z" />
<glyph unicode="&#x201e;" horiz-adv-x="768" d="M123 205v342h164v-123q0 -41 -12 -96t-25 -90l-14 -33h-113zM481 205v342h164v-123q0 -86 -39 -186l-12 -33h-113z" />
<glyph unicode="&#x2022;" horiz-adv-x="434" d="M123 776q0 41 27.5 68.5t66.5 27.5t66.5 -27.5t27.5 -68.5q0 -39 -26.5 -66.5t-67.5 -27.5t-67.5 27.5t-26.5 66.5z" />
<glyph unicode="&#x2026;" horiz-adv-x="1249" d="M111 289q0 38 28 66t66 28t66 -28t28 -66t-28 -66t-66 -28q-41 0 -67.5 27.5t-26.5 66.5zM511 289q0 39 26 65q29 29 68 29t65 -29q29 -26 29 -65t-29 -68q-26 -26 -65 -26t-68 26q-26 29 -26 68zM909 289q0 38 28.5 66t66.5 28t66 -28t28 -66t-28 -66t-66 -28 q-41 0 -68 27.5t-27 66.5z" />
<glyph unicode="&#x202f;" horiz-adv-x="424" />
<glyph unicode="&#x2039;" horiz-adv-x="729" d="M82 819l418 627l137 -90l-358 -537l358 -538l-137 -91z" />
<glyph unicode="&#x203a;" horiz-adv-x="729" d="M82 281l358 538l-358 537l137 90l418 -627l-418 -629z" />
<glyph unicode="&#x205f;" horiz-adv-x="530" />
<glyph unicode="&#x20ac;" horiz-adv-x="1288" d="M41 578v153h86q-6 44 -6 88q0 47 6 96h-86v154h131q72 166 229 272q156 105 347 105q256 0 438 -182l-109 -109q-137 137 -329 137q-124 0 -229 -60t-167 -163h539v-154h-596q-10 -62 -10 -96q0 -52 8 -88h465v-153h-410q61 -107 167 -169.5t233 -62.5q194 0 329 135 l109 -108q-180 -180 -438 -180q-198 0 -351 106q-160 111 -229 279h-127z" />
<glyph unicode="&#x2122;" horiz-adv-x="1349" d="M61 1485v153h433v-153h-134v-830h-163v830h-136zM653 655v983h164l123 -252l123 252h164v-983h-164v629l-51 -96h-142l-53 98v-631h-164z" />
<glyph unicode="&#x25fc;" horiz-adv-x="1433" d="M0 0v1434h1434v-1434h-1434z" />
</font>
</defs>
</svg>
