<?xml version="1.0" standalone="no"?>
<!DOCTYPE svg PUBLIC "-//W3C//DTD SVG 1.1//EN" "http://www.w3.org/Graphics/SVG/1.1/DTD/svg11.dtd" >
<svg>
<metadata>
Created by FontForge 20110222 at Wed Jul  2 07:03:40 2014
 By Orthosie Webhosting
Copyright (c) 2011 by Fabio Duarte Martins. All rights reserved.
</metadata>
<defs>
<font id="Catorze27Style1Black" horiz-adv-x="400" >
  <font-face 
    font-family="Catorze27Style1Black"
    font-weight="900"
    font-stretch="normal"
    units-per-em="1000"
    panose-1="0 0 0 0 0 0 0 0 0 0"
    ascent="924"
    descent="-76"
    x-height="700"
    cap-height="800"
    bbox="-66 -250 1019 1048"
    underline-thickness="50"
    underline-position="-50"
    unicode-range="U+0009-222B"
  />
<missing-glyph horiz-adv-x="500" 
d="M450 800v-800h-400v800h400zM100 750v-700h300v700h-300z" />
    <glyph glyph-name=".notdef" horiz-adv-x="500" 
d="M450 800v-800h-400v800h400zM100 750v-700h300v700h-300z" />
    <glyph glyph-name=".null" horiz-adv-x="0" 
 />
    <glyph glyph-name="nonmarkingreturn" horiz-adv-x="333" 
 />
    <glyph glyph-name="CR" unicode="&#x9;" horiz-adv-x="250" 
 />
    <glyph glyph-name="CR" unicode="&#xd;" horiz-adv-x="250" 
 />
    <glyph glyph-name="space" unicode=" " horiz-adv-x="250" 
 />
    <glyph glyph-name="exclam" unicode="!" horiz-adv-x="200" 
d="M55 111q-18 19 -18 45t18 44q19 18 45 18t44 -18q19 -18 19 -44t-19 -45q-18 -18 -44 -18t-45 18zM45 486v214h110v-214q0 -26 -5 -86q-7 -85 -8 -91l-5 -38h-74q-18 143 -18 215z" />
    <glyph glyph-name="quotedbl" unicode="&#x22;" horiz-adv-x="375" 
d="M45 614v86h110v-86q0 -38 -13 -108l-5 -21h-74q-18 77 -18 129zM220 614v86h110v-86q0 -54 -14 -108l-4 -21h-74q-18 77 -18 129z" />
    <glyph glyph-name="numbersign" unicode="#" horiz-adv-x="520" 
d="M99 462h-60v103h83l33 150l114 -31l-26 -119h89l33 150l114 -31l-26 -119h36v-103h-58l-27 -124h60v-103h-82l-32 -152l-116 33l26 119h-88l-32 -152l-116 33l26 119h-36v103h58zM309 462h-88l-27 -124h88z" />
    <glyph glyph-name="dollar" unicode="$" horiz-adv-x="390" 
d="M247 25h-103v75q-46 16 -75 56t-29 91v46h110v-53q-2 -27 21.5 -38.5t47 0t21.5 38.5v7q0 14 -7 25l-149 173q-44 47 -44 108q0 50 28.5 89.5t74.5 56.5v76h103v-76q46 -16 75 -56t29 -90v-46h-110v53q2 27 -21.5 38.5t-47 0t-21.5 -38.5v-7q0 -13 9 -27l148 -174
q43 -43 43 -105q0 -50 -29 -90t-74 -56v-76z" />
    <glyph glyph-name="percent" unicode="%" horiz-adv-x="760" 
d="M45 497v56q0 64 45 109q46 46 110 46t109 -46q46 -45 46 -109v-56q0 -64 -46 -110q-45 -45 -109 -45t-110 45q-45 47 -45 110zM155 560v-70q-2 -27 21.5 -38.5t47 0t21.5 38.5v70q2 27 -21.5 38.5t-47 0t-21.5 -38.5zM405 197v56q0 64 45 109q46 46 110 46t109 -46
q46 -45 46 -109v-56q0 -64 -46 -110q-45 -45 -109 -45t-110 45q-45 47 -45 110zM515 260v-70q-2 -27 21.5 -38.5t47 0t21.5 38.5v70q2 27 -21.5 38.5t-47 0t-21.5 -38.5zM582 658l-308 -616l-98 50l308 616z" />
    <glyph glyph-name="ampersand" unicode="&#x26;" 
d="M155 560v-108q0 -18 11.5 -30.5t29.5 -14.5h190v-103h-31v-57q0 -64 -46 -110q-45 -45 -109 -45t-110 45q-45 47 -45 110v5q0 60 40 103q-40 44 -40 104v94q0 64 45 109q46 46 110 46t109 -46q46 -45 46 -109v-57h-110v64q2 27 -21.5 38.5t-47 0t-21.5 -38.5zM245 304
h-49q-17 -1 -29 -14.5t-12 -30.5v-19q-2 -27 21.5 -38.5t47 0t21.5 38.5v64z" />
    <glyph glyph-name="quotesingle" unicode="'" horiz-adv-x="200" 
d="M45 614v86h110v-86q0 -38 -13 -108l-5 -21h-74q-18 77 -18 129z" />
    <glyph glyph-name="parenleft" unicode="(" horiz-adv-x="238" 
d="M84 820l15 49l99 -38q-1 -3 -3.5 -11.5t-5 -17.5t-4.5 -18q-10 -41 -22 -143q-13 -108 -13 -241q0 -129 12 -237q12 -107 24 -151l12 -43l-99 -38q-3 8 -17 53q-10 37 -26 157q-16 118 -16 259q0 137 15 254q14 114 29 166z" />
    <glyph glyph-name="parenright" unicode=")" horiz-adv-x="238" 
d="M52 788l-12 43l99 38q6 -14 16 -53q8 -28 26 -157q17 -125 17 -259q0 -136 -15 -255q-15 -114 -29 -165l-15 -49l-99 38q1 3 3.5 11.5t5 17.5t4.5 18q8 33 21 143q14 117 14 241q0 129 -12 237q-12 107 -24 151z" />
    <glyph glyph-name="asterisk" unicode="*" horiz-adv-x="340" 
d="M162 475l-16 -28l-77 45l16 27l16 18l-24 -4h-32v89h32l24 -5l-16 19l-16 28l77 44l16 -28l8 -23l8 23l16 28l77 -44l-16 -28l-16 -19l24 5h32v-89h-32l-24 4l16 -18l16 -28l-77 -44l-16 28l-8 23z" />
    <glyph glyph-name="plus" unicode="+" horiz-adv-x="506" 
d="M198 325h-170v103h170v172h110v-172h170v-103h-170v-175h-110v175z" />
    <glyph glyph-name="comma" unicode="," horiz-adv-x="200" 
d="M45 18v188h110v-67q0 -62 -27 -107l-9 -14h-74z" />
    <glyph glyph-name="hyphen" unicode="-" horiz-adv-x="306" 
d="M278 325h-250v103h250v-103z" />
    <glyph glyph-name="period" unicode="." horiz-adv-x="217" 
d="M55 111q-18 19 -18 45t18 44q19 18 45 18t44 -18q19 -18 19 -44t-19 -45q-18 -18 -44 -18t-45 18z" />
    <glyph glyph-name="slash" unicode="/" horiz-adv-x="582" 
d="M540 775l-400 -800l-98 50l400 800z" />
    <glyph glyph-name="zero" unicode="0" horiz-adv-x="500" 
d="M45 197v406q0 85 60 145t145 60t145 -60t60 -145v-406q0 -85 -60 -145t-145 -60q-86 0 -146 60q-59 61 -59 145zM155 610v-420q0 -40 27.5 -67.5t67.5 -27.5q39 0 67 27.5t28 67.5v420q0 39 -28 67t-67 28q-40 0 -67.5 -28t-27.5 -67z" />
    <glyph glyph-name="one" unicode="1" horiz-adv-x="315" 
d="M260 0h-110v697h-125v103h235v-800z" />
    <glyph glyph-name="two" unicode="2" horiz-adv-x="500" 
d="M455 0h-410v103l286 443q15 22 15 50v14q0 39 -28 67t-67 28q-40 0 -67.5 -28t-27.5 -67v-43h-110v36q0 85 60 145t145 60t145 -60t60 -145q0 -65 -39 -119l-246 -381h284v-103z" />
    <glyph glyph-name="three" unicode="3" horiz-adv-x="500" 
d="M274 697h-221v103h384v-103l-155 -127q74 -10 123 -69q50 -58 50 -133v-171q0 -85 -60 -145q-59 -60 -145 -60q-85 0 -145 60t-60 145v36h110v-43q0 -40 28 -67.5t67 -27.5q40 0 67.5 27.5t27.5 67.5v185q0 39 -27.5 67t-67.5 28h-129v103z" />
    <glyph glyph-name="four" unicode="4" horiz-adv-x="479" 
d="M324 220h-279v103l279 477h110v-800h-110v220zM324 581l-151 -258h151v258z" />
    <glyph glyph-name="five" unicode="5" horiz-adv-x="500" 
d="M345 190v185q0 39 -27.5 67t-67.5 28h-197v330h384v-103h-274v-124h87q85 0 145 -60t60 -145v-171q0 -85 -60 -145q-59 -60 -145 -60q-85 0 -145 60t-60 145v36h110v-43q0 -40 28 -67.5t67 -27.5q40 0 67.5 27.5t27.5 67.5z" />
    <glyph glyph-name="six" unicode="6" horiz-adv-x="500" 
d="M250 566q85 0 145 -60t60 -145v-164q0 -85 -60 -145t-145 -60q-86 0 -146 60q-59 61 -59 145v406q0 85 60 145t145 60t145 -60t60 -145v-22h-110v29q0 39 -28 67t-67 28q-40 0 -67.5 -28t-27.5 -67v-68q45 24 95 24zM155 372v-182q0 -40 27.5 -67.5t67.5 -27.5
q39 0 67 27.5t28 67.5v178q0 40 -28 67.5t-67 27.5t-66 -26t-29 -65z" />
    <glyph glyph-name="seven" unicode="7" horiz-adv-x="452" 
d="M279 697h-268v103h382v-103l-170 -697h-114z" />
    <glyph glyph-name="eight" unicode="8" horiz-adv-x="482" 
d="M36 197q0 97 75 157l51 49l-43 43q-75 60 -75 157q0 85 57 145q58 60 140 60q81 0 140 -60q58 -59 58 -145q0 -96 -76 -157l-44 -42l53 -50q74 -62 74 -157q0 -85 -60 -145t-145 -60t-145 60t-60 145zM336 190v7q0 40 -30 68l-65 63l-65 -63q-30 -28 -30 -68v-7
q0 -39 27.5 -67t67.5 -28t67.5 28t27.5 67zM154 610v-7q0 -43 30 -69l57 -55l57 55q31 25 31 69v7q0 39 -25.5 67t-62.5 28t-62 -28t-25 -67z" />
    <glyph glyph-name="nine" unicode="9" horiz-adv-x="500" 
d="M45 439v164q0 85 60 145t145 60q86 0 145 -60q60 -60 60 -145v-406q0 -85 -60 -145t-145 -60t-145 60t-60 145v22h110v-29q0 -39 28 -67t67 -28q40 0 67.5 28t27.5 67v67q-44 -23 -95 -23q-85 0 -145 60t-60 145zM345 428v182q0 40 -27.5 67.5t-67.5 27.5
q-39 0 -67 -27.5t-28 -67.5v-178q0 -40 28 -67.5t67 -27.5q38 0 66 26.5t29 64.5z" />
    <glyph glyph-name="colon" unicode=":" horiz-adv-x="217" 
d="M55 111q-18 19 -18 45t18 44q19 18 45 18t44 -18q19 -18 19 -44t-19 -45q-18 -18 -44 -18t-45 18zM55 501q-18 19 -18 45t18 44q19 18 45 18t44 -18q19 -18 19 -44t-19 -45q-18 -18 -44 -18t-45 18z" />
    <glyph glyph-name="semicolon" unicode=";" horiz-adv-x="217" 
d="M45 18v188h110v-67q0 -62 -27 -107l-9 -14h-74zM55 501q-18 19 -18 45t18 44q19 18 45 18t44 -18q19 -18 19 -44t-19 -45q-18 -18 -44 -18t-45 18z" />
    <glyph glyph-name="less" unicode="&#x3c;" horiz-adv-x="367" 
d="M34 400l204 308l93 -60l-165 -248l165 -248l-93 -60z" />
    <glyph glyph-name="equal" unicode="=" horiz-adv-x="456" 
d="M428 227h-400v103h400v-103zM428 420h-400v103h400v-103z" />
    <glyph glyph-name="greater" unicode="&#x3e;" horiz-adv-x="367" 
d="M199 400l-165 248l92 60l205 -308l-205 -308l-92 60z" />
    <glyph glyph-name="question" unicode="?" 
d="M155 561v-54h-110v47q0 64 45 109q46 46 110 46t109 -46q46 -45 46 -109v-22q0 -32 -16 -69t-39 -58q-3 -4 -16 -21.5t-15 -21.5q-14 -19 -14 -41v-5q0 -13 -11 -37l-3 -8h-82q-14 33 -14 45v5q0 33 16 70t39 57l31 43q14 17 14 41v29q2 27 -21.5 38.5t-47 0t-21.5 -38.5
zM155 111q-18 19 -18 45t18 44q19 18 45 18t44 -18q19 -18 19 -44t-19 -45q-18 -18 -44 -18t-45 18z" />
    <glyph glyph-name="at" unicode="@" horiz-adv-x="800" 
d="M245 347v106q0 64 45 109q46 46 110 46t109 -46q46 -45 46 -109v-110q2 -18 14.5 -29.5t30.5 -11.5q19 0 32 13t13 32v113q0 101 -72 173t-173 72q-102 0 -174 -72q-71 -73 -71 -173v-112q0 -101 71 -174q73 -71 174 -71h175v-103h-175q-149 0 -252 103t-103 252v98
q0 148 103 251q104 104 252 104q147 0 251 -104t104 -251v-106q0 -64 -46 -110q-45 -45 -109 -45q-58 0 -101 37q-43 -37 -99 -37q-64 0 -110 45q-45 47 -45 110zM445 340v120q2 27 -21.5 38.5t-47 0t-21.5 -38.5v-120q-2 -27 21.5 -38.5t47 0t21.5 38.5z" />
    <glyph glyph-name="A" unicode="A" horiz-adv-x="502" 
d="M195 800h110l175 -800h-112l-26 120h-183l-25 -120h-112zM321 223l-71 338l-70 -338h141z" />
    <glyph glyph-name="B" unicode="B" horiz-adv-x="500" 
d="M250 0h-205v800h205q85 0 145 -60t60 -145v-83q0 -92 -69 -154q69 -62 69 -153q0 -85 -60 -145t-145 -60zM250 697h-95v-287h99q39 2 65 29t26 66v97q0 39 -28 67t-67 28zM250 307h-95v-204h95q39 0 67 27.5t28 67.5v14q0 39 -28 67t-67 28z" />
    <glyph glyph-name="C" unicode="C" horiz-adv-x="500" 
d="M155 610v-420q0 -40 27.5 -67.5t67.5 -27.5q39 0 67 27.5t28 67.5v43h110v-36q0 -85 -60 -145t-145 -60q-86 0 -146 60q-59 61 -59 145v406q0 85 60 145t145 60t145 -60t60 -145v-36h-110v43q0 39 -28 67t-67 28q-40 0 -67.5 -28t-27.5 -67z" />
    <glyph glyph-name="D" unicode="D" horiz-adv-x="500" 
d="M250 0h-205v800h205q85 0 145 -60t60 -145v-390q0 -85 -60 -145t-145 -60zM250 697h-95v-594h95q39 0 67 27.5t28 67.5v404q0 39 -28 67t-67 28z" />
    <glyph glyph-name="E" unicode="E" horiz-adv-x="420" 
d="M379 0h-334v800h334v-103h-224v-371h174v-102h-174v-121h224v-103z" />
    <glyph glyph-name="F" unicode="F" horiz-adv-x="415" 
d="M155 0h-110v800h349v-103h-239v-346h189v-102h-189v-249z" />
    <glyph glyph-name="G" unicode="G" horiz-adv-x="500" 
d="M155 610v-420q0 -40 27.5 -67.5t67.5 -27.5q39 0 67 27.5t28 67.5v34h-95v102h205v-129q0 -85 -60 -145t-145 -60q-86 0 -146 60q-59 61 -59 145v406q0 85 60 145t145 60t145 -60t60 -145v-36h-110v43q0 39 -28 67t-67 28q-40 0 -67.5 -28t-27.5 -67z" />
    <glyph glyph-name="H" unicode="H" horiz-adv-x="500" 
d="M455 0h-110v224h-190v-224h-110v800h110v-474h190v474h110v-800z" />
    <glyph glyph-name="I" unicode="I" horiz-adv-x="217" 
d="M164 0h-110v800h110v-800z" />
    <glyph glyph-name="J" unicode="J" horiz-adv-x="200" 
d="M0 -250h-64v103h64q19 0 32 13t13 32v902h110v-895q0 -64 -46 -109q-45 -46 -109 -46z" />
    <glyph glyph-name="K" unicode="K" horiz-adv-x="500" 
d="M155 0h-110v800h110v-339l177 339h124l-174 -332l181 -468h-118l-130 338l-60 -114v-224z" />
    <glyph glyph-name="L" unicode="L" horiz-adv-x="409" 
d="M368 0h-323v800h110v-697h213v-103z" />
    <glyph glyph-name="M" unicode="M" horiz-adv-x="550" 
d="M395 800h110v-800h-110v581l-65 -112h-110l-65 112v-581h-110v800h110l120 -206z" />
    <glyph glyph-name="N" unicode="N" horiz-adv-x="525" 
d="M480 0h-110l-215 514v-514h-110v800h110l215 -515v515h110v-800z" />
    <glyph glyph-name="O" unicode="O" horiz-adv-x="500" 
d="M45 197v406q0 85 60 145t145 60t145 -60t60 -145v-406q0 -85 -60 -145t-145 -60q-86 0 -146 60q-59 61 -59 145zM155 610v-420q0 -40 27.5 -67.5t67.5 -27.5q39 0 67 27.5t28 67.5v420q0 39 -28 67t-67 28q-40 0 -67.5 -28t-27.5 -67z" />
    <glyph glyph-name="P" unicode="P" horiz-adv-x="500" 
d="M155 0h-110v800h205q85 0 145 -60t60 -145v-166q0 -85 -60 -145t-145 -60h-95v-224zM250 697h-95v-371h95q39 0 67 28t28 67v181q0 39 -28 67t-67 28z" />
    <glyph glyph-name="Q" unicode="Q" horiz-adv-x="500" 
d="M305 -150h-110v150q-66 16 -108 71t-42 126v406q0 85 60 145t145 60t145 -60t60 -145v-406q0 -70 -43 -125q-42 -55 -107 -72v-150zM155 610v-420q0 -40 27.5 -67.5t67.5 -27.5q39 0 67 27.5t28 67.5v420q0 39 -28 67t-67 28q-40 0 -67.5 -28t-27.5 -67z" />
    <glyph glyph-name="R" unicode="R" horiz-adv-x="500" 
d="M155 224v-224h-110v800h205q85 0 145 -60t60 -145v-166q0 -94 -70 -154q70 -61 70 -154v-121h-110v129q0 37 -27 66q-26 27 -64 29h-99zM250 697h-95v-371h99q38 2 64.5 29.5t26.5 65.5v181q0 39 -28 67t-67 28z" />
    <glyph glyph-name="S" unicode="S" horiz-adv-x="490" 
d="M40 197v36h110v-43q0 -39 28 -67t67 -28q40 0 67.5 28t27.5 67v7q0 41 -29 68l-188 181q-75 62 -75 157q0 85 57 145q59 60 140 60q82 0 139 -60q58 -59 58 -145v-36h-110v43q0 39 -25 67t-62 28t-62 -28t-25 -67v-7q0 -43 30 -69l188 -180q74 -62 74 -157
q0 -85 -60 -145t-145 -60t-145 60t-60 145z" />
    <glyph glyph-name="T" unicode="T" horiz-adv-x="419" 
d="M154 697h-130v103h371v-103h-131v-697h-110v697z" />
    <glyph glyph-name="U" unicode="U" horiz-adv-x="500" 
d="M155 800v-610q0 -40 27.5 -67.5t67.5 -27.5q39 0 67 27.5t28 67.5v610h110v-603q0 -85 -60 -145t-145 -60q-86 0 -146 60q-59 61 -59 145v603h110z" />
    <glyph glyph-name="V" unicode="V" horiz-adv-x="473" 
d="M292 0h-110l-160 800h112l103 -511l102 511h111z" />
    <glyph glyph-name="W" unicode="W" horiz-adv-x="550" 
d="M155 0h-110v800h110v-581l65 112h110l65 -112v581h110v-800h-110l-120 206z" />
    <glyph glyph-name="X" unicode="X" horiz-adv-x="478" 
d="M327 800h117l-143 -397l151 -403h-118l-98 261l-92 -261h-118l151 417l-143 383h118l90 -241z" />
    <glyph glyph-name="Y" unicode="Y" horiz-adv-x="470" 
d="M290 0h-110v224l-158 576h114l99 -382l99 382h114l-158 -576v-224z" />
    <glyph glyph-name="Z" unicode="Z" horiz-adv-x="490" 
d="M316 697h-263v103h384v-103l-271 -594h279v-103h-400v103z" />
    <glyph glyph-name="bracketleft" unicode="[" horiz-adv-x="325" 
d="M280 747h-125v-694h125v-103h-235v900h235v-103z" />
    <glyph glyph-name="backslash" unicode="\" horiz-adv-x="582" 
d="M140 825l400 -800l-98 -50l-400 800z" />
    <glyph glyph-name="bracketright" unicode="]" horiz-adv-x="325" 
d="M45 53h125v694h-125v103h235v-900h-235v103z" />
    <glyph glyph-name="underscore" unicode="_" horiz-adv-x="500" 
d="M472 -96h-444v96h444v-96z" />
    <glyph glyph-name="grave" unicode="`" horiz-adv-x="250" 
d="M53 901l176 -67l-25 -78l-181 53z" />
    <glyph glyph-name="a" unicode="a" horiz-adv-x="391" 
d="M141 700h110l118 -600h-103l-19 100h-103l-19 -100h-103zM227 303l-31 163l-32 -163h63z" />
    <glyph glyph-name="b" unicode="b" 
d="M200 100h-155v600h155q64 0 109 -46q46 -45 46 -109v-83q0 -60 -40 -104q40 -43 40 -103q0 -64 -46 -110q-45 -45 -109 -45zM200 597h-45v-187h48q18 2 30 14.5t12 30.5v97q0 19 -13 32t-32 13zM203 307h-48v-104h45q19 0 32 13t13 32v14q0 17 -12 30t-30 15z" />
    <glyph glyph-name="c" unicode="c" 
d="M155 560v-320q-2 -27 21.5 -38.5t47 0t21.5 38.5v64h110v-57q0 -64 -46 -110q-45 -45 -109 -45t-110 45q-45 47 -45 110v306q0 64 45 109q46 46 110 46t109 -46q46 -45 46 -109v-57h-110v64q2 27 -21.5 38.5t-47 0t-21.5 -38.5z" />
    <glyph glyph-name="d" unicode="d" 
d="M200 100h-155v600h155q64 0 109 -46q46 -45 46 -109v-290q0 -64 -46 -110q-45 -45 -109 -45zM200 597h-45v-394h45q19 0 32 13t13 32v304q0 19 -13 32t-32 13z" />
    <glyph glyph-name="e" unicode="e" horiz-adv-x="341" 
d="M300 100h-255v600h255v-103h-145v-226h120v-102h-120v-66h145v-103z" />
    <glyph glyph-name="f" unicode="f" horiz-adv-x="321" 
d="M155 100h-110v600h255v-103h-145v-226h120v-102h-120v-169z" />
    <glyph glyph-name="g" unicode="g" 
d="M155 560v-320q-2 -27 21.5 -38.5t47 0t21.5 38.5v32h-45v103h155v-128q0 -64 -46 -110q-45 -45 -109 -45t-110 45q-45 47 -45 110v306q0 64 45 109q46 46 110 46t109 -46q46 -45 46 -109v-57h-110v64q2 27 -21.5 38.5t-47 0t-21.5 -38.5z" />
    <glyph glyph-name="h" unicode="h" 
d="M355 100h-110v169h-90v-169h-110v600h110v-329h90v329h110v-600z" />
    <glyph glyph-name="i" unicode="i" horiz-adv-x="217" 
d="M164 100h-110v600h110v-600z" />
    <glyph glyph-name="j" unicode="j" horiz-adv-x="200" 
d="M0 -58h-39v103h39q19 0 32 13t13 32v610h110v-603q0 -64 -46 -109q-45 -46 -109 -46z" />
    <glyph glyph-name="k" unicode="k" 
d="M155 100h-110v600h110v-185l87 185h121l-119 -252l119 -348h-116l-70 205l-22 -48v-157z" />
    <glyph glyph-name="l" unicode="l" horiz-adv-x="309" 
d="M275 100h-230v600h110v-497h120v-103z" />
    <glyph glyph-name="m" unicode="m" horiz-adv-x="450" 
d="M405 100h-110v362l-22 -42h-96l-22 42v-362h-110v600h110l70 -146l70 146h110v-600z" />
    <glyph glyph-name="n" unicode="n" horiz-adv-x="425" 
d="M380 100h-110l-115 310v-310h-110v600h110l115 -311v311h110v-600z" />
    <glyph glyph-name="o" unicode="o" 
d="M45 247v306q0 64 45 109q46 46 110 46t109 -46q46 -45 46 -109v-306q0 -64 -46 -110q-45 -45 -109 -45t-110 45q-45 47 -45 110zM155 560v-320q-2 -27 21.5 -38.5t47 0t21.5 38.5v320q2 27 -21.5 38.5t-47 0t-21.5 -38.5z" />
    <glyph glyph-name="p" unicode="p" 
d="M155 100h-110v600h155q64 0 109 -46q46 -45 46 -109v-121q0 -64 -46 -110q-45 -45 -109 -45h-45v-169zM200 597h-45v-226h45q19 0 32 13.5t13 31.5v136q0 19 -13 32t-32 13z" />
    <glyph glyph-name="q" unicode="q" 
d="M255 0h-110v102q-45 17 -72.5 56.5t-27.5 88.5v306q0 64 45 109q46 46 110 46t109 -46q46 -45 46 -109v-306q0 -48 -27.5 -88t-72.5 -57v-102zM155 560v-320q-2 -27 21.5 -38.5t47 0t21.5 38.5v320q2 27 -21.5 38.5t-47 0t-21.5 -38.5z" />
    <glyph glyph-name="r" unicode="r" 
d="M155 100h-110v600h155q64 0 109 -46q46 -45 46 -109v-121q0 -61 -40 -104q40 -44 40 -104v-116h-110v124q0 18 -13 31.5t-32 13.5h-45v-169zM200 597h-45v-226h45q19 0 32 13.5t13 31.5v136q0 19 -13 32t-32 13z" />
    <glyph glyph-name="s" unicode="s" horiz-adv-x="390" 
d="M40 247v46h110v-53q-2 -27 21.5 -38.5t47 0t21.5 38.5v7q0 14 -7 25l-149 173q-44 47 -44 108q0 64 45 109q46 46 110 46t109 -46q46 -45 46 -109v-46h-110v53q2 27 -21.5 38.5t-47 0t-21.5 -38.5v-7q0 -13 9 -27l148 -174q43 -43 43 -105q0 -64 -46 -110
q-45 -45 -109 -45q-63 0 -110 45q-45 47 -45 110z" />
    <glyph glyph-name="t" unicode="t" horiz-adv-x="319" 
d="M104 597h-80v103h271v-103h-81v-497h-110v497z" />
    <glyph glyph-name="u" unicode="u" 
d="M155 700v-460q-2 -27 21.5 -38.5t47 0t21.5 38.5v460h110v-453q0 -64 -46 -110q-45 -45 -109 -45t-110 45q-45 47 -45 110v453h110z" />
    <glyph glyph-name="v" unicode="v" horiz-adv-x="391" 
d="M251 100h-110l-119 600h103l71 -366l70 366h103z" />
    <glyph glyph-name="w" unicode="w" horiz-adv-x="450" 
d="M45 700h110v-362l22 42h96l22 -42v362h110v-600h-110l-70 146l-70 -146h-110v600z" />
    <glyph glyph-name="x" unicode="x" horiz-adv-x="391" 
d="M238 700h116l-99 -307l99 -293h-116l-45 142l-41 -142h-116l99 307l-99 293h116l45 -143z" />
    <glyph glyph-name="y" unicode="y" horiz-adv-x="373" 
d="M242 100h-110v169l-113 431h102l66 -258l65 258h102l-112 -431v-169z" />
    <glyph glyph-name="z" unicode="z" 
d="M233 597h-180v103h294v-103l-188 -394h196v-103h-310v103z" />
    <glyph glyph-name="braceleft" unicode="{" horiz-adv-x="391" 
d="M192 850h154v-103h-124v-272q0 -41 -27 -75q27 -34 27 -75v-272h124v-103h-154q-34 0 -57 23t-23 57v295q0 2 -2 4l-70 71l70 71q2 2 2 4v295q0 34 23 57t57 23z" />
    <glyph glyph-name="bar" unicode="|" horiz-adv-x="217" 
d="M164 -50h-110v900h110v-900z" />
    <glyph glyph-name="braceright" unicode="}" horiz-adv-x="391" 
d="M199 -50h-154v103h124v272q0 40 26 75q-26 35 -26 75v272h-124v103h154q33 0 56.5 -23t23.5 -57v-295q0 -2 2 -4l70 -71l-70 -71q-2 -2 -2 -4v-295q0 -34 -23 -57t-57 -23z" />
    <glyph glyph-name="nbspace" unicode="&#xa0;" horiz-adv-x="250" 
 />
    <glyph glyph-name="exclamdown" unicode="&#xa1;" horiz-adv-x="200" 
d="M55 600q-18 18 -18 44t18 44q19 19 45 19t44 -19q19 -18 19 -44t-19 -44q-18 -18 -44 -18t-45 18zM155 100h-110v214q0 38 4 86q5 56 9 92l5 37h74q18 -143 18 -215v-214z" />
    <glyph glyph-name="cent" unicode="&#xa2;" 
d="M252 25h-103v75q-46 16 -75 56t-29 91v306q0 50 28.5 89.5t74.5 56.5v76h103v-76q46 -16 75 -56t29 -90v-57h-110v64q2 27 -21.5 38.5t-47 0t-21.5 -38.5v-320q-2 -27 21.5 -38.5t47 0t21.5 38.5v64h110v-57q0 -50 -29 -90t-74 -56v-76z" />
    <glyph glyph-name="sterling" unicode="&#xa3;" horiz-adv-x="422" 
d="M391 100h-373v103h56v350q0 64 45 109q46 46 110 46t109 -46q46 -45 46 -109v-57h-110v64q0 19 -13.5 32t-31.5 13q-19 0 -32 -13t-13 -32v-141h130v-103h-130v-113h207v-103z" />
    <glyph glyph-name="currency" unicode="&#xa4;" horiz-adv-x="500" 
d="M455 106h-110q0 31 -20.5 54t-49.5 23h-53q-27 -1 -47 -24t-20 -53h-110q0 76 54 128q-54 54 -54 129v74q0 75 54 128q-54 54 -54 129h110q0 -31 20.5 -54t49.5 -23h53q27 1 47 24.5t20 52.5h110q0 -77 -55 -129q55 -52 55 -128v-74q0 -77 -55 -129q55 -52 55 -128z
M155 444v-88q0 -28 18.5 -48t45.5 -22h56q29 0 49.5 20.5t20.5 49.5v88q0 28 -18.5 48t-45.5 22h-56q-29 0 -49.5 -20.5t-20.5 -49.5z" />
    <glyph glyph-name="yen" unicode="&#xa5;" horiz-adv-x="393" 
d="M132 306h-111v103h84l-76 291h102l66 -258l65 258h102l-76 -291h83v-103h-110l-9 -37v-23h119v-102h-119v-44h-110v44h-121v102h121v23z" />
    <glyph glyph-name="brokenbar" unicode="&#xa6;" horiz-adv-x="217" 
d="M164 -50h-110v418h110v-418zM54 850h110v-418h-110v418z" />
    <glyph glyph-name="section" unicode="&#xa7;" horiz-adv-x="415" 
d="M40 147v46h110v-53q-2 -27 21.5 -38.5t47 0t21.5 38.5v7q0 14 -7 25l-149 173q-44 47 -44 108q0 67 51 114q-26 38 -26 86q0 64 45 109q46 46 110 46t109 -46q46 -45 46 -109v-46h-110v53q2 27 -21.5 38.5t-47 0t-21.5 -38.5v-7q0 -13 9 -27l148 -174q43 -43 43 -105
q0 -69 -52 -115q27 -38 27 -85q0 -64 -46 -110q-45 -45 -109 -45q-63 0 -110 45q-45 47 -45 110zM150 460v-7q0 -13 9 -27l96 -114q10 13 10 28v7q0 14 -7 25l-99 115q-9 -12 -9 -27z" />
    <glyph glyph-name="dieresis" unicode="&#xa8;" 
d="M85 785q-16 17 -16 40t16 39q17 17 40 17t39 -17q17 -16 17 -39t-17 -40q-16 -16 -39 -16t-40 16zM235 785q-16 17 -16 40t16 39q17 17 40 17t39 -17q17 -16 17 -39t-17 -40q-16 -16 -39 -16t-40 16z" />
    <glyph glyph-name="copyright" unicode="&#xa9;" horiz-adv-x="800" 
d="M45 347v106q0 148 103 251q104 104 252 104q147 0 251 -104t104 -251v-106q0 -148 -104 -252q-103 -103 -251 -103q-149 0 -252 103t-103 252zM155 460v-120q0 -101 71 -174q73 -71 174 -71q100 0 173 71q72 72 72 174v120q0 101 -72 173t-173 72q-102 0 -174 -72
q-71 -73 -71 -173zM355 460v-120q-2 -27 21.5 -38.5t47 0t21.5 38.5v21h110v-14q0 -64 -46 -110q-45 -45 -109 -45t-110 45q-45 47 -45 110v106q0 64 45 109q46 46 110 46t109 -46q46 -45 46 -109v-14h-110v21q2 27 -21.5 38.5t-47 0t-21.5 -38.5z" />
    <glyph glyph-name="ordfeminine" unicode="&#xaa;" 
d="M200 708q22 0 49 -8h106v-293h-103q-24 -9 -52 -9q-64 0 -110 45q-45 47 -45 110q0 64 45 109q46 46 110 46zM155 560v-14q-2 -27 21.5 -38.5t47 0t21.5 38.5v14q2 27 -21.5 38.5t-47 0t-21.5 -38.5z" />
    <glyph glyph-name="guillemotleft" unicode="&#xab;" horiz-adv-x="587" 
d="M34 400l204 308l93 -60l-165 -248l165 -248l-93 -60zM254 400l204 308l93 -60l-165 -248l165 -248l-93 -60z" />
    <glyph glyph-name="logicalnot" unicode="&#xac;" horiz-adv-x="473" 
d="M318 325h-290v103h400v-228h-110v125z" />
    <glyph glyph-name="registered" unicode="&#xae;" horiz-adv-x="800" 
d="M45 347v106q0 148 103 251q104 104 252 104q147 0 251 -104t104 -251v-106q0 -148 -104 -252q-103 -103 -251 -103q-149 0 -252 103t-103 252zM155 460v-120q0 -101 71 -174q73 -71 174 -71q100 0 173 71q72 72 72 174v120q0 101 -72 173t-173 72q-102 0 -174 -72
q-71 -73 -71 -173zM403 269h-158v331h155q64 0 109 -46q46 -45 46 -109v-21q0 -61 -40 -104q40 -44 40 -104v-16h-110v24q0 17 -12 30t-30 15zM400 497h-45v-126h45q19 0 32 13.5t13 31.5v36q0 19 -13 32t-32 13zM355 200h-110v69h110v-69z" />
    <glyph glyph-name="overscore" unicode="&#xaf;" horiz-adv-x="200" 
d="M225 777h-250v89h250v-89z" />
    <glyph glyph-name="degree" unicode="&#xb0;" 
d="M90 443q-45 47 -45 110q0 64 45 109q46 46 110 46t109 -46q46 -45 46 -109t-46 -110q-45 -45 -109 -45t-110 45zM155 560v-14q-2 -27 21.5 -38.5t47 0t21.5 38.5v14q2 27 -21.5 38.5t-47 0t-21.5 -38.5z" />
    <glyph glyph-name="plusminus" unicode="&#xb1;" horiz-adv-x="506" 
d="M198 425h-163v103h163v165h110v-165h163v-103h-163v-168h-110v168zM471 77h-436v103h436v-103z" />
    <glyph glyph-name="acute" unicode="&#xb4;" horiz-adv-x="250" 
d="M229 809l-181 -53l-25 78l176 67z" />
    <glyph glyph-name="mu" unicode="&#xb5;" horiz-adv-x="450" 
d="M405 100h-110v362l-22 -42h-96l-22 42v-362h-110v600h110l70 -146l70 146h110v-600z" />
    <glyph glyph-name="paragraph" unicode="&#xb6;" horiz-adv-x="445" 
d="M200 700h221v-103h-66v-363q0 -64 -46 -110q-45 -45 -109 -45h-39v102h39q19 0 32 13.5t13 31.5v43h-45q-64 0 -110 45q-45 46 -45 110v121q0 64 45 109q46 46 110 46z" />
    <glyph glyph-name="middot" unicode="&#xb7;" horiz-adv-x="217" 
d="M55 255q-18 19 -18 45t18 44q19 18 45 18t44 -18q19 -18 19 -44t-19 -45q-18 -18 -44 -18t-45 18z" />
    <glyph glyph-name="cedilla" unicode="&#xb8;" horiz-adv-x="525" 
d="M160 -69l43 69h74l-13 -21h35q62 0 62 -79q0 -37 -35 -69t-97 -32q-31 0 -59.5 13.5t-41.5 29.5l-12 14l23 38l12 -12q38 -31 78 -31q18 0 29 14.5t11 34.5q0 31 -35 31h-74z" />
    <glyph glyph-name="ordmasculine" unicode="&#xba;" 
d="M90 443q-45 47 -45 110q0 64 45 109q46 46 110 46t109 -46q46 -45 46 -109t-46 -110q-45 -45 -109 -45t-110 45zM155 560v-14q-2 -27 21.5 -38.5t47 0t21.5 38.5v14q2 27 -21.5 38.5t-47 0t-21.5 -38.5z" />
    <glyph glyph-name="guillemotright" unicode="&#xbb;" horiz-adv-x="587" 
d="M419 400l-165 248l92 60l205 -308l-205 -308l-92 60zM199 400l-165 248l92 60l205 -308l-205 -308l-92 60z" />
    <glyph glyph-name="questiondown" unicode="&#xbf;" 
d="M245 241v53h110v-46q0 -64 -46 -110q-45 -45 -109 -45t-110 45q-45 46 -45 110v21q0 32 16 69t39 58q2 4 15 21.5t16 21.5q14 19 14 41v5q0 13 11 37l3 8h82q14 -33 14 -45v-5q0 -32 -16 -69t-39 -58l-31 -42q-14 -17 -14 -42v-28q-2 -27 21.5 -38.5t47 0t21.5 38.5z
M244 690q19 -18 19 -44t-19 -45q-18 -18 -44 -18t-45 18q-18 19 -18 45t18 44q19 19 45 19t44 -19z" />
    <glyph glyph-name="Agrave" unicode="&#xc0;" horiz-adv-x="502" 
d="M195 800h110l175 -800h-112l-26 120h-183l-25 -120h-112zM321 223l-71 338l-70 -338h141zM135 1001l176 -67l-25 -78l-181 53z" />
    <glyph glyph-name="Aacute" unicode="&#xc1;" horiz-adv-x="502" 
d="M195 800h110l175 -800h-112l-26 120h-183l-25 -120h-112zM321 223l-71 338l-70 -338h141zM395 909l-181 -53l-25 78l176 67z" />
    <glyph glyph-name="Acircumflex" unicode="&#xc2;" horiz-adv-x="502" 
d="M195 800h110l175 -800h-112l-26 120h-183l-25 -120h-112zM321 223l-71 338l-70 -338h141zM276 1020l96 -86l-64 -71l-58 55l-58 -55l-64 71l97 86h51z" />
    <glyph glyph-name="Atilde" unicode="&#xc3;" horiz-adv-x="502" 
d="M195 800h110l175 -800h-112l-26 120h-183l-25 -120h-112zM144 878l-12 -7l-37 76l12 7q45 24 100 24q17 0 49 -12q31 -12 47 -12q15 0 28.5 2.5t20 5t6.5 3.5l12 6l36 -76l-11 -7q-44 -23 -97 -23q-20 0 -52 12q-31 12 -47 12q-15 0 -28.5 -2.5t-20 -5t-6.5 -3.5z
M321 223l-71 338l-70 -338h141z" />
    <glyph glyph-name="Adieresis" unicode="&#xc4;" horiz-adv-x="502" 
d="M195 800h110l175 -800h-112l-26 120h-183l-25 -120h-112zM321 223l-71 338l-70 -338h141zM127 885q-17 17 -17 40t17 39q17 17 39 17t39 -17q17 -16 17 -39t-17 -40q-17 -16 -39 -16t-39 16zM297 885q-17 17 -17 40t17 39q17 17 39 17t39 -17q17 -16 17 -39t-17 -40
q-17 -16 -39 -16t-39 16z" />
    <glyph glyph-name="Aring" unicode="&#xc5;" horiz-adv-x="502" 
d="M195 800h110l175 -800h-112l-26 120h-183l-25 -120h-112zM164 838q-36 36 -36 87t36 87t87 36t87 -36t36 -87t-36 -87t-87 -36t-87 36zM321 223l-71 338l-70 -338h141zM227 949q-23 -23 1 -47t47 -1t-1 47t-47 1z" />
    <glyph glyph-name="AE" unicode="&#xc6;" horiz-adv-x="696" 
d="M654 0h-333v120h-164l-33 -120h-112l223 800h419v-103h-223v-371h173v-102h-173v-121h223v-103zM321 697h-5l-131 -474h136v474z" />
    <glyph glyph-name="Ccedilla" unicode="&#xc7;" horiz-adv-x="500" 
d="M155 610v-420q0 -40 27.5 -67.5t67.5 -27.5q39 0 67 27.5t28 67.5v43h110v-36q0 -79 -53 -138q-52 -59 -129 -66l-9 -14h35q62 0 62 -79q0 -37 -35 -69t-97 -32q-31 0 -59.5 13.5t-41.5 29.5l-12 14l23 38l12 -12q38 -31 78 -31q18 0 29 14.5t11 34.5q0 31 -35 31h-74
l41 67q-70 17 -112 71q-44 56 -44 128v406q0 85 60 145t145 60t145 -60t60 -145v-36h-110v43q0 39 -28 67t-67 28q-40 0 -67.5 -28t-27.5 -67z" />
    <glyph glyph-name="Egrave" unicode="&#xc8;" horiz-adv-x="420" 
d="M379 0h-334v800h334v-103h-224v-371h174v-102h-174v-121h224v-103zM139 1001l176 -67l-25 -78l-181 53z" />
    <glyph glyph-name="Eacute" unicode="&#xc9;" horiz-adv-x="420" 
d="M379 0h-334v800h334v-103h-224v-371h174v-102h-174v-121h224v-103zM313 909l-181 -53l-25 78l176 67z" />
    <glyph glyph-name="Ecircumflex" unicode="&#xca;" horiz-adv-x="420" 
d="M379 0h-334v800h334v-103h-224v-371h174v-102h-174v-121h224v-103zM240 1020l96 -86l-64 -71l-58 55l-58 -55l-64 71l97 86h51z" />
    <glyph glyph-name="Edieresis" unicode="&#xcb;" horiz-adv-x="420" 
d="M379 0h-334v800h334v-103h-224v-371h174v-102h-174v-121h224v-103zM89 885q-17 17 -17 40t17 39q17 17 39 17t39 -17q17 -16 17 -39t-17 -40q-17 -16 -39 -16t-39 16zM259 885q-17 17 -17 40t17 39q17 17 39 17t39 -17q17 -16 17 -39t-17 -40q-17 -16 -39 -16t-39 16z
" />
    <glyph glyph-name="Igrave" unicode="&#xcc;" horiz-adv-x="217" 
d="M164 0h-110v800h110v-800zM-7 1001l176 -67l-25 -78l-181 53z" />
    <glyph glyph-name="Iacute" unicode="&#xcd;" horiz-adv-x="217" 
d="M164 0h-110v800h110v-800zM254 909l-181 -53l-25 78l176 67z" />
    <glyph glyph-name="Icircumflex" unicode="&#xce;" horiz-adv-x="217" 
d="M135 1020l96 -86l-64 -71l-58 55l-58 -55l-64 71l97 86h51zM164 0h-110v800h110v-800z" />
    <glyph glyph-name="Idieresis" unicode="&#xcf;" horiz-adv-x="217" 
d="M164 0h-110v800h110v-800zM-15 885q-17 17 -17 40t17 39q17 17 39 17t39 -17q17 -16 17 -39t-17 -40q-17 -16 -39 -16t-39 16zM155 885q-17 17 -17 40t17 39q17 17 39 17t39 -17q17 -16 17 -39t-17 -40q-17 -16 -39 -16t-39 16z" />
    <glyph glyph-name="Eth" unicode="&#xd0;" horiz-adv-x="500" 
d="M45 224h-63v102h63v474h205q85 0 145 -60t60 -145v-390q0 -85 -60 -145t-145 -60h-205v224zM250 697h-95v-371h63v-102h-63v-121h95q39 0 67 27.5t28 67.5v404q0 39 -28 67t-67 28z" />
    <glyph glyph-name="Ntilde" unicode="&#xd1;" horiz-adv-x="525" 
d="M480 0h-110l-215 514v-514h-110v800h110l215 -515v515h110v-800zM155 878l-12 -7l-37 76l12 7q45 24 100 24q18 0 49 -12t47 -12q15 0 28.5 2.5t20 5t6.5 3.5l12 6l36 -76l-11 -7q-44 -23 -97 -23q-21 0 -52 12t-47 12q-15 0 -28.5 -2.5t-20 -5t-6.5 -3.5z" />
    <glyph glyph-name="Ograve" unicode="&#xd2;" horiz-adv-x="500" 
d="M45 197v406q0 85 60 145t145 60t145 -60t60 -145v-406q0 -85 -60 -145t-145 -60q-86 0 -146 60q-59 61 -59 145zM155 610v-420q0 -40 27.5 -67.5t67.5 -27.5q39 0 67 27.5t28 67.5v420q0 39 -28 67t-67 28q-40 0 -67.5 -28t-27.5 -67zM153 1001l176 -67l-25 -78l-181 53z
" />
    <glyph glyph-name="Oacute" unicode="&#xd3;" horiz-adv-x="500" 
d="M45 197v406q0 85 60 145t145 60t145 -60t60 -145v-406q0 -85 -60 -145t-145 -60q-86 0 -146 60q-59 61 -59 145zM155 610v-420q0 -40 27.5 -67.5t67.5 -27.5q39 0 67 27.5t28 67.5v420q0 39 -28 67t-67 28q-40 0 -67.5 -28t-27.5 -67zM378 909l-181 -53l-25 78l176 67z
" />
    <glyph glyph-name="Ocircumflex" unicode="&#xd4;" horiz-adv-x="500" 
d="M45 197v406q0 85 60 145t145 60t145 -60t60 -145v-406q0 -85 -60 -145t-145 -60q-86 0 -146 60q-59 61 -59 145zM155 610v-420q0 -40 27.5 -67.5t67.5 -27.5q39 0 67 27.5t28 67.5v420q0 39 -28 67t-67 28q-40 0 -67.5 -28t-27.5 -67zM276 1020l96 -86l-64 -71l-58 55
l-58 -55l-64 71l97 86h51z" />
    <glyph glyph-name="Otilde" unicode="&#xd5;" horiz-adv-x="500" 
d="M45 197v406q0 85 60 145t145 60t145 -60t60 -145v-406q0 -85 -60 -145t-145 -60q-86 0 -146 60q-59 61 -59 145zM155 610v-420q0 -40 27.5 -67.5t67.5 -27.5q39 0 67 27.5t28 67.5v420q0 39 -28 67t-67 28q-40 0 -67.5 -28t-27.5 -67zM143 878l-12 -7l-37 76l12 7
q45 24 100 24q18 0 49 -12t47 -12q15 0 28.5 2.5t20 5t6.5 3.5l12 6l36 -76l-11 -7q-44 -23 -97 -23q-21 0 -52 12q-32 12 -47 12t-28.5 -2.5t-20 -5t-6.5 -3.5z" />
    <glyph glyph-name="Odieresis" unicode="&#xd6;" horiz-adv-x="500" 
d="M45 197v406q0 85 60 145t145 60t145 -60t60 -145v-406q0 -85 -60 -145t-145 -60q-86 0 -146 60q-59 61 -59 145zM155 610v-420q0 -40 27.5 -67.5t67.5 -27.5q39 0 67 27.5t28 67.5v420q0 39 -28 67t-67 28q-40 0 -67.5 -28t-27.5 -67zM125 885q-16 17 -16 40t16 39
q17 17 40 17t39 -17q17 -16 17 -39t-17 -40q-16 -16 -39 -16t-40 16zM295 885q-16 17 -16 40t16 39q17 17 40 17t39 -17q17 -16 17 -39t-17 -40q-16 -16 -39 -16t-40 16z" />
    <glyph glyph-name="multiply" unicode="&#xd7;" horiz-adv-x="532" 
d="M266 292l-159 -179l-82 74l167 188l-167 188l82 74l159 -179l159 179l82 -74l-167 -188l167 -188l-82 -74z" />
    <glyph glyph-name="Oslash" unicode="&#xd8;" horiz-adv-x="500" 
d="M45 197v406q0 85 60 145t145 60q56 0 106 -30l18 41l88 -38l-33 -79q26 -47 26 -99v-406q0 -85 -60 -145t-145 -60q-60 0 -107 29l-17 -40l-88 38l32 78q-25 44 -25 100zM345 190v312l-161 -382q29 -25 66 -25t67 27.5t28 67.5zM155 610v-312l160 381q-29 26 -65 26
q-40 0 -67.5 -28t-27.5 -67z" />
    <glyph glyph-name="Ugrave" unicode="&#xd9;" horiz-adv-x="500" 
d="M155 800v-610q0 -40 27.5 -67.5t67.5 -27.5q39 0 67 27.5t28 67.5v610h110v-603q0 -85 -60 -145t-145 -60q-86 0 -146 60q-59 61 -59 145v603h110zM152 1001l176 -67l-25 -78l-181 53z" />
    <glyph glyph-name="Uacute" unicode="&#xda;" horiz-adv-x="500" 
d="M155 800v-610q0 -40 27.5 -67.5t67.5 -27.5q39 0 67 27.5t28 67.5v610h110v-603q0 -85 -60 -145t-145 -60q-86 0 -146 60q-59 61 -59 145v603h110zM378 909l-181 -53l-25 78l176 67z" />
    <glyph glyph-name="Ucircumflex" unicode="&#xdb;" horiz-adv-x="500" 
d="M155 800v-610q0 -40 27.5 -67.5t67.5 -27.5q39 0 67 27.5t28 67.5v610h110v-603q0 -85 -60 -145t-145 -60q-86 0 -146 60q-59 61 -59 145v603h110zM276 1020l96 -86l-64 -71l-58 55l-58 -55l-64 71l97 86h51z" />
    <glyph glyph-name="Udieresis" unicode="&#xdc;" horiz-adv-x="500" 
d="M155 800v-610q0 -40 27.5 -67.5t67.5 -27.5q39 0 67 27.5t28 67.5v610h110v-603q0 -85 -60 -145t-145 -60q-86 0 -146 60q-59 61 -59 145v603h110zM125 885q-16 17 -16 40t16 39q17 17 40 17t39 -17q17 -16 17 -39t-17 -40q-16 -16 -39 -16t-40 16zM295 885
q-16 17 -16 40t16 39q17 17 40 17t39 -17q17 -16 17 -39t-17 -40q-16 -16 -39 -16t-40 16z" />
    <glyph glyph-name="Yacute" unicode="&#xdd;" horiz-adv-x="470" 
d="M290 0h-110v224l-158 576h114l99 -382l99 382h114l-158 -576v-224zM377 909l-181 -53l-25 78l176 67z" />
    <glyph glyph-name="Thorn" unicode="&#xde;" horiz-adv-x="500" 
d="M155 0h-110v800h110v-114h95q85 0 145 -60t60 -145v-162q0 -85 -60 -145t-145 -60h-95v-114zM250 583h-95v-366h95q39 0 67 28t28 67v176q0 40 -28 67.5t-67 27.5z" />
    <glyph glyph-name="agrave" unicode="&#xe0;" horiz-adv-x="391" 
d="M141 700h110l118 -600h-103l-19 100h-103l-19 -100h-103zM94 901l176 -67l-25 -78l-181 53zM227 303l-31 163l-32 -163h63z" />
    <glyph glyph-name="aacute" unicode="&#xe1;" horiz-adv-x="391" 
d="M141 700h110l118 -600h-103l-19 100h-103l-19 -100h-103zM327 809l-181 -53l-25 78l176 67zM227 303l-31 163l-32 -163h63z" />
    <glyph glyph-name="acircumflex" unicode="&#xe2;" horiz-adv-x="391" 
d="M141 700h110l118 -600h-103l-19 100h-103l-19 -100h-103zM222 920l96 -86l-64 -71l-58 55l-58 -55l-64 71l97 86h51zM227 303l-31 163l-32 -163h63z" />
    <glyph glyph-name="atilde" unicode="&#xe3;" horiz-adv-x="391" 
d="M141 700h110l118 -600h-103l-19 100h-103l-19 -100h-103zM89 778l-12 -7l-37 76l12 7q45 24 100 24q17 0 49 -12q31 -12 47 -12q15 0 28.5 2.5t20 5t6.5 3.5l12 6l36 -76l-11 -7q-44 -23 -97 -23q-20 0 -52 12t-47 12t-28.5 -2.5t-20 -5t-6.5 -3.5zM227 303l-31 163
l-32 -163h63z" />
    <glyph glyph-name="adieresis" unicode="&#xe4;" horiz-adv-x="391" 
d="M141 700h110l118 -600h-103l-19 100h-103l-19 -100h-103zM81 785q-16 17 -16 40t16 39q17 17 40 17t39 -17q17 -16 17 -39t-17 -40q-16 -16 -39 -16t-40 16zM231 785q-16 17 -16 40t16 39q17 17 40 17t39 -17q17 -16 17 -39t-17 -40q-16 -16 -39 -16t-40 16zM227 303
l-31 163l-32 -163h63z" />
    <glyph glyph-name="aring" unicode="&#xe5;" horiz-adv-x="391" 
d="M141 700h110l118 -600h-103l-19 100h-103l-19 -100h-103zM109 738q-36 36 -36 87t36 87t87 36t87 -36t36 -87t-36 -87t-87 -36t-87 36zM227 303l-31 163l-32 -163h63zM172 849q-23 -23 1 -47t47 -1t-1 47t-47 1z" />
    <glyph glyph-name="ae" unicode="&#xe6;" horiz-adv-x="549" 
d="M507 100h-255v100h-102l-25 -100h-103l144 600h341v-103h-145v-226h120v-102h-120v-66h145v-103zM252 597h-2l-74 -294h76v294z" />
    <glyph glyph-name="ccedilla" unicode="&#xe7;" 
d="M155 560v-320q-2 -27 21.5 -38.5t47 0t21.5 38.5v64h110v-57q0 -54 -35 -98q-34 -43 -88 -54l-10 -16h35q62 0 62 -79q0 -37 -35 -69t-97 -32q-65 0 -109 51l-4 6l23 38l12 -12q38 -31 78 -31q18 0 29 14.5t11 34.5q0 31 -35 31h-74l41 66q-50 14 -82 56t-32 94v306
q0 64 45 109q46 46 110 46t109 -46q46 -45 46 -109v-57h-110v64q2 27 -21.5 38.5t-47 0t-21.5 -38.5z" />
    <glyph glyph-name="egrave" unicode="&#xe8;" horiz-adv-x="341" 
d="M300 100h-255v600h255v-103h-145v-226h120v-102h-120v-66h145v-103zM100 901l176 -67l-25 -78l-181 53z" />
    <glyph glyph-name="eacute" unicode="&#xe9;" horiz-adv-x="341" 
d="M300 100h-255v600h255v-103h-145v-226h120v-102h-120v-66h145v-103zM293 809l-181 -53l-25 78l176 67z" />
    <glyph glyph-name="ecircumflex" unicode="&#xea;" horiz-adv-x="341" 
d="M300 100h-255v600h255v-103h-145v-226h120v-102h-120v-66h145v-103zM200 920l96 -86l-64 -71l-58 55l-58 -55l-64 71l97 86h51z" />
    <glyph glyph-name="edieresis" unicode="&#xeb;" horiz-adv-x="341" 
d="M300 100h-255v600h255v-103h-145v-226h120v-102h-120v-66h145v-103zM59 785q-16 17 -16 40t16 39q17 17 40 17t39 -17q17 -16 17 -39t-17 -40q-16 -16 -39 -16t-40 16zM209 785q-16 17 -16 40t16 39q17 17 40 17t39 -17q17 -16 17 -39t-17 -40q-16 -16 -39 -16t-40 16z
" />
    <glyph glyph-name="igrave" unicode="&#xec;" horiz-adv-x="217" 
d="M164 100h-110v600h110v-600zM-7 901l176 -67l-25 -78l-181 53z" />
    <glyph glyph-name="iacute" unicode="&#xed;" horiz-adv-x="217" 
d="M164 100h-110v600h110v-600zM254 809l-181 -53l-25 78l176 67z" />
    <glyph glyph-name="icircumflex" unicode="&#xee;" horiz-adv-x="217" 
d="M135 920l96 -86l-64 -71l-58 55l-58 -55l-64 71l97 86h51zM164 100h-110v600h110v-600z" />
    <glyph glyph-name="idieresis" unicode="&#xef;" horiz-adv-x="217" 
d="M164 100h-110v600h110v-600zM-9 785q-17 17 -17 40t17 39q17 17 39 17t39 -17q17 -16 17 -39t-17 -40q-17 -16 -39 -16t-39 16zM141 785q-17 17 -17 40t17 39q17 17 39 17t39 -17q17 -16 17 -39t-17 -40q-17 -16 -39 -16t-39 16z" />
    <glyph glyph-name="eth" unicode="&#xf0;" 
d="M45 269h-38v102h38v329h155q64 0 109 -46q46 -45 46 -109v-290q0 -64 -46 -110q-45 -45 -109 -45h-155v169zM200 597h-45v-226h38v-102h-38v-66h45q19 0 32 13t13 32v304q0 19 -13 32t-32 13z" />
    <glyph glyph-name="ntilde" unicode="&#xf1;" horiz-adv-x="425" 
d="M105 778l-12 -7l-37 76l12 7q45 24 100 24q18 0 49 -12q32 -12 47 -12t28.5 2.5t20 5t6.5 3.5l12 6l36 -76l-11 -7q-44 -23 -97 -23q-21 0 -52 12t-47 12q-15 0 -28.5 -2.5t-20 -5t-6.5 -3.5zM380 100h-110l-115 310v-310h-110v600h110l115 -311v311h110v-600z" />
    <glyph glyph-name="ograve" unicode="&#xf2;" 
d="M45 247v306q0 64 45 109q46 46 110 46t109 -46q46 -45 46 -109v-306q0 -64 -46 -110q-45 -45 -109 -45t-110 45q-45 47 -45 110zM155 560v-320q-2 -27 21.5 -38.5t47 0t21.5 38.5v320q2 27 -21.5 38.5t-47 0t-21.5 -38.5zM102 901l176 -67l-25 -78l-181 53z" />
    <glyph glyph-name="oacute" unicode="&#xf3;" 
d="M45 247v306q0 64 45 109q46 46 110 46t109 -46q46 -45 46 -109v-306q0 -64 -46 -110q-45 -45 -109 -45t-110 45q-45 47 -45 110zM155 560v-320q-2 -27 21.5 -38.5t47 0t21.5 38.5v320q2 27 -21.5 38.5t-47 0t-21.5 -38.5zM328 809l-181 -53l-25 78l176 67z" />
    <glyph glyph-name="ocircumflex" unicode="&#xf4;" 
d="M45 247v306q0 64 45 109q46 46 110 46t109 -46q46 -45 46 -109v-306q0 -64 -46 -110q-45 -45 -109 -45t-110 45q-45 47 -45 110zM155 560v-320q-2 -27 21.5 -38.5t47 0t21.5 38.5v320q2 27 -21.5 38.5t-47 0t-21.5 -38.5zM226 920l96 -86l-64 -71l-58 55l-58 -55l-64 71
l97 86h51z" />
    <glyph glyph-name="otilde" unicode="&#xf5;" 
d="M45 247v306q0 64 45 109q46 46 110 46t109 -46q46 -45 46 -109v-306q0 -64 -46 -110q-45 -45 -109 -45t-110 45q-45 47 -45 110zM155 560v-320q-2 -27 21.5 -38.5t47 0t21.5 38.5v320q2 27 -21.5 38.5t-47 0t-21.5 -38.5zM93 778l-12 -7l-37 76l12 7q45 24 100 24
q18 0 49 -12t47 -12q15 0 28.5 2.5t20 5t6.5 3.5l12 6l36 -76l-11 -7q-44 -23 -97 -23q-21 0 -52 12q-32 12 -47 12t-28.5 -2.5t-20 -5t-6.5 -3.5z" />
    <glyph glyph-name="odieresis" unicode="&#xf6;" 
d="M45 247v306q0 64 45 109q46 46 110 46t109 -46q46 -45 46 -109v-306q0 -64 -46 -110q-45 -45 -109 -45t-110 45q-45 47 -45 110zM155 560v-320q-2 -27 21.5 -38.5t47 0t21.5 38.5v320q2 27 -21.5 38.5t-47 0t-21.5 -38.5zM85 785q-16 17 -16 40t16 39q17 17 40 17t39 -17
q17 -16 17 -39t-17 -40q-16 -16 -39 -16t-40 16zM235 785q-16 17 -16 40t16 39q17 17 40 17t39 -17q17 -16 17 -39t-17 -40q-16 -16 -39 -16t-40 16z" />
    <glyph glyph-name="divide" unicode="&#xf7;" horiz-adv-x="450" 
d="M180 111q-18 19 -18 45t18 44q19 18 45 18t44 -18q19 -18 19 -44t-19 -45q-18 -18 -44 -18t-45 18zM180 501q-18 19 -18 45t18 44q19 18 45 18t44 -18q19 -18 19 -44t-19 -45q-18 -18 -44 -18t-45 18zM425 299h-400v103h400v-103z" />
    <glyph glyph-name="oslash" unicode="&#xf8;" 
d="M45 247v306q0 64 45 109q46 46 110 46q33 0 64 -14l10 24l88 -36l-24 -60q17 -32 17 -69v-306q0 -64 -46 -110q-45 -45 -109 -45q-32 0 -65 14l-9 -24l-88 36l23 60q-16 33 -16 69zM155 560v-145l71 182q-11 8 -26 8q-19 0 -32 -13t-13 -32zM200 195q19 0 32 13t13 32
v144l-72 -181q11 -8 27 -8z" />
    <glyph glyph-name="ugrave" unicode="&#xf9;" 
d="M155 700v-460q-2 -27 21.5 -38.5t47 0t21.5 38.5v460h110v-453q0 -64 -46 -110q-45 -45 -109 -45t-110 45q-45 47 -45 110v453h110zM102 901l176 -67l-25 -78l-181 53z" />
    <glyph glyph-name="uacute" unicode="&#xfa;" 
d="M155 700v-460q-2 -27 21.5 -38.5t47 0t21.5 38.5v460h110v-453q0 -64 -46 -110q-45 -45 -109 -45t-110 45q-45 47 -45 110v453h110zM328 809l-181 -53l-25 78l176 67z" />
    <glyph glyph-name="ucircumflex" unicode="&#xfb;" 
d="M155 700v-460q-2 -27 21.5 -38.5t47 0t21.5 38.5v460h110v-453q0 -64 -46 -110q-45 -45 -109 -45t-110 45q-45 47 -45 110v453h110zM226 920l96 -86l-64 -71l-58 55l-58 -55l-64 71l97 86h51z" />
    <glyph glyph-name="udieresis" unicode="&#xfc;" 
d="M155 700v-460q-2 -27 21.5 -38.5t47 0t21.5 38.5v460h110v-453q0 -64 -46 -110q-45 -45 -109 -45t-110 45q-45 47 -45 110v453h110zM85 785q-16 17 -16 40t16 39q17 17 40 17t39 -17q17 -16 17 -39t-17 -40q-16 -16 -39 -16t-40 16zM235 785q-16 17 -16 40t16 39
q17 17 40 17t39 -17q17 -16 17 -39t-17 -40q-16 -16 -39 -16t-40 16z" />
    <glyph glyph-name="yacute" unicode="&#xfd;" horiz-adv-x="393" 
d="M252 100h-110v169l-113 431h102l66 -258l65 258h102l-112 -431v-169zM339 809l-181 -53l-25 78l176 67z" />
    <glyph glyph-name="thorn" unicode="&#xfe;" 
d="M155 100h-110v600h110v-82h45q64 0 109 -46q46 -45 46 -109v-126q0 -64 -46 -110q-45 -45 -109 -45h-45v-82zM200 515h-45v-230h45q19 0 32 13t13 32v140q0 19 -13 32t-32 13z" />
    <glyph glyph-name="ydieresis" unicode="&#xff;" horiz-adv-x="393" 
d="M252 100h-110v169l-113 431h102l66 -258l65 258h102l-112 -431v-169zM233 785q-17 17 -17 40t17 39q17 17 39 17t39 -17q17 -16 17 -39t-17 -40q-17 -16 -39 -16t-39 16zM83 785q-17 17 -17 40t17 39q17 17 39 17t39 -17q17 -16 17 -39t-17 -40q-17 -16 -39 -16t-39 16z
" />
    <glyph glyph-name="Amacron" unicode="&#x100;" horiz-adv-x="502" 
d="M195 800h110l175 -800h-112l-26 120h-183l-25 -120h-112zM390 877h-280v89h280v-89zM321 223l-71 338l-70 -338h141z" />
    <glyph glyph-name="amacron" unicode="&#x101;" horiz-adv-x="391" 
d="M141 700h110l118 -600h-103l-19 100h-103l-19 -100h-103zM320 777h-250v89h250v-89zM227 303l-31 163l-32 -163h63z" />
    <glyph glyph-name="Abreve" unicode="&#x102;" horiz-adv-x="502" 
d="M195 800h110l175 -800h-112l-26 120h-183l-25 -120h-112zM299 975v21h89v-21q0 -56 -35.5 -89.5t-102.5 -33.5t-102.5 33.5t-35.5 89.5v21h89v-21q-3 -21 23 -29.5t52 0t23 29.5zM321 223l-71 338l-70 -338h141z" />
    <glyph glyph-name="abreve" unicode="&#x103;" horiz-adv-x="391" 
d="M141 700h110l118 -600h-103l-19 100h-103l-19 -100h-103zM244 875v21h89v-21q0 -56 -35.5 -89.5t-102.5 -33.5t-102.5 33.5t-35.5 89.5v21h89v-21q-3 -21 23 -29.5t52 0t23 29.5zM227 303l-31 163l-32 -163h63z" />
    <glyph glyph-name="Aogonek" unicode="&#x104;" horiz-adv-x="519" 
d="M195 800h110l175 -800h-1q-80 -69 -82 -99q0 -20 20 -20q16 0 32 14l6 5l49 -26l-11 -17q-6 -10 -29 -27t-47 -17q-108 0 -108 94q0 57 57 102l-24 111h-183l-25 -120h-112zM321 223l-71 338l-70 -338h141z" />
    <glyph glyph-name="aogonek" unicode="&#x105;" horiz-adv-x="391" 
d="M141 700h110l118 -600h-103l-19 100h-103l-19 -100h-103zM227 303l-31 163l-32 -163h63z" />
    <glyph glyph-name="Cacute" unicode="&#x106;" horiz-adv-x="500" 
d="M155 610v-420q0 -40 27.5 -67.5t67.5 -27.5q39 0 67 27.5t28 67.5v43h110v-36q0 -85 -60 -145t-145 -60q-86 0 -146 60q-59 61 -59 145v406q0 85 60 145t145 60t145 -60t60 -145v-36h-110v43q0 39 -28 67t-67 28q-40 0 -67.5 -28t-27.5 -67zM378 909l-181 -53l-25 78
l176 67z" />
    <glyph glyph-name="cacute" unicode="&#x107;" 
d="M155 560v-320q-2 -27 21.5 -38.5t47 0t21.5 38.5v64h110v-57q0 -64 -46 -110q-45 -45 -109 -45t-110 45q-45 47 -45 110v306q0 64 45 109q46 46 110 46t109 -46q46 -45 46 -109v-57h-110v64q2 27 -21.5 38.5t-47 0t-21.5 -38.5zM328 809l-181 -53l-25 78l176 67z" />
    <glyph glyph-name="Ccircumflex" unicode="&#x108;" horiz-adv-x="500" 
d="M155 610v-420q0 -40 27.5 -67.5t67.5 -27.5q39 0 67 27.5t28 67.5v43h110v-36q0 -85 -60 -145t-145 -60q-86 0 -146 60q-59 61 -59 145v406q0 85 60 145t145 60t145 -60t60 -145v-36h-110v43q0 39 -28 67t-67 28q-40 0 -67.5 -28t-27.5 -67zM276 1020l96 -86l-64 -71
l-58 55l-58 -55l-64 71l97 86h51z" />
    <glyph glyph-name="ccircumflex" unicode="&#x109;" 
d="M155 560v-320q-2 -27 21.5 -38.5t47 0t21.5 38.5v64h110v-57q0 -64 -46 -110q-45 -45 -109 -45t-110 45q-45 47 -45 110v306q0 64 45 109q46 46 110 46t109 -46q46 -45 46 -109v-57h-110v64q2 27 -21.5 38.5t-47 0t-21.5 -38.5zM226 920l96 -86l-64 -71l-58 55l-58 -55
l-64 71l97 86h51z" />
    <glyph glyph-name="Cdotaccent" unicode="&#x10a;" horiz-adv-x="500" 
d="M155 610v-420q0 -40 27.5 -67.5t67.5 -27.5q39 0 67 27.5t28 67.5v43h110v-36q0 -85 -60 -145t-145 -60q-86 0 -146 60q-59 61 -59 145v406q0 85 60 145t145 60t145 -60t60 -145v-36h-110v43q0 39 -28 67t-67 28q-40 0 -67.5 -28t-27.5 -67zM205 880q-18 19 -18 45t18 44
q19 19 45 19t44 -19q19 -18 19 -44t-19 -45q-18 -18 -44 -18t-45 18z" />
    <glyph glyph-name="cdotaccent" unicode="&#x10b;" 
d="M155 560v-320q-2 -27 21.5 -38.5t47 0t21.5 38.5v64h110v-57q0 -64 -46 -110q-45 -45 -109 -45t-110 45q-45 47 -45 110v306q0 64 45 109q46 46 110 46t109 -46q46 -45 46 -109v-57h-110v64q2 27 -21.5 38.5t-47 0t-21.5 -38.5zM155 780q-18 19 -18 45t18 44q19 19 45 19
t44 -19q19 -18 19 -44t-19 -45q-18 -18 -44 -18t-45 18z" />
    <glyph glyph-name="Ccaron" unicode="&#x10c;" horiz-adv-x="500" 
d="M155 610v-420q0 -40 27.5 -67.5t67.5 -27.5q39 0 67 27.5t28 67.5v43h110v-36q0 -85 -60 -145t-145 -60q-86 0 -146 60q-59 61 -59 145v406q0 85 60 145t145 60t145 -60t60 -145v-36h-110v43q0 39 -28 67t-67 28q-40 0 -67.5 -28t-27.5 -67zM224 863l-96 87l64 70l58 -55
l58 55l64 -70l-97 -87h-51z" />
    <glyph glyph-name="ccaron" unicode="&#x10d;" 
d="M155 560v-320q-2 -27 21.5 -38.5t47 0t21.5 38.5v64h110v-57q0 -64 -46 -110q-45 -45 -109 -45t-110 45q-45 47 -45 110v306q0 64 45 109q46 46 110 46t109 -46q46 -45 46 -109v-57h-110v64q2 27 -21.5 38.5t-47 0t-21.5 -38.5zM174 763l-96 87l64 70l58 -55l58 55
l64 -70l-97 -87h-51z" />
    <glyph glyph-name="Dcaron" unicode="&#x10e;" horiz-adv-x="500" 
d="M250 0h-205v800h205q85 0 145 -60t60 -145v-390q0 -85 -60 -145t-145 -60zM250 697h-95v-594h95q39 0 67 27.5t28 67.5v404q0 39 -28 67t-67 28zM209 863l-96 87l64 70l58 -55l58 55l64 -70l-97 -87h-51z" />
    <glyph glyph-name="dcaron" unicode="&#x10f;" 
d="M200 100h-155v600h155q64 0 109 -46q46 -45 46 -109v-290q0 -64 -46 -110q-45 -45 -109 -45zM200 597h-45v-394h45q19 0 32 13t13 32v304q0 19 -13 32t-32 13zM160 763l-96 87l64 70l58 -55l58 55l64 -70l-97 -87h-51z" />
    <glyph glyph-name="Dcroat" unicode="&#x110;" horiz-adv-x="500" 
d="M45 224h-63v102h63v474h205q85 0 145 -60t60 -145v-390q0 -85 -60 -145t-145 -60h-205v224zM250 697h-95v-371h63v-102h-63v-121h95q39 0 67 27.5t28 67.5v404q0 39 -28 67t-67 28z" />
    <glyph glyph-name="dslash" unicode="&#x111;" horiz-adv-x="405" 
d="M50 269h-45v102h45v329h155q64 0 109 -46q46 -45 46 -109v-290q0 -64 -46 -110q-45 -45 -109 -45h-155v169zM205 597h-45v-226h45v-102h-45v-66h45q19 0 32 13t13 32v304q0 19 -13 32t-32 13z" />
    <glyph glyph-name="Emacron" unicode="&#x112;" horiz-adv-x="420" 
d="M379 0h-334v800h334v-103h-224v-371h174v-102h-174v-121h224v-103zM351 877h-280v89h280v-89z" />
    <glyph glyph-name="emacron" unicode="&#x113;" horiz-adv-x="341" 
d="M300 100h-255v600h255v-103h-145v-226h120v-102h-120v-66h145v-103zM299 777h-250v89h250v-89z" />
    <glyph glyph-name="Ebreve" unicode="&#x114;" horiz-adv-x="420" 
d="M379 0h-334v800h334v-103h-224v-371h174v-102h-174v-121h224v-103zM75 975v21h89v-21q-3 -21 23 -29.5t52 0t23 29.5v21h89v-21q0 -56 -35.5 -89.5t-102.5 -33.5t-102.5 33.5t-35.5 89.5z" />
    <glyph glyph-name="ebreve" unicode="&#x115;" horiz-adv-x="341" 
d="M300 100h-255v600h255v-103h-145v-226h120v-102h-120v-66h145v-103zM223 875v21h89v-21q0 -56 -35.5 -89.5t-102.5 -33.5t-102.5 33.5t-35.5 89.5v21h89v-21q-3 -21 23 -29.5t52 0t23 29.5z" />
    <glyph glyph-name="Edotaccent" unicode="&#x116;" horiz-adv-x="420" 
d="M379 0h-334v800h334v-103h-224v-371h174v-102h-174v-121h224v-103zM169 880q-18 19 -18 45t18 44q19 19 45 19t44 -19q19 -18 19 -44t-19 -45q-18 -18 -44 -18t-45 18z" />
    <glyph glyph-name="edotaccent" unicode="&#x117;" horiz-adv-x="341" 
d="M300 100h-255v600h255v-103h-145v-226h120v-102h-120v-66h145v-103zM130 780q-18 19 -18 45t18 44q19 19 45 19t44 -19q19 -18 19 -44t-19 -45q-18 -18 -44 -18t-45 18z" />
    <glyph glyph-name="Eogonek" unicode="&#x118;" horiz-adv-x="420" 
d="M254 0h-209v800h334v-103h-224v-371h174v-102h-174v-121h224v-103h-1q-80 -69 -82 -99q0 -20 20 -20q16 0 32 14l6 5l49 -26l-11 -17q-6 -10 -29 -27t-47 -17q-108 0 -108 94q0 51 46 93z" />
    <glyph glyph-name="eogonek" unicode="&#x119;" horiz-adv-x="341" 
d="M176 100h-131v600h255v-103h-145v-226h120v-102h-120v-66h145v-103q-80 -69 -82 -99q0 -20 20 -20q16 0 32 14l6 5l49 -26l-11 -17q-6 -10 -29 -27t-47 -17q-108 0 -108 94q0 51 46 93z" />
    <glyph glyph-name="Ecaron" unicode="&#x11a;" horiz-adv-x="420" 
d="M379 0h-334v800h334v-103h-224v-371h174v-102h-174v-121h224v-103zM188 863l-96 87l64 70l58 -55l58 55l64 -70l-97 -87h-51z" />
    <glyph glyph-name="ecaron" unicode="&#x11b;" horiz-adv-x="341" 
d="M300 100h-255v600h255v-103h-145v-226h120v-102h-120v-66h145v-103zM149 763l-96 87l64 70l58 -55l58 55l64 -70l-97 -87h-51z" />
    <glyph glyph-name="Gcircumflex" unicode="&#x11c;" horiz-adv-x="500" 
d="M155 610v-420q0 -40 27.5 -67.5t67.5 -27.5q39 0 67 27.5t28 67.5v34h-95v102h205v-129q0 -85 -60 -145t-145 -60q-86 0 -146 60q-59 61 -59 145v406q0 85 60 145t145 60t145 -60t60 -145v-36h-110v43q0 39 -28 67t-67 28q-40 0 -67.5 -28t-27.5 -67zM276 1020l96 -86
l-64 -71l-58 55l-58 -55l-64 71l97 86h51z" />
    <glyph glyph-name="gcircumflex" unicode="&#x11d;" 
d="M155 560v-320q-2 -27 21.5 -38.5t47 0t21.5 38.5v32h-45v103h155v-128q0 -64 -46 -110q-45 -45 -109 -45t-110 45q-45 47 -45 110v306q0 64 45 109q46 46 110 46t109 -46q46 -45 46 -109v-57h-110v64q2 27 -21.5 38.5t-47 0t-21.5 -38.5zM226 920l96 -86l-64 -71l-58 55
l-58 -55l-64 71l97 86h51z" />
    <glyph glyph-name="Gbreve" unicode="&#x11e;" horiz-adv-x="500" 
d="M155 610v-420q0 -40 27.5 -67.5t67.5 -27.5q39 0 67 27.5t28 67.5v34h-95v102h205v-129q0 -85 -60 -145t-145 -60q-86 0 -146 60q-59 61 -59 145v406q0 85 60 145t145 60t145 -60t60 -145v-36h-110v43q0 39 -28 67t-67 28q-40 0 -67.5 -28t-27.5 -67zM250 852v89
q22 0 35.5 9.5t13.5 24.5v21h89v-21q0 -56 -35.5 -89.5t-102.5 -33.5zM250 941v-89q-67 0 -102.5 33.5t-35.5 89.5v21h89v-21q0 -15 13.5 -24.5t35.5 -9.5z" />
    <glyph glyph-name="gbreve" unicode="&#x11f;" 
d="M155 560v-320q-2 -27 21.5 -38.5t47 0t21.5 38.5v32h-45v103h155v-128q0 -64 -46 -110q-45 -45 -109 -45t-110 45q-45 47 -45 110v306q0 64 45 109q46 46 110 46t109 -46q46 -45 46 -109v-57h-110v64q2 27 -21.5 38.5t-47 0t-21.5 -38.5zM249 875v21h89v-21
q0 -56 -35.5 -89.5t-102.5 -33.5t-102.5 33.5t-35.5 89.5v21h89v-21q-3 -21 23 -29.5t52 0t23 29.5z" />
    <glyph glyph-name="Gdotaccent" unicode="&#x120;" horiz-adv-x="500" 
d="M155 610v-420q0 -40 27.5 -67.5t67.5 -27.5q39 0 67 27.5t28 67.5v34h-95v102h205v-129q0 -85 -60 -145t-145 -60q-86 0 -146 60q-59 61 -59 145v406q0 85 60 145t145 60t145 -60t60 -145v-36h-110v43q0 39 -28 67t-67 28q-40 0 -67.5 -28t-27.5 -67zM205 880
q-18 19 -18 45t18 44q19 19 45 19t44 -19q19 -18 19 -44t-19 -45q-18 -18 -44 -18t-45 18z" />
    <glyph glyph-name="gdotaccent" unicode="&#x121;" 
d="M155 560v-320q-2 -27 21.5 -38.5t47 0t21.5 38.5v32h-45v103h155v-128q0 -64 -46 -110q-45 -45 -109 -45t-110 45q-45 47 -45 110v306q0 64 45 109q46 46 110 46t109 -46q46 -45 46 -109v-57h-110v64q2 27 -21.5 38.5t-47 0t-21.5 -38.5zM155 780q-18 19 -18 45t18 44
q19 19 45 19t44 -19q19 -18 19 -44t-19 -45q-18 -18 -44 -18t-45 18z" />
    <glyph glyph-name="Gcommaaccent" unicode="&#x122;" horiz-adv-x="500" 
d="M155 610v-420q0 -40 27.5 -67.5t67.5 -27.5q39 0 67 27.5t28 67.5v34h-95v102h205v-129q0 -85 -60 -145t-145 -60q-86 0 -146 60q-59 61 -59 145v406q0 85 60 145t145 60t145 -60t60 -145v-36h-110v43q0 39 -28 67t-67 28q-40 0 -67.5 -28t-27.5 -67zM195 -238v188h110
v-67q0 -62 -27 -107l-9 -14h-74z" />
    <glyph glyph-name="gcommaaccent" unicode="&#x123;" 
d="M155 560v-320q-2 -27 21.5 -38.5t47 0t21.5 38.5v32h-45v103h155v-128q0 -64 -46 -110q-45 -45 -109 -45t-110 45q-45 47 -45 110v306q0 64 45 109q46 46 110 46t109 -46q46 -45 46 -109v-57h-110v64q2 27 -21.5 38.5t-47 0t-21.5 -38.5zM145 -138v188h110v-67
q0 -62 -27 -107l-9 -14h-74z" />
    <glyph glyph-name="Hcircumflex" unicode="&#x124;" horiz-adv-x="500" 
d="M455 0h-110v224h-190v-224h-110v800h110v-474h190v474h110v-800zM276 1020l96 -86l-64 -71l-58 55l-58 -55l-64 71l97 86h51z" />
    <glyph glyph-name="hcircumflex" unicode="&#x125;" 
d="M355 100h-110v169h-90v-169h-110v600h110v-329h90v329h110v-600zM226 920l96 -86l-64 -71l-58 55l-58 -55l-64 71l97 86h51z" />
    <glyph glyph-name="Hbar" unicode="&#x126;" horiz-adv-x="500" 
d="M45 488h-49v88h49v224h110v-224h190v224h110v-224h49v-88h-49v-488h-110v224h-190v-224h-110v488zM345 488h-190v-162h190v162z" />
    <glyph glyph-name="hbar" unicode="&#x127;" 
d="M45 543h-31v88h31v69h110v-69h90v69h110v-69h31v-88h-31v-443h-110v169h-90v-169h-110v443zM245 543h-90v-172h90v172z" />
    <glyph glyph-name="Itilde" unicode="&#x128;" horiz-adv-x="217" 
d="M2 878l-12 -7l-37 76l12 7q45 24 100 24q18 0 49 -12q32 -12 47 -12t28.5 2.5t20 5t6.5 3.5l12 6l36 -76l-11 -7q-44 -23 -97 -23q-20 0 -52 12t-47 12t-28.5 -2.5t-20 -5t-6.5 -3.5zM164 0h-110v800h110v-800z" />
    <glyph glyph-name="itilde" unicode="&#x129;" horiz-adv-x="217" 
d="M2 778l-12 -7l-37 76l12 7q45 24 100 24q18 0 49 -12q32 -12 47 -12t28.5 2.5t20 5t6.5 3.5l12 6l36 -76l-11 -7q-44 -23 -97 -23q-20 0 -52 12t-47 12t-28.5 -2.5t-20 -5t-6.5 -3.5zM164 100h-110v600h110v-600z" />
    <glyph glyph-name="Imacron" unicode="&#x12a;" horiz-adv-x="217" 
d="M164 0h-110v800h110v-800zM234 877h-250v89h250v-89z" />
    <glyph glyph-name="imacron" unicode="&#x12b;" horiz-adv-x="217" 
d="M164 100h-110v600h110v-600zM234 777h-250v89h250v-89z" />
    <glyph glyph-name="Ibreve" unicode="&#x12c;" horiz-adv-x="217" 
d="M109 852v89q22 0 35.5 9.5t13.5 24.5v21h89v-21q0 -56 -35.5 -89.5t-102.5 -33.5zM109 941v-89q-67 0 -102.5 33.5t-35.5 89.5v21h89v-21q0 -15 13.5 -24.5t35.5 -9.5zM164 0h-110v800h110v-800z" />
    <glyph glyph-name="ibreve" unicode="&#x12d;" horiz-adv-x="217" 
d="M109 752v89q22 0 35.5 9.5t13.5 24.5v21h89v-21q0 -56 -35.5 -89.5t-102.5 -33.5zM109 841v-89q-67 0 -102.5 33.5t-35.5 89.5v21h89v-21q0 -15 13.5 -24.5t35.5 -9.5zM164 100h-110v600h110v-600z" />
    <glyph glyph-name="Iogonek" unicode="&#x12e;" horiz-adv-x="217" 
d="M164 800v-800h-1q-80 -69 -82 -99q0 -20 20 -20q16 0 32 14l6 5l49 -26l-11 -17q-6 -10 -29 -27t-47 -17q-108 0 -108 94q0 61 61 106v787h110z" />
    <glyph glyph-name="iogonek" unicode="&#x12f;" horiz-adv-x="217" 
d="M164 700v-600h-1q-80 -69 -82 -99q0 -20 20 -20q16 0 32 14l6 5l49 -26l-11 -17q-6 -10 -29 -27t-47 -17q-108 0 -108 94q0 58 61 106v587h110z" />
    <glyph glyph-name="Idot" unicode="&#x130;" horiz-adv-x="217" 
d="M64 880q-18 19 -18 45t18 44q19 19 45 19t44 -19q19 -18 19 -44t-19 -45q-18 -18 -44 -18t-45 18zM164 0h-110v800h110v-800z" />
    <glyph glyph-name="dotlessi" unicode="&#x131;" horiz-adv-x="217" 
d="M164 100h-110v600h110v-600z" />
    <glyph glyph-name="Jcircumflex" unicode="&#x134;" horiz-adv-x="200" 
d="M0 -250h-64v103h64q19 0 32 13t13 32v902h110v-895q0 -64 -46 -109q-45 -46 -109 -46zM126 1020l96 -86l-64 -71l-58 55l-58 -55l-64 71l97 86h51z" />
    <glyph glyph-name="jcircumflex" unicode="&#x135;" horiz-adv-x="200" 
d="M0 -58h-39v103h39q19 0 32 13t13 32v610h110v-603q0 -64 -46 -109q-45 -46 -109 -46zM126 920l96 -86l-64 -71l-58 55l-58 -55l-64 71l97 86h51z" />
    <glyph glyph-name="Kcommaaccent" unicode="&#x136;" horiz-adv-x="500" 
d="M155 0h-110v800h110v-339l177 339h124l-174 -332l181 -468h-118l-130 338l-60 -114v-224zM190 -238v188h110v-67q0 -62 -27 -107l-9 -14h-74z" />
    <glyph glyph-name="kcommaaccent" unicode="&#x137;" 
d="M155 100h-110v600h110v-185l87 185h121l-119 -252l119 -348h-116l-70 205l-22 -48v-157zM145 -138v188h110v-67q0 -62 -27 -107l-9 -14h-74z" />
    <glyph glyph-name="kgreenlandic" unicode="&#x138;" 
d="M155 100h-110v600h110v-185l87 185h121l-119 -252l119 -348h-116l-70 205l-22 -48v-157z" />
    <glyph glyph-name="Lacute" unicode="&#x139;" horiz-adv-x="409" 
d="M368 0h-323v800h110v-697h213v-103zM265 909l-181 -53l-25 78l176 67z" />
    <glyph glyph-name="lacute" unicode="&#x13a;" horiz-adv-x="309" 
d="M275 100h-230v600h110v-497h120v-103zM265 809l-181 -53l-25 78l176 67z" />
    <glyph glyph-name="Lcommaaccent" unicode="&#x13b;" horiz-adv-x="409" 
d="M368 0h-323v800h110v-697h213v-103zM165 -238v188h110v-67q0 -62 -27 -107l-9 -14h-74z" />
    <glyph glyph-name="lcommaaccent" unicode="&#x13c;" horiz-adv-x="309" 
d="M275 100h-230v600h110v-497h120v-103zM104 -138v188h110v-67q0 -62 -27 -107l-9 -14h-74z" />
    <glyph glyph-name="Lcaron" unicode="&#x13d;" horiz-adv-x="409" 
d="M368 0h-323v800h110v-697h213v-103zM74 863l-96 87l64 70l58 -55l58 55l64 -70l-97 -87h-51z" />
    <glyph glyph-name="lcaron" unicode="&#x13e;" horiz-adv-x="309" 
d="M275 100h-230v600h110v-497h120v-103zM74 763l-96 87l64 70l58 -55l58 55l64 -70l-97 -87h-51z" />
    <glyph glyph-name="Ldot" unicode="&#x13f;" horiz-adv-x="409" 
d="M368 0h-323v800h110v-697h213v-103zM262 255q-18 19 -18 45t18 44q19 18 45 18t44 -18q19 -18 19 -44t-19 -45q-18 -18 -44 -18t-45 18z" />
    <glyph glyph-name="ldot" unicode="&#x140;" horiz-adv-x="309" 
d="M275 100h-230v600h110v-497h120v-103zM214 355q-18 19 -18 45t18 44q19 19 45 19t44 -19q19 -18 19 -44t-19 -45q-18 -18 -44 -18t-45 18z" />
    <glyph glyph-name="Lslash" unicode="&#x141;" horiz-adv-x="409" 
d="M45 197l-58 -23l-39 95l97 39v492h110v-448l58 24l39 -95l-97 -39v-139h213v-103h-323v197z" />
    <glyph glyph-name="lslash" unicode="&#x142;" horiz-adv-x="309" 
d="M45 242l-35 -14l-39 95l74 30v347h110v-302l35 14l39 -95l-74 -30v-84h120v-103h-230v142z" />
    <glyph glyph-name="Nacute" unicode="&#x143;" horiz-adv-x="525" 
d="M480 0h-110l-215 514v-514h-110v800h110l215 -515v515h110v-800zM378 909l-181 -53l-25 78l176 67z" />
    <glyph glyph-name="nacute" unicode="&#x144;" horiz-adv-x="425" 
d="M380 100h-110l-115 310v-310h-110v600h110l115 -311v311h110v-600zM328 809l-181 -53l-25 78l176 67z" />
    <glyph glyph-name="Ncommaaccent" unicode="&#x145;" horiz-adv-x="525" 
d="M480 0h-110l-215 514v-514h-110v800h110l215 -515v515h110v-800zM205 -238v188h110v-67q0 -62 -27 -107l-9 -14h-74z" />
    <glyph glyph-name="ncommaaccent" unicode="&#x146;" horiz-adv-x="425" 
d="M380 100h-110l-115 310v-310h-110v600h110l115 -311v311h110v-600zM155 -138v188h110v-67q0 -62 -27 -107l-9 -14h-74z" />
    <glyph glyph-name="Ncaron" unicode="&#x147;" horiz-adv-x="525" 
d="M480 0h-110l-215 514v-514h-110v800h110l215 -515v515h110v-800zM236 863l-96 87l64 70l58 -55l58 55l64 -70l-97 -87h-51z" />
    <glyph glyph-name="ncaron" unicode="&#x148;" horiz-adv-x="425" 
d="M380 100h-110l-115 310v-310h-110v600h110l115 -311v311h110v-600zM186 763l-96 87l64 70l58 -55l58 55l64 -70l-97 -87h-51z" />
    <glyph glyph-name="Eng" unicode="&#x14a;" horiz-adv-x="525" 
d="M325 -250h-64v103h64q19 0 32 13t13 32v102l-215 514v-514h-110v800h110l215 -515v515h110v-895q0 -64 -46 -109q-45 -46 -109 -46z" />
    <glyph glyph-name="eng" unicode="&#x14b;" horiz-adv-x="425" 
d="M225 -58h-39v103h39q19 0 32 13t13 32v10l-115 310v-310h-110v600h110l115 -311v311h110v-603q0 -64 -46 -109q-45 -46 -109 -46z" />
    <glyph glyph-name="Omacron" unicode="&#x14c;" horiz-adv-x="500" 
d="M45 197v406q0 85 60 145t145 60t145 -60t60 -145v-406q0 -85 -60 -145t-145 -60q-86 0 -146 60q-59 61 -59 145zM155 610v-420q0 -40 27.5 -67.5t67.5 -27.5q39 0 67 27.5t28 67.5v420q0 39 -28 67t-67 28q-40 0 -67.5 -28t-27.5 -67zM390 877h-280v89h280v-89z" />
    <glyph glyph-name="omacron" unicode="&#x14d;" 
d="M45 247v306q0 64 45 109q46 46 110 46t109 -46q46 -45 46 -109v-306q0 -64 -46 -110q-45 -45 -109 -45t-110 45q-45 47 -45 110zM155 560v-320q-2 -27 21.5 -38.5t47 0t21.5 38.5v320q2 27 -21.5 38.5t-47 0t-21.5 -38.5zM325 777h-250v89h250v-89z" />
    <glyph glyph-name="Obreve" unicode="&#x14e;" horiz-adv-x="500" 
d="M45 197v406q0 85 60 145t145 60t145 -60t60 -145v-406q0 -85 -60 -145t-145 -60q-86 0 -146 60q-59 61 -59 145zM155 610v-420q0 -40 27.5 -67.5t67.5 -27.5q39 0 67 27.5t28 67.5v420q0 39 -28 67t-67 28q-40 0 -67.5 -28t-27.5 -67zM299 975v21h89v-21
q0 -56 -35.5 -89.5t-102.5 -33.5t-102.5 33.5t-35.5 89.5v21h89v-21q-3 -21 23 -29.5t52 0t23 29.5z" />
    <glyph glyph-name="obreve" unicode="&#x14f;" 
d="M45 247v306q0 64 45 109q46 46 110 46t109 -46q46 -45 46 -109v-306q0 -64 -46 -110q-45 -45 -109 -45t-110 45q-45 47 -45 110zM155 560v-320q-2 -27 21.5 -38.5t47 0t21.5 38.5v320q2 27 -21.5 38.5t-47 0t-21.5 -38.5zM200 752v89q22 0 35.5 9.5t13.5 24.5v21h89v-21
q0 -56 -35.5 -89.5t-102.5 -33.5zM200 841v-89q-67 0 -102.5 33.5t-35.5 89.5v21h89v-21q0 -15 13.5 -24.5t35.5 -9.5z" />
    <glyph glyph-name="Ohungarumlaut" unicode="&#x150;" horiz-adv-x="500" 
d="M45 197v406q0 85 60 145t145 60t145 -60t60 -145v-406q0 -85 -60 -145t-145 -60q-86 0 -146 60q-59 61 -59 145zM155 610v-420q0 -40 27.5 -67.5t67.5 -27.5q39 0 67 27.5t28 67.5v420q0 39 -28 67t-67 28q-40 0 -67.5 -28t-27.5 -67zM268 930l-93 -73l-53 63l88 80z
M429 930l-93 -73l-53 63l88 80z" />
    <glyph glyph-name="ohungarumlaut" unicode="&#x151;" 
d="M45 247v306q0 64 45 109q46 46 110 46t109 -46q46 -45 46 -109v-306q0 -64 -46 -110q-45 -45 -109 -45t-110 45q-45 47 -45 110zM155 560v-320q-2 -27 21.5 -38.5t47 0t21.5 38.5v320q2 27 -21.5 38.5t-47 0t-21.5 -38.5zM212 830l-93 -73l-53 63l88 80zM373 830l-93 -73
l-53 63l88 80z" />
    <glyph glyph-name="OE" unicode="&#x152;" horiz-adv-x="720" 
d="M679 0h-334v15q-44 -23 -95 -23q-86 0 -146 60q-59 61 -59 145v406q0 85 60 145t145 60q48 0 95 -24v16h334v-103h-224v-371h174v-102h-174v-121h224v-103zM155 610v-420q0 -40 27.5 -67.5t67.5 -27.5q38 0 66 26.5t29 64.5v424q0 39 -28 67t-67 28q-40 0 -67.5 -28
t-27.5 -67z" />
    <glyph glyph-name="oe" unicode="&#x153;" horiz-adv-x="541" 
d="M45 247v306q0 64 45 109q46 46 110 46q22 0 49 -8h251v-103h-145v-226h120v-102h-120v-66h145v-103h-251q-27 -8 -49 -8q-64 0 -110 45q-45 47 -45 110zM155 560v-320q0 -19 13 -32t32 -13q17 0 30.5 12t14.5 29v324q2 27 -21.5 38.5t-47 0t-21.5 -38.5z" />
    <glyph glyph-name="Racute" unicode="&#x154;" horiz-adv-x="500" 
d="M155 224v-224h-110v800h205q85 0 145 -60t60 -145v-166q0 -94 -70 -154q70 -61 70 -154v-121h-110v129q0 39 -28 67t-67 28h-95zM250 697h-95v-371h95q39 0 67 28t28 67v181q0 39 -28 67t-67 28zM353 909l-181 -53l-25 78l176 67z" />
    <glyph glyph-name="racute" unicode="&#x155;" 
d="M155 100h-110v600h155q64 0 109 -46q46 -45 46 -109v-121q0 -61 -40 -104q40 -44 40 -104v-116h-110v124q0 18 -13 31.5t-32 13.5h-45v-169zM200 597h-45v-226h45q19 0 32 13.5t13 31.5v136q0 19 -13 32t-32 13zM303 809l-181 -53l-25 78l176 67z" />
    <glyph glyph-name="Rcommaaccent" unicode="&#x156;" horiz-adv-x="500" 
d="M155 224v-224h-110v800h205q85 0 145 -60t60 -145v-166q0 -94 -70 -154q70 -61 70 -154v-121h-110v129q0 39 -28 67t-67 28h-95zM250 697h-95v-371h99q38 2 64.5 29.5t26.5 65.5v181q0 39 -28 67t-67 28zM195 -238v188h110v-67q0 -62 -27 -107l-9 -14h-74z" />
    <glyph glyph-name="rcommaaccent" unicode="&#x157;" 
d="M203 269h-158v431h155q64 0 109 -46q46 -45 46 -109v-121q0 -61 -40 -104q40 -44 40 -104v-116h-110v124q0 17 -12 30t-30 15zM200 597h-45v-226h48q18 2 30 15t12 30v136q0 19 -13 32t-32 13zM145 -138v188h110v-67q0 -62 -27 -107l-9 -14h-74zM155 100h-110v169h110
v-169z" />
    <glyph glyph-name="Rcaron" unicode="&#x158;" horiz-adv-x="500" 
d="M155 224v-224h-110v800h205q85 0 145 -60t60 -145v-166q0 -94 -70 -154q70 -61 70 -154v-121h-110v129q0 39 -28 67t-67 28h-95zM250 697h-95v-371h99q38 2 64.5 29.5t26.5 65.5v181q0 39 -28 67t-67 28zM199 863l-96 87l64 70l58 -55l58 55l64 -70l-97 -87h-51z" />
    <glyph glyph-name="rcaron" unicode="&#x159;" 
d="M155 100h-110v600h155q64 0 109 -46q46 -45 46 -109v-121q0 -61 -40 -104q40 -44 40 -104v-116h-110v124q0 18 -13 31.5t-32 13.5h-45v-169zM164 763l-96 87l64 70l58 -55l58 55l64 -70l-97 -87h-51zM200 597h-45v-226h48q18 2 30 15t12 30v136q0 19 -13 32t-32 13z" />
    <glyph glyph-name="Sacute" unicode="&#x15a;" horiz-adv-x="490" 
d="M40 197v36h110v-43q0 -39 28 -67t67 -28q40 0 67.5 28t27.5 67v7q0 41 -29 68l-188 181q-75 62 -75 157q0 85 57 145q59 60 140 60q82 0 139 -60q58 -59 58 -145v-36h-110v43q0 39 -25 67t-62 28t-62 -28t-25 -67v-7q0 -43 30 -69l188 -180q74 -62 74 -157
q0 -85 -60 -145t-145 -60t-145 60t-60 145zM378 909l-181 -53l-25 78l176 67z" />
    <glyph glyph-name="sacute" unicode="&#x15b;" horiz-adv-x="390" 
d="M40 247v46h110v-53q-2 -27 21.5 -38.5t47 0t21.5 38.5v7q0 14 -7 25l-149 173q-44 47 -44 108q0 64 45 109q46 46 110 46t109 -46q46 -45 46 -109v-46h-110v53q2 27 -21.5 38.5t-47 0t-21.5 -38.5v-7q0 -13 9 -27l148 -174q43 -43 43 -105q0 -64 -46 -110
q-45 -45 -109 -45q-63 0 -110 45q-45 47 -45 110zM323 809l-181 -53l-25 78l176 67z" />
    <glyph glyph-name="Scircumflex" unicode="&#x15c;" horiz-adv-x="490" 
d="M40 197v36h110v-43q0 -39 28 -67t67 -28q40 0 67.5 28t27.5 67v7q0 41 -29 68l-188 181q-75 62 -75 157q0 85 57 145q59 60 140 60q82 0 139 -60q58 -59 58 -145v-36h-110v43q0 39 -25 67t-62 28t-62 -28t-25 -67v-7q0 -43 30 -69l188 -180q74 -62 74 -157
q0 -85 -60 -145t-145 -60t-145 60t-60 145zM271 1020l96 -86l-64 -71l-58 55l-58 -55l-64 71l97 86h51z" />
    <glyph glyph-name="scircumflex" unicode="&#x15d;" horiz-adv-x="390" 
d="M40 247v46h110v-53q-2 -27 21.5 -38.5t47 0t21.5 38.5v7q0 14 -7 25l-149 173q-44 47 -44 108q0 64 45 109q46 46 110 46t109 -46q46 -45 46 -109v-46h-110v53q2 27 -21.5 38.5t-47 0t-21.5 -38.5v-7q0 -13 9 -27l148 -174q43 -43 43 -105q0 -64 -46 -110
q-45 -45 -109 -45q-63 0 -110 45q-45 47 -45 110zM221 920l96 -86l-64 -71l-58 55l-58 -55l-64 71l97 86h51z" />
    <glyph glyph-name="Scedilla" unicode="&#x15e;" horiz-adv-x="490" 
d="M40 197v36h110v-43q0 -39 28 -67t67 -28q40 0 67.5 28t27.5 67v7q0 41 -29 68l-188 181q-75 62 -75 157q0 85 57 145q59 60 140 60q82 0 139 -60q58 -59 58 -145v-36h-110v43q0 39 -25 67t-62 28t-62 -28t-25 -67v-7q0 -43 30 -69l188 -180q74 -62 74 -157
q0 -77 -51 -136q-50 -56 -126 -67l-9 -15h35q62 0 62 -79q0 -37 -35 -69t-97 -32q-31 0 -59.5 13.5t-41.5 29.5l-12 14l23 38l12 -12q38 -31 78 -31q18 0 29 14.5t11 34.5q0 31 -35 31h-74l41 66q-67 13 -115 70q-46 56 -46 130z" />
    <glyph glyph-name="scedilla" unicode="&#x15f;" horiz-adv-x="390" 
d="M40 247v46h110v-53q-2 -27 21.5 -38.5t47 0t21.5 38.5v7q0 14 -7 25l-149 173q-44 47 -44 108q0 64 45 109q46 46 110 46t109 -46q46 -45 46 -109v-46h-110v53q2 27 -21.5 38.5t-47 0t-21.5 -38.5v-7q0 -13 9 -27l148 -174q43 -43 43 -105q0 -54 -33 -96t-84 -55l-11 -17
h35q62 0 62 -79q0 -37 -35 -69t-97 -32q-65 0 -109 51l-4 6l23 38l12 -12q38 -31 78 -31q18 0 29 14.5t11 34.5q0 31 -35 31h-74l40 65q-51 13 -84.5 55t-33.5 96z" />
    <glyph glyph-name="Scaron" unicode="&#x160;" horiz-adv-x="490" 
d="M40 197v36h110v-43q0 -39 28 -67t67 -28q40 0 67.5 28t27.5 67v7q0 41 -29 68l-188 181q-75 62 -75 157q0 85 57 145q59 60 140 60q82 0 139 -60q58 -59 58 -145v-36h-110v43q0 39 -25 67t-62 28t-62 -28t-25 -67v-7q0 -43 30 -69l188 -180q74 -62 74 -157
q0 -85 -60 -145t-145 -60t-145 60t-60 145zM219 863l-96 87l64 70l58 -55l58 55l64 -70l-97 -87h-51z" />
    <glyph glyph-name="scaron" unicode="&#x161;" horiz-adv-x="390" 
d="M40 247v46h110v-53q-2 -27 21.5 -38.5t47 0t21.5 38.5v7q0 14 -7 25l-149 173q-44 47 -44 108q0 64 45 109q46 46 110 46t109 -46q46 -45 46 -109v-46h-110v53q2 27 -21.5 38.5t-47 0t-21.5 -38.5v-7q0 -13 9 -27l148 -174q43 -43 43 -105q0 -64 -46 -110
q-45 -45 -109 -45q-63 0 -110 45q-45 47 -45 110zM169 763l-96 87l64 70l58 -55l58 55l64 -70l-97 -87h-51z" />
    <glyph glyph-name="Tcommaaccent" unicode="&#x162;" horiz-adv-x="419" 
d="M154 697h-130v103h371v-103h-131v-697h-110v697zM154 -238v188h110v-67q0 -62 -27 -107l-9 -14h-74z" />
    <glyph glyph-name="tcommaaccent" unicode="&#x163;" horiz-adv-x="319" 
d="M104 597h-80v103h271v-103h-81v-497h-110v497zM104 -138v188h110v-67q0 -62 -27 -107l-9 -14h-74z" />
    <glyph glyph-name="Tcaron" unicode="&#x164;" horiz-adv-x="419" 
d="M154 697h-130v103h371v-103h-131v-697h-110v697zM183 863l-96 87l64 70l58 -55l58 55l64 -70l-97 -87h-51z" />
    <glyph glyph-name="tcaron" unicode="&#x165;" horiz-adv-x="319" 
d="M104 597h-80v103h271v-103h-81v-497h-110v497zM133 763l-96 87l64 70l58 -55l58 55l64 -70l-97 -87h-51z" />
    <glyph glyph-name="Tbar" unicode="&#x166;" horiz-adv-x="419" 
d="M154 697h-130v103h371v-103h-131v-370h85v-89h-85v-238h-110v238h-85v89h85v370z" />
    <glyph glyph-name="tbar" unicode="&#x167;" horiz-adv-x="319" 
d="M104 597h-80v103h271v-103h-81v-225h70v-89h-70v-183h-110v183h-70v89h70v225z" />
    <glyph glyph-name="Utilde" unicode="&#x168;" horiz-adv-x="500" 
d="M143 878l-12 -7l-37 76l12 7q45 24 100 24q18 0 49 -12t47 -12q15 0 28.5 2.5t20 5t6.5 3.5l12 6l36 -76l-11 -7q-44 -23 -97 -23q-21 0 -52 12q-32 12 -47 12t-28.5 -2.5t-20 -5t-6.5 -3.5zM155 800v-610q0 -40 27.5 -67.5t67.5 -27.5q39 0 67 27.5t28 67.5v610h110
v-603q0 -85 -60 -145t-145 -60q-86 0 -146 60q-59 61 -59 145v603h110z" />
    <glyph glyph-name="utilde" unicode="&#x169;" 
d="M93 778l-12 -7l-37 76l12 7q45 24 100 24q18 0 49 -12t47 -12q15 0 28.5 2.5t20 5t6.5 3.5l12 6l36 -76l-11 -7q-44 -23 -97 -23q-21 0 -52 12q-32 12 -47 12t-28.5 -2.5t-20 -5t-6.5 -3.5zM155 700v-460q-2 -27 21.5 -38.5t47 0t21.5 38.5v460h110v-453q0 -64 -46 -110
q-45 -45 -109 -45t-110 45q-45 47 -45 110v453h110z" />
    <glyph glyph-name="Umacron" unicode="&#x16a;" horiz-adv-x="500" 
d="M155 800v-610q0 -40 27.5 -67.5t67.5 -27.5q39 0 67 27.5t28 67.5v610h110v-603q0 -85 -60 -145t-145 -60q-86 0 -146 60q-59 61 -59 145v603h110zM390 877h-280v89h280v-89z" />
    <glyph glyph-name="umacron" unicode="&#x16b;" 
d="M155 700v-460q-2 -27 21.5 -38.5t47 0t21.5 38.5v460h110v-453q0 -64 -46 -110q-45 -45 -109 -45t-110 45q-45 47 -45 110v453h110zM325 777h-250v89h250v-89z" />
    <glyph glyph-name="Ubreve" unicode="&#x16c;" horiz-adv-x="500" 
d="M155 800v-610q0 -40 27.5 -67.5t67.5 -27.5q39 0 67 27.5t28 67.5v610h110v-603q0 -85 -60 -145t-145 -60q-86 0 -146 60q-59 61 -59 145v603h110zM299 975v21h89v-21q0 -56 -35.5 -89.5t-102.5 -33.5t-102.5 33.5t-35.5 89.5v21h89v-21q-3 -21 23 -29.5t52 0t23 29.5z
" />
    <glyph glyph-name="ubreve" unicode="&#x16d;" 
d="M200 752v89q22 0 35.5 9.5t13.5 24.5v21h89v-21q0 -56 -35.5 -89.5t-102.5 -33.5zM200 841v-89q-67 0 -102.5 33.5t-35.5 89.5v21h89v-21q0 -15 13.5 -24.5t35.5 -9.5zM155 700v-460q-2 -27 21.5 -38.5t47 0t21.5 38.5v460h110v-453q0 -64 -46 -110q-45 -45 -109 -45
t-110 45q-45 47 -45 110v453h110z" />
    <glyph glyph-name="Uring" unicode="&#x16e;" horiz-adv-x="500" 
d="M163 838q-36 36 -36 87t36 87t87 36t87 -36t36 -87t-36 -87t-87 -36t-87 36zM226 949q-23 -23 1 -47t47 -1t-1 47t-47 1zM155 800v-610q0 -40 27.5 -67.5t67.5 -27.5q39 0 67 27.5t28 67.5v610h110v-603q0 -85 -60 -145t-145 -60q-86 0 -146 60q-59 61 -59 145v603h110z
" />
    <glyph glyph-name="uring" unicode="&#x16f;" 
d="M113 738q-36 36 -36 87t36 87t87 36t87 -36t36 -87t-36 -87t-87 -36t-87 36zM176 849q-23 -23 1 -47t47 -1t-1 47t-47 1zM155 700v-460q-2 -27 21.5 -38.5t47 0t21.5 38.5v460h110v-453q0 -64 -46 -110q-45 -45 -109 -45t-110 45q-45 47 -45 110v453h110z" />
    <glyph glyph-name="Uhungarumlaut" unicode="&#x170;" horiz-adv-x="500" 
d="M155 800v-610q0 -40 27.5 -67.5t67.5 -27.5q39 0 67 27.5t28 67.5v610h110v-603q0 -85 -60 -145t-145 -60q-86 0 -146 60q-59 61 -59 145v603h110zM268 930l-93 -73l-53 63l88 80zM429 930l-93 -73l-53 63l88 80z" />
    <glyph glyph-name="uhungarumlaut" unicode="&#x171;" 
d="M155 700v-460q-2 -27 21.5 -38.5t47 0t21.5 38.5v460h110v-453q0 -64 -46 -110q-45 -45 -109 -45t-110 45q-45 47 -45 110v453h110zM212 830l-93 -73l-53 63l88 80zM373 830l-93 -73l-53 63l88 80z" />
    <glyph glyph-name="Uogonek" unicode="&#x172;" horiz-adv-x="500" 
d="M155 800v-610q0 -40 27.5 -67.5t67.5 -27.5q39 0 67 27.5t28 67.5v610h110v-603q0 -66 -38 -119t-98 -74q-75 -66 -76 -94q0 -20 20 -20q10 0 32 14l6 5l49 -26l-11 -17q-6 -10 -29 -27t-47 -17q-108 0 -108 94q0 46 37 84q-66 18 -106 72q-41 56 -41 125v603h110z" />
    <glyph glyph-name="uogonek" unicode="&#x173;" 
d="M155 700v-460q-2 -27 21.5 -38.5t47 0t21.5 38.5v460h110v-453q0 -48 -26.5 -87t-70.5 -57q-72 -64 -74 -92q0 -20 20 -20q16 0 32 14l6 5l49 -26l-11 -17q-6 -10 -29 -27t-47 -17q-108 0 -108 94q0 47 41 88q-41 19 -66.5 57.5t-25.5 84.5v453h110z" />
    <glyph glyph-name="Wcircumflex" unicode="&#x174;" horiz-adv-x="550" 
d="M155 0h-110v800h110v-581l65 112h110l65 -112v581h110v-800h-110l-120 206zM301 1020l96 -86l-64 -71l-58 55l-58 -55l-64 71l97 86h51z" />
    <glyph glyph-name="wcircumflex" unicode="&#x175;" horiz-adv-x="450" 
d="M45 700h110v-362l22 42h96l22 -42v362h110v-600h-110l-70 146l-70 -146h-110v600zM251 920l96 -86l-64 -71l-58 55l-58 -55l-64 71l97 86h51z" />
    <glyph glyph-name="Ycircumflex" unicode="&#x176;" horiz-adv-x="470" 
d="M290 0h-110v224l-158 576h114l99 -382l99 382h114l-158 -576v-224zM261 1020l96 -86l-64 -71l-58 55l-58 -55l-64 71l97 86h51z" />
    <glyph glyph-name="ycircumflex" unicode="&#x177;" horiz-adv-x="393" 
d="M252 100h-110v169l-113 431h102l66 -258l65 258h102l-112 -431v-169zM222 920l96 -86l-64 -71l-58 55l-58 -55l-64 71l97 86h51z" />
    <glyph glyph-name="Ydieresis" unicode="&#x178;" horiz-adv-x="470" 
d="M290 0h-110v224l-158 576h114l99 -382l99 382h114l-158 -576v-224zM281 885q-17 17 -17 40t17 39q17 17 39 17t39 -17q17 -16 17 -39t-17 -40q-17 -16 -39 -16t-39 16zM111 885q-17 17 -17 40t17 39q17 17 39 17t39 -17q17 -16 17 -39t-17 -40q-17 -16 -39 -16t-39 16z
" />
    <glyph glyph-name="Zacute" unicode="&#x179;" horiz-adv-x="490" 
d="M316 697h-263v103h384v-103l-271 -594h279v-103h-400v103zM348 909l-181 -53l-25 78l176 67z" />
    <glyph glyph-name="zacute" unicode="&#x17a;" 
d="M233 597h-180v103h294v-103l-188 -394h196v-103h-310v103zM328 809l-181 -53l-25 78l176 67z" />
    <glyph glyph-name="Zdotaccent" unicode="&#x17b;" horiz-adv-x="490" 
d="M316 697h-263v103h384v-103l-271 -594h279v-103h-400v103zM200 880q-18 19 -18 45t18 44q19 19 45 19t44 -19q19 -18 19 -44t-19 -45q-18 -18 -44 -18t-45 18z" />
    <glyph glyph-name="zdotaccent" unicode="&#x17c;" 
d="M233 597h-180v103h294v-103l-188 -394h196v-103h-310v103zM155 780q-18 19 -18 45t18 44q19 19 45 19t44 -19q19 -18 19 -44t-19 -45q-18 -18 -44 -18t-45 18z" />
    <glyph glyph-name="Zcaron" unicode="&#x17d;" horiz-adv-x="490" 
d="M316 697h-263v103h384v-103l-271 -594h279v-103h-400v103zM219 863l-96 87l64 70l58 -55l58 55l64 -70l-97 -87h-51z" />
    <glyph glyph-name="zcaron" unicode="&#x17e;" 
d="M233 597h-180v103h294v-103l-188 -394h196v-103h-310v103zM174 763l-96 87l64 70l58 -55l58 55l64 -70l-97 -87h-51z" />
    <glyph glyph-name="florin" unicode="&#x192;" horiz-adv-x="355" 
d="M266 700h75v-103h-75q-18 0 -31.5 -13t-13.5 -32v-71h88v-102h-88v-224q0 -64 -46 -110q-45 -45 -109 -45h-44v103h44q19 0 32 13t13 32v231h-62v102h62v64q0 64 45 109q46 46 110 46z" />
    <glyph glyph-name="AEacute" unicode="&#x1fc;" horiz-adv-x="696" 
d="M654 0h-333v120h-164l-33 -120h-112l223 800h419v-103h-223v-371h173v-102h-173v-121h223v-103zM321 697h-5l-131 -474h136v474zM545 909l-181 -53l-25 78l176 67z" />
    <glyph glyph-name="aeacute" unicode="&#x1fd;" horiz-adv-x="549" 
d="M507 100h-255v100h-102l-25 -100h-103l144 600h341v-103h-145v-226h120v-102h-120v-66h145v-103zM442 809l-181 -53l-25 78l176 67zM252 597h-2l-74 -294h76v294z" />
    <glyph glyph-name="Oslashacute" unicode="&#x1fe;" horiz-adv-x="500" 
d="M45 197v406q0 85 60 145t145 60q56 0 106 -30l18 41l88 -38l-33 -79q26 -47 26 -99v-406q0 -85 -60 -145t-145 -60q-60 0 -107 29l-17 -40l-88 38l32 78q-25 44 -25 100zM345 190v312l-161 -382q29 -25 66 -25t67 27.5t28 67.5zM155 610v-312l160 381q-29 26 -65 26
q-40 0 -67.5 -28t-27.5 -67zM378 909l-181 -53l-25 78l176 67z" />
    <glyph glyph-name="oslashacute" unicode="&#x1ff;" 
d="M45 247v306q0 64 45 109q46 46 110 46q36 0 67 -16l10 25l82 -34l-23 -57q19 -34 19 -73v-306q0 -64 -46 -110q-45 -45 -109 -45q-36 0 -68 15l-9 -24l-82 34l22 57q-18 33 -18 73zM328 809l-181 -53l-25 78l176 67zM155 560v-154l74 188q-14 11 -29 11q-19 0 -32 -13
t-13 -32zM200 195q19 0 32 13t13 32v153l-74 -188q13 -10 29 -10z" />
    <glyph glyph-name="Scommaaccent" unicode="&#x218;" horiz-adv-x="490" 
d="M40 197v36h110v-43q0 -39 28 -67t67 -28q40 0 67.5 28t27.5 67v7q0 41 -29 68l-188 181q-75 62 -75 157q0 85 57 145q59 60 140 60q82 0 139 -60q58 -59 58 -145v-36h-110v43q0 39 -25 67t-62 28t-62 -28t-25 -67v-7q0 -43 30 -69l188 -180q74 -62 74 -157
q0 -85 -60 -145t-145 -60t-145 60t-60 145zM195 -238v188h110v-67q0 -62 -27 -107l-9 -14h-74z" />
    <glyph glyph-name="scommaaccent" unicode="&#x219;" horiz-adv-x="390" 
d="M40 247v46h110v-53q-2 -27 21.5 -38.5t47 0t21.5 38.5v7q0 14 -7 25l-149 173q-44 47 -44 108q0 64 45 109q46 46 110 46t109 -46q46 -45 46 -109v-46h-110v53q2 27 -21.5 38.5t-47 0t-21.5 -38.5v-7q0 -13 9 -27l148 -174q43 -43 43 -105q0 -64 -46 -110
q-45 -45 -109 -45q-63 0 -110 45q-45 47 -45 110zM145 -138v188h110v-67q0 -62 -27 -107l-9 -14h-74z" />
    <glyph glyph-name="uni021A" unicode="&#x21a;" horiz-adv-x="419" 
d="M154 697h-130v103h371v-103h-131v-697h-110v697zM154 -238v188h110v-67q0 -62 -27 -107l-9 -14h-74z" />
    <glyph glyph-name="uni021B" unicode="&#x21b;" horiz-adv-x="319" 
d="M104 597h-80v103h271v-103h-81v-497h-110v497zM104 -138v188h110v-67q0 -62 -27 -107l-9 -14h-74z" />
    <glyph glyph-name="circumflex" unicode="&#x2c6;" horiz-adv-x="330" 
d="M191 920l96 -86l-64 -71l-58 55l-58 -55l-64 71l97 86h51z" />
    <glyph glyph-name="caron" unicode="&#x2c7;" horiz-adv-x="330" 
d="M139 763l-96 87l64 70l58 -55l58 55l64 -70l-97 -87h-51z" />
    <glyph glyph-name="breve" unicode="&#x2d8;" horiz-adv-x="330" 
d="M165 752v89q22 0 35.5 9.5t13.5 24.5v21h89v-21q0 -56 -35.5 -89.5t-102.5 -33.5zM165 841v-89q-67 0 -102.5 33.5t-35.5 89.5v21h89v-21q0 -15 13.5 -24.5t35.5 -9.5z" />
    <glyph glyph-name="dotaccent" unicode="&#x2d9;" horiz-adv-x="217" 
d="M55 780q-18 19 -18 45t18 44q19 19 45 19t44 -19q19 -18 19 -44t-19 -45q-18 -18 -44 -18t-45 18z" />
    <glyph glyph-name="ring" unicode="&#x2da;" horiz-adv-x="330" 
d="M78 738q-36 36 -36 87t36 87t87 36t87 -36t36 -87t-36 -87t-87 -36t-87 36zM141 849q-23 -23 1 -47t47 -1t-1 47t-47 1z" />
    <glyph glyph-name="ogonek" unicode="&#x2db;" horiz-adv-x="200" 
d="M57 110l19 14l93 -24q-80 -69 -82 -99q0 -20 20 -20q16 0 32 14l6 5l49 -26l-11 -17q-6 -10 -29 -27t-47 -17q-108 0 -108 94q0 30 18.5 59t39.5 44z" />
    <glyph glyph-name="tilde" unicode="&#x2dc;" horiz-adv-x="200" 
d="M-7 778l-12 -7l-37 76l12 7q45 24 100 24q18 0 49 -12t47 -12q15 0 28.5 2.5t20 5t6.5 3.5l12 6l36 -76l-11 -7q-44 -23 -97 -23q-21 0 -52 12t-47 12q-15 0 -28.5 -2.5t-20 -5t-6.5 -3.5z" />
    <glyph glyph-name="hungarumlaut" unicode="&#x2dd;" horiz-adv-x="350" 
d="M185 830l-93 -73l-53 63l88 80zM346 830l-93 -73l-53 63l88 80z" />
    <glyph glyph-name="uni037E" unicode="&#x37e;" horiz-adv-x="217" 
d="M45 18v188h110v-67q0 -62 -27 -107l-9 -14h-74zM55 501q-18 19 -18 45t18 44q19 18 45 18t44 -18q19 -18 19 -44t-19 -45q-18 -18 -44 -18t-45 18z" />
    <glyph glyph-name="tonos" unicode="&#x384;" horiz-adv-x="200" 
d="M144 772l-3 -15h-82q-10 54 -10 93v75h102v-75q0 -29 -7 -78z" />
    <glyph glyph-name="Alphatonos" unicode="&#x386;" horiz-adv-x="502" 
d="M195 800h110l175 -800h-112l-26 120h-183l-25 -120h-112zM321 223l-71 338l-70 -338h141zM294 872l-2 -15h-82q-10 54 -10 93v75h102v-75q0 -36 -8 -78z" />
    <glyph glyph-name="Epsilontonos" unicode="&#x388;" horiz-adv-x="420" 
d="M379 0h-334v800h334v-103h-224v-371h174v-102h-174v-121h224v-103zM258 872l-3 -15h-82q-10 54 -10 93v75h102v-75q0 -29 -7 -78z" />
    <glyph glyph-name="Etatonos" unicode="&#x389;" horiz-adv-x="500" 
d="M455 0h-110v224h-190v-224h-110v800h110v-474h190v474h110v-800zM294 872l-3 -15h-82q-10 54 -10 93v75h102v-75q0 -29 -7 -78z" />
    <glyph glyph-name="Iotatonos" unicode="&#x38a;" horiz-adv-x="217" 
d="M164 0h-110v800h110v-800zM148 872l-2 -15h-82q-10 54 -10 93v75h102v-75q0 -36 -8 -78z" />
    <glyph glyph-name="Omicrontonos" unicode="&#x38c;" horiz-adv-x="500" 
d="M45 197v406q0 85 60 145t145 60t145 -60t60 -145v-406q0 -85 -60 -145t-145 -60q-86 0 -146 60q-59 61 -59 145zM155 610v-420q0 -40 27.5 -67.5t67.5 -27.5q39 0 67 27.5t28 67.5v420q0 39 -28 67t-67 28q-40 0 -67.5 -28t-27.5 -67zM294 872l-3 -15h-82q-10 54 -10 93
v75h102v-75q0 -29 -7 -78z" />
    <glyph glyph-name="Upsilontonos" unicode="&#x38e;" horiz-adv-x="470" 
d="M290 0h-110v224l-158 576h114l99 -382l99 382h114l-158 -576v-224zM278 872l-2 -15h-82q-10 54 -10 93v75h102v-75q0 -36 -8 -78z" />
    <glyph glyph-name="Omegatonos" unicode="&#x38f;" horiz-adv-x="500" 
d="M380 103h75v-103h-187v103l73 259q4 16 4 28v220q0 39 -27.5 67t-67.5 28t-67.5 -28t-27.5 -67v-220q0 -12 4 -28l73 -259v-103h-187v103h75l-66 234q-9 27 -9 60v206q0 85 60 145t145 60t145 -60t60 -145v-206q0 -33 -9 -60zM294 872l-3 -15h-82q-10 54 -10 93v75h102
v-75q0 -29 -7 -78z" />
    <glyph glyph-name="iotadieresistonos" unicode="&#x390;" horiz-adv-x="217" 
d="M-10 881q22 0 38.5 -16.5t16.5 -39.5t-16.5 -39.5t-38.5 -16.5q-23 0 -39.5 16.5t-16.5 39.5t16.5 39.5t39.5 16.5zM225 881q23 0 39.5 -16.5t16.5 -39.5t-16.5 -39.5t-39.5 -16.5q-22 0 -38.5 16.5t-16.5 39.5t16.5 39.5t38.5 16.5zM151 772l-3 -15h-82q-10 54 -10 93
v75h103v-75q0 -36 -8 -78zM164 100h-110v600h110v-600z" />
    <glyph glyph-name="Alpha" unicode="&#x391;" horiz-adv-x="502" 
d="M195 800h110l175 -800h-112l-26 120h-183l-25 -120h-112zM321 223l-71 338l-70 -338h141z" />
    <glyph glyph-name="Beta" unicode="&#x392;" horiz-adv-x="500" 
d="M250 0h-205v800h205q85 0 145 -60t60 -145v-83q0 -92 -69 -154q69 -62 69 -153q0 -85 -60 -145t-145 -60zM250 697h-95v-287h99q39 2 65 29t26 66v97q0 39 -28 67t-67 28zM250 307h-95v-204h95q39 0 67 27.5t28 67.5v14q0 39 -28 67t-67 28z" />
    <glyph glyph-name="Gamma" unicode="&#x393;" horiz-adv-x="415" 
d="M155 0h-110v800h349v-103h-239v-697z" />
    <glyph glyph-name="increment" unicode="&#x394;" horiz-adv-x="502" 
d="M195 800h110l175 -800h-458zM346 103l-96 458l-95 -458h191z" />
    <glyph glyph-name="increment" unicode="&#x2206;" horiz-adv-x="502" 
d="M195 800h110l175 -800h-458zM346 103l-96 458l-95 -458h191z" />
    <glyph glyph-name="Epsilon" unicode="&#x395;" horiz-adv-x="420" 
d="M379 0h-334v800h334v-103h-224v-371h174v-102h-174v-121h224v-103z" />
    <glyph glyph-name="Zeta" unicode="&#x396;" horiz-adv-x="490" 
d="M316 697h-263v103h384v-103l-271 -594h279v-103h-400v103z" />
    <glyph glyph-name="Eta" unicode="&#x397;" horiz-adv-x="500" 
d="M455 0h-110v224h-190v-224h-110v800h110v-474h190v474h110v-800z" />
    <glyph glyph-name="Theta" unicode="&#x398;" horiz-adv-x="500" 
d="M45 197v406q0 85 60 145t145 60t145 -60t60 -145v-406q0 -85 -60 -145t-145 -60q-86 0 -146 60q-59 61 -59 145zM155 610v-420q0 -40 27.5 -67.5t67.5 -27.5q39 0 67 27.5t28 67.5v420q0 39 -28 67t-67 28q-40 0 -67.5 -28t-27.5 -67zM307 224h-116v102h116v-102z" />
    <glyph glyph-name="Iota" unicode="&#x399;" horiz-adv-x="217" 
d="M164 0h-110v800h110v-800z" />
    <glyph glyph-name="Kappa" unicode="&#x39a;" horiz-adv-x="500" 
d="M155 0h-110v800h110v-339l177 339h124l-174 -332l181 -468h-118l-130 338l-60 -114v-224z" />
    <glyph glyph-name="Lambda" unicode="&#x39b;" horiz-adv-x="502" 
d="M195 800h110l175 -800h-112l-118 561l-116 -561h-112z" />
    <glyph glyph-name="Mu" unicode="&#x39c;" horiz-adv-x="550" 
d="M395 800h110v-800h-110v581l-65 -112h-110l-65 112v-581h-110v800h110l120 -206z" />
    <glyph glyph-name="Nu" unicode="&#x39d;" horiz-adv-x="525" 
d="M480 0h-110l-215 514v-514h-110v800h110l215 -515v515h110v-800z" />
    <glyph glyph-name="Xi" unicode="&#x39e;" horiz-adv-x="403" 
d="M330 224h-257v102h257v-102zM382 0h-361v103h361v-103zM381 697h-360v103h360v-103z" />
    <glyph glyph-name="Omicron" unicode="&#x39f;" horiz-adv-x="500" 
d="M45 197v406q0 85 60 145t145 60t145 -60t60 -145v-406q0 -85 -60 -145t-145 -60q-86 0 -146 60q-59 61 -59 145zM155 610v-420q0 -40 27.5 -67.5t67.5 -27.5q39 0 67 27.5t28 67.5v420q0 39 -28 67t-67 28q-40 0 -67.5 -28t-27.5 -67z" />
    <glyph glyph-name="Pi" unicode="&#x3a0;" horiz-adv-x="500" 
d="M455 0h-110v697h-190v-697h-110v800h410v-800z" />
    <glyph glyph-name="Rho" unicode="&#x3a1;" horiz-adv-x="500" 
d="M155 0h-110v800h205q85 0 145 -60t60 -145v-166q0 -85 -60 -145t-145 -60h-95v-224zM250 697h-95v-371h95q39 0 67 28t28 67v181q0 39 -28 67t-67 28z" />
    <glyph glyph-name="Sigma" unicode="&#x3a3;" horiz-adv-x="480" 
d="M445 0h-400v103l158 179l-150 415v103h384v-103h-267l134 -371v-102l-111 -121h252v-103z" />
    <glyph glyph-name="Tau" unicode="&#x3a4;" horiz-adv-x="419" 
d="M154 697h-130v103h371v-103h-131v-697h-110v697z" />
    <glyph glyph-name="Upsilon" unicode="&#x3a5;" horiz-adv-x="470" 
d="M290 0h-110v224l-158 576h114l99 -382l99 382h114l-158 -576v-224z" />
    <glyph glyph-name="Phi" unicode="&#x3a6;" horiz-adv-x="680" 
d="M240 711h45v89h110v-89h45q85 0 145 -60t60 -145v-212q0 -85 -60 -145t-145 -60h-45v-89h-110v89h-45q-85 0 -145 60t-60 145v212q0 85 60 145t145 60zM240 192h45v416h-45q-39 0 -67 -27.5t-28 -67.5v-226q0 -39 28 -67t67 -28zM440 608h-45v-416h45q39 0 67 28t28 67
v226q0 40 -28 67.5t-67 27.5z" />
    <glyph glyph-name="Chi" unicode="&#x3a7;" horiz-adv-x="500" 
d="M338 800h117l-147 -390l155 -410h-118l-95 253l-95 -253h-118l154 410l-146 390h117l88 -235z" />
    <glyph glyph-name="Psi" unicode="&#x3a8;" horiz-adv-x="525" 
d="M330 0h-110v221q-76 19 -126 81q-49 61 -49 143v355h110v-362q0 -34 17.5 -63t47.5 -44v469h110v-469q29 15 47 44t18 63v362h110v-355q0 -82 -49 -143q-50 -62 -126 -81v-221z" />
    <glyph glyph-name="Omega" unicode="&#x3a9;" horiz-adv-x="500" 
d="M268 103l73 259q4 16 4 28v220q0 39 -27.5 67t-67.5 28t-67.5 -28t-27.5 -67v-220q0 -12 4 -28l73 -259v-103h-187v103h75l-66 234q-9 27 -9 60v206q0 85 60 145t145 60t145 -60t60 -145v-206q0 -33 -9 -60l-66 -234h75v-103h-187v103z" />
    <glyph glyph-name="Omega" unicode="&#x2126;" horiz-adv-x="500" 
d="M268 103l73 259q4 16 4 28v220q0 39 -27.5 67t-67.5 28t-67.5 -28t-27.5 -67v-220q0 -12 4 -28l73 -259v-103h-187v103h75l-66 234q-9 27 -9 60v206q0 85 60 145t145 60t145 -60t60 -145v-206q0 -33 -9 -60l-66 -234h75v-103h-187v103z" />
    <glyph glyph-name="Iotadieresis" unicode="&#x3aa;" horiz-adv-x="217" 
d="M164 0h-110v800h110v-800zM-19 885q-17 17 -17 40t17 39q17 17 39 17t39 -17q17 -16 17 -39t-17 -40q-17 -16 -39 -16t-39 16zM151 885q-17 17 -17 40t17 39q17 17 39 17t39 -17q17 -16 17 -39t-17 -40q-17 -16 -39 -16t-39 16z" />
    <glyph glyph-name="Upsilondieresis" unicode="&#x3ab;" horiz-adv-x="470" 
d="M290 0h-110v224l-158 576h114l99 -382l99 382h114l-158 -576v-224zM281 885q-17 17 -17 40t17 39q17 17 39 17t39 -17q17 -16 17 -39t-17 -40q-17 -16 -39 -16t-39 16zM111 885q-17 17 -17 40t17 39q17 17 39 17t39 -17q17 -16 17 -39t-17 -40q-17 -16 -39 -16t-39 16z
" />
    <glyph glyph-name="alphatonos" unicode="&#x3ac;" horiz-adv-x="391" 
d="M141 700h110l118 -600h-103l-19 100h-103l-19 -100h-103zM238 772l-2 -15h-82q-10 54 -10 93v75h102v-75q0 -36 -8 -78zM227 303l-31 163l-32 -163h63z" />
    <glyph glyph-name="epsilontonos" unicode="&#x3ad;" horiz-adv-x="341" 
d="M300 100h-255v600h255v-103h-145v-226h120v-102h-120v-66h145v-103zM218 772l-3 -15h-82q-10 54 -10 93v75h102v-75q0 -29 -7 -78z" />
    <glyph glyph-name="etatonos" unicode="&#x3ae;" 
d="M355 100h-110v169h-90v-169h-110v600h110v-329h90v329h110v-600zM244 772l-3 -15h-82q-10 54 -10 93v75h102v-75q0 -29 -7 -78z" />
    <glyph glyph-name="iotatonos" unicode="&#x3af;" horiz-adv-x="217" 
d="M164 100h-110v600h110v-600zM148 772l-2 -15h-82q-10 54 -10 93v75h102v-75q0 -36 -8 -78z" />
    <glyph glyph-name="upsilondieresistonos" unicode="&#x3b0;" horiz-adv-x="393" 
d="M252 100h-110v169l-113 431h102l66 -258l65 258h102l-112 -431v-169zM240 772l-3 -15h-81q-11 60 -11 93v75h103v-75q0 -22 -8 -78zM315 881q22 0 38.5 -16.5t16.5 -39.5t-16.5 -39.5t-38.5 -16.5q-23 0 -39.5 16.5t-16.5 39.5t16.5 39.5t39.5 16.5zM79 881
q23 0 39.5 -16.5t16.5 -39.5t-16.5 -39.5t-39.5 -16.5q-22 0 -38.5 16.5t-16.5 39.5t16.5 39.5t38.5 16.5z" />
    <glyph glyph-name="alpha" unicode="&#x3b1;" horiz-adv-x="391" 
d="M141 700h110l118 -600h-103l-19 100h-103l-19 -100h-103zM227 303l-31 163l-32 -163h63z" />
    <glyph glyph-name="beta" unicode="&#x3b2;" 
d="M200 100h-155v600h155q64 0 109 -46q46 -45 46 -109v-83q0 -60 -40 -104q40 -43 40 -103q0 -64 -46 -110q-45 -45 -109 -45zM200 597h-45v-187h48q18 2 30 14.5t12 30.5v97q0 19 -13 32t-32 13zM203 307h-48v-104h45q19 0 32 13t13 32v14q0 17 -12 30t-30 15z" />
    <glyph glyph-name="gamma" unicode="&#x3b3;" horiz-adv-x="321" 
d="M155 100h-110v600h255v-103h-145v-497z" />
    <glyph glyph-name="delta" unicode="&#x3b4;" horiz-adv-x="391" 
d="M141 700h110l118 -600h-347zM246 203l-50 263l-51 -263h101z" />
    <glyph glyph-name="epsilon" unicode="&#x3b5;" horiz-adv-x="341" 
d="M300 100h-255v600h255v-103h-145v-226h120v-102h-120v-66h145v-103z" />
    <glyph glyph-name="zeta" unicode="&#x3b6;" 
d="M233 597h-180v103h294v-103l-188 -394h196v-103h-310v103z" />
    <glyph glyph-name="eta" unicode="&#x3b7;" 
d="M355 100h-110v169h-90v-169h-110v600h110v-329h90v329h110v-600z" />
    <glyph glyph-name="theta" unicode="&#x3b8;" 
d="M45 247v306q0 64 45 109q46 46 110 46t109 -46q46 -45 46 -109v-306q0 -64 -46 -110q-45 -45 -109 -45t-110 45q-45 47 -45 110zM155 560v-184h90v184q2 27 -21.5 38.5t-47 0t-21.5 -38.5zM155 274v-34q-2 -27 21.5 -38.5t47 0t21.5 38.5v34h-90z" />
    <glyph glyph-name="iota" unicode="&#x3b9;" horiz-adv-x="217" 
d="M164 100h-110v600h110v-600z" />
    <glyph glyph-name="kappa" unicode="&#x3ba;" 
d="M155 100h-110v600h110v-185l87 185h121l-119 -252l119 -348h-116l-70 205l-22 -48v-157z" />
    <glyph glyph-name="lambda" unicode="&#x3bb;" horiz-adv-x="391" 
d="M141 700h110l118 -600h-103l-70 366l-71 -366h-103z" />
    <glyph glyph-name="uni03BC" unicode="&#x3bc;" horiz-adv-x="450" 
d="M405 100h-110v362l-22 -42h-96l-22 42v-362h-110v600h110l70 -146l70 146h110v-600z" />
    <glyph glyph-name="nu" unicode="&#x3bd;" horiz-adv-x="425" 
d="M380 100h-110l-115 310v-310h-110v600h110l115 -311v311h110v-600z" />
    <glyph glyph-name="xi" unicode="&#x3be;" horiz-adv-x="365" 
d="M299 269h-233v102h233v-102zM324 100h-283v103h283v-103zM324 597h-283v103h283v-103z" />
    <glyph glyph-name="omicron" unicode="&#x3bf;" 
d="M45 247v306q0 64 45 109q46 46 110 46t109 -46q46 -45 46 -109v-306q0 -64 -46 -110q-45 -45 -109 -45t-110 45q-45 47 -45 110zM155 560v-320q-2 -27 21.5 -38.5t47 0t21.5 38.5v320q2 27 -21.5 38.5t-47 0t-21.5 -38.5z" />
    <glyph glyph-name="pi" unicode="&#x3c0;" 
d="M355 100h-110v497h-90v-497h-110v600h310v-600z" />
    <glyph glyph-name="rho" unicode="&#x3c1;" 
d="M155 100h-110v600h155q64 0 109 -46q46 -45 46 -109v-121q0 -64 -46 -110q-45 -45 -109 -45h-45v-169zM200 597h-45v-226h45q19 0 32 13.5t13 31.5v136q0 19 -13 32t-32 13z" />
    <glyph glyph-name="uni03C2" unicode="&#x3c2;" 
d="M347 700v-103h-172l86 -208v-103l-60 -83h154v-103h-310v103l115 139l-107 255v103h294z" />
    <glyph glyph-name="sigma" unicode="&#x3c3;" 
d="M347 700v-103h-172l86 -208v-103l-60 -83h154v-103h-310v103l115 139l-107 255v103h294z" />
    <glyph glyph-name="tau" unicode="&#x3c4;" horiz-adv-x="319" 
d="M104 597h-80v103h271v-103h-81v-497h-110v497z" />
    <glyph glyph-name="upsilon" unicode="&#x3c5;" horiz-adv-x="393" 
d="M252 100h-110v169l-113 431h102l66 -258l65 258h102l-112 -431v-169z" />
    <glyph glyph-name="phi" unicode="&#x3c6;" horiz-adv-x="540" 
d="M325 100h-110v82h-25q-64 0 -110 45q-45 47 -45 110v126q0 64 45 109q46 46 110 46h25v82h110v-82h25q64 0 109 -46q46 -45 46 -109v-126q0 -64 -46 -110q-45 -45 -109 -45h-25v-82zM350 515h-25v-230h25q19 0 32 13t13 32v140q0 19 -13 32t-32 13zM190 285h25v230h-25
q-19 0 -32 -13t-13 -32v-140q0 -19 13 -32t32 -13z" />
    <glyph glyph-name="chi" unicode="&#x3c7;" 
d="M247 700h116l-101 -300l101 -300h-116l-43 127l-43 -127h-116l101 300l-101 300h116l43 -128z" />
    <glyph glyph-name="psi" unicode="&#x3c8;" horiz-adv-x="525" 
d="M317 100h-110v122q-71 18 -117 76q-45 58 -45 135v267h110v-274q0 -64 52 -92v366h110v-366q53 30 53 92v274h110v-267q0 -76 -46 -134t-117 -76v-123z" />
    <glyph glyph-name="omega" unicode="&#x3c9;" 
d="M155 560v-170q0 -6 1 -8l26 -179v-103h-137v103h26l-25 180q-1 3 -1 14v156q0 64 45 109q46 46 110 46t109 -46q46 -45 46 -109v-156q0 -11 -1 -14l-25 -180h26v-103h-137v103l26 179q1 2 1 8v170q2 27 -21.5 38.5t-47 0t-21.5 -38.5z" />
    <glyph glyph-name="iotadieresis" unicode="&#x3ca;" horiz-adv-x="217" 
d="M164 100h-110v600h110v-600zM-5 785q-17 17 -17 40t17 39q17 17 39 17t39 -17q17 -16 17 -39t-17 -40q-17 -16 -39 -16t-39 16zM145 785q-17 17 -17 40t17 39q17 17 39 17t39 -17q17 -16 17 -39t-17 -40q-17 -16 -39 -16t-39 16z" />
    <glyph glyph-name="upsilondieresis" unicode="&#x3cb;" horiz-adv-x="393" 
d="M252 100h-110v169l-113 431h102l66 -258l65 258h102l-112 -431v-169zM233 785q-17 17 -17 40t17 39q17 17 39 17t39 -17q17 -16 17 -39t-17 -40q-17 -16 -39 -16t-39 16zM83 785q-17 17 -17 40t17 39q17 17 39 17t39 -17q17 -16 17 -39t-17 -40q-17 -16 -39 -16t-39 16z
" />
    <glyph glyph-name="omicrontonos" unicode="&#x3cc;" 
d="M45 247v306q0 64 45 109q46 46 110 46t109 -46q46 -45 46 -109v-306q0 -64 -46 -110q-45 -45 -109 -45t-110 45q-45 47 -45 110zM155 560v-320q-2 -27 21.5 -38.5t47 0t21.5 38.5v320q2 27 -21.5 38.5t-47 0t-21.5 -38.5zM244 772l-3 -15h-82q-10 54 -10 93v75h102v-75
q0 -29 -7 -78z" />
    <glyph glyph-name="upsilontonos" unicode="&#x3cd;" horiz-adv-x="393" 
d="M252 100h-110v169l-113 431h102l66 -258l65 258h102l-112 -431v-169zM240 772l-2 -15h-82q-10 54 -10 93v75h102v-75q0 -36 -8 -78z" />
    <glyph glyph-name="omegatonos" unicode="&#x3ce;" 
d="M155 560v-170q0 -6 1 -8l26 -179v-103h-137v103h26l-25 180q-1 3 -1 14v156q0 64 45 109q46 46 110 46t109 -46q46 -45 46 -109v-156q0 -11 -1 -14l-25 -180h26v-103h-137v103l26 179q1 2 1 8v170q2 27 -21.5 38.5t-47 0t-21.5 -38.5zM244 772l-3 -15h-82q-10 54 -10 93
v75h102v-75q0 -29 -7 -78z" />
    <glyph glyph-name="afii10023" unicode="&#x401;" horiz-adv-x="420" 
d="M379 0h-334v800h334v-103h-224v-371h174v-102h-174v-121h224v-103zM89 885q-17 17 -17 40t17 39q17 17 39 17t39 -17q17 -16 17 -39t-17 -40q-17 -16 -39 -16t-39 16zM259 885q-17 17 -17 40t17 39q17 17 39 17t39 -17q17 -16 17 -39t-17 -40q-17 -16 -39 -16t-39 16z
" />
    <glyph glyph-name="afii10051" unicode="&#x402;" horiz-adv-x="609" 
d="M154 697h-130v103h371v-103h-131v-163q45 24 95 24q85 0 145 -60t60 -145v-148q0 -85 -60 -145t-145 -60h-25v103h25q39 0 67 27.5t28 67.5v162q0 39 -28 67t-67 28t-66 -26t-29 -65v-364h-110v697z" />
    <glyph glyph-name="afii10052" unicode="&#x403;" horiz-adv-x="415" 
d="M155 0h-110v800h349v-103h-239v-697zM325 909l-181 -53l-25 78l176 67z" />
    <glyph glyph-name="afii10053" unicode="&#x404;" horiz-adv-x="500" 
d="M155 610v-174h174v-102h-174v-144q0 -40 27.5 -67.5t67.5 -27.5q39 0 67 27.5t28 67.5v43h110v-36q0 -85 -60 -145t-145 -60q-86 0 -146 60q-59 61 -59 145v406q0 85 60 145t145 60t145 -60t60 -145v-36h-110v43q0 39 -28 67t-67 28q-40 0 -67.5 -28t-27.5 -67z" />
    <glyph glyph-name="afii10054" unicode="&#x405;" horiz-adv-x="490" 
d="M40 197v36h110v-43q0 -39 28 -67t67 -28q40 0 67.5 28t27.5 67v7q0 41 -29 68l-188 181q-75 62 -75 157q0 85 57 145q59 60 140 60q82 0 139 -60q58 -59 58 -145v-36h-110v43q0 39 -25 67t-62 28t-62 -28t-25 -67v-7q0 -43 30 -69l188 -180q74 -62 74 -157
q0 -85 -60 -145t-145 -60t-145 60t-60 145z" />
    <glyph glyph-name="afii10055" unicode="&#x406;" horiz-adv-x="217" 
d="M164 0h-110v800h110v-800z" />
    <glyph glyph-name="afii10056" unicode="&#x407;" horiz-adv-x="217" 
d="M164 0h-110v800h110v-800zM-5 885q-17 17 -17 40t17 39q17 17 39 17t39 -17q17 -16 17 -39t-17 -40q-17 -16 -39 -16t-39 16zM145 885q-17 17 -17 40t17 39q17 17 39 17t39 -17q17 -16 17 -39t-17 -40q-17 -16 -39 -16t-39 16z" />
    <glyph glyph-name="afii10057" unicode="&#x408;" horiz-adv-x="200" 
d="M0 -250h-64v103h64q19 0 32 13t13 32v902h110v-895q0 -64 -46 -109q-45 -46 -109 -46z" />
    <glyph glyph-name="afii10058" unicode="&#x409;" horiz-adv-x="741" 
d="M51 0h-38v103h38q19 0 32 13t13 32v652h360v-390h45q85 0 145 -60t60 -145t-60 -145t-145 -60h-155v697h-140v-542q0 -64 -46 -110q-45 -45 -109 -45zM501 307h-45v-204h45q40 0 67.5 27.5t27.5 67.5v14q0 39 -27.5 67t-67.5 28z" />
    <glyph glyph-name="afii10059" unicode="&#x40a;" horiz-adv-x="690" 
d="M450 0h-155v307h-140v-307h-110v800h110v-390h140v390h110v-390h45q85 0 145 -60t60 -145t-60 -145t-145 -60zM450 307h-45v-204h45q39 0 67 27.5t28 67.5v14q0 39 -28 67t-67 28z" />
    <glyph glyph-name="afii10060" unicode="&#x40b;" horiz-adv-x="609" 
d="M154 697h-130v103h371v-103h-131v-163q45 24 95 24q85 0 145 -60t60 -145v-353h-110v360q0 39 -28 67t-67 28t-66 -26t-29 -65v-364h-110v697z" />
    <glyph glyph-name="afii10061" unicode="&#x40c;" horiz-adv-x="500" 
d="M155 0h-110v800h110v-339l177 339h124l-174 -332l181 -468h-118l-130 338l-60 -114v-224zM355 909l-181 -53l-25 78l176 67z" />
    <glyph glyph-name="afii10062" unicode="&#x40e;" horiz-adv-x="470" 
d="M97 975v21h89v-21q-3 -21 23 -29.5t52 0t23 29.5v21h89v-21q0 -56 -35.5 -89.5t-102.5 -33.5t-102.5 33.5t-35.5 89.5zM172 198l-148 602h113l93 -385l94 385h113l-174 -688q-14 -48 -56 -80q-44 -32 -91 -32h-87v103h87q13 0 24.5 9.5t15.5 23.5z" />
    <glyph glyph-name="afii10145" unicode="&#x40f;" horiz-adv-x="500" 
d="M305 -150h-110v150h-150v800h110v-697h190v697h110v-800h-150v-150z" />
    <glyph glyph-name="afii10017" unicode="&#x410;" horiz-adv-x="502" 
d="M195 800h110l175 -800h-112l-26 120h-183l-25 -120h-112zM321 223l-71 338l-70 -338h141z" />
    <glyph glyph-name="afii10018" unicode="&#x411;" horiz-adv-x="500" 
d="M250 0h-205v800h373v-103h-263v-287h95q85 0 145 -60t60 -145t-60 -145t-145 -60zM250 307h-95v-204h95q39 0 67 27.5t28 67.5v14q0 39 -28 67t-67 28z" />
    <glyph glyph-name="afii10019" unicode="&#x412;" horiz-adv-x="500" 
d="M250 0h-205v800h205q85 0 145 -60t60 -145v-83q0 -92 -69 -154q69 -62 69 -153q0 -85 -60 -145t-145 -60zM250 697h-95v-287h99q39 2 65 29t26 66v97q0 39 -28 67t-67 28zM250 307h-95v-204h95q39 0 67 27.5t28 67.5v14q0 39 -28 67t-67 28z" />
    <glyph glyph-name="afii10020" unicode="&#x413;" horiz-adv-x="415" 
d="M155 0h-110v800h349v-103h-239v-697z" />
    <glyph glyph-name="afii10021" unicode="&#x414;" horiz-adv-x="620" 
d="M35 -125v228h65l150 697h260v-697h75v-228h-110v125h-330v-125h-110zM400 697h-60l-127 -594h187v594z" />
    <glyph glyph-name="afii10022" unicode="&#x415;" horiz-adv-x="420" 
d="M379 0h-334v800h334v-103h-224v-371h174v-102h-174v-121h224v-103z" />
    <glyph glyph-name="afii10024" unicode="&#x416;" horiz-adv-x="800" 
d="M763 0h-118l-130 338l-60 -114v-224h-110v224l-60 114l-130 -338h-118l180 468l-173 332h124l177 -339v339h110v-339l177 339h124l-174 -332z" />
    <glyph glyph-name="afii10025" unicode="&#x417;" horiz-adv-x="500" 
d="M345 553v57q0 40 -27.5 67.5t-67.5 27.5q-39 0 -67 -27.5t-28 -67.5v-43h-110v36q0 85 60 145t145 60q86 0 145 -60q60 -60 60 -145v-43q0 -92 -69 -154q69 -62 69 -153v-56q0 -85 -60 -145q-59 -60 -145 -60q-85 0 -145 60t-60 145v36h110v-43q0 -40 28 -67.5t67 -27.5
q40 0 67.5 27.5t27.5 67.5v70q0 39 -27.5 67t-67.5 28h-104v103h104q40 0 67.5 28t27.5 67z" />
    <glyph glyph-name="afii10026" unicode="&#x418;" horiz-adv-x="525" 
d="M45 800h110v-515l215 515h110v-800h-110v514l-215 -514h-110v800z" />
    <glyph glyph-name="afii10027" unicode="&#x419;" horiz-adv-x="525" 
d="M45 800h110v-515l215 515h110v-800h-110v514l-215 -514h-110v800zM124 975v21h89v-21q-3 -21 23 -29.5t52 0t23 29.5v21h89v-21q0 -56 -35.5 -89.5t-102.5 -33.5t-102.5 33.5t-35.5 89.5z" />
    <glyph glyph-name="afii10028" unicode="&#x41a;" horiz-adv-x="500" 
d="M155 0h-110v800h110v-339l177 339h124l-174 -332l181 -468h-118l-130 338l-60 -114v-224z" />
    <glyph glyph-name="afii10029" unicode="&#x41b;" horiz-adv-x="551" 
d="M51 0h-38v103h38q19 0 32 13t13 32v652h410v-800h-110v697h-190v-542q0 -64 -46 -110q-45 -45 -109 -45z" />
    <glyph glyph-name="afii10030" unicode="&#x41c;" horiz-adv-x="550" 
d="M395 800h110v-800h-110v581l-65 -112h-110l-65 112v-581h-110v800h110l120 -206z" />
    <glyph glyph-name="afii10031" unicode="&#x41d;" horiz-adv-x="500" 
d="M455 0h-110v224h-190v-224h-110v800h110v-474h190v474h110v-800z" />
    <glyph glyph-name="afii10032" unicode="&#x41e;" horiz-adv-x="500" 
d="M45 197v406q0 85 60 145t145 60t145 -60t60 -145v-406q0 -85 -60 -145t-145 -60q-86 0 -146 60q-59 61 -59 145zM155 610v-420q0 -40 27.5 -67.5t67.5 -27.5q39 0 67 27.5t28 67.5v420q0 39 -28 67t-67 28q-40 0 -67.5 -28t-27.5 -67z" />
    <glyph glyph-name="afii10033" unicode="&#x41f;" horiz-adv-x="500" 
d="M455 0h-110v697h-190v-697h-110v800h410v-800z" />
    <glyph glyph-name="afii10034" unicode="&#x420;" horiz-adv-x="500" 
d="M155 0h-110v800h205q85 0 145 -60t60 -145v-166q0 -85 -60 -145t-145 -60h-95v-224zM250 697h-95v-371h95q39 0 67 28t28 67v181q0 39 -28 67t-67 28z" />
    <glyph glyph-name="afii10035" unicode="&#x421;" horiz-adv-x="500" 
d="M155 610v-420q0 -40 27.5 -67.5t67.5 -27.5q39 0 67 27.5t28 67.5v43h110v-36q0 -85 -60 -145t-145 -60q-86 0 -146 60q-59 61 -59 145v406q0 85 60 145t145 60t145 -60t60 -145v-36h-110v43q0 39 -28 67t-67 28q-40 0 -67.5 -28t-27.5 -67z" />
    <glyph glyph-name="afii10036" unicode="&#x422;" horiz-adv-x="419" 
d="M154 697h-130v103h371v-103h-131v-697h-110v697z" />
    <glyph glyph-name="afii10037" unicode="&#x423;" horiz-adv-x="470" 
d="M172 198l-148 602h113l93 -385l94 385h113l-174 -688q-14 -48 -56 -80q-44 -32 -91 -32h-87v103h87q13 0 24.5 9.5t15.5 23.5z" />
    <glyph glyph-name="afii10038" unicode="&#x424;" horiz-adv-x="680" 
d="M240 711h45v89h110v-89h45q85 0 145 -60t60 -145v-212q0 -85 -60 -145t-145 -60h-45v-89h-110v89h-45q-85 0 -145 60t-60 145v212q0 85 60 145t145 60zM240 192h45v416h-45q-39 0 -67 -27.5t-28 -67.5v-226q0 -39 28 -67t67 -28zM440 608h-45v-416h45q39 0 67 28t28 67
v226q0 40 -28 67.5t-67 27.5z" />
    <glyph glyph-name="afii10039" unicode="&#x425;" horiz-adv-x="500" 
d="M338 800h117l-147 -390l155 -410h-118l-95 253l-95 -253h-118l154 410l-146 390h117l88 -235z" />
    <glyph glyph-name="afii10040" unicode="&#x426;" horiz-adv-x="575" 
d="M555 -125h-110v125h-400v800h110v-697h190v697h110v-697h100v-228z" />
    <glyph glyph-name="afii10041" unicode="&#x427;" horiz-adv-x="500" 
d="M455 0h-110v242q-44 -23 -95 -23q-85 0 -145 60t-60 145v376h110v-383q0 -40 27.5 -67.5t67.5 -27.5q39 0 67 27.5t28 67.5v383h110v-800z" />
    <glyph glyph-name="afii10042" unicode="&#x428;" horiz-adv-x="650" 
d="M605 0h-560v800h110v-697h115v697h110v-697h115v697h110v-800z" />
    <glyph glyph-name="afii10043" unicode="&#x429;" horiz-adv-x="725" 
d="M595 0h-550v800h110v-697h115v697h110v-697h115v697h110v-697h100v-228h-110v125z" />
    <glyph glyph-name="afii10044" unicode="&#x42a;" horiz-adv-x="541" 
d="M301 0h-205v697h-83v103h193v-390h95q85 0 145 -60t60 -145t-60 -145t-145 -60zM301 307h-95v-204h95q40 0 67.5 27.5t27.5 67.5v14q0 39 -27.5 67t-67.5 28z" />
    <glyph glyph-name="afii10045" unicode="&#x42b;" horiz-adv-x="675" 
d="M250 0h-205v800h110v-390h95q85 0 145 -60t60 -145t-60 -145t-145 -60zM630 0h-110v800h110v-800zM250 307h-95v-204h95q39 0 67 27.5t28 67.5v14q0 39 -28 67t-67 28z" />
    <glyph glyph-name="afii10046" unicode="&#x42c;" horiz-adv-x="500" 
d="M250 0h-205v800h110v-390h95q85 0 145 -60t60 -145t-60 -145t-145 -60zM250 307h-95v-204h95q39 0 67 27.5t28 67.5v14q0 39 -28 67t-67 28z" />
    <glyph glyph-name="afii10047" unicode="&#x42d;" horiz-adv-x="500" 
d="M345 190v144h-174v102h174v174q0 39 -27.5 67t-67.5 28q-39 0 -67 -28t-28 -67v-43h-110v36q0 85 60 145t145 60t145 -60t60 -145v-406q0 -85 -60 -145q-59 -60 -145 -60q-85 0 -145 60t-60 145v36h110v-43q0 -40 28 -67.5t67 -27.5q40 0 67.5 27.5t27.5 67.5z" />
    <glyph glyph-name="afii10048" unicode="&#x42e;" horiz-adv-x="675" 
d="M220 197v27h-65v-224h-110v800h110v-474h65v277q0 85 60 145t145 60t145 -60t60 -145v-406q0 -85 -60 -145t-145 -60t-145 60t-60 145zM330 610v-420q0 -40 27.5 -67.5t67.5 -27.5q39 0 67 27.5t28 67.5v420q0 39 -28 67t-67 28q-40 0 -67.5 -28t-27.5 -67z" />
    <glyph glyph-name="afii10049" unicode="&#x42f;" horiz-adv-x="500" 
d="M455 800v-800h-110v224h-99q-38 -2 -64 -29q-27 -29 -27 -66v-129h-110v121q0 93 69 154q-69 61 -69 154v166q0 85 60 145t145 60h205zM246 326h99v371h-95q-39 0 -67 -28t-28 -67v-181q0 -38 26.5 -65.5t64.5 -29.5z" />
    <glyph glyph-name="afii10065" unicode="&#x430;" horiz-adv-x="391" 
d="M141 700h110l118 -600h-103l-19 100h-103l-19 -100h-103zM227 303l-31 163l-32 -163h63z" />
    <glyph glyph-name="afii10066" unicode="&#x431;" 
d="M45 100v600h273v-103h-163v-187h45q64 0 109 -46q46 -45 46 -109t-46 -110q-45 -45 -109 -45h-155zM200 307h-45v-104h45q19 0 32 13t13 32v14q0 19 -13 32t-32 13z" />
    <glyph glyph-name="afii10067" unicode="&#x432;" 
d="M200 100h-155v600h155q64 0 109 -46q46 -45 46 -109v-83q0 -60 -40 -104q40 -43 40 -103q0 -64 -46 -110q-45 -45 -109 -45zM200 597h-45v-187h48q18 2 30 14.5t12 30.5v97q0 19 -13 32t-32 13zM203 307h-48v-104h45q19 0 32 13t13 32v14q0 17 -12 30t-30 15z" />
    <glyph glyph-name="afii10068" unicode="&#x433;" horiz-adv-x="321" 
d="M155 100h-110v600h255v-103h-145v-497z" />
    <glyph glyph-name="afii10069" unicode="&#x434;" horiz-adv-x="520" 
d="M35 0v203h65l75 497h235v-497h75v-203h-110v100h-230v-100h-110zM211 203h89v394h-29z" />
    <glyph glyph-name="afii10070" unicode="&#x435;" horiz-adv-x="341" 
d="M300 100h-255v600h255v-103h-145v-226h120v-102h-120v-66h145v-103z" />
    <glyph glyph-name="afii10072" unicode="&#x436;" horiz-adv-x="600" 
d="M563 100h-116l-70 205l-22 -48v-157h-110v157l-22 48l-70 -205h-116l118 348l-118 252h121l87 -185v185h110v-185l87 185h121l-119 -252z" />
    <glyph glyph-name="afii10073" unicode="&#x437;" 
d="M245 496v64q2 27 -21.5 38.5t-47 0t-21.5 -38.5v-46h-110v39q0 64 45 109q46 46 110 46t109 -46q46 -45 46 -109v-49q0 -61 -40 -104q40 -44 40 -104v-49q0 -64 -46 -110q-45 -45 -109 -45t-110 45q-45 47 -45 110v39h110v-46q-2 -27 21.5 -38.5t47 0t21.5 38.5v64
q0 17 -12 30t-30 15h-53v102h50q19 0 32 13.5t13 31.5z" />
    <glyph glyph-name="afii10074" unicode="&#x438;" horiz-adv-x="425" 
d="M270 700h110v-600h-110v310l-115 -310h-110v600h110v-311z" />
    <glyph glyph-name="afii10075" unicode="&#x439;" horiz-adv-x="425" 
d="M270 700h110v-600h-110v310l-115 -310h-110v600h110v-311zM74 875v21h89v-21q-3 -21 23 -29.5t52 0t23 29.5v21h89v-21q0 -56 -35.5 -89.5t-102.5 -33.5t-102.5 33.5t-35.5 89.5z" />
    <glyph glyph-name="afii10076" unicode="&#x43a;" 
d="M155 100h-110v600h110v-185l87 185h121l-119 -252l119 -348h-116l-70 205l-22 -48v-157z" />
    <glyph glyph-name="afii10077" unicode="&#x43b;" horiz-adv-x="425" 
d="M25 100h-21v103h21q19 0 32 13t13 32v452h310v-600h-110v497h-90v-342q0 -64 -46 -110q-45 -45 -109 -45z" />
    <glyph glyph-name="afii10078" unicode="&#x43c;" horiz-adv-x="450" 
d="M405 100h-110v362l-22 -42h-96l-22 42v-362h-110v600h110l70 -146l70 146h110v-600z" />
    <glyph glyph-name="afii10079" unicode="&#x43d;" 
d="M355 100h-110v169h-90v-169h-110v600h110v-329h90v329h110v-600z" />
    <glyph glyph-name="afii10080" unicode="&#x43e;" 
d="M45 247v306q0 64 45 109q46 46 110 46t109 -46q46 -45 46 -109v-306q0 -64 -46 -110q-45 -45 -109 -45t-110 45q-45 47 -45 110zM155 560v-320q-2 -27 21.5 -38.5t47 0t21.5 38.5v320q2 27 -21.5 38.5t-47 0t-21.5 -38.5z" />
    <glyph glyph-name="afii10081" unicode="&#x43f;" 
d="M355 100h-110v497h-90v-497h-110v600h310v-600z" />
    <glyph glyph-name="afii10082" unicode="&#x440;" 
d="M155 100h-110v600h155q64 0 109 -46q46 -45 46 -109v-121q0 -64 -46 -110q-45 -45 -109 -45h-45v-169zM200 597h-45v-226h45q19 0 32 13.5t13 31.5v136q0 19 -13 32t-32 13z" />
    <glyph glyph-name="afii10083" unicode="&#x441;" 
d="M155 560v-320q-2 -27 21.5 -38.5t47 0t21.5 38.5v64h110v-57q0 -64 -46 -110q-45 -45 -109 -45t-110 45q-45 47 -45 110v306q0 64 45 109q46 46 110 46t109 -46q46 -45 46 -109v-57h-110v64q2 27 -21.5 38.5t-47 0t-21.5 -38.5z" />
    <glyph glyph-name="afii10084" unicode="&#x442;" horiz-adv-x="319" 
d="M104 597h-80v103h271v-103h-81v-497h-110v497z" />
    <glyph glyph-name="afii10085" unicode="&#x443;" horiz-adv-x="382" 
d="M114 100h-86v110h86q9 0 10 7l16 59l-111 424h102l66 -258l65 258h102l-134 -511q-11 -37 -44 -63q-35 -26 -72 -26z" />
    <glyph glyph-name="afii10086" unicode="&#x444;" horiz-adv-x="540" 
d="M325 100h-110v82h-25q-64 0 -110 45q-45 47 -45 110v126q0 64 45 109q46 46 110 46h25v82h110v-82h25q64 0 109 -46q46 -45 46 -109v-126q0 -64 -46 -110q-45 -45 -109 -45h-25v-82zM350 515h-25v-230h25q19 0 32 13t13 32v140q0 19 -13 32t-32 13zM190 285h25v230h-25
q-19 0 -32 -13t-13 -32v-140q0 -19 13 -32t32 -13z" />
    <glyph glyph-name="afii10087" unicode="&#x445;" 
d="M247 700h116l-101 -300l101 -300h-116l-43 127l-43 -127h-116l101 300l-101 300h116l43 -128z" />
    <glyph glyph-name="afii10088" unicode="&#x446;" horiz-adv-x="515" 
d="M480 -25h-110v125h-325v600h110v-497h115v497h110v-497h100v-228z" />
    <glyph glyph-name="afii10089" unicode="&#x447;" 
d="M355 100h-110v167q-21 -6 -45 -6q-64 0 -110 45q-45 46 -45 110v284h110v-291q0 -19 13 -32t32 -13q17 0 30.5 12t14.5 29v295h110v-600z" />
    <glyph glyph-name="afii10090" unicode="&#x448;" horiz-adv-x="600" 
d="M555 100h-510v600h110v-497h90v497h110v-497h90v497h110v-600z" />
    <glyph glyph-name="afii10091" unicode="&#x449;" horiz-adv-x="665" 
d="M520 100h-475v600h110v-497h90v497h110v-497h90v497h110v-497h75v-228h-110v125z" />
    <glyph glyph-name="afii10092" unicode="&#x44a;" horiz-adv-x="415" 
d="M70 597h-66v103h176v-290h45q64 0 109 -46q46 -45 46 -109t-46 -110q-45 -45 -109 -45h-155v497zM225 307h-45v-104h45q19 0 32 13t13 32v14q0 19 -13 32t-32 13z" />
    <glyph glyph-name="afii10093" unicode="&#x44b;" horiz-adv-x="559" 
d="M45 100v600h110v-290h45q64 0 109 -46q46 -45 46 -109t-46 -110q-45 -45 -109 -45h-155zM505 100h-110v600h110v-600zM200 307h-45v-104h45q19 0 32 13t13 32v14q0 19 -13 32t-32 13z" />
    <glyph glyph-name="afii10094" unicode="&#x44c;" horiz-adv-x="390" 
d="M45 100v600h110v-290h45q64 0 109 -46q46 -45 46 -109t-46 -110q-45 -45 -109 -45h-155zM200 307h-45v-104h45q19 0 32 13t13 32v14q0 19 -13 32t-32 13z" />
    <glyph glyph-name="afii10095" unicode="&#x44d;" 
d="M245 347h-120v103h120v110q2 27 -21.5 38.5t-47 0t-21.5 -38.5v-64h-110v57q0 64 45 109q46 46 110 46t109 -46q46 -45 46 -109v-306q0 -64 -46 -110q-45 -45 -109 -45t-110 45q-45 47 -45 110v57h110v-64q-2 -27 21.5 -38.5t47 0t21.5 38.5v107z" />
    <glyph glyph-name="afii10096" unicode="&#x44e;" horiz-adv-x="565" 
d="M210 247v22h-55v-169h-110v600h110v-329h55v182q0 64 45 109q46 46 110 46t109 -46q46 -45 46 -109v-306q0 -64 -46 -110q-45 -45 -109 -45t-110 45q-45 46 -45 110zM320 560v-320q-2 -27 21.5 -38.5t47 0t21.5 38.5v320q2 27 -21.5 38.5t-47 0t-21.5 -38.5z" />
    <glyph glyph-name="afii10097" unicode="&#x44f;" 
d="M200 700h155v-600h-110v169h-45q-19 0 -32 -13.5t-13 -31.5v-124h-110v116q0 60 40 104q-40 43 -40 104v121q0 64 45 109q46 46 110 46zM200 371h45v226h-45q-19 0 -32 -13t-13 -32v-136q0 -18 13 -31.5t32 -13.5z" />
    <glyph glyph-name="afii10071" unicode="&#x451;" horiz-adv-x="341" 
d="M300 100h-255v600h255v-103h-145v-226h120v-102h-120v-66h145v-103zM59 785q-16 17 -16 40t16 39q17 17 40 17t39 -17q17 -16 17 -39t-17 -40q-16 -16 -39 -16t-40 16zM209 785q-16 17 -16 40t16 39q17 17 40 17t39 -17q17 -16 17 -39t-17 -40q-16 -16 -39 -16t-40 16z
" />
    <glyph glyph-name="afii10099" unicode="&#x452;" horiz-adv-x="459" 
d="M104 597h-80v103h271v-103h-81v-96q18 7 45 7q64 0 109 -46q46 -45 46 -109v-98q0 -64 -46 -110q-45 -45 -109 -45h-10v103h10q19 0 32 13t13 32v112q2 27 -21.5 38.5t-47 0t-21.5 -38.5v-260h-110v497z" />
    <glyph glyph-name="afii10100" unicode="&#x453;" horiz-adv-x="321" 
d="M155 100h-110v600h255v-103h-145v-497zM276 809l-181 -53l-25 78l176 67z" />
    <glyph glyph-name="afii10101" unicode="&#x454;" 
d="M155 347v-107q-2 -27 21.5 -38.5t47 0t21.5 38.5v64h110v-57q0 -64 -46 -110q-45 -45 -109 -45t-110 45q-45 47 -45 110v306q0 64 45 109q46 46 110 46t109 -46q46 -45 46 -109v-57h-110v64q2 27 -21.5 38.5t-47 0t-21.5 -38.5v-110h120v-103h-120z" />
    <glyph glyph-name="afii10102" unicode="&#x455;" horiz-adv-x="390" 
d="M40 247v46h110v-53q-2 -27 21.5 -38.5t47 0t21.5 38.5v7q0 14 -7 25l-149 173q-44 47 -44 108q0 64 45 109q46 46 110 46t109 -46q46 -45 46 -109v-46h-110v53q2 27 -21.5 38.5t-47 0t-21.5 -38.5v-7q0 -13 9 -27l148 -174q43 -43 43 -105q0 -64 -46 -110
q-45 -45 -109 -45q-63 0 -110 45q-45 47 -45 110z" />
    <glyph glyph-name="afii10103" unicode="&#x456;" horiz-adv-x="217" 
d="M164 100h-110v600h110v-600z" />
    <glyph glyph-name="afii10104" unicode="&#x457;" horiz-adv-x="217" 
d="M164 100h-110v600h110v-600zM-5 785q-17 17 -17 40t17 39q17 17 39 17t39 -17q17 -16 17 -39t-17 -40q-17 -16 -39 -16t-39 16zM145 785q-17 17 -17 40t17 39q17 17 39 17t39 -17q17 -16 17 -39t-17 -40q-17 -16 -39 -16t-39 16z" />
    <glyph glyph-name="afii10105" unicode="&#x458;" horiz-adv-x="200" 
d="M0 -58h-39v103h39q19 0 32 13t13 32v610h110v-603q0 -64 -46 -109q-45 -46 -109 -46z" />
    <glyph glyph-name="afii10106" unicode="&#x459;" horiz-adv-x="625" 
d="M35 100h-21v103h21q19 0 32 13t13 32v452h310v-290h45q64 0 109 -46q46 -45 46 -109t-46 -110q-45 -45 -109 -45h-155v497h-90v-342q0 -64 -46 -110q-45 -45 -109 -45zM435 307h-45v-104h45q19 0 32 13t13 32v14q0 19 -13 32t-32 13z" />
    <glyph glyph-name="afii10107" unicode="&#x45a;" horiz-adv-x="590" 
d="M400 100h-155v207h-90v-207h-110v600h110v-290h90v290h110v-290h45q64 0 109 -46q46 -45 46 -109t-46 -110q-45 -45 -109 -45zM400 307h-45v-104h45q19 0 32 13t13 32v14q0 19 -13 32t-32 13z" />
    <glyph glyph-name="afii10108" unicode="&#x45b;" horiz-adv-x="459" 
d="M104 597h-80v103h271v-103h-81v-96q18 7 45 7q64 0 109 -46q46 -45 46 -109v-253h-110v260q2 27 -21.5 38.5t-47 0t-21.5 -38.5v-260h-110v497z" />
    <glyph glyph-name="afii10109" unicode="&#x45c;" 
d="M155 100h-110v600h110v-185l87 185h121l-119 -252l119 -348h-116l-70 205l-22 -48v-157zM303 809l-181 -53l-25 78l176 67z" />
    <glyph glyph-name="afii10110" unicode="&#x45e;" horiz-adv-x="393" 
d="M245 875v21h89v-21q0 -56 -35.5 -89.5t-102.5 -33.5t-102.5 33.5t-35.5 89.5v21h89v-21q-3 -21 23 -29.5t52 0t23 29.5zM114 100h-86v110h86q9 0 10 7l16 59l-111 424h102l66 -258l65 258h102l-134 -511q-11 -37 -44 -63q-35 -26 -72 -26z" />
    <glyph glyph-name="afii10193" unicode="&#x45f;" 
d="M255 0h-110v100h-100v600h110v-497h90v497h110v-600h-100v-100z" />
    <glyph glyph-name="afii10146" unicode="&#x462;" horiz-adv-x="609" 
d="M154 697h-130v103h371v-103h-131v-287h95q85 0 145 -60t60 -145t-60 -145t-145 -60h-205v697zM359 307h-95v-204h95q39 0 67 27.5t28 67.5v14q0 39 -28 67t-67 28z" />
    <glyph glyph-name="afii10194" unicode="&#x463;" horiz-adv-x="449" 
d="M104 597h-80v103h271v-103h-81v-187h45q64 0 109 -46q46 -45 46 -109t-46 -110q-45 -45 -109 -45h-155v497zM259 307h-45v-104h45q19 0 32 13t13 32v14q0 19 -13 32t-32 13z" />
    <glyph glyph-name="afii10147" unicode="&#x472;" horiz-adv-x="500" 
d="M45 197v406q0 85 60 145t145 60t145 -60t60 -145v-406q0 -85 -60 -145t-145 -60q-86 0 -146 60q-59 61 -59 145zM186 344l152 -38q1 -1 7 -1v305q0 39 -28 67t-67 28q-40 0 -67.5 -28t-27.5 -67v-264h9q4 0 22 -2zM155 244v-54q0 -40 27.5 -67.5t67.5 -27.5q39 0 67 27.5
t28 67.5v13q-17 0 -31 3l-151 38h-8z" />
    <glyph glyph-name="afii10195" unicode="&#x473;" 
d="M45 247v306q0 64 45 109q46 46 110 46t109 -46q46 -45 46 -109v-306q0 -64 -46 -110q-45 -45 -109 -45t-110 45q-45 47 -45 110zM155 560v-166q23 0 40 -9l50 -25v200q2 27 -21.5 38.5t-47 0t-21.5 -38.5zM155 290v-50q-2 -27 21.5 -38.5t47 0t21.5 38.5v15q-23 1 -40 10
z" />
    <glyph glyph-name="afii10148" unicode="&#x474;" horiz-adv-x="473" 
d="M292 0h-110l-160 800h112l103 -511l102 511h111z" />
    <glyph glyph-name="afii10196" unicode="&#x475;" horiz-adv-x="391" 
d="M251 100h-110l-119 600h103l71 -366l70 366h103z" />
    <glyph glyph-name="afii10050" unicode="&#x490;" horiz-adv-x="415" 
d="M45 800h239v125h110v-228h-239v-697h-110v800z" />
    <glyph glyph-name="afii10098" unicode="&#x491;" horiz-adv-x="321" 
d="M45 700h145v100h110v-203h-145v-497h-110v600z" />
    <glyph glyph-name="afii10846" unicode="&#x4d9;" 
d="M245 414v146q2 27 -21.5 38.5t-47 0t-21.5 -38.5v-64h-110v57q0 64 45 109q46 46 110 46t109 -46q46 -45 46 -109v-306q0 -64 -46 -110q-45 -45 -109 -45t-110 45q-45 47 -45 110v167h200zM245 240v71h-90v-71q-2 -27 21.5 -38.5t47 0t21.5 38.5z" />
    <glyph glyph-name="Wgrave" unicode="&#x1e80;" horiz-adv-x="550" 
d="M155 0h-110v800h110v-581l65 112h110l65 -112v581h110v-800h-110l-120 206zM177 1001l176 -67l-25 -78l-181 53z" />
    <glyph glyph-name="wgrave" unicode="&#x1e81;" horiz-adv-x="450" 
d="M45 700h110v-362l22 42h96l22 -42v362h110v-600h-110l-70 146l-70 -146h-110v600zM127 901l176 -67l-25 -78l-181 53z" />
    <glyph glyph-name="Wacute" unicode="&#x1e82;" horiz-adv-x="550" 
d="M155 0h-110v800h110v-581l65 112h110l65 -112v581h110v-800h-110l-120 206zM403 909l-181 -53l-25 78l176 67z" />
    <glyph glyph-name="wacute" unicode="&#x1e83;" horiz-adv-x="450" 
d="M45 700h110v-362l22 42h96l22 -42v362h110v-600h-110l-70 146l-70 -146h-110v600zM353 809l-181 -53l-25 78l176 67z" />
    <glyph glyph-name="Wdieresis" unicode="&#x1e84;" horiz-adv-x="550" 
d="M155 0h-110v800h110v-581l65 112h110l65 -112v581h110v-800h-110l-120 206zM151 885q-17 17 -17 40t17 39q17 17 39 17t39 -17q17 -16 17 -39t-17 -40q-17 -16 -39 -16t-39 16zM321 885q-17 17 -17 40t17 39q17 17 39 17t39 -17q17 -16 17 -39t-17 -40q-17 -16 -39 -16
t-39 16z" />
    <glyph glyph-name="wdieresis" unicode="&#x1e85;" horiz-adv-x="450" 
d="M45 700h110v-362l22 42h96l22 -42v362h110v-600h-110l-70 146l-70 -146h-110v600zM111 785q-17 17 -17 40t17 39q17 17 39 17t39 -17q17 -16 17 -39t-17 -40q-17 -16 -39 -16t-39 16zM261 785q-17 17 -17 40t17 39q17 17 39 17t39 -17q17 -16 17 -39t-17 -40
q-17 -16 -39 -16t-39 16z" />
    <glyph glyph-name="Ygrave" unicode="&#x1ef2;" horiz-adv-x="470" 
d="M290 0h-110v224l-158 576h114l99 -382l99 382h114l-158 -576v-224zM123 1001l176 -67l-25 -78l-181 53z" />
    <glyph glyph-name="ygrave" unicode="&#x1ef3;" horiz-adv-x="393" 
d="M252 100h-110v169l-113 431h102l66 -258l65 258h102l-112 -431v-169zM84 901l176 -67l-25 -78l-181 53z" />
    <glyph glyph-name="figuredash" unicode="&#x2012;" horiz-adv-x="350" 
d="M131 292h-103v136h191v33h103v-136h-191v-33z" />
    <glyph glyph-name="endash" unicode="&#x2013;" horiz-adv-x="350" 
d="M322 325h-294v103h294v-103z" />
    <glyph glyph-name="emdash" unicode="&#x2014;" horiz-adv-x="550" 
d="M522 325h-494v103h494v-103z" />
    <glyph glyph-name="quoteleft" unicode="&#x2018;" horiz-adv-x="200" 
d="M155 700v-188h-110v67q0 62 27 107l9 14h74z" />
    <glyph glyph-name="quoteright" unicode="&#x2019;" horiz-adv-x="200" 
d="M45 512v188h110v-66q0 -63 -27 -108l-9 -14h-74z" />
    <glyph glyph-name="quotesinglbase" unicode="&#x201a;" horiz-adv-x="200" 
d="M45 100v188h110v-67q0 -62 -27 -107l-9 -14h-74z" />
    <glyph glyph-name="quotedblleft" unicode="&#x201c;" horiz-adv-x="375" 
d="M330 700v-188h-110v67q0 62 27 107l9 14h74zM155 700v-188h-110v67q0 62 27 107l9 14h74z" />
    <glyph glyph-name="quotedblright" unicode="&#x201d;" horiz-adv-x="375" 
d="M45 512v188h110v-66q0 -63 -27 -108l-9 -14h-74zM220 512v188h110v-66q0 -63 -27 -108l-9 -14h-74z" />
    <glyph glyph-name="quotedblbase" unicode="&#x201e;" horiz-adv-x="375" 
d="M45 100v188h110v-67q0 -62 -27 -107l-9 -14h-74zM220 100v188h110v-67q0 -62 -27 -107l-9 -14h-74z" />
    <glyph glyph-name="dagger" unicode="&#x2020;" horiz-adv-x="326" 
d="M104 547h-80v103h80v114h110v-114h88v-103h-88v-547h-110v547z" />
    <glyph glyph-name="daggerdbl" unicode="&#x2021;" horiz-adv-x="326" 
d="M104 547h-80v103h80v114h110v-114h88v-103h-88v-294h88v-103h-88v-150h-110v150h-80v103h80v294z" />
    <glyph glyph-name="bullet" unicode="&#x2022;" horiz-adv-x="214" 
d="M106 441q26 0 44.5 -18.5t18.5 -44.5q2 -39 -39.5 -56t-67.5 12q-29 26 -12 67.5t56 39.5z" />
    <glyph glyph-name="ellipsis" unicode="&#x2026;" horiz-adv-x="610" 
d="M55 111q-18 19 -18 45t18 44q19 18 45 18t44 -18q19 -18 19 -44t-19 -45q-18 -18 -44 -18t-45 18zM250 111q-18 19 -18 45t18 44q19 18 45 18t44 -18q19 -18 19 -44t-19 -45q-18 -18 -44 -18t-45 18zM445 111q-18 19 -18 45t18 44q19 18 45 18t44 -18q19 -18 19 -44
t-19 -45q-18 -18 -44 -18t-45 18z" />
    <glyph glyph-name="perthousand" unicode="&#x2030;" horiz-adv-x="1064" 
d="M405 197v56q0 64 45 109q46 46 110 46q54 0 98 -36q43 -34 54 -88q11 53 53 88q43 36 99 36q64 0 109 -46q46 -45 46 -109v-56q0 -64 -46 -110q-45 -45 -109 -45q-56 0 -98.5 35t-53.5 89q-11 -55 -54 -89q-44 -35 -98 -35q-64 0 -110 45q-45 47 -45 110zM45 497v56
q0 64 45 109q46 46 110 46t109 -46q46 -45 46 -109v-56q0 -64 -46 -110q-45 -45 -109 -45t-110 45q-45 47 -45 110zM582 658l-308 -616l-98 50l308 616zM515 260v-70q-2 -27 21.5 -38.5t47 0t21.5 38.5v70q2 27 -21.5 38.5t-47 0t-21.5 -38.5zM155 560v-70
q-2 -27 21.5 -38.5t47 0t21.5 38.5v70q2 27 -21.5 38.5t-47 0t-21.5 -38.5zM819 260v-70q-2 -27 21.5 -38.5t47 0t21.5 38.5v70q2 27 -21.5 38.5t-47 0t-21.5 -38.5z" />
    <glyph glyph-name="guilsinglleft" unicode="&#x2039;" horiz-adv-x="367" 
d="M34 400l204 308l93 -60l-165 -248l165 -248l-93 -60z" />
    <glyph glyph-name="guilsinglright" unicode="&#x203a;" horiz-adv-x="367" 
d="M199 400l-165 248l92 60l205 -308l-205 -308l-92 60z" />
    <glyph glyph-name="exclamdbl" unicode="&#x203c;" horiz-adv-x="375" 
d="M55 111q-18 19 -18 45t18 44q19 18 45 18t44 -18q19 -18 19 -44t-19 -45q-18 -18 -44 -18t-45 18zM45 486v214h110v-214q0 -26 -5 -86q-7 -85 -8 -91l-5 -38h-74q-18 143 -18 215zM230 111q-18 19 -18 45t18 44q19 18 45 18t44 -18q19 -18 19 -44t-19 -45
q-18 -18 -44 -18t-45 18zM220 486v214h110v-214q0 -26 -5 -86q-5 -56 -9 -92l-4 -37h-74q-18 142 -18 215z" />
    <glyph glyph-name="fraction" unicode="&#x2044;" horiz-adv-x="582" 
d="M540 775l-400 -800l-98 50l400 800z" />
    <glyph glyph-name="colonmonetary" unicode="&#x20a1;" horiz-adv-x="725" 
d="M193 136l-80 -161l-98 50l93 186q-64 82 -64 189q0 128 90 218t218 90h4l59 117l98 -50l-45 -90q34 -15 60 -33l87 173l98 -50l-282 -565q38 17 65 45l73 -73q-83 -83 -197 -90l-59 -117l-98 50l41 82q-35 12 -63 29zM303 201l178 357q-23 20 -59 34l-182 -363
q26 -19 63 -28zM154 400q0 -39 12 -72l136 271q-66 -16 -107 -73q-41 -56 -41 -126z" />
    <glyph glyph-name="franc" unicode="&#x20a3;" horiz-adv-x="321" 
d="M45 140h-49v103h49v457h255v-103h-145v-201h120v-102h-120v-51h44v-103h-44v-40h-110v40z" />
    <glyph glyph-name="lira" unicode="&#x20a4;" horiz-adv-x="416" 
d="M74 426h-48v103h48v16q0 64 45 109q46 46 110 46h155v-103h-155q-19 0 -32 -13t-13 -32v-23h130v-103h-130v-53h130v-103h-130v-67h207v-103h-373v103h56v67h-48v103h48v53z" />
    <glyph glyph-name="Euro" unicode="&#x20ac;" horiz-adv-x="604" 
d="M45 429h-31v103h59q37 78 113 127q74 49 166 49q125 0 217 -90l-73 -73q-60 60 -144 60q-94 0 -152 -73h222v-103h-266q-2 -14 -2 -29q0 -21 1 -26h209v-103h-167q58 -76 155 -76q86 0 144 60l73 -73q-90 -90 -217 -90q-92 0 -168 49q-75 49 -112 130h-58v103h31
q-1 5 -1 26q0 22 1 29z" />
    <glyph glyph-name="afii61352" unicode="&#x2116;" horiz-adv-x="925" 
d="M615 443q-45 47 -45 110q0 64 45 109q46 46 110 46t109 -46q46 -45 46 -109t-46 -110q-45 -45 -109 -45q-63 0 -110 45zM680 560v-14q-2 -27 21.5 -38.5t47 0t21.5 38.5v14q2 27 -21.5 38.5t-47 0t-21.5 -38.5zM480 0h-110l-215 514v-514h-110v800h110l215 -515v515h110
v-800z" />
    <glyph glyph-name="trademark" unicode="&#x2122;" horiz-adv-x="659" 
d="M414 320h-110v480h110l45 -101l45 101h110v-480h-110v245h-90v-245zM85 697h-61v103h232v-103h-61v-377h-110v377z" />
    <glyph glyph-name="estimated" unicode="&#x212e;" horiz-adv-x="500" 
d="M155 345v-55q0 -40 27.5 -67.5t67.5 -27.5q39 0 67 27.5t28 67.5v14h110v-7q0 -85 -60 -145t-145 -60q-86 0 -146 60q-59 61 -59 145v206q0 85 60 145t145 60t145 -60t60 -145v-158h-300zM155 510v-55h190v55q0 39 -28 67t-67 28q-40 0 -67.5 -28t-27.5 -67z" />
    <glyph glyph-name="product" unicode="&#x220f;" horiz-adv-x="500" 
d="M455 0h-110v697h-190v-697h-110v800h410v-800z" />
    <glyph glyph-name="summation" unicode="&#x2211;" horiz-adv-x="480" 
d="M445 0h-400v103l158 179l-150 415v103h384v-103h-267l134 -371v-102l-111 -121h252v-103z" />
    <glyph glyph-name="minus" unicode="&#x2212;" horiz-adv-x="456" 
d="M428 325h-400v103h400v-103z" />
    <glyph glyph-name="uni2215" unicode="&#x2215;" horiz-adv-x="582" 
d="M540 775l-400 -800l-98 50l400 800z" />
    <glyph glyph-name="infinity" unicode="&#x221e;" horiz-adv-x="740" 
d="M287 523l83 -59l83 59q38 35 92 35q64 0 111 -47t47 -111q0 -65 -47 -112q-46 -46 -111 -46q-54 0 -92 35l-83 59l-83 -59q-38 -35 -92 -35q-66 0 -112 46t-46 112q0 65 46 111q47 47 112 47q54 0 92 -35zM545 448q-23 0 -38 -20l-25 -28l25 -28q15 -20 38 -20
q20 0 34 14t14 34t-14 34t-34 14zM195 352q23 0 38 20l25 28l-25 28q-15 20 -38 20q-20 0 -34 -14t-14 -34t14 -34t34 -14z" />
    <glyph glyph-name="integral" unicode="&#x222b;" horiz-adv-x="590" 
d="M550 750v-50h-110v57q2 27 -21.5 38.5t-47 0t-21.5 -38.5v-707q0 -64 -46 -109q-45 -46 -109 -46t-110 46q-45 45 -45 109v50h110v-57q-2 -27 21.5 -38.5t47 0t21.5 38.5v707q0 64 45 109q46 46 110 46t109 -46q46 -45 46 -109z" />
    <glyph glyph-name="NULL" horiz-adv-x="0" 
 />
    <glyph glyph-name="CR.001" horiz-adv-x="333" 
 />
    <glyph glyph-name="zero.onum" 
d="M45 247v306q0 64 45 109q46 46 110 46t109 -46q46 -45 46 -109v-306q0 -64 -46 -110q-45 -45 -109 -45t-110 45q-45 47 -45 110zM155 560v-320q-2 -27 21.5 -38.5t47 0t21.5 38.5v320q2 27 -21.5 38.5t-47 0t-21.5 -38.5z" />
    <glyph glyph-name="one.onum" horiz-adv-x="296" 
d="M241 100h-110v497h-106v103h216v-600z" />
    <glyph glyph-name="two.onum" 
d="M355 100h-310v103l194 321q6 9 6 22v14q2 27 -21.5 38.5t-47 0t-21.5 -38.5v-53h-110v46q0 64 45 109q46 46 110 46t109 -46q46 -45 46 -109q0 -48 -29 -89l-158 -261h187v-103z" />
    <glyph glyph-name="three.onum" 
d="M198 597h-152v103h301v-103l-81 -88q40 -19 64.5 -57t24.5 -83v-122q0 -64 -46 -110q-45 -45 -109 -45t-110 45q-45 47 -45 110v57h110v-64q-2 -27 21.5 -38.5t47 0t21.5 38.5v136q0 19 -13 32t-32 13h-68v103z" />
    <glyph glyph-name="four.onum" horiz-adv-x="377" 
d="M222 269h-200v102l200 329h110v-600h-110v169zM222 488l-71 -117h71v117z" />
    <glyph glyph-name="five.onum" 
d="M245 240v136q0 19 -13 32t-32 13h-147v279h294v-103h-184v-73h37q64 0 109 -46q46 -45 46 -109v-122q0 -64 -46 -110q-45 -45 -109 -45t-110 45q-45 47 -45 110v57h110v-64q-2 -27 21.5 -38.5t47 0t21.5 38.5z" />
    <glyph glyph-name="six.onum" 
d="M155 560v-43q18 7 45 7q64 0 109 -46q46 -45 46 -109v-122q0 -64 -46 -110q-45 -45 -109 -45t-110 45q-45 47 -45 110v306q0 64 45 109q46 46 110 46t109 -46q46 -45 46 -109v-32h-110v39q2 27 -21.5 38.5t-47 0t-21.5 -38.5zM245 240v136q0 19 -13 32t-32 13
q-18 0 -30.5 -12t-14.5 -30v-139q-2 -27 21.5 -38.5t47 0t21.5 38.5z" />
    <glyph glyph-name="seven.onum" horiz-adv-x="356" 
d="M192 597h-182v103h296v-103l-122 -497h-113z" />
    <glyph glyph-name="eight.onum" horiz-adv-x="390" 
d="M40 247q0 62 43 105l40 47l-39 46q-44 47 -44 108q0 64 45 109q46 46 110 46t109 -46q46 -45 46 -109q0 -61 -44 -108l-40 -46l41 -47q43 -43 43 -105q0 -64 -46 -110q-45 -45 -109 -45q-63 0 -110 45q-45 47 -45 110zM240 240v7q0 14 -7 25l-38 44l-38 -44
q-7 -11 -7 -25v-7q-2 -27 21.5 -38.5t47 0t21.5 38.5zM150 560v-7q0 -13 9 -27l36 -43l36 43q9 14 9 27v7q2 27 -21.5 38.5t-47 0t-21.5 -38.5z" />
    <glyph glyph-name="nine.onum" 
d="M245 240v42q-21 -6 -45 -6q-64 0 -110 45q-45 47 -45 110v122q0 64 45 109q46 46 110 46t109 -46q46 -45 46 -109v-306q0 -64 -46 -110q-45 -45 -109 -45t-110 45q-45 47 -45 110v32h110v-39q-2 -27 21.5 -38.5t47 0t21.5 38.5zM155 560v-136q0 -19 13 -32t32 -13
q17 0 30.5 12t14.5 29v140q2 27 -21.5 38.5t-47 0t-21.5 -38.5z" />
    <glyph glyph-name="zero.lnum" horiz-adv-x="500" 
d="M45 197v406q0 85 60 145t145 60t145 -60t60 -145v-406q0 -85 -60 -145t-145 -60q-86 0 -146 60q-59 61 -59 145zM155 610v-420q0 -40 27.5 -67.5t67.5 -27.5q39 0 67 27.5t28 67.5v420q0 39 -28 67t-67 28q-40 0 -67.5 -28t-27.5 -67z" />
    <glyph glyph-name="one.lnum" horiz-adv-x="315" 
d="M260 0h-110v697h-125v103h235v-800z" />
    <glyph glyph-name="two.lnum" horiz-adv-x="500" 
d="M455 0h-410v103l286 443q15 22 15 50v14q0 39 -28 67t-67 28q-40 0 -67.5 -28t-27.5 -67v-43h-110v36q0 85 60 145t145 60t145 -60t60 -145q0 -65 -39 -119l-246 -381h284v-103z" />
    <glyph glyph-name="three.lnum" horiz-adv-x="500" 
d="M345 553v57q0 40 -27.5 67.5t-67.5 27.5q-39 0 -67 -27.5t-28 -67.5v-43h-110v36q0 85 60 145t145 60q86 0 145 -60q60 -60 60 -145v-43q0 -92 -69 -154q69 -62 69 -153v-56q0 -85 -60 -145q-59 -60 -145 -60q-85 0 -145 60t-60 145v36h110v-43q0 -40 28 -67.5t67 -27.5
q40 0 67.5 27.5t27.5 67.5v70q0 39 -27.5 67t-67.5 28h-104v103h104q40 0 67.5 28t27.5 67z" />
    <glyph glyph-name="four.lnum" horiz-adv-x="479" 
d="M45 220v103l117 477h112l-116 -477h166v477h110v-800h-110v220h-279z" />
    <glyph glyph-name="five.lnum" horiz-adv-x="500" 
d="M345 190v97q0 39 -27.5 67t-67.5 28h-197v418h384v-103h-274v-212h87q85 0 145 -60t60 -145v-83q0 -85 -60 -145q-59 -60 -145 -60q-85 0 -145 60t-60 145v36h110v-43q0 -40 28 -67.5t67 -27.5q40 0 67.5 27.5t27.5 67.5z" />
    <glyph glyph-name="six.lnum" horiz-adv-x="500" 
d="M250 491q85 0 145 -60t60 -145v-89q0 -85 -60 -145t-145 -60q-86 0 -146 60q-59 61 -59 145v406q0 85 60 145t145 60t145 -60t60 -145v-36h-110v43q0 39 -28 67t-67 28q-40 0 -67.5 -28t-27.5 -67v-143q45 24 95 24zM155 297v-107q0 -40 27.5 -67.5t67.5 -27.5
q39 0 67 27.5t28 67.5v103q0 40 -28 67.5t-67 27.5t-66 -26t-29 -65z" />
    <glyph glyph-name="seven.lnum" horiz-adv-x="452" 
d="M279 697h-268v103h382v-103l-170 -697h-114z" />
    <glyph glyph-name="eight.lnum" horiz-adv-x="500" 
d="M45 197v58q0 95 69 153q-69 62 -69 154v41q0 85 60 145t145 60t145 -60t60 -145v-41q0 -92 -69 -154q69 -62 69 -153v-58q0 -85 -60 -145t-145 -60q-86 0 -146 60q-59 61 -59 145zM155 262v-72q0 -40 27.5 -67.5t67.5 -27.5q39 0 67 27.5t28 67.5v72q0 39 -28 67t-67 28
h-4q-38 -1 -64.5 -29t-26.5 -66zM155 610v-55q0 -40 27.5 -67.5t67.5 -27.5h4q39 2 65 29t26 66v55q0 39 -28 67t-67 28q-40 0 -67.5 -28t-27.5 -67z" />
    <glyph glyph-name="nine.lnum" horiz-adv-x="500" 
d="M345 190v142q-44 -23 -95 -23q-85 0 -145 60t-60 145v89q0 85 60 145t145 60q86 0 145 -60q60 -60 60 -145v-406q0 -85 -60 -145t-145 -60t-145 60t-60 145v36h110v-43q0 -39 28 -67t67 -28q40 0 67.5 28t27.5 67zM250 412q38 0 66 26.5t29 64.5v107q0 40 -27.5 67.5
t-67.5 27.5q-39 0 -67 -27.5t-28 -67.5v-103q0 -40 28 -67.5t67 -27.5z" />
    <glyph glyph-name="zero.tnum" 
d="M45 247v306q0 64 45 109q46 46 110 46t109 -46q46 -45 46 -109v-306q0 -64 -46 -110q-45 -45 -109 -45t-110 45q-45 47 -45 110zM155 560v-320q-2 -27 21.5 -38.5t47 0t21.5 38.5v320q2 27 -21.5 38.5t-47 0t-21.5 -38.5z" />
    <glyph glyph-name="one.tnum" horiz-adv-x="296" 
d="M241 100h-110v497h-106v103h216v-600z" />
    <glyph glyph-name="two.tnum" 
d="M355 100h-310v103l194 321q6 9 6 22v14q2 27 -21.5 38.5t-47 0t-21.5 -38.5v-53h-110v46q0 64 45 109q46 46 110 46t109 -46q46 -45 46 -109q0 -48 -29 -89l-158 -261h187v-103z" />
    <glyph glyph-name="three.tnum" 
d="M245 496v64q2 27 -21.5 38.5t-47 0t-21.5 -38.5v-46h-110v39q0 64 45 109q46 46 110 46t109 -46q46 -45 46 -109v-49q0 -61 -40 -104q40 -44 40 -104v-49q0 -64 -46 -110q-45 -45 -109 -45t-110 45q-45 47 -45 110v39h110v-46q-2 -27 21.5 -38.5t47 0t21.5 38.5v64
q0 17 -12 30t-30 15h-53v102h50q19 0 32 13.5t13 31.5z" />
    <glyph glyph-name="four.tnum" horiz-adv-x="377" 
d="M222 269h-200v102l53 329h112l-54 -329h89v329h110v-600h-110v169z" />
    <glyph glyph-name="five.tnum" 
d="M245 240v82q0 19 -13 32t-32 13h-147v333h294v-103h-184v-127h37q64 0 109 -46q46 -45 46 -109v-68q0 -64 -46 -110q-45 -45 -109 -45t-110 45q-45 47 -45 110v39h110v-46q-2 -27 21.5 -38.5t47 0t21.5 38.5z" />
    <glyph glyph-name="six.tnum" 
d="M155 560v-63q18 7 45 7q64 0 109 -46q46 -45 46 -109v-102q0 -64 -46 -110q-45 -45 -109 -45t-110 45q-45 47 -45 110v306q0 64 45 109q46 46 110 46t109 -46q46 -45 46 -109v-32h-110v39q2 27 -21.5 38.5t-47 0t-21.5 -38.5zM245 240v116q0 19 -13 32t-32 13
q-18 0 -30.5 -12t-14.5 -30v-119q-2 -27 21.5 -38.5t47 0t21.5 38.5z" />
    <glyph glyph-name="seven.tnum" horiz-adv-x="356" 
d="M192 597h-182v103h296v-103l-122 -497h-113z" />
    <glyph glyph-name="eight.tnum" 
d="M45 514v39q0 64 45 109q46 46 110 46t109 -46q46 -45 46 -109v-39q0 -61 -40 -104q40 -44 40 -104v-59q0 -64 -46 -110q-45 -45 -109 -45t-110 45q-45 47 -45 110v59q0 60 40 104q-40 43 -40 104zM155 314v-74q-2 -27 21.5 -38.5t47 0t21.5 38.5v74q0 18 -13 31.5
t-32 13.5t-32 -13.5t-13 -31.5zM155 560v-54q0 -17 12 -30.5t29 -14.5h7q18 2 30 15t12 30v54q2 27 -21.5 38.5t-47 0t-21.5 -38.5z" />
    <glyph glyph-name="nine.tnum" 
d="M245 240v63q-21 -6 -45 -6q-64 0 -110 45q-45 46 -45 110v101q0 64 45 109q46 46 110 46t109 -46q46 -45 46 -109v-306q0 -64 -46 -110q-45 -45 -109 -45t-110 45q-45 47 -45 110v32h110v-39q-2 -27 21.5 -38.5t47 0t21.5 38.5zM155 560v-116q0 -18 13 -31.5t32 -13.5
t32 13.5t13 31.5v116q2 27 -21.5 38.5t-47 0t-21.5 -38.5z" />
    <glyph glyph-name="Dieresis" 
d="M75 785q-16 17 -16 40t16 39q17 17 40 17t39 -17q17 -16 17 -39t-17 -40q-16 -16 -39 -16t-40 16zM245 785q-16 17 -16 40t16 39q17 17 40 17t39 -17q17 -16 17 -39t-17 -40q-16 -16 -39 -16t-40 16z" />
    <glyph glyph-name="Ring" horiz-adv-x="330" 
d="M78 738q-36 36 -36 87t36 87t87 36t87 -36t36 -87t-36 -87t-87 -36t-87 36zM141 849q-23 -23 1 -47t47 -1t-1 47t-47 1z" />
    <glyph glyph-name="Macron" horiz-adv-x="200" 
d="M240 777h-280v89h280v-89z" />
    <glyph glyph-name="Breve" horiz-adv-x="330" 
d="M165 752v89q22 0 35.5 9.5t13.5 24.5v21h89v-21q0 -56 -35.5 -89.5t-102.5 -33.5zM165 841v-89q-67 0 -102.5 33.5t-35.5 89.5v21h89v-21q0 -15 13.5 -24.5t35.5 -9.5z" />
    <glyph glyph-name="Dotaccent" horiz-adv-x="217" 
d="M55 780q-18 19 -18 45t18 44q19 19 45 19t44 -19q19 -18 19 -44t-19 -45q-18 -18 -44 -18t-45 18z" />
    <glyph glyph-name="ampersandsmall" horiz-adv-x="532" 
d="M45 197q0 95 69 153q-69 62 -69 154v99q0 85 60 145t145 60t145 -60t60 -145v-36h-110v43q0 39 -28 67t-67 28q-40 0 -67.5 -28t-27.5 -67v-113q0 -39 26 -66t65 -29h272v-103h-63v-102q0 -85 -60 -145t-145 -60q-86 0 -146 60q-59 61 -59 145zM155 204v-14
q0 -40 27.5 -67.5t67.5 -27.5q39 0 67 27.5t28 67.5v109h-99q-38 -1 -64.5 -29t-26.5 -66z" />
    <glyph glyph-name="exclamsmall" horiz-adv-x="200" 
d="M55 11q-18 19 -18 45t18 44q19 18 45 18t44 -18q19 -18 19 -44t-19 -45q-18 -18 -44 -18t-45 18zM45 486v314h110v-314q0 -23 -5 -111q-1 -11 -3.5 -63.5t-4.5 -77.5l-5 -63h-74q-18 243 -18 315z" />
    <glyph glyph-name="exclamdownsmall" horiz-adv-x="200" 
d="M55 700q-18 18 -18 44t18 44q19 19 45 19t44 -19q19 -18 19 -44t-19 -44q-18 -18 -44 -18t-45 18zM155 0h-110v314q0 41 4 110l9 142l5 63h74q18 -243 18 -315v-314z" />
    <glyph glyph-name="questionsmall" horiz-adv-x="500" 
d="M155 610v-43h-110v36q0 85 60 145t145 60t145 -60t60 -145v-53q0 -30 -14 -67t-34 -59l-86 -104q-16 -23 -16 -49v-25l-14 -75h-82q-14 51 -14 75v25q0 30 14 67t34 59l86 104q16 23 16 49v60q0 39 -28 67t-67 28q-40 0 -67.5 -28t-27.5 -67zM205 11q-18 19 -18 45t18 44
q19 18 45 18t44 -18q19 -18 19 -44t-19 -45q-18 -18 -44 -18t-45 18z" />
    <glyph glyph-name="questiondownsmall" horiz-adv-x="500" 
d="M345 191v43h110v-36q0 -85 -60 -145t-145 -60t-145 60t-60 145v53q0 30 14 67t34 59l86 104q16 22 16 48v25l14 75h82q14 -51 14 -75v-25q0 -30 -14 -66.5t-34 -59.5l-86 -104q-16 -22 -16 -48v-60q0 -39 28 -67t67 -28q40 0 67.5 28t27.5 67zM294 789q19 -18 19 -44
t-19 -44q-18 -18 -44 -18t-45 18q-18 18 -18 44t18 44q19 19 45 19t44 -19z" />
    <glyph glyph-name="Tilde" horiz-adv-x="200" 
d="M-7 778l-12 -7l-37 76l12 7q45 24 100 24q18 0 49 -12t47 -12q15 0 28.5 2.5t20 5t6.5 3.5l12 6l36 -76l-11 -7q-44 -23 -97 -23q-21 0 -52 12t-47 12q-15 0 -28.5 -2.5t-20 -5t-6.5 -3.5z" />
    <glyph glyph-name="Hungarumlaut" horiz-adv-x="350" 
d="M185 830l-93 -73l-53 63l88 80zM346 830l-93 -73l-53 63l88 80z" />
    <glyph glyph-name="Ogonek" horiz-adv-x="200" 
d="M57 110l19 14l93 -24q-80 -69 -82 -99q0 -13 13 -13q14 0 22 14l2 5l70 -33l-11 -17q-6 -10 -29 -27t-47 -17q-108 0 -108 94q0 30 18.5 59t39.5 44z" />
    <glyph glyph-name="Grave" horiz-adv-x="250" 
d="M53 901l176 -67l-25 -78l-181 53z" />
    <glyph glyph-name="idotaccent" horiz-adv-x="217" 
d="M64 780q-18 19 -18 45t18 44q19 19 45 19t44 -19q19 -18 19 -44t-19 -45q-18 -18 -44 -18t-45 18zM164 100h-110v600h110v-600z" />
    </font>
</defs>
</svg>
