<?xml version="1.0" standalone="no"?>
<!DOCTYPE svg PUBLIC "-//W3C//DTD SVG 1.1//EN" "http://www.w3.org/Graphics/SVG/1.1/DTD/svg11.dtd" >
<svg xmlns="http://www.w3.org/2000/svg">
<metadata></metadata>
<defs>
<font id="catorze27_style_1thin" horiz-adv-x="1024" >
<font-face units-per-em="2048" ascent="1907" descent="-141" />
<missing-glyph horiz-adv-x="512" />
<glyph horiz-adv-x="0" />
<glyph horiz-adv-x="682" />
<glyph horiz-adv-x="0" />
<glyph horiz-adv-x="0" />
<glyph unicode="&#xd;" horiz-adv-x="512" />
<glyph unicode=" "  horiz-adv-x="512" />
<glyph unicode="&#x09;" horiz-adv-x="512" />
<glyph unicode="&#xa0;" horiz-adv-x="512" />
<glyph unicode="!" horiz-adv-x="409" d="M192 219q0 14 13 14t13 -14t-13 -14t-13 14zM195 410v1024h20v-1024h-20z" />
<glyph unicode="&#x22;" horiz-adv-x="768" d="M195 993v441h20v-441h-20zM553 993v441h20v-441h-20z" />
<glyph unicode="#" d="M20 532v21h199l117 532h-264v21h268l74 330l16 -6l-72 -324h412l74 330l16 -6l-72 -324h205v-21h-209l-114 -532h272v-21h-276l-72 -329l-21 6l72 323h-409l-72 -329l-21 6l72 323h-195zM240 553h409l117 532h-412z" />
<glyph unicode="$" horiz-adv-x="798" d="M184 416v96h21v-96q0 -80 57.5 -137.5t136.5 -57.5t137 57.5t58 137.5q0 46 -23 90l-356 608q-31 57 -31 109q0 86 59.5 148t145.5 67v149h21v-149q86 -4 145 -66.5t59 -148.5v-97h-20v97q0 79 -57.5 136.5t-137.5 57.5q-79 0 -136.5 -57.5t-57.5 -136.5q0 -54 26 -99 l359 -608q21 -41 24 -100q0 -87 -58.5 -148.5t-145.5 -66.5v-150h-21v150q-87 5 -146 66.5t-59 148.5z" />
<glyph unicode="%" horiz-adv-x="1556" d="M195 928v295q0 87 61 151q64 64 154 64t151 -64q64 -64 64 -151v-295q0 -88 -64 -152q-60 -63 -151 -63t-154 63q-61 64 -61 152zM215 928q0 -80 57.5 -137.5t137.5 -57.5q79 0 136.5 57.5t57.5 137.5v295q0 79 -57 136.5t-137 57.5t-137.5 -57.5t-57.5 -136.5v-295z M430 106l666 1332l16 -8l-666 -1332zM932 313v295q0 88 61 152q63 63 154 63t151 -63q64 -64 64 -152v-295q0 -87 -64 -151q-61 -64 -151 -64t-154 64q-61 64 -61 151zM952 313q0 -79 57.5 -136.5t137.5 -57.5q79 0 136.5 57.5t57.5 136.5v295q0 80 -57.5 137.5t-136.5 57.5 t-137 -57.5t-58 -137.5v-295z" />
<glyph unicode="&#x26;" horiz-adv-x="819" d="M195 416v35q0 71 41 125.5t108 78.5q-66 20 -107.5 76.5t-41.5 128.5v363q0 87 61 151q64 64 154 64t151 -64q64 -64 64 -151v-97h-21v97q0 79 -57 136.5t-137 57.5t-137.5 -57.5t-57.5 -136.5v-363q0 -78 54 -133.5t132 -60.5h316v-21h-92v-229q0 -88 -64 -152 q-60 -63 -151 -63t-154 63q-61 64 -61 152zM215 416q0 -80 57.5 -137.5t137.5 -57.5q79 0 136.5 57.5t57.5 137.5v229h-203q-78 -3 -131 -59q-55 -58 -55 -135v-35z" />
<glyph unicode="'" horiz-adv-x="409" d="M195 993v441h20v-441h-20z" />
<glyph unicode="(" horiz-adv-x="501" d="M184 819q0 258 29 506q25 214 57 326l27 94l20 -8q-11 -31 -30 -103q-15 -56 -51 -307q-31 -245 -31 -508q0 -260 28 -500q24 -203 58 -323l26 -94l-20 -8q-16 47 -31 102q-15 56 -51 307q-31 251 -31 516z" />
<glyph unicode=")" horiz-adv-x="501" d="M184 -98q16 47 31 102q20 74 49 305q33 230 33 510q0 252 -29 500q-26 221 -55 323l-29 95l21 8q15 -44 31 -103q20 -76 49 -309q32 -223 32 -514q0 -266 -28 -506q-26 -218 -56 -325l-28 -94z" />
<glyph unicode="*" horiz-adv-x="901" d="M195 1202v21h239l-121 207l19 10l119 -207l118 207l19 -10l-121 -207h240v-21h-238l119 -207l-19 -10l-118 207l-119 -207l-19 10l121 207h-239z" />
<glyph unicode="+" horiz-adv-x="1064" d="M72 768v20h450v441h21v-441h450v-20h-450v-461h-21v461h-450z" />
<glyph unicode="," horiz-adv-x="409" d="M195 0v246h20v-246h-20z" />
<glyph unicode="-" horiz-adv-x="655" d="M72 768v20h512v-20h-512z" />
<glyph unicode="." horiz-adv-x="430" d="M192 219q0 14 13 14t13 -14t-13 -14t-13 14z" />
<glyph unicode="/" horiz-adv-x="1183" d="M174 4l819 1638l17 -8l-820 -1638z" />
<glyph unicode="0" d="M195 313v1012q0 133 92 225q95 92 225 92q131 0 223 -92q94 -91 94 -225v-1012q0 -134 -94 -225q-92 -92 -223 -92q-130 0 -225 92q-92 92 -92 225zM215 313q0 -122 86 -211q89 -86 211 -86q123 0 209 86q88 88 88 211v1012q0 124 -88 209q-85 88 -209 88 q-123 0 -211 -88q-86 -86 -86 -209v-1012z" />
<glyph unicode="1" horiz-adv-x="645" d="M154 1618v20h276v-1638h-20v1618h-256z" />
<glyph unicode="2" d="M195 0v20l583 1172q31 67 31 133q0 124 -88 209q-85 88 -209 88q-123 0 -211 -88q-86 -86 -86 -209v-76h-20v76q0 133 92 225q95 92 225 92q131 0 223 -92q94 -91 94 -225q0 -81 -32 -141l-580 -1164h612v-20h-634z" />
<glyph unicode="3" d="M195 313v76h20v-76q0 -122 86 -211q89 -86 211 -86q123 0 209 86q88 88 88 211v455q0 124 -88 209q-85 88 -209 88h-154v20l420 533h-579v20h606v-20l-420 -533h127q131 0 223 -92q94 -91 94 -225v-455q0 -134 -94 -225q-92 -92 -223 -92q-130 0 -225 92q-92 92 -92 225z " />
<glyph unicode="4" d="M195 553v20l614 1065h20v-1638h-20v553h-614zM219 573h590v1026z" />
<glyph unicode="5" d="M195 313v76h20v-76q0 -122 86 -211q89 -86 211 -86q123 0 209 86q88 88 88 211v455q0 124 -88 209q-85 88 -209 88h-313v573h606v-20h-586v-533h293q131 0 223 -92q94 -91 94 -225v-455q0 -134 -94 -225q-92 -92 -223 -92q-130 0 -225 92q-92 92 -92 225z" />
<glyph unicode="6" d="M195 313v1012q0 133 92 225q95 92 225 92q131 0 223 -92q94 -91 94 -225v-76h-20v76q0 124 -88 209q-85 88 -209 88q-123 0 -211 -88q-86 -86 -86 -209v-440q36 92 117 148.5t180 56.5q130 0 223 -93q94 -91 94 -225v-459q0 -134 -94 -225q-92 -92 -223 -92 q-130 0 -225 92q-92 92 -92 225zM215 313q0 -122 86 -211q89 -86 211 -86q123 0 209 86q88 88 88 211v459q0 124 -88 209q-85 88 -209 88q-123 0 -211 -88q-86 -86 -86 -209v-459z" />
<glyph unicode="7" horiz-adv-x="911" d="M82 1618v20h635v-20l-402 -1618h-18l397 1618h-612z" />
<glyph unicode="8" horiz-adv-x="999" d="M184 313q0 109 62 189l239 317l-235 314q-66 87 -66 192q0 133 92 225t224 92q131 0 223 -92t92 -225q0 -106 -65 -192l-238 -314l242 -317q58 -79 61 -189q0 -133 -92 -225t-223 -92q-132 0 -224 92t-92 225zM205 313q0 -122 86 -211q86 -86 209 -86t209 86 q86 89 86 211q0 100 -58 176l-237 314l-238 -314q-57 -75 -57 -176zM205 1325q-3 -98 61 -180l234 -307l233 307q62 83 62 180q0 123 -86 209q-85 88 -209 88t-209 -88q-86 -86 -86 -209z" />
<glyph unicode="9" d="M195 313v76h20v-76q0 -122 86 -211q89 -86 211 -86q123 0 209 86q88 88 88 211v441q-35 -93 -116.5 -149t-180.5 -56q-130 0 -225 92q-92 92 -92 225v459q0 133 92 225q95 92 225 92q131 0 223 -92q94 -91 94 -225v-1012q0 -134 -94 -225q-92 -92 -223 -92 q-130 0 -225 92q-92 92 -92 225zM215 866q0 -122 86 -211q89 -86 211 -86q123 0 209 86q88 88 88 211v459q0 124 -88 209q-85 88 -209 88q-123 0 -211 -88q-86 -86 -86 -209v-459z" />
<glyph unicode=":" horiz-adv-x="430" d="M192 219q0 14 13 14t13 -14t-13 -14t-13 14zM192 1223q0 14 13 14t13 -14t-13 -14t-13 14z" />
<glyph unicode=";" horiz-adv-x="430" d="M192 1222.5q0 14.5 13 14.5t13 -14.5t-13 -14.5t-13 14.5zM195 0v246h20v-246h-20z" />
<glyph unicode="&#x3c;" horiz-adv-x="675" d="M113 819l413 621l17 -13l-406 -608l406 -608l-17 -12z" />
<glyph unicode="=" horiz-adv-x="962" d="M72 553v20h819v-20h-819zM72 963v20h819v-20h-819z" />
<glyph unicode="&#x3e;" horiz-adv-x="675" d="M113 211l405 608l-405 608l16 13l414 -621l-414 -620z" />
<glyph unicode="?" horiz-adv-x="819" d="M195 1126v103q0 91 62 153t153 62t153 -62t62 -153v-103q0 -102 -47 -198l-113 -226q-45 -83 -45 -190v-102h-21v102q0 108 45 199l115 225q42 89 45 190v103q0 79 -57 136.5t-137 57.5t-137.5 -57.5t-57.5 -136.5v-103h-20zM396 219q0 14 14 14t14 -14t-14 -14t-14 14z " />
<glyph unicode="@" horiz-adv-x="1638" d="M195 625v393q0 260 182 442t442 182q261 0 443 -182t182 -442v-397q0 -88 -64 -152q-60 -63 -151 -63q-72 0 -128.5 41.5t-76.5 107.5q-24 -67 -79 -108t-126 -41q-90 0 -153 63q-62 65 -62 152v397q0 86 62 151q64 64 153 64q91 0 152 -64q63 -63 63 -151v-397 q0 -79 58 -137t137 -58t136.5 57.5t57.5 137.5v397q0 251 -178 426q-175 178 -426 178q-250 0 -428 -178q-176 -176 -176 -426v-393q0 -249 176 -428q180 -177 428 -177h359v-20h-359q-260 0 -442 182t-182 443zM625 621q0 -80 57.5 -137.5t136.5 -57.5t137 58t58 137v397 q0 79 -57.5 136.5t-137.5 57.5q-79 0 -136.5 -57t-57.5 -137v-397z" />
<glyph unicode="A" horiz-adv-x="1032" d="M160 0l344 1638h20l348 -1638h-20l-76 348h-522l-74 -348h-20zM258 369h514l-258 1212z" />
<glyph unicode="B" d="M195 0v1638h317q131 0 223 -92q94 -91 94 -225v-389q0 -110 -66 -195.5t-171 -111.5q105 -29 171 -114.5t66 -193.5q0 -134 -94 -225q-92 -92 -223 -92h-317zM215 20h297q123 0 209 86q88 88 88 211q0 124 -88 209q-85 88 -209 88h-297v-594zM215 635h309q117 3 201 90 q84 90 84 207v389q0 124 -88 209q-85 88 -209 88h-297v-983z" />
<glyph unicode="C" d="M195 313v1012q0 133 92 225q95 92 225 92q131 0 223 -92q94 -91 94 -225v-76h-20v76q0 124 -88 209q-85 88 -209 88q-123 0 -211 -88q-86 -86 -86 -209v-1012q0 -122 86 -211q89 -86 211 -86q123 0 209 86q88 88 88 211v76h20v-76q0 -134 -94 -225q-92 -92 -223 -92 q-130 0 -225 92q-92 92 -92 225z" />
<glyph unicode="D" d="M195 0v1638h317q131 0 223 -92q94 -91 94 -225v-1004q0 -134 -94 -225q-92 -92 -223 -92h-317zM215 20h297q123 0 209 86q88 88 88 211v1004q0 124 -88 209q-85 88 -209 88h-297v-1598z" />
<glyph unicode="E" horiz-adv-x="860" d="M195 0v1638h522v-20h-502v-1045h399v-20h-399v-533h502v-20h-522z" />
<glyph unicode="F" horiz-adv-x="849" d="M195 0v1638h583v-20h-563v-993h461v-21h-461v-604h-20z" />
<glyph unicode="G" d="M195 313v1012q0 133 92 225q95 92 225 92q131 0 223 -92q94 -91 94 -225v-76h-20v76q0 124 -88 209q-85 88 -209 88q-123 0 -211 -88q-86 -86 -86 -209v-1012q0 -122 86 -211q89 -86 211 -86q123 0 209 86q88 88 88 211v240h-297v20h317v-260q0 -134 -94 -225 q-92 -92 -223 -92q-130 0 -225 92q-92 92 -92 225z" />
<glyph unicode="H" d="M195 0v1638h20v-1065h594v1065h20v-1638h-20v553h-594v-553h-20z" />
<glyph unicode="I" horiz-adv-x="430" d="M205 0v1638h20v-1638h-20z" />
<glyph unicode="J" horiz-adv-x="409" d="M-72 -492h72q80 0 137.5 58t57.5 137v1935h20v-1935q0 -89 -63 -152q-60 -63 -152 -63h-72v20z" />
<glyph unicode="K" d="M195 0v1638h20v-1046l594 1046h25l-373 -653l373 -985h-21l-364 963l-234 -410v-553h-20z" />
<glyph unicode="L" horiz-adv-x="880" d="M195 0v1638h20v-1618h553v-20h-573z" />
<glyph unicode="M" horiz-adv-x="1126" d="M195 0v1638h20l348 -563l348 563h21v-1638h-21v1602l-338 -547h-20l-338 547v-1602h-20z" />
<glyph unicode="N" horiz-adv-x="1075" d="M195 0v1638h20l645 -1581v1581h21v-1638h-21l-645 1581v-1581h-20z" />
<glyph unicode="O" d="M195 313v1012q0 133 92 225q95 92 225 92q131 0 223 -92q94 -91 94 -225v-1012q0 -134 -94 -225q-92 -92 -223 -92q-130 0 -225 92q-92 92 -92 225zM215 313q0 -122 86 -211q89 -86 211 -86q123 0 209 86q88 88 88 211v1012q0 124 -88 209q-85 88 -209 88 q-123 0 -211 -88q-86 -86 -86 -209v-1012z" />
<glyph unicode="P" d="M195 0v1638h317q131 0 223 -92q94 -91 94 -225v-451q0 -134 -94 -225q-92 -92 -223 -92h-297v-553h-20zM215 573h297q123 0 209 86q88 88 88 211v451q0 124 -88 209q-85 88 -209 88h-297v-1045z" />
<glyph unicode="Q" d="M195 313v1012q0 133 92 225q95 92 225 92q131 0 223 -92q94 -91 94 -225v-1012q0 -130 -90 -223q-91 -91 -217 -94v-303h-20v303q-128 3 -219 94q-88 91 -88 223zM215 313q0 -122 86 -211q89 -86 211 -86q123 0 209 86q88 88 88 211v1012q0 124 -88 209q-85 88 -209 88 q-123 0 -211 -88q-86 -86 -86 -209v-1012z" />
<glyph unicode="R" d="M195 0v1638h317q131 0 223 -92q94 -91 94 -225v-451q0 -110 -66 -195.5t-171 -111.5q105 -29 171 -114t66 -193v-256h-20v256q0 118 -84 205q-83 89 -201 92h-309v-553h-20zM215 573h309q116 3 201 91q84 90 84 206v451q0 124 -88 209q-85 88 -209 88h-297v-1045z" />
<glyph unicode="S" horiz-adv-x="1003" d="M184 313v76h21v-76q0 -122 86 -211q89 -86 211 -86q123 0 209 86q88 88 88 211q0 100 -58 176l-487 644q-66 87 -66 192q0 131 91 225q92 92 223 92q132 0 221 -92q92 -92 92 -225v-76h-20v76q0 123 -86 209q-82 88 -207 88q-124 0 -209 -88q-84 -87 -84 -209 q0 -101 61 -180l488 -643q61 -82 61 -189q0 -133 -92 -225t-225 -92q-134 0 -226 92t-92 225z" />
<glyph unicode="T" horiz-adv-x="798" d="M92 1618v20h615v-20h-297v-1618h-21v1618h-297z" />
<glyph unicode="U" d="M195 313v1325h20v-1325q0 -122 86 -211q89 -86 211 -86q123 0 209 86q88 88 88 211v1325h20v-1325q0 -134 -94 -225q-92 -92 -223 -92q-130 0 -225 92q-92 92 -92 225z" />
<glyph unicode="V" horiz-adv-x="1032" d="M160 1638h20l338 -1581l334 1581h20l-344 -1638h-20z" />
<glyph unicode="W" horiz-adv-x="1126" d="M195 0v1638h20v-1601l338 547h20l338 -547v1601h21v-1638h-21l-348 563l-348 -563h-20z" />
<glyph unicode="X" horiz-adv-x="970" d="M164 0l309 823l-305 815h22l295 -784l295 784h23l-307 -815l311 -823h-23l-299 795l-299 -795h-22z" />
<glyph unicode="Y" horiz-adv-x="962" d="M160 1638h22l299 -1050l299 1050h23l-311 -1085v-553h-21v553z" />
<glyph unicode="Z" horiz-adv-x="1003" d="M195 0v20l587 1598h-583v20h606v-20l-590 -1598h594v-20h-614z" />
<glyph unicode="[" horiz-adv-x="665" d="M195 -102v1843h276v-21h-256v-1802h256v-20h-276z" />
<glyph unicode="\" horiz-adv-x="1183" d="M174 1634l16 8l820 -1638l-17 -8z" />
<glyph unicode="]" horiz-adv-x="665" d="M195 -82h256v1802h-256v21h276v-1843h-276v20z" />
<glyph unicode="_" d="M72 0h880v-20h-880v20z" />
<glyph unicode="`" horiz-adv-x="512" d="M98 1731l8 20l308 -102l-8 -21z" />
<glyph unicode="a" horiz-adv-x="798" d="M160 205l229 1229h21l229 -1229h-21l-57 307h-323l-58 -307h-20zM242 532h315l-158 838z" />
<glyph unicode="b" horiz-adv-x="819" d="M195 205v1229h215q90 0 151 -64q64 -64 64 -151v-390q0 -71 -41.5 -127.5t-108.5 -76.5q67 -24 108.5 -79t41.5 -126q0 -88 -64 -152q-60 -63 -151 -63h-215zM215 225h195q79 0 136.5 57.5t57.5 137.5q0 77 -55 135q-53 56 -131 59h-203v-389zM215 635h203q78 5 132 60.5 t54 133.5v390q0 79 -57 136.5t-137 57.5h-195v-778z" />
<glyph unicode="c" horiz-adv-x="819" d="M195 416v807q0 87 61 151q64 64 154 64t151 -64q64 -64 64 -151v-97h-21v97q0 79 -57 136.5t-137 57.5t-137.5 -57.5t-57.5 -136.5v-807q0 -80 57.5 -137.5t137.5 -57.5q79 0 136.5 57.5t57.5 137.5v96h21v-96q0 -88 -64 -152q-60 -63 -151 -63t-154 63q-61 64 -61 152z " />
<glyph unicode="d" horiz-adv-x="819" d="M195 205v1229h215q90 0 151 -64q64 -64 64 -151v-799q0 -88 -64 -152q-60 -63 -151 -63h-215zM215 225h195q79 0 136.5 57.5t57.5 137.5v799q0 79 -57 136.5t-137 57.5h-195v-1188z" />
<glyph unicode="e" horiz-adv-x="757" d="M195 205v1229h419v-21h-399v-747h348v-21h-348v-420h399v-20h-419z" />
<glyph unicode="f" horiz-adv-x="686" d="M195 205v1229h419v-21h-399v-747h348v-21h-348v-440h-20z" />
<glyph unicode="g" horiz-adv-x="819" d="M195 416v807q0 87 61 151q64 64 154 64t151 -64q64 -64 64 -151v-97h-21v97q0 79 -57 136.5t-137 57.5t-137.5 -57.5t-57.5 -136.5v-807q0 -80 57.5 -137.5t137.5 -57.5q79 0 136.5 57.5t57.5 137.5v229h-194v21h215v-250q0 -88 -64 -152q-60 -63 -151 -63t-154 63 q-61 64 -61 152z" />
<glyph unicode="h" horiz-adv-x="819" d="M195 205v1229h20v-768h389v768h21v-1229h-21v440h-389v-440h-20z" />
<glyph unicode="i" horiz-adv-x="430" d="M205 205v1229h20v-1229h-20z" />
<glyph unicode="j" horiz-adv-x="409" d="M-20 -86h20q80 0 137.5 58t57.5 137v1325h20v-1325q0 -89 -63 -152q-60 -63 -152 -63h-20v20z" />
<glyph unicode="k" horiz-adv-x="819" d="M195 205v1229h20v-740l389 740h25l-254 -476l254 -753h-21l-248 727l-145 -277v-450h-20z" />
<glyph unicode="l" horiz-adv-x="675" d="M195 205v1229h20v-1209h348v-20h-368z" />
<glyph unicode="m" horiz-adv-x="921" d="M195 205v1229h20l246 -447l246 447h20v-1229h-20v1184l-236 -426h-20l-236 426v-1184h-20z" />
<glyph unicode="n" horiz-adv-x="870" d="M195 205v1229h20l440 -1172v1172h21v-1229h-21l-440 1171v-1171h-20z" />
<glyph unicode="o" horiz-adv-x="819" d="M195 416v807q0 87 61 151q64 64 154 64t151 -64q64 -64 64 -151v-807q0 -88 -64 -152q-60 -63 -151 -63t-154 63q-61 64 -61 152zM215 416q0 -80 57.5 -137.5t137.5 -57.5q79 0 136.5 57.5t57.5 137.5v807q0 79 -57 136.5t-137 57.5t-137.5 -57.5t-57.5 -136.5v-807z" />
<glyph unicode="p" horiz-adv-x="819" d="M195 205v1229h215q90 0 151 -64q64 -64 64 -151v-359q0 -91 -62 -153t-153 -62h-195v-440h-20zM215 666h195q80 0 137 57t57 137v359q0 79 -57 136.5t-137 57.5h-195v-747z" />
<glyph unicode="q" horiz-adv-x="819" d="M195 416v807q0 87 61 151q64 64 154 64t151 -64q64 -64 64 -151v-807q0 -87 -59 -148.5t-146 -66.5v-201h-21v201q-87 5 -145.5 66.5t-58.5 148.5zM215 416q0 -80 57.5 -137.5t137.5 -57.5q79 0 136.5 57.5t57.5 137.5v807q0 79 -57 136.5t-137 57.5t-137.5 -57.5 t-57.5 -136.5v-807z" />
<glyph unicode="r" horiz-adv-x="819" d="M195 205v1229h215q90 0 151 -64q64 -64 64 -151v-359q0 -72 -42 -128.5t-108 -76.5q67 -24 108.5 -78.5t41.5 -125.5v-246h-21v246q0 79 -57 136.5t-137 57.5h-195v-440h-20zM215 666h203q78 5 132 60.5t54 133.5v359q0 79 -57 136.5t-137 57.5h-195v-747z" />
<glyph unicode="s" horiz-adv-x="798" d="M184 416v96h21v-96q0 -80 57.5 -137.5t136.5 -57.5t137 57.5t58 137.5q0 46 -23 90l-356 608q-31 57 -31 109q0 88 63.5 151.5t151.5 63.5t151.5 -63.5t63.5 -151.5v-97h-20v97q0 79 -57.5 136.5t-137.5 57.5q-79 0 -136.5 -57.5t-57.5 -136.5q0 -54 26 -99l359 -608 q21 -41 24 -100q0 -88 -63.5 -151.5t-151.5 -63.5t-151.5 63.5t-63.5 151.5z" />
<glyph unicode="t" horiz-adv-x="593" d="M92 1413v21h410v-21h-195v-1208h-20v1208h-195z" />
<glyph unicode="u" horiz-adv-x="819" d="M195 416v1018h20v-1018q0 -80 57.5 -137.5t137.5 -57.5q79 0 136.5 57.5t57.5 137.5v1018h21v-1018q0 -88 -64 -152q-60 -63 -151 -63t-154 63q-61 64 -61 152z" />
<glyph unicode="v" horiz-adv-x="798" d="M160 1434h20l219 -1166l219 1166h21l-229 -1229h-21z" />
<glyph unicode="w" horiz-adv-x="921" d="M195 205v1229h20v-1186l236 428h20l236 -428v1186h20v-1229h-20l-246 446l-246 -446h-20z" />
<glyph unicode="x" horiz-adv-x="802" d="M184 205l205 612l-205 617h21l196 -582l197 582h20l-206 -617l206 -612h-22l-195 579l-194 -579h-23z" />
<glyph unicode="y" horiz-adv-x="722" d="M133 1434h21l206 -752l209 752h21l-219 -789v-440h-21v440z" />
<glyph unicode="z" horiz-adv-x="819" d="M195 205v20l403 1188h-399v21h422v-21l-406 -1188h410v-20h-430z" />
<glyph unicode="{" horiz-adv-x="753" d="M184 819l74 74q35 35 35 80l-2 706q0 26 17.5 44t43.5 18h207v-21h-207q-17 0 -29 -12t-12 -29l2 -706q0 -57 -39 -96l-57 -58l57 -57q39 -39 39 -96v-707q0 -17 12 -29t29 -12h205v-20h-205q-26 0 -43.5 17.5t-17.5 43.5v707q0 44 -35 79z" />
<glyph unicode="|" horiz-adv-x="430" d="M205 -102v1843h20v-1843h-20z" />
<glyph unicode="}" horiz-adv-x="753" d="M195 -82h206q17 0 29 12t12 29l-2 707q0 57 39 96l58 57l-58 58q-39 39 -39 96v706q0 17 -12 29t-29 12h-204v21h204q26 0 44 -18t18 -44v-706q0 -45 35 -80l73 -74l-73 -74q-35 -35 -35 -79l2 -707q0 -26 -18 -43.5t-44 -17.5h-206v20z" />
<glyph unicode="&#xa1;" horiz-adv-x="409" d="M192 1419.5q0 14.5 13 14.5t13 -14.5t-13 -14.5t-13 14.5zM195 205v1024h20v-1024h-20z" />
<glyph unicode="&#xa2;" horiz-adv-x="819" d="M195 416v807q0 86 59 148.5t145 66.5v149h21v-149q86 -5 145.5 -67t59.5 -148v-97h-21v97q0 79 -57 136.5t-137 57.5t-137.5 -57.5t-57.5 -136.5v-807q0 -80 57.5 -137.5t137.5 -57.5q79 0 136.5 57.5t57.5 137.5v96h21v-96q0 -87 -59 -148.5t-146 -66.5v-150h-21v150 q-87 5 -145.5 66.5t-58.5 148.5z" />
<glyph unicode="&#xa3;" horiz-adv-x="720" d="M51 205v20h144v998q0 87 61 151q64 64 154 64t151 -64q64 -64 64 -151v-97h-21v97q0 79 -57 136.5t-137 57.5t-137.5 -57.5t-57.5 -136.5v-445h297v-20h-297v-533h414v-20h-578z" />
<glyph unicode="&#xa4;" d="M195 231q0 90 52.5 160.5t137.5 95.5q-85 23 -137.5 93.5t-52.5 162.5v152q0 90 52.5 160.5t137.5 95.5q-85 23 -137.5 93.5t-52.5 162.5h20q0 -101 68 -172q71 -71 168 -74h112q100 0 172 72q74 74 74 174h20q0 -91 -53.5 -162t-138.5 -94q85 -25 138.5 -95.5 t53.5 -160.5v-152q0 -91 -53.5 -162t-138.5 -94q85 -25 138.5 -95.5t53.5 -160.5h-20q0 101 -74 172q-71 74 -172 74h-102q-100 0 -174 -74q-72 -72 -72 -172h-20zM215 743q0 -99 72 -174q74 -71 174 -71h102q101 0 172 71q74 74 74 174v152q0 100 -70 170q-73 73 -166 76 h-122q-95 -3 -168 -76q-68 -71 -68 -170v-152z" />
<glyph unicode="&#xa5;" horiz-adv-x="763" d="M150 389v21h221v235l-4 10h-217v21h212l-208 758h20l207 -752l209 752h20l-211 -758h215v-21h-223v-245h223v-21h-223v-184h-20v184h-221z" />
<glyph unicode="&#xa6;" horiz-adv-x="430" d="M205 -102v819h20v-819h-20zM205 922v819h20v-819h-20z" />
<glyph unicode="&#xa7;" horiz-adv-x="849" d="M184 211v96h21v-96q0 -80 57.5 -137.5t136.5 -57.5t137 58t58 137q0 46 -23 90l-356 608q-31 57 -31 109q0 68 39 122.5t101 78.5l-58 100q-30 55 -30 108q0 88 61 152q63 63 154 63t151 -63q64 -64 64 -152v-96h-21v96q0 80 -57.5 137.5t-136.5 57.5t-137 -58t-58 -137 q0 -51 27 -98l358 -608q22 -43 25 -100q0 -67 -39 -121.5t-101 -79.5l64 -109q21 -41 24 -100q0 -88 -63.5 -151.5t-151.5 -63.5t-151.5 63.5t-63.5 151.5zM205 1018q0 -53 26 -98l285 -484q57 20 93 71t36 114q0 48 -22 90l-289 491q-57 -20 -93 -70.5t-36 -113.5z" />
<glyph unicode="&#xa8;" horiz-adv-x="819" d="M242 1689.5q0 14.5 14 14.5t14 -14.5t-14 -14.5t-14 14.5zM550 1689.5q0 14.5 13 14.5t13 -14.5t-13 -14.5t-13 14.5z" />
<glyph unicode="&#xa9;" horiz-adv-x="1638" d="M195 621v397q0 260 182 442t442 182q261 0 443 -182t182 -442v-397q0 -261 -182 -443t-443 -182q-260 0 -442 182t-182 443zM215 621q0 -249 176 -428q180 -177 428 -177q249 0 426 177q178 178 178 428v397q0 251 -178 426q-175 178 -426 178q-250 0 -428 -178 q-176 -176 -176 -426v-397zM604 621v397q0 86 62 151q64 64 153 64q91 0 152 -64q63 -63 63 -151v-45h-20v45q0 79 -57.5 136.5t-137.5 57.5q-79 0 -136.5 -57t-57.5 -137v-397q0 -80 57.5 -137.5t136.5 -57.5t137 58t58 137v45h20v-45q0 -89 -63 -152q-60 -63 -152 -63 q-90 0 -153 63q-62 65 -62 152z" />
<glyph unicode="&#xaa;" horiz-adv-x="819" d="M195 1223q0 87 61 151q64 64 154 64q63 0 115.5 -33.5t78.5 -89.5v119h21v-410h-21v104q-26 -55 -78.5 -87.5t-115.5 -32.5q-91 0 -154 63q-61 64 -61 152zM215 1222.5q0 -80.5 57 -137.5t137.5 -57t137.5 57t57 137.5t-57 137.5t-137.5 57t-137.5 -57t-57 -137.5z" />
<glyph unicode="&#xab;" horiz-adv-x="1126" d="M113 819l413 621l17 -13l-406 -608l406 -608l-17 -12zM543 819l434 621l16 -13l-405 -608l405 -608l-16 -12z" />
<glyph unicode="&#xac;" horiz-adv-x="1085" d="M72 768v20h819v-378h-21v358h-798z" />
<glyph unicode="&#xad;" horiz-adv-x="655" d="M72 768v20h512v-20h-512z" />
<glyph unicode="&#xae;" horiz-adv-x="1638" d="M195 621v397q0 260 182 442t442 182q261 0 443 -182t182 -442v-397q0 -261 -182 -443t-443 -182q-260 0 -442 182t-182 443zM215 621q0 -249 176 -428q180 -177 428 -177q249 0 426 177q178 178 178 428v397q0 251 -178 426q-175 178 -426 178q-250 0 -428 -178 q-176 -176 -176 -426v-397zM604 410v819h215q91 0 152 -64q63 -63 63 -151v-154q0 -72 -41.5 -128.5t-107.5 -76.5q67 -24 108 -78.5t41 -125.5v-41h-20v41q0 79 -57.5 136.5t-137.5 57.5h-194v-235h-21zM625 666h202q78 5 132.5 60.5t54.5 133.5v154q0 79 -57.5 136.5 t-137.5 57.5h-194v-542z" />
<glyph unicode="&#xaf;" horiz-adv-x="409" d="M0 1679v21h410v-21h-410z" />
<glyph unicode="&#xb0;" horiz-adv-x="819" d="M194 1222.5q0 88.5 62 151.5q64 64 154 64t151 -64q63 -63 63 -151.5t-63 -151.5q-60 -63 -151 -63t-154 63q-62 63 -62 151.5zM215 1222.5q0 -80.5 57 -137.5t137.5 -57t137.5 57t57 137.5t-57 137.5t-137.5 57t-137.5 -57t-57 -137.5z" />
<glyph unicode="&#xb1;" horiz-adv-x="1064" d="M123 246v20h819v-20h-819zM123 973v20h399v389h21v-389h399v-20h-399v-410h-21v410h-399z" />
<glyph unicode="&#xb4;" horiz-adv-x="512" d="M98 1649l308 102l8 -20l-308 -103z" />
<glyph unicode="&#xb5;" horiz-adv-x="921" d="M195 205v1229h20l246 -447l246 447h20v-1229h-20v1184l-236 -426h-20l-236 426v-1184h-20z" />
<glyph unicode="&#xb6;" horiz-adv-x="808" d="M195 860v359q0 87 61 151q64 64 154 64h307v-21h-92v-993q0 -88 -64 -152q-60 -63 -151 -63h-21v20h21q79 0 136.5 57.5t57.5 137.5v225h-194q-91 0 -153 62t-62 153z" />
<glyph unicode="&#xb7;" horiz-adv-x="430" d="M192 614.5q0 14.5 13 14.5t13 -14.5t-13 -14.5t-13 14.5z" />
<glyph unicode="&#xb8;" horiz-adv-x="1075" d="M358 -266l11 16q53 -47 112 -47q55 0 84 26t29 66q0 33 -24 62.5t-58 29.5h-61l51 113h20l-41 -92h31q38 0 70 -35t32 -78q0 -51 -34 -81.5t-99 -30.5q-30 0 -61.5 12t-46.5 26z" />
<glyph unicode="&#xba;" horiz-adv-x="819" d="M194 1222.5q0 88.5 62 151.5q64 64 154 64t151 -64q63 -63 63 -151.5t-63 -151.5q-60 -63 -151 -63t-154 63q-62 63 -62 151.5zM215 1222.5q0 -80.5 57 -137.5t137.5 -57t137.5 57t57 137.5t-57 137.5t-137.5 57t-137.5 -57t-57 -137.5z" />
<glyph unicode="&#xbb;" horiz-adv-x="1126" d="M113 211l405 608l-405 608l16 13l414 -621l-414 -620zM563 211l406 608l-406 608l17 13l413 -621l-413 -620z" />
<glyph unicode="&#xbf;" horiz-adv-x="819" d="M195 420v102q0 103 47 199l112 225q45 91 45 191v102h21v-102q0 -108 -45 -199l-115 -225q-45 -83 -45 -191v-102q0 -80 57.5 -137.5t137.5 -57.5q79 0 136.5 57.5t57.5 137.5v102h21v-102q0 -88 -64 -152q-60 -63 -151 -63t-154 63q-61 64 -61 152zM396 1429.5 q0 14.5 14 14.5t14 -14.5t-14 -14.5t-14 14.5z" />
<glyph unicode="&#xc0;" horiz-adv-x="1032" d="M160 0l344 1638h20l348 -1638h-20l-76 348h-522l-74 -348h-20zM258 369h514l-258 1212zM258 1935v21l315 -103l-8 -20z" />
<glyph unicode="&#xc1;" horiz-adv-x="1032" d="M160 0l344 1638h20l348 -1638h-20l-76 348h-522l-74 -348h-20zM258 369h514l-258 1212zM458 1854l308 102l8 -20l-308 -103z" />
<glyph unicode="&#xc2;" horiz-adv-x="1032" d="M160 0l344 1638h20l348 -1638h-20l-76 348h-522l-74 -348h-20zM258 369h514l-258 1212zM326 1849l186 176h8l187 -176l-13 -16l-178 170l-178 -170z" />
<glyph unicode="&#xc3;" horiz-adv-x="1032" d="M160 0l344 1638h20l348 -1638h-20l-76 348h-522l-74 -348h-20zM258 369h514l-258 1212zM301 1891q58 38 127 38q30 0 82 -24q55 -25 84 -25q26 0 56 8.5t46.5 16.5t16.5 10l10 -16q-62 -39 -127 -39q-30 0 -82 24q-55 25 -84 25q-26 0 -56 -8.5t-46.5 -16.5t-16.5 -10z " />
<glyph unicode="&#xc4;" horiz-adv-x="1032" d="M160 0l344 1638h20l348 -1638h-20l-76 348h-522l-74 -348h-20zM258 369h514l-258 1212zM328 1894.5q0 14.5 14 14.5t14 -14.5t-14 -14.5t-14 14.5zM676 1894.5q0 14.5 14 14.5t14 -14.5t-14 -14.5t-14 14.5z" />
<glyph unicode="&#xc5;" horiz-adv-x="1032" d="M160 0l344 1638h20l348 -1638h-20l-76 348h-522l-74 -348h-20zM258 369h514l-258 1212zM352 1894.5q0 67.5 47 114.5q49 49 117 49t115 -49q49 -47 49 -114t-49 -117q-47 -47 -114.5 -47t-117.5 47q-47 49 -47 116.5zM373 1894.5q0 -59.5 43 -102.5q43 -41 100 -41 t100 41q43 43 43 102.5t-43 100.5q-43 43 -100 43t-100 -43q-43 -41 -43 -100.5z" />
<glyph unicode="&#xc6;" horiz-adv-x="1351" d="M139 0l447 1638h622v-20h-501v-1045h399v-20h-399v-533h501v-20h-522v348h-432l-94 -348h-21zM260 369h426v1249h-86z" />
<glyph unicode="&#xc7;" d="M195 313v1012q0 133 92 225q95 92 225 92q131 0 223 -92q94 -91 94 -225v-76h-20v76q0 124 -88 209q-85 88 -209 88q-123 0 -211 -88q-86 -86 -86 -209v-1012q0 -122 86 -211q89 -86 211 -86q123 0 209 86q88 88 88 211v76h20v-76q0 -130 -90 -223q-91 -91 -219 -94 l-39 -88h31q38 0 70 -35t32 -78q0 -51 -34 -81.5t-99 -30.5q-30 0 -61.5 12t-46.5 26l-15 13l11 16q53 -47 112 -47q55 0 84 26t29 66q0 33 -24 62.5t-58 29.5h-61l49 109q-127 3 -217 96q-88 91 -88 221z" />
<glyph unicode="&#xc8;" horiz-adv-x="860" d="M195 0v1638h522v-20h-502v-1045h399v-20h-399v-533h502v-20h-522zM293 1935l8 21l307 -103l-8 -20z" />
<glyph unicode="&#xc9;" horiz-adv-x="860" d="M195 0v1638h522v-20h-502v-1045h399v-20h-399v-533h502v-20h-522zM272 1853l308 103l8 -21l-307 -102z" />
<glyph unicode="&#xca;" horiz-adv-x="860" d="M195 0v1638h522v-20h-502v-1045h399v-20h-399v-533h502v-20h-522zM270 1849l187 176h8l186 -176l-12 -16l-178 170l-178 -170z" />
<glyph unicode="&#xcb;" horiz-adv-x="860" d="M195 0v1638h522v-20h-502v-1045h399v-20h-399v-533h502v-20h-522zM262 1894.5q0 14.5 14 14.5t14 -14.5t-14 -14.5t-14 14.5zM612 1894.5q0 14.5 13 14.5t13 -14.5t-13 -14.5t-13 14.5z" />
<glyph unicode="&#xcc;" horiz-adv-x="430" d="M-66 1935l9 21l307 -103l-8 -20zM205 0v1638h20v-1638h-20z" />
<glyph unicode="&#xcd;" horiz-adv-x="430" d="M180 0v1638h25v-1638h-25zM180 1853l307 103l9 -21l-308 -102z" />
<glyph unicode="&#xce;" horiz-adv-x="430" d="M25 1849l182 172l199 -172l-13 -16l-178 170l-178 -170zM205 0v1638h20v-1638h-20zM205 2025h6l-4 -4z" />
<glyph unicode="&#xcf;" horiz-adv-x="430" d="M28 1894.5q0 14.5 13 14.5t13 -14.5t-13 -14.5t-13 14.5zM205 0v1638h20v-1638h-20zM376 1894.5q0 14.5 13 14.5t13 -14.5t-13 -14.5t-13 14.5z" />
<glyph unicode="&#xd0;" d="M0 553v20h195v1065h317q131 0 223 -92q94 -91 94 -225v-1004q0 -134 -94 -225q-92 -92 -223 -92h-317v553h-195zM215 20h297q123 0 209 86q88 88 88 211v1004q0 124 -88 209q-85 88 -209 88h-297v-1045h195v-20h-195v-533z" />
<glyph unicode="&#xd1;" horiz-adv-x="1075" d="M195 0v1638h20l645 -1581v1581h21v-1638h-21l-645 1581v-1581h-20zM326 1890q59 39 127 39q29 0 82 -24q55 -25 83 -25q26 0 56 8.5t46.5 16.5t16.5 10l11 -17q-61 -38 -127 -38q-29 0 -82 24q-55 25 -84 25q-26 0 -56 -8.5t-46.5 -16.5t-16.5 -10z" />
<glyph unicode="&#xd2;" d="M195 313v1012q0 133 92 225q95 92 225 92q131 0 223 -92q94 -91 94 -225v-1012q0 -134 -94 -225q-92 -92 -223 -92q-130 0 -225 92q-92 92 -92 225zM215 313q0 -122 86 -211q89 -86 211 -86q123 0 209 86q88 88 88 211v1012q0 124 -88 209q-85 88 -209 88 q-123 0 -211 -88q-86 -86 -86 -209v-1012zM303 1936l8 20l308 -102l-8 -21z" />
<glyph unicode="&#xd3;" d="M195 313v1012q0 133 92 225q95 92 225 92q131 0 223 -92q94 -91 94 -225v-1012q0 -134 -94 -225q-92 -92 -223 -92q-130 0 -225 92q-92 92 -92 225zM215 313q0 -122 86 -211q89 -86 211 -86q123 0 209 86q88 88 88 211v1012q0 124 -88 209q-85 88 -209 88 q-123 0 -211 -88q-86 -86 -86 -209v-1012zM406 1853l307 103l8 -21l-307 -102z" />
<glyph unicode="&#xd4;" d="M195 313v1012q0 133 92 225q95 92 225 92q131 0 223 -92q94 -91 94 -225v-1012q0 -134 -94 -225q-92 -92 -223 -92q-130 0 -225 92q-92 92 -92 225zM215 313q0 -122 86 -211q89 -86 211 -86q123 0 209 86q88 88 88 211v1012q0 124 -88 209q-85 88 -209 88 q-123 0 -211 -88q-86 -86 -86 -209v-1012zM322 1849l186 176h8l186 -176l-12 -16l-178 170l-178 -170z" />
<glyph unicode="&#xd5;" d="M195 313v1012q0 133 92 225q95 92 225 92q131 0 223 -92q94 -91 94 -225v-1012q0 -134 -94 -225q-92 -92 -223 -92q-130 0 -225 92q-92 92 -92 225zM215 313q0 -122 86 -211q89 -86 211 -86q123 0 209 86q88 88 88 211v1012q0 124 -88 209q-85 88 -209 88 q-123 0 -211 -88q-86 -86 -86 -209v-1012zM301 1891q58 38 127 38q30 0 82 -24q55 -25 84 -25q26 0 56 8.5t46.5 16.5t16.5 10l10 -16q-62 -39 -127 -39q-30 0 -82 24q-55 25 -84 25q-26 0 -56 -8.5t-46.5 -16.5t-16.5 -10z" />
<glyph unicode="&#xd6;" d="M195 313v1012q0 133 92 225q95 92 225 92q131 0 223 -92q94 -91 94 -225v-1012q0 -134 -94 -225q-92 -92 -223 -92q-130 0 -225 92q-92 92 -92 225zM215 313q0 -122 86 -211q89 -86 211 -86q123 0 209 86q88 88 88 211v1012q0 124 -88 209q-85 88 -209 88 q-123 0 -211 -88q-86 -86 -86 -209v-1012zM324 1894.5q0 14.5 14 14.5t14 -14.5t-14 -14.5t-14 14.5zM672 1894.5q0 14.5 14 14.5t14 -14.5t-14 -14.5t-14 14.5z" />
<glyph unicode="&#xd7;" horiz-adv-x="1142" d="M154 313l403 455l-403 455l16 12l401 -453l402 453l16 -12l-405 -455l405 -455l-16 -12l-402 451l-401 -451z" />
<glyph unicode="&#xd8;" d="M195 4l51 135q-51 77 -51 174v1012q0 133 92 225q95 92 225 92q156 0 250 -122l47 122l20 -8l-51 -137q51 -80 51 -172v-1012q0 -134 -94 -225q-92 -92 -223 -92q-158 0 -252 123l-45 -123zM215 313q0 -81 39 -149l500 1331q-89 127 -242 127q-123 0 -211 -88 q-86 -86 -86 -209v-1012zM268 141q91 -125 244 -125q123 0 209 86q88 88 88 211v1012q0 83 -41 148z" />
<glyph unicode="&#xd9;" d="M195 313v1325h20v-1325q0 -122 86 -211q89 -86 211 -86q123 0 209 86q88 88 88 211v1325h20v-1325q0 -134 -94 -225q-92 -92 -223 -92q-130 0 -225 92q-92 92 -92 225zM303 1936l8 20l308 -102l-8 -21z" />
<glyph unicode="&#xda;" d="M195 313v1325h20v-1325q0 -122 86 -211q89 -86 211 -86q123 0 209 86q88 88 88 211v1325h20v-1325q0 -134 -94 -225q-92 -92 -223 -92q-130 0 -225 92q-92 92 -92 225zM406 1853l307 103l8 -21l-307 -102z" />
<glyph unicode="&#xdb;" d="M195 313v1325h20v-1325q0 -122 86 -211q89 -86 211 -86q123 0 209 86q88 88 88 211v1325h20v-1325q0 -134 -94 -225q-92 -92 -223 -92q-130 0 -225 92q-92 92 -92 225zM322 1849l186 176h8l186 -176l-12 -16l-178 170l-178 -170z" />
<glyph unicode="&#xdc;" d="M195 313v1325h20v-1325q0 -122 86 -211q89 -86 211 -86q123 0 209 86q88 88 88 211v1325h20v-1325q0 -134 -94 -225q-92 -92 -223 -92q-130 0 -225 92q-92 92 -92 225zM324 1894.5q0 14.5 14 14.5t14 -14.5t-14 -14.5t-14 14.5zM672 1894.5q0 14.5 14 14.5t14 -14.5 t-14 -14.5t-14 14.5z" />
<glyph unicode="&#xdd;" horiz-adv-x="962" d="M160 1638h22l299 -1050l299 1050h23l-311 -1085v-553h-21v553zM403 1853l308 103l8 -21l-307 -102z" />
<glyph unicode="&#xde;" d="M195 0v1638h20v-307h297q131 0 223 -92q94 -91 94 -225v-389q0 -135 -94 -226q-92 -92 -223 -92h-297v-307h-20zM215 328h297q123 0 209 86q88 88 88 211v389q0 124 -88 209q-85 88 -209 88h-297v-983z" />
<glyph unicode="&#xe0;" horiz-adv-x="798" d="M139 1731l8 20l308 -102l-9 -21zM160 205l229 1229h21l229 -1229h-21l-57 307h-323l-58 -307h-20zM242 532h315l-158 838z" />
<glyph unicode="&#xe1;" horiz-adv-x="798" d="M160 205l229 1229h21l229 -1229h-21l-57 307h-323l-58 -307h-20zM242 532h315l-158 838zM344 1649l307 102l8 -20l-307 -103z" />
<glyph unicode="&#xe2;" horiz-adv-x="798" d="M160 205l229 1229h21l229 -1229h-21l-57 307h-323l-58 -307h-20zM209 1645l186 176h8l187 -176l-12 -17l-179 170l-178 -170zM242 532h315l-158 838z" />
<glyph unicode="&#xe3;" horiz-adv-x="798" d="M160 205l229 1229h21l229 -1229h-21l-57 307h-323l-58 -307h-20zM188 1686q58 38 127 38q29 0 82 -24q55 -25 84 -25q26 0 56 8.5t46.5 16.5t16.5 10l10 -16q-62 -39 -127 -39q-29 0 -82 24q-55 25 -84 25q-26 0 -55.5 -8.5t-46 -16.5t-16.5 -10zM242 532h315l-158 838z " />
<glyph unicode="&#xe4;" horiz-adv-x="798" d="M160 205l229 1229h21l229 -1229h-21l-57 307h-323l-58 -307h-20zM232 1689.5q0 14.5 14 14.5t14 -14.5t-14 -14.5t-14 14.5zM242 532h315l-158 838zM540 1689.5q0 14.5 13 14.5t13 -14.5t-13 -14.5t-13 14.5z" />
<glyph unicode="&#xe5;" horiz-adv-x="798" d="M160 205l229 1229h21l229 -1229h-21l-57 307h-323l-58 -307h-20zM236 1689.5q0 67.5 47 114.5q49 50 116.5 50t114.5 -50q50 -47 50 -114.5t-50 -116.5q-47 -47 -114.5 -47t-116.5 47q-47 49 -47 116.5zM242 532h315l-158 838zM256 1689.5q0 -59.5 41 -102.5 q43 -41 102.5 -41t100.5 41q43 43 43 102.5t-43 100.5q-41 43 -100.5 43t-102.5 -43q-41 -41 -41 -100.5z" />
<glyph unicode="&#xe6;" horiz-adv-x="1122" d="M160 205l280 1229h539v-21h-399v-747h348v-21h-348v-420h399v-20h-420v307h-311l-70 -307h-18zM254 532h305v881h-104z" />
<glyph unicode="&#xe7;" horiz-adv-x="819" d="M195 416v807q0 87 61 151q64 64 154 64t151 -64q64 -64 64 -151v-97h-21v97q0 79 -57 136.5t-137 57.5t-137.5 -57.5t-57.5 -136.5v-807q0 -80 57.5 -137.5t137.5 -57.5q79 0 136.5 57.5t57.5 137.5v96h21v-96q0 -87 -60 -148.5t-147 -66.5l-39 -88h31q38 0 70 -35 t32 -78q0 -51 -34 -82t-99 -31q-30 0 -61.5 12.5t-47.5 26.5l-14 13l10 16q53 -47 113 -47q55 0 84 26t29 66q0 33 -24 62.5t-58 29.5h-62l49 109q-86 4 -144 66.5t-58 148.5z" />
<glyph unicode="&#xe8;" horiz-adv-x="757" d="M195 205v1229h419v-21h-399v-747h348v-21h-348v-420h399v-20h-419zM242 1731l8 20l307 -102l-8 -21z" />
<glyph unicode="&#xe9;" horiz-adv-x="757" d="M195 205v1229h419v-21h-399v-747h348v-21h-348v-420h399v-20h-419zM262 1649l307 102l9 -20l-308 -103z" />
<glyph unicode="&#xea;" horiz-adv-x="757" d="M195 205v1229h419v-21h-399v-747h348v-21h-348v-420h399v-20h-419zM209 1645l186 176h8l187 -176l-12 -17l-179 170l-178 -170z" />
<glyph unicode="&#xeb;" horiz-adv-x="757" d="M195 205v1229h419v-21h-399v-747h348v-21h-348v-420h399v-20h-419zM232 1689.5q0 14.5 14 14.5t14 -14.5t-14 -14.5t-14 14.5zM540 1689.5q0 14.5 13 14.5t13 -14.5t-13 -14.5t-13 14.5z" />
<glyph unicode="&#xec;" horiz-adv-x="430" d="M-66 1731l9 20l307 -102l-8 -21zM205 205v1229h20v-1229h-20z" />
<glyph unicode="&#xed;" horiz-adv-x="430" d="M180 1649l307 102l9 -20l-308 -103zM205 205v1229h20v-1229h-20z" />
<glyph unicode="&#xee;" horiz-adv-x="430" d="M25 1645l182 172l199 -172l-13 -17l-178 170l-178 -170zM205 205v1229h20v-1229h-20zM205 1821h6l-4 -4z" />
<glyph unicode="&#xef;" horiz-adv-x="430" d="M48 1689.5q0 14.5 13 14.5t13 -14.5t-13 -14.5t-13 14.5zM205 205v1229h20v-1229h-20zM356 1689.5q0 14.5 13 14.5t13 -14.5t-13 -14.5t-13 14.5z" />
<glyph unicode="&#xf0;" horiz-adv-x="819" d="M51 645v21h144v768h215q90 0 151 -64q64 -64 64 -151v-799q0 -88 -64 -152q-60 -63 -151 -63h-215v440h-144zM215 225h195q79 0 136.5 57.5t57.5 137.5v799q0 79 -57 136.5t-137 57.5h-195v-747h143v-21h-143v-420z" />
<glyph unicode="&#xf1;" horiz-adv-x="870" d="M195 205v1229h20l440 -1172v1172h21v-1229h-21l-440 1171v-1171h-20zM223 1686q58 38 127 38q29 0 82 -24q55 -25 84 -25q26 0 56 8.5t46.5 16.5t16.5 10l10 -16q-62 -39 -127 -39q-30 0 -82 24q-55 25 -84 25q-26 0 -56 -8.5t-46.5 -16.5t-16.5 -10z" />
<glyph unicode="&#xf2;" horiz-adv-x="819" d="M195 416v807q0 87 61 151q64 64 154 64t151 -64q64 -64 64 -151v-807q0 -88 -64 -152q-60 -63 -151 -63t-154 63q-61 64 -61 152zM201 1731l8 20l307 -102l-8 -21zM215 416q0 -80 57.5 -137.5t137.5 -57.5q79 0 136.5 57.5t57.5 137.5v807q0 79 -57 136.5t-137 57.5 t-137.5 -57.5t-57.5 -136.5v-807z" />
<glyph unicode="&#xf3;" horiz-adv-x="819" d="M195 416v807q0 87 61 151q64 64 154 64t151 -64q64 -64 64 -151v-807q0 -88 -64 -152q-60 -63 -151 -63t-154 63q-61 64 -61 152zM215 416q0 -80 57.5 -137.5t137.5 -57.5q79 0 136.5 57.5t57.5 137.5v807q0 79 -57 136.5t-137 57.5t-137.5 -57.5t-57.5 -136.5v-807z M303 1649l307 102l8 -20l-307 -103z" />
<glyph unicode="&#xf4;" horiz-adv-x="819" d="M195 416v807q0 87 61 151q64 64 154 64t151 -64q64 -64 64 -151v-807q0 -88 -64 -152q-60 -63 -151 -63t-154 63q-61 64 -61 152zM215 416q0 -80 57.5 -137.5t137.5 -57.5q79 0 136.5 57.5t57.5 137.5v807q0 79 -57 136.5t-137 57.5t-137.5 -57.5t-57.5 -136.5v-807z M219 1645l187 176h8l186 -176l-12 -17l-178 170l-179 -170z" />
<glyph unicode="&#xf5;" horiz-adv-x="819" d="M195 416v807q0 87 61 151q64 64 154 64t151 -64q64 -64 64 -151v-807q0 -88 -64 -152q-60 -63 -151 -63t-154 63q-61 64 -61 152zM199 1686q58 38 127 38q30 0 82 -24q55 -25 84 -25q26 0 55.5 8.5t46 16.5t16.5 10l11 -16q-62 -39 -127 -39q-30 0 -82 24q-55 25 -84 25 q-26 0 -56 -8.5t-46.5 -16.5t-16.5 -10zM215 416q0 -80 57.5 -137.5t137.5 -57.5q79 0 136.5 57.5t57.5 137.5v807q0 79 -57 136.5t-137 57.5t-137.5 -57.5t-57.5 -136.5v-807z" />
<glyph unicode="&#xf6;" horiz-adv-x="819" d="M195 416v807q0 87 61 151q64 64 154 64t151 -64q64 -64 64 -151v-807q0 -88 -64 -152q-60 -63 -151 -63t-154 63q-61 64 -61 152zM215 416q0 -80 57.5 -137.5t137.5 -57.5q79 0 136.5 57.5t57.5 137.5v807q0 79 -57 136.5t-137 57.5t-137.5 -57.5t-57.5 -136.5v-807z M242 1689.5q0 14.5 14 14.5t14 -14.5t-14 -14.5t-14 14.5zM550 1689.5q0 14.5 13 14.5t13 -14.5t-13 -14.5t-13 14.5z" />
<glyph unicode="&#xf7;" horiz-adv-x="921" d="M51 707v20h819v-20h-819zM448 219q0 14 13 14t13 -14t-13 -14t-13 14zM448 1222.5q0 14.5 13 14.5t13 -14.5t-13 -14.5t-13 14.5z" />
<glyph unicode="&#xf8;" horiz-adv-x="819" d="M195 209l30 94q-30 49 -30 113v807q0 87 61 151q64 64 154 64q104 0 168 -82l26 82l21 -8l-31 -95q31 -51 31 -112v-807q0 -88 -64 -152q-60 -63 -151 -63q-103 0 -168 80l-27 -80zM215 416q0 -52 21 -86l333 1003q-60 84 -159 84q-80 0 -137.5 -57.5t-57.5 -136.5v-807z M250 305q60 -84 160 -84q79 0 136.5 57.5t57.5 137.5v807q0 47 -20 86z" />
<glyph unicode="&#xf9;" horiz-adv-x="819" d="M195 416v1018h20v-1018q0 -80 57.5 -137.5t137.5 -57.5q79 0 136.5 57.5t57.5 137.5v1018h21v-1018q0 -88 -64 -152q-60 -63 -151 -63t-154 63q-61 64 -61 152zM201 1731l8 20l307 -102l-8 -21z" />
<glyph unicode="&#xfa;" horiz-adv-x="819" d="M195 416v1018h20v-1018q0 -80 57.5 -137.5t137.5 -57.5q79 0 136.5 57.5t57.5 137.5v1018h21v-1018q0 -88 -64 -152q-60 -63 -151 -63t-154 63q-61 64 -61 152zM303 1649l307 102l8 -20l-307 -103z" />
<glyph unicode="&#xfb;" horiz-adv-x="819" d="M195 416v1018h20v-1018q0 -80 57.5 -137.5t137.5 -57.5q79 0 136.5 57.5t57.5 137.5v1018h21v-1018q0 -88 -64 -152q-60 -63 -151 -63t-154 63q-61 64 -61 152zM219 1645l187 176h8l186 -176l-12 -17l-178 170l-179 -170z" />
<glyph unicode="&#xfc;" horiz-adv-x="819" d="M195 416v1018h20v-1018q0 -80 57.5 -137.5t137.5 -57.5q79 0 136.5 57.5t57.5 137.5v1018h21v-1018q0 -88 -64 -152q-60 -63 -151 -63t-154 63q-61 64 -61 152zM242 1689.5q0 14.5 14 14.5t14 -14.5t-14 -14.5t-14 14.5zM550 1689.5q0 14.5 13 14.5t13 -14.5t-13 -14.5 t-13 14.5z" />
<glyph unicode="&#xfd;" horiz-adv-x="763" d="M154 1434h20l207 -752l209 752h20l-219 -789v-440h-20v440zM303 1649l307 102l8 -20l-307 -103z" />
<glyph unicode="&#xfe;" horiz-adv-x="819" d="M195 205v205h20v-205h-20zM195 410v1024h20v-205h195q90 0 151 -64q64 -64 64 -151v-389q0 -88 -64 -152q-60 -63 -151 -63h-215zM215 430h195q79 0 136.5 57.5t57.5 137.5v389q0 80 -57 137t-137 57h-195v-778z" />
<glyph unicode="&#xff;" horiz-adv-x="763" d="M154 1434h20l207 -752l209 752h20l-219 -789v-440h-20v440zM216 1689.5q0 14.5 13 14.5t13 -14.5t-13 -14.5t-13 14.5zM524 1689.5q0 14.5 13 14.5t13 -14.5t-13 -14.5t-13 14.5z" />
<glyph unicode="&#x152;" horiz-adv-x="1474" d="M195 313v1012q0 133 92 225q95 92 225 92q99 0 180 -56.5t117 -147.5v200h522v-20h-502v-1045h400v-20h-400v-533h502v-20h-522v201q-35 -93 -116.5 -149t-180.5 -56q-130 0 -225 92q-92 92 -92 225zM215 313q0 -122 86 -211q89 -86 211 -86q120 0 205 82q89 83 92 203 v1036q-3 118 -92 201q-87 84 -205 84q-123 0 -211 -88q-86 -86 -86 -209v-1012z" />
<glyph unicode="&#x153;" horiz-adv-x="1167" d="M195 416v807q0 87 61 151q64 64 154 64q63 0 115.5 -33.5t78.5 -89.5v119h420v-21h-399v-747h348v-21h-348v-420h399v-20h-420v117q-26 -56 -78.5 -88.5t-115.5 -32.5q-91 0 -154 63q-61 64 -61 152zM215 416q0 -80 57.5 -137.5t137.5 -57.5q77 0 135 55q56 53 59 132 v823q-3 78 -59 131q-58 55 -135 55q-80 0 -137.5 -57.5t-57.5 -136.5v-807z" />
<glyph unicode="&#x178;" horiz-adv-x="962" d="M160 1638h22l299 -1050l299 1050h23l-311 -1085v-553h-21v553zM294 1894.5q0 14.5 13 14.5t13 -14.5t-13 -14.5t-13 14.5zM642 1894.5q0 14.5 13 14.5t13 -14.5t-13 -14.5t-13 14.5z" />
<glyph unicode="&#x2c6;" horiz-adv-x="675" d="M147 1645l187 176h8l186 -176l-12 -17l-178 170l-178 -170z" />
<glyph unicode="&#x2dc;" horiz-adv-x="409" d="M-6 1686q58 38 127 38q29 0 82 -24q55 -25 84 -25q26 0 56 8.5t46.5 16.5t16.5 10l10 -16q-62 -39 -127 -39q-29 0 -82 24q-55 25 -84 25q-26 0 -56 -8.5t-46.5 -16.5t-16.5 -10z" />
<glyph unicode="&#x2000;" horiz-adv-x="1029" />
<glyph unicode="&#x2001;" horiz-adv-x="2058" />
<glyph unicode="&#x2002;" horiz-adv-x="1029" />
<glyph unicode="&#x2003;" horiz-adv-x="2058" />
<glyph unicode="&#x2004;" horiz-adv-x="686" />
<glyph unicode="&#x2005;" horiz-adv-x="514" />
<glyph unicode="&#x2006;" horiz-adv-x="343" />
<glyph unicode="&#x2007;" horiz-adv-x="343" />
<glyph unicode="&#x2008;" horiz-adv-x="257" />
<glyph unicode="&#x2009;" horiz-adv-x="411" />
<glyph unicode="&#x200a;" horiz-adv-x="114" />
<glyph unicode="&#x2010;" horiz-adv-x="655" d="M72 768v20h512v-20h-512z" />
<glyph unicode="&#x2011;" horiz-adv-x="655" d="M72 768v20h512v-20h-512z" />
<glyph unicode="&#x2012;" horiz-adv-x="655" d="M72 768v20h512v-20h-512z" />
<glyph unicode="&#x2013;" horiz-adv-x="716" d="M72 768v20h573v-20h-573z" />
<glyph unicode="&#x2014;" horiz-adv-x="1126" d="M72 768v20h983v-20h-983z" />
<glyph unicode="&#x2018;" horiz-adv-x="409" d="M195 1188v246h20v-246h-20z" />
<glyph unicode="&#x2019;" horiz-adv-x="409" d="M195 1188v246h20v-246h-20z" />
<glyph unicode="&#x201a;" horiz-adv-x="409" d="M195 205v246h20v-246h-20z" />
<glyph unicode="&#x201c;" horiz-adv-x="768" d="M195 1188v246h20v-246h-20zM553 1188v246h20v-246h-20z" />
<glyph unicode="&#x201d;" horiz-adv-x="768" d="M195 1188v246h20v-246h-20zM553 1188v246h20v-246h-20z" />
<glyph unicode="&#x201e;" horiz-adv-x="768" d="M195 205v246h20v-246h-20zM553 205v246h20v-246h-20z" />
<glyph unicode="&#x2022;" horiz-adv-x="430" d="M195 782.5q0 20.5 20 20.5t20 -20.5t-20 -20.5t-20 20.5z" />
<glyph unicode="&#x2026;" horiz-adv-x="1249" d="M192 219q0 14 13 14t13 -14t-13 -14t-13 14zM590 219q0 14 14 14t14 -14t-14 -14t-14 14zM990 219q0 14 14 14t14 -14t-14 -14t-14 14z" />
<glyph unicode="&#x202f;" horiz-adv-x="411" />
<glyph unicode="&#x2039;" horiz-adv-x="675" d="M113 819l413 621l17 -13l-406 -608l406 -608l-17 -12z" />
<glyph unicode="&#x203a;" horiz-adv-x="675" d="M113 211l405 608l-405 608l16 13l414 -621l-414 -620z" />
<glyph unicode="&#x205f;" horiz-adv-x="514" />
<glyph unicode="&#x20ac;" horiz-adv-x="1413" d="M72 635v20h141q-23 87 -23 164q0 87 29 185h-147v20h153q65 183 224 297q159 117 360 117q248 0 430 -176l-14 -15q-176 170 -416 170q-191 0 -346 -110q-153 -108 -217 -283h706v-20h-712q-29 -98 -29 -185q0 -90 22 -164h555v-20h-548q59 -182 215 -299 q157 -115 354 -115q240 0 416 170l14 -16q-177 -174 -430 -174q-204 0 -369 121q-162 122 -221 313h-147z" />
<glyph unicode="&#x2122;" horiz-adv-x="1349" d="M92 1618v20h330v-20h-154v-963h-20v938zM725 655v983h20l195 -354l195 354h20v-983h-20v938l-185 -333h-18l-187 335v-940h-20z" />
<glyph unicode="&#x25fc;" horiz-adv-x="1433" d="M0 0v1434h1434v-1434h-1434z" />
</font>
</defs>
</svg>
