<?xml version="1.0" standalone="no"?>
<!DOCTYPE svg PUBLIC "-//W3C//DTD SVG 1.1//EN" "http://www.w3.org/Graphics/SVG/1.1/DTD/svg11.dtd" >
<svg xmlns="http://www.w3.org/2000/svg">
<metadata></metadata>
<defs>
<font id="catorze27_style_1bold" horiz-adv-x="819" >
<font-face units-per-em="2048" ascent="1894" descent="-154" />
<missing-glyph horiz-adv-x="512" />
<glyph horiz-adv-x="0" />
<glyph horiz-adv-x="682" />
<glyph horiz-adv-x="0" />
<glyph horiz-adv-x="0" />
<glyph unicode=" "  horiz-adv-x="512" />
<glyph unicode="&#x09;" horiz-adv-x="512" />
<glyph unicode="&#xa0;" horiz-adv-x="512" />
<glyph unicode="!" horiz-adv-x="409" d="M94 303q0 47 33 80t78 33t77.5 -33t32.5 -80q0 -44 -33 -77t-77 -33t-77.5 33t-33.5 77zM106 983v451h195v-451q0 -67 -8 -168q-7 -132 -14 -197l-9 -83h-131q-33 311 -33 448z" />
<glyph unicode="&#x22;" horiz-adv-x="768" d="M106 1245v189h195v-189q0 -88 -22 -209l-9 -43h-131q-33 152 -33 252zM465 1245v189h194v-189q0 -77 -24 -209l-6 -43h-131q-33 152 -33 252z" />
<glyph unicode="#" horiz-adv-x="1058" d="M27 489v183h133l63 295h-145v182h186l68 311l200 -55l-55 -256h217l68 311l201 -55l-56 -256h92v-182h-131l-63 -295h143v-183h-182l-68 -313l-204 57l55 256h-213l-68 -313l-205 57l56 256h-92zM375 672h215l63 295h-215z" />
<glyph unicode="$" horiz-adv-x="798" d="M96 494v92h195v-105q0 -44 32 -76t76 -32t75.5 32t31.5 76v13q0 35 -14 55l-314 393q-82 88 -82 203q0 98 59 178t152 111v153h182v-153q93 -29 152 -110t59 -179v-92h-194v104q0 44 -31.5 76.5t-75.5 32.5t-76 -32.5t-32 -76.5v-12q0 -34 20 -60l312 -395 q77 -83 77 -196q0 -100 -58 -180t-150 -109v-154h-183v154q-94 29 -153.5 109.5t-59.5 179.5z" />
<glyph unicode="%" horiz-adv-x="1556" d="M106 1006v139q0 124 89 213q90 90 215 90q123 0 213 -90q88 -88 88 -213v-139q0 -127 -88 -215q-89 -89 -213 -89q-126 0 -215 89t-89 215zM301 993q0 -44 32.5 -76t76.5 -32t75 32t31 76v164q0 45 -31 77t-75 32t-76.5 -32.5t-32.5 -76.5v-164zM371 176l635 1272 l174 -88l-637 -1272zM844 391v139q0 125 88 213q91 91 215 91q122 0 213 -91q88 -88 88 -213v-139q0 -127 -88 -215t-213 -88q-127 0 -215 88t-88 215zM1038 379q0 -44 32.5 -76.5t76.5 -32.5t75 32t31 77v164q0 44 -31 76t-75 32t-76.5 -32t-32.5 -76v-164z" />
<glyph unicode="&#x26;" d="M106 494v12q0 121 87 211q-87 87 -87 211v217q0 124 89 213q90 90 215 90q123 0 213 -90q88 -88 88 -213v-113h-195v125q0 45 -31 77t-75 32t-76.5 -32.5t-32.5 -76.5v-242q0 -44 32 -75t77 -31h368v-182h-67v-133q0 -127 -88 -215q-89 -89 -213 -89q-126 0 -215 89 t-89 215zM301 481q0 -44 32.5 -76t76.5 -32t75 32t31 76v146h-106q-44 0 -76.5 -32.5t-32.5 -76.5v-37z" />
<glyph unicode="'" horiz-adv-x="409" d="M106 1245v189h195v-189q0 -88 -22 -209l-9 -43h-131q-33 152 -33 252z" />
<glyph unicode="(" horiz-adv-x="489" d="M96 819q0 263 29 518q29 233 61 338l31 101l174 -70l-29 -98q-22 -93 -45 -293q-26 -222 -26 -496q0 -267 24 -487q23 -213 50 -312l26 -88l-174 -69q-11 28 -35 108q-19 74 -53 320q-33 238 -33 528z" />
<glyph unicode=")" horiz-adv-x="489" d="M96 -68q1 5 11 38.5t16 58.5q18 65 45 295q29 248 29 495q0 258 -25 488q-24 218 -49 311l-27 88l176 70l33 -109q16 -55 53 -319q33 -238 33 -529q0 -272 -31 -520q-25 -218 -57 -336l-31 -100z" />
<glyph unicode="*" horiz-adv-x="727" d="M106 1108v158h72l70 -13l-45 56l-35 61l135 78l37 -62l22 -65l25 65l37 62l135 -78l-35 -61l-45 -56l70 13h69v-158h-69l-70 12l45 -53l35 -63l-135 -78l-37 63l-25 64l-22 -64l-37 -63l-135 80l35 61l45 53l-70 -12h-72z" />
<glyph unicode="+" horiz-adv-x="1040" d="M59 682v180h363v367h194v-367h365v-180h-365v-375h-194v375h-363z" />
<glyph unicode="," horiz-adv-x="409" d="M106 31v364h195v-129q0 -53 -14.5 -112.5t-32.5 -92.5l-14 -30h-134z" />
<glyph unicode="-" horiz-adv-x="630" d="M59 682v180h512v-180h-512z" />
<glyph unicode="." horiz-adv-x="442" d="M94 303q0 47 33 80t78 33t77.5 -33t32.5 -80q0 -44 -33 -77t-77 -33t-77.5 33t-33.5 77z" />
<glyph unicode="/" horiz-adv-x="1191" d="M100 43l820 1638l172 -86l-820 -1638z" />
<glyph unicode="0" horiz-adv-x="1024" d="M106 391v856q0 168 119 287t287 119q169 0 285 -119q118 -118 118 -287v-856q0 -169 -118 -287q-115 -118 -285 -118q-168 0 -287 116q-119 119 -119 289zM301 379q0 -88 61.5 -149.5t149.5 -61.5q86 0 147.5 61.5t61.5 149.5v881q0 88 -61.5 149t-147.5 61 q-88 0 -149.5 -61t-61.5 -149v-881z" />
<glyph unicode="1" horiz-adv-x="645" d="M68 1456v182h448v-1638h-194v1456h-254z" />
<glyph unicode="2" horiz-adv-x="1024" d="M106 0v182l586 946q31 54 31 107v25q0 88 -61.5 149t-147.5 61q-88 0 -149.5 -61t-61.5 -149v-84h-194v71q0 169 118 287q119 119 287 119q169 0 285 -119q119 -119 119 -287q0 -123 -72 -227l-518 -838h587v-182h-809z" />
<glyph unicode="3" horiz-adv-x="1024" d="M106 391v72h195v-84q0 -87 62 -149t149 -62q88 0 148.5 61.5t60.5 149.5v389q0 86 -61.5 148.5t-147.5 62.5h-248v180l342 297h-485v182h762v-182l-342 -299q157 -9 266 -127q108 -114 108 -274v-365q0 -171 -118 -289q-116 -116 -285 -116t-287 118q-119 119 -119 287z " />
<glyph unicode="4" horiz-adv-x="987" d="M106 467v180l578 991h195v-1638h-195v467h-578zM332 647h352v604z" />
<glyph unicode="5" horiz-adv-x="1024" d="M106 391v72h195v-84q0 -87 62 -149t149 -62q88 0 148.5 61.5t60.5 149.5v389q0 86 -61.5 148.5t-147.5 62.5h-391v659h762v-182h-568v-297h197q169 0 285 -119q118 -115 118 -284v-365q0 -171 -118 -289q-116 -116 -285 -116t-287 118q-119 119 -119 287z" />
<glyph unicode="6" horiz-adv-x="1024" d="M106 391v856q0 168 119 287t287 119q169 0 285 -119q118 -118 118 -287v-47h-194v60q0 88 -61.5 149t-147.5 61q-88 0 -149.5 -61t-61.5 -149v-170q100 59 211 59q169 0 285 -119q118 -115 118 -285v-354q0 -169 -118 -287q-115 -118 -285 -118q-168 0 -287 116 q-119 119 -119 289zM301 379q0 -88 61.5 -149.5t149.5 -61.5q86 0 147.5 61.5t61.5 149.5v379q0 86 -61.5 147.5t-147.5 61.5t-146 -58t-65 -143v-387z" />
<glyph unicode="7" horiz-adv-x="923" d="M33 1456v182h758v-182l-357 -1456h-198l354 1456h-557z" />
<glyph unicode="8" horiz-adv-x="989" d="M90 391q0 178 139 299l131 135l-114 121q-142 121 -142 301q0 168 113 287t279 119q163 0 276 -119q115 -121 115 -287q0 -180 -142 -301l-116 -121l131 -135q139 -121 139 -299q0 -168 -119 -287q-115 -118 -284 -118t-287 118q-119 119 -119 287zM285 379 q0 -88 61.5 -149.5t149.5 -61.5q86 0 147.5 61.5t61.5 149.5v12q0 82 -62 144l-147 153l-150 -153q-61 -61 -61 -144v-12zM299 1247q0 -90 61 -145l134 -139l135 139q63 57 63 145v13q0 88 -57 149t-139 61t-139.5 -61t-57.5 -149v-13z" />
<glyph unicode="9" horiz-adv-x="1024" d="M106 391v47h195v-59q0 -87 62 -149t149 -62q88 0 148.5 61.5t60.5 149.5v168q-94 -58 -209 -58q-167 0 -287 117q-119 119 -119 287v354q0 168 119 287t287 119q169 0 285 -119q118 -115 118 -287v-856q0 -169 -118 -287q-115 -118 -285 -118q-169 0 -287 118 q-119 119 -119 287zM301 881q0 -86 62.5 -147.5t148.5 -61.5q85 0 144.5 57.5t64.5 142.5v388q0 88 -60.5 149t-148.5 61q-87 0 -149 -61.5t-62 -148.5v-379z" />
<glyph unicode=":" horiz-adv-x="442" d="M94 303q0 47 33 80t78 33t77.5 -33t32.5 -80q0 -44 -33 -77t-77 -33t-77.5 33t-33.5 77zM95 1132.5q0 47.5 32 79.5t78 32t78 -32t32 -79.5t-32 -79.5q-32 -31 -78 -31t-78 31q-32 32 -32 79.5z" />
<glyph unicode=";" horiz-adv-x="442" d="M95 1132.5q0 47.5 32 79.5t78 32t78 -32t32 -79.5t-32 -79.5q-32 -31 -78 -31t-78 31q-32 32 -32 79.5zM106 31v364h195v-129q0 -53 -14.5 -112.5t-32.5 -92.5l-14 -30h-134z" />
<glyph unicode="&#x3c;" horiz-adv-x="741" d="M76 819l418 629l163 -107l-348 -522l348 -522l-163 -107z" />
<glyph unicode="=" horiz-adv-x="937" d="M59 479v180h820v-180h-820zM59 877v180h820v-180h-820z" />
<glyph unicode="&#x3e;" horiz-adv-x="741" d="M76 297l348 522l-348 522l162 107l419 -629l-419 -629z" />
<glyph unicode="?" d="M106 1053v96q0 124 89 213q88 88 215 88q125 0 213 -88t88 -213v-53q0 -62 -30 -135.5t-73 -116.5q-32 -46 -69 -109q-33 -42 -33 -98v-10l-25 -92h-143q-27 67 -27 92v10q0 61 30.5 134.5t72.5 115.5l71 108q31 42 31 101v65q0 44 -31 75.5t-75 31.5t-76.5 -31.5 t-32.5 -75.5v-108h-195zM299 303q0 47 33 80t78 33t77.5 -33t32.5 -80q0 -44 -33 -77t-77 -33t-77.5 33t-33.5 77z" />
<glyph unicode="@" horiz-adv-x="1638" d="M106 711v229q0 294 207 504q209 209 506 209q296 0 502 -209q209 -209 209 -504v-242q0 -127 -88 -215t-213 -88q-118 0 -207 80q-86 -80 -203 -80q-127 0 -215 88t-88 215v242q0 125 88 213q90 90 215 90q123 0 213 -90q88 -88 88 -213v-242q0 -44 32.5 -76t76.5 -32 t75 32t31 76v254q0 216 -151 367t-365 151q-215 0 -366 -151q-152 -152 -152 -367v-254q0 -214 152 -366q150 -150 366 -150h359v-182h-359q-296 0 -506 207q-207 210 -207 504zM711 686q0 -44 32 -76t76 -32t75.5 32t31.5 76v266q0 44 -31.5 76.5t-75.5 32.5t-76 -32.5 t-32 -76.5v-266z" />
<glyph unicode="A" horiz-adv-x="1028" d="M63 0l353 1638h194l357 -1638h-199l-55 262h-400l-53 -262h-197zM352 442h322l-162 772z" />
<glyph unicode="B" horiz-adv-x="1024" d="M106 0v1638h406q170 0 285 -118q118 -115 118 -285v-203q0 -195 -147 -315q147 -120 147 -314q0 -168 -118 -286q-117 -117 -285 -117h-406zM301 182h211q87 0 148 61t61 148v27q0 86 -61.5 147.5t-147.5 61.5h-211v-445zM301 809h211q86 0 147.5 61.5t61.5 147.5v229 q0 86 -61.5 147.5t-147.5 61.5h-211v-647z" />
<glyph unicode="C" horiz-adv-x="1024" d="M106 391v856q0 168 119 287t287 119q169 0 285 -119q118 -118 118 -287v-71h-194v84q0 88 -61.5 149t-147.5 61q-88 0 -149.5 -61t-61.5 -149v-881q0 -88 61.5 -149.5t149.5 -61.5q86 0 147.5 61.5t61.5 149.5v84h194v-72q0 -169 -118 -287q-115 -118 -285 -118 q-168 0 -287 116q-119 119 -119 289z" />
<glyph unicode="D" horiz-adv-x="1024" d="M106 0v1638h406q170 0 285 -118q118 -115 118 -285v-832q0 -168 -118 -286q-117 -117 -285 -117h-406zM301 182h211q87 0 148 61t61 148v856q0 86 -61.5 147.5t-147.5 61.5h-211v-1274z" />
<glyph unicode="E" horiz-adv-x="860" d="M106 0v1638h660v-182h-465v-803h363v-180h-363v-291h465v-182h-660z" />
<glyph unicode="F" horiz-adv-x="849" d="M106 0v1638h697v-182h-502v-751h399v-181h-399v-524h-195z" />
<glyph unicode="G" horiz-adv-x="1024" d="M106 391v856q0 168 119 287t287 119q169 0 285 -119q118 -118 118 -287v-71h-194v84q0 88 -61.5 149t-147.5 61q-88 0 -149.5 -61t-61.5 -149v-881q0 -88 61.5 -149.5t149.5 -61.5q86 0 147.5 61.5t61.5 149.5v94h-209v180h403v-262q0 -169 -118 -287 q-115 -118 -285 -118q-168 0 -287 116q-119 119 -119 289z" />
<glyph unicode="H" horiz-adv-x="1024" d="M106 0v1638h195v-985h420v985h194v-1638h-194v473h-420v-473h-195z" />
<glyph unicode="I" horiz-adv-x="442" d="M125 0v1638h194v-1638h-194z" />
<glyph unicode="J" horiz-adv-x="409" d="M-121 -330h121q44 0 75 31.5t31 75.5v1861h195v-1849q0 -125 -88 -213t-213 -88h-121v182z" />
<glyph unicode="K" horiz-adv-x="1024" d="M106 0v1638h195v-755l399 755h218l-359 -675l371 -963h-207l-283 737l-139 -264v-473h-195z" />
<glyph unicode="L" horiz-adv-x="843" d="M106 0v1638h195v-1456h455v-182h-650z" />
<glyph unicode="M" horiz-adv-x="1126" d="M106 0v1638h195l262 -444l260 444h195v-1638h-195v1253l-164 -278h-194l-164 280v-1255h-195z" />
<glyph unicode="N" horiz-adv-x="1075" d="M106 0v1638h195l471 -1130v1130h195v-1638h-195l-471 1133v-1133h-195z" />
<glyph unicode="O" horiz-adv-x="1024" d="M106 391v856q0 168 119 287t287 119q169 0 285 -119q118 -118 118 -287v-856q0 -169 -118 -287q-115 -118 -285 -118q-168 0 -287 116q-119 119 -119 289zM301 379q0 -88 61.5 -149.5t149.5 -61.5q86 0 147.5 61.5t61.5 149.5v881q0 88 -61.5 149t-147.5 61 q-88 0 -149.5 -61t-61.5 -149v-881z" />
<glyph unicode="P" horiz-adv-x="1024" d="M106 0v1638h406q170 0 285 -118q118 -115 118 -285v-358q0 -169 -118 -287q-117 -117 -285 -117h-211v-473h-195zM301 653h211q86 0 147.5 61.5t61.5 149.5v383q0 86 -61.5 147.5t-147.5 61.5h-211v-803z" />
<glyph unicode="Q" horiz-adv-x="1024" d="M106 391v856q0 168 119 287t287 119q169 0 285 -119q118 -118 118 -287v-856q0 -144 -88 -254q-86 -109 -219 -139v-305h-194v305q-135 30 -221 139q-87 113 -87 254zM301 379q0 -88 61.5 -149.5t149.5 -61.5q86 0 147.5 61.5t61.5 149.5v881q0 88 -61.5 149t-147.5 61 q-88 0 -149.5 -61t-61.5 -149v-881z" />
<glyph unicode="R" horiz-adv-x="1024" d="M106 0v1638h406q170 0 285 -118q118 -115 118 -285v-358q0 -197 -149 -316q149 -122 149 -311v-250h-194v262q0 82 -59 144q-58 64 -142 67h-219v-473h-195zM301 653h219q85 5 143 65t58 146v383q0 86 -61.5 147.5t-147.5 61.5h-211v-803z" />
<glyph unicode="S" horiz-adv-x="1003" d="M96 391v72h195v-84q0 -87 62 -149t149 -62q88 0 148.5 61.5t60.5 149.5v12q0 84 -60 144l-399 411q-141 120 -141 301q0 169 112 287q113 119 279 119q163 0 276 -119q115 -121 115 -287v-71h-195v84q0 88 -57 149t-139 61t-139.5 -61t-57.5 -149v-13q0 -87 64 -145 l399 -412q137 -116 137 -299q0 -168 -119 -287q-115 -118 -284 -118t-287 118q-119 119 -119 287z" />
<glyph unicode="T" horiz-adv-x="847" d="M55 1456v182h738v-182h-273v-1456h-194v1456h-271z" />
<glyph unicode="U" horiz-adv-x="1024" d="M106 391v1247h195v-1259q0 -88 61.5 -149.5t149.5 -61.5q86 0 147.5 61.5t61.5 149.5v1259h194v-1247q0 -169 -118 -287q-115 -118 -285 -118q-168 0 -287 116q-119 119 -119 289z" />
<glyph unicode="V" horiz-adv-x="976" d="M63 1638h197l229 -1126l228 1126h198l-327 -1638h-195z" />
<glyph unicode="W" horiz-adv-x="1126" d="M106 0v1638h195v-1255l164 281h194l164 -279v1253h195v-1638h-195l-260 444l-262 -444h-195z" />
<glyph unicode="X" horiz-adv-x="978" d="M70 0l309 850l-295 788h209l201 -536l192 536h207l-295 -813l309 -825h-207l-217 573l-204 -573h-209z" />
<glyph unicode="Y" horiz-adv-x="962" d="M63 1638h201l217 -821l217 821h201l-321 -1165v-473h-195v473z" />
<glyph unicode="Z" horiz-adv-x="1003" d="M106 0v182l562 1274h-547v182h762v-182l-564 -1274h576v-182h-789z" />
<glyph unicode="[" horiz-adv-x="665" d="M106 -102v1843h451v-182h-256v-1479h256v-182h-451z" />
<glyph unicode="\" horiz-adv-x="1191" d="M100 1595l172 86l820 -1638l-172 -86z" />
<glyph unicode="]" horiz-adv-x="665" d="M106 80h256v1479h-256v182h451v-1843h-451v182z" />
<glyph unicode="_" horiz-adv-x="1024" d="M59 0h906v-170h-906v170z" />
<glyph unicode="`" horiz-adv-x="512" d="M55 1669l54 162l352 -133l-45 -137z" />
<glyph unicode="a" horiz-adv-x="800" d="M63 205l240 1229h195l241 -1229h-182l-43 221h-227l-41 -221h-183zM322 606h157l-78 412z" />
<glyph unicode="b" d="M106 205v1229h304q125 0 213 -88t88 -213v-203q0 -124 -86 -213q86 -86 86 -211t-88 -213t-213 -88h-304zM301 387h109q44 0 75 31.5t31 75.5v26q0 43 -31 75t-75 32h-109v-240zM301 809h117q41 1 69.5 32.5t28.5 73.5v230q0 44 -31 75t-75 31h-109v-442z" />
<glyph unicode="c" d="M106 494v651q0 124 89 213q90 90 215 90q123 0 213 -90q88 -88 88 -213v-113h-195v125q0 45 -31 77t-75 32t-76.5 -32.5t-32.5 -76.5v-676q0 -44 32.5 -76t76.5 -32t75 32t31 76v125h195v-112q0 -127 -88 -215q-89 -89 -213 -89q-126 0 -215 89t-89 215z" />
<glyph unicode="d" d="M106 205v1229h304q125 0 213 -88t88 -213v-627q0 -125 -88 -213t-213 -88h-304zM301 387h109q44 0 75 31.5t31 75.5v651q0 44 -31 75t-75 31h-109v-864z" />
<glyph unicode="e" horiz-adv-x="708" d="M106 205v1229h508v-183h-313v-506h262v-180h-262v-178h313v-182h-508z" />
<glyph unicode="f" horiz-adv-x="661" d="M106 205v1229h508v-183h-313v-506h262v-180h-262v-360h-195z" />
<glyph unicode="g" d="M106 494v651q0 124 89 213q90 90 215 90q123 0 213 -90q88 -88 88 -213v-113h-195v125q0 45 -31 77t-75 32t-76.5 -32.5t-32.5 -76.5v-676q0 -44 32.5 -76t76.5 -32t75 32t31 76v90h-106v181h301v-258q0 -127 -88 -215q-89 -89 -213 -89q-126 0 -215 89t-89 215z" />
<glyph unicode="h" d="M106 205v1229h195v-689h215v689h195v-1229h-195v360h-215v-360h-195z" />
<glyph unicode="i" horiz-adv-x="442" d="M125 205v1229h194v-1229h-194z" />
<glyph unicode="j" horiz-adv-x="409" d="M-70 66h70q44 0 75 32t31 76v1260h195v-1248q0 -125 -88 -213q-90 -90 -213 -90h-70v183z" />
<glyph unicode="k" d="M106 205v1229h195v-441l211 441h213l-244 -510l244 -719h-205l-160 467l-59 -127v-340h-195z" />
<glyph unicode="l" horiz-adv-x="638" d="M106 205v1229h195v-1047h262v-182h-457z" />
<glyph unicode="m" horiz-adv-x="921" d="M106 205v1229h195l160 -322l157 322h195v-1229h-195v809l-73 -137h-168l-76 141v-813h-195z" />
<glyph unicode="n" horiz-adv-x="870" d="M106 205v1229h195l266 -715v715h195v-1229h-195l-266 717v-717h-195z" />
<glyph unicode="o" d="M106 494v651q0 124 89 213q90 90 215 90q123 0 213 -90q88 -88 88 -213v-651q0 -127 -88 -215q-89 -89 -213 -89q-126 0 -215 89t-89 215zM301 481q0 -44 32.5 -76t76.5 -32t75 32t31 76v676q0 45 -31 77t-75 32t-76.5 -32.5t-32.5 -76.5v-676z" />
<glyph unicode="p" d="M106 205v1229h304q125 0 213 -88t88 -213v-267q0 -125 -88 -213t-213 -88h-109v-360h-195zM301 745h109q44 0 75 32t31 77v291q0 44 -31 75t-75 31h-109v-506z" />
<glyph unicode="q" d="M106 494v651q0 124 89 213q90 90 215 90q123 0 213 -90q88 -88 88 -213v-651q0 -98 -57 -178t-148 -111v-205h-195v207q-91 31 -148 110t-57 177zM301 481q0 -44 32.5 -76t76.5 -32t75 32t31 76v676q0 45 -31 77t-75 32t-76.5 -32.5t-32.5 -76.5v-676z" />
<glyph unicode="r" d="M106 205v1229h304q125 0 213 -88t88 -213v-267q0 -125 -86 -211q86 -89 86 -211v-239h-195v252q0 44 -31 76t-75 32h-109v-360h-195zM301 745h109q44 0 75 32t31 77v291q0 44 -31 75t-75 31h-109v-506z" />
<glyph unicode="s" horiz-adv-x="798" d="M96 494v92h195v-105q0 -44 32 -76t76 -32t75.5 32t31.5 76v13q0 35 -14 55l-314 393q-82 88 -82 203q0 125 88 213q90 90 215 90q123 0 213 -90q88 -88 88 -213v-92h-194v104q0 44 -31.5 76.5t-75.5 32.5t-76 -32.5t-32 -76.5v-12q0 -34 20 -60l312 -395q77 -83 77 -196 q0 -127 -88 -215q-89 -89 -213 -89q-126 0 -215 89q-88 88 -88 215z" />
<glyph unicode="t" horiz-adv-x="643" d="M55 1251v183h533v-183h-168v-1046h-195v1046h-170z" />
<glyph unicode="u" d="M106 494v940h195v-953q0 -44 32.5 -76t76.5 -32t75 32t31 76v953h195v-940q0 -127 -88 -215q-89 -89 -213 -89q-126 0 -215 89t-89 215z" />
<glyph unicode="v" horiz-adv-x="800" d="M63 1434h183l155 -813l156 813h182l-241 -1229h-195z" />
<glyph unicode="w" horiz-adv-x="921" d="M106 205v1229h195v-816l76 144h168l73 -139v811h195v-1229h-195l-157 321l-160 -321h-195z" />
<glyph unicode="x" horiz-adv-x="800" d="M90 205l203 626l-203 603h205l108 -336l101 336h205l-203 -627l203 -602h-205l-107 334l-100 -334h-207z" />
<glyph unicode="y" horiz-adv-x="757" d="M53 1434h180l146 -564l145 564h181l-228 -869v-360h-194v360z" />
<glyph unicode="z" d="M106 205v182l390 864h-375v183h577v-183l-389 -864h402v-182h-605z" />
<glyph unicode="{" horiz-adv-x="792" d="M96 819l135 135q9 9 9 19l-2 620q0 62 43 105t106 43h299v-182h-254l2 -586q0 -86 -59 -154q59 -71 59 -153v-586h252v-182h-299q-61 0 -104 43t-43 104v621q0 9 -9 18z" />
<glyph unicode="|" horiz-adv-x="442" d="M125 -102v1843h194v-1843h-194z" />
<glyph unicode="}" horiz-adv-x="792" d="M106 80h254v586q0 87 60 153q-60 66 -60 154v586h-254v182h300q63 0 106 -43t43 -105v-620q0 -14 8 -19l133 -135l-133 -135q-8 -5 -8 -18v-621q0 -62 -43 -104.5t-106 -42.5h-300v182z" />
<glyph unicode="&#xa1;" horiz-adv-x="409" d="M94 1335q0 44 33.5 77.5t77.5 33.5t77 -33.5t33 -77.5q0 -47 -32.5 -79.5t-77.5 -32.5t-78 32.5t-33 79.5zM106 205v450q0 55 9 166q15 188 16 199l8 84h131q31 -336 31 -449v-450h-195z" />
<glyph unicode="&#xa2;" d="M106 494v651q0 98 59 178t152 111v153h183v-153q93 -29 152 -110t59 -179v-113h-195v125q0 45 -31 77t-75 32t-76.5 -32.5t-32.5 -76.5v-676q0 -44 32.5 -76t76.5 -32t75 32t31 76v125h195v-112q0 -99 -58 -179.5t-151 -109.5v-154h-183v154q-94 29 -153.5 109.5 t-59.5 179.5z" />
<glyph unicode="&#xa3;" horiz-adv-x="841" d="M39 205v182h119v758q0 125 88 213q90 90 213 90t213 -90t90 -213v-113h-195v125q0 44 -32 76.5t-76 32.5t-75.5 -32.5t-31.5 -76.5v-311h273v-182h-273v-277h424v-182h-737z" />
<glyph unicode="&#xa4;" horiz-adv-x="1024" d="M106 219q0 154 117 262q-117 102 -117 262v152q0 154 117 262q-117 102 -117 262h195q0 -68 47.5 -120t112.5 -52h108q61 1 106.5 53.5t45.5 118.5h194q0 -161 -116 -262q116 -107 116 -262v-152q0 -161 -116 -262q116 -107 116 -262h-194q0 66 -45.5 118.5t-106.5 53.5 h-108q-65 0 -112.5 -52t-47.5 -120h-195zM301 731q0 -66 47 -113t113 -47h102q66 0 112 47t46 113v176q0 66 -46 113t-112 47h-108q-66 -4 -110 -50.5t-44 -109.5v-176z" />
<glyph unicode="&#xa5;" horiz-adv-x="798" d="M59 309v180h244v76l-18 66h-226v182h179l-164 621h180l145 -564l146 564h180l-162 -621h176v-182h-225l-16 -66v-76h241v-180h-241v-104h-195v104h-244z" />
<glyph unicode="&#xa6;" horiz-adv-x="442" d="M125 -102v850h194v-850h-194zM125 891v850h194v-850h-194z" />
<glyph unicode="&#xa7;" horiz-adv-x="849" d="M96 289v92h195v-105q0 -44 32 -76t76 -32t75.5 32t31.5 76v13q0 35 -14 55l-314 393q-82 88 -82 203q0 146 111 234q-60 82 -60 176q0 124 89 213q90 90 215 90q123 0 213 -90q88 -88 88 -213v-93h-195v105q0 44 -31 76t-75 32t-76.5 -32t-32.5 -76v-12q0 -34 20 -60 l312 -395q78 -84 78 -197q0 -146 -111 -235q59 -77 59 -174q0 -127 -88 -215t-213 -88q-127 0 -215 88t-88 215zM291 940q0 -33 20 -59l213 -273q33 26 33 78v12q0 36 -14 56l-221 274q-31 -31 -31 -76v-12z" />
<glyph unicode="&#xa8;" d="M157 1689.5q0 38.5 29 67.5q31 31 70 31t68 -31q31 -29 31 -67.5t-31 -69.5q-29 -29 -68 -29t-70 29q-29 31 -29 69.5zM465 1689.5q0 38.5 29 67.5q31 31 69.5 31t67.5 -31q31 -29 31 -67.5t-31 -69.5q-29 -29 -67.5 -29t-69.5 29q-29 31 -29 69.5z" />
<glyph unicode="&#xa9;" horiz-adv-x="1638" d="M106 698v242q0 294 207 504q209 209 506 209q296 0 502 -209q209 -209 209 -504v-242q0 -296 -209 -505q-207 -207 -502 -207q-296 0 -506 207q-207 210 -207 505zM301 686q0 -215 152 -367q151 -151 366 -151q214 0 365 151t151 367v266q0 216 -151 367t-365 151 q-215 0 -366 -151q-152 -152 -152 -367v-266zM516 698v242q0 125 88 213q90 90 215 90q123 0 213 -90q88 -88 88 -213v-29h-194v41q0 44 -31.5 76.5t-75.5 32.5t-76 -32.5t-32 -76.5v-266q0 -44 32 -76t76 -32t75.5 32t31.5 76v41h194v-29q0 -127 -88 -215t-213 -88 q-127 0 -215 88t-88 215z" />
<glyph unicode="&#xaa;" d="M106 1145q0 124 89 213q90 90 215 90q50 0 106 -21v7h195v-572h-195q-50 -18 -106 -18q-127 0 -215 88q-89 89 -89 213zM301 1133q0 -44 32.5 -75.5t76.5 -31.5q42 0 73.5 27.5t32.5 68.5v35q0 45 -31 77t-75 32t-76.5 -32.5t-32.5 -76.5v-24z" />
<glyph unicode="&#xab;" horiz-adv-x="1191" d="M76 819l418 629l163 -107l-348 -522l348 -522l-163 -107zM526 819l418 629l164 -107l-348 -522l348 -522l-164 -107z" />
<glyph unicode="&#xac;" horiz-adv-x="985" d="M59 682v180h820v-452h-195v272h-625z" />
<glyph unicode="&#xad;" horiz-adv-x="630" d="M59 682v180h512v-180h-512z" />
<glyph unicode="&#xae;" horiz-adv-x="1638" d="M106 698v242q0 294 207 504q209 209 506 209q296 0 502 -209q209 -209 209 -504v-242q0 -296 -209 -505q-207 -207 -502 -207q-296 0 -506 207q-207 210 -207 505zM301 686q0 -215 152 -367q151 -151 366 -151q214 0 365 151t151 367v266q0 216 -151 367t-365 151 q-215 0 -366 -151q-152 -152 -152 -367v-266zM516 410v155h195v-155h-195zM516 565v664h303q125 0 213 -88t88 -213v-62q0 -125 -86 -211q86 -89 86 -211v-34h-194v47q0 42 -29 74.5t-70 33.5h-311zM711 745h108q44 0 75.5 32.5t31.5 76.5v86q0 44 -31.5 75.5t-75.5 31.5 h-108v-302z" />
<glyph unicode="&#xaf;" horiz-adv-x="409" d="M-43 1606v155h496v-155h-496z" />
<glyph unicode="&#xb0;" d="M106 1145q0 124 89 213q90 90 215 90q123 0 213 -90q88 -88 88 -213t-88 -213t-213 -88q-127 0 -215 88q-89 89 -89 213zM301 1133q0 -44 32.5 -75.5t76.5 -31.5t75 31.5t31 75.5v24q0 45 -31 77t-75 32t-76.5 -32.5t-32.5 -76.5v-24z" />
<glyph unicode="&#xb1;" horiz-adv-x="1040" d="M80 172v180h881v-180h-881zM80 887v180h342v346h194v-346h345v-180h-345v-355h-194v355h-342z" />
<glyph unicode="&#xb4;" horiz-adv-x="512" d="M55 1698l353 133l53 -162l-361 -108z" />
<glyph unicode="&#xb5;" horiz-adv-x="921" d="M106 205v1229h195l160 -322l157 322h195v-1229h-195v809l-73 -137h-168l-76 141v-813h-195z" />
<glyph unicode="&#xb6;" horiz-adv-x="894" d="M106 866v267q0 124 89 213q88 88 215 88h432v-183h-131v-782q0 -125 -88 -213t-213 -88h-70v182h70q44 0 75 31.5t31 75.5v108h-106q-127 0 -215 88q-89 89 -89 213z" />
<glyph unicode="&#xb7;" horiz-adv-x="442" d="M94 614q0 47 33 80t78 33t77.5 -33t32.5 -80q0 -44 -33 -77t-77 -33t-77.5 33t-33.5 77z" />
<glyph unicode="&#xb8;" horiz-adv-x="1075" d="M256 -291l41 68q77 -80 174 -80q41 0 63.5 28.5t22.5 69.5q0 30 -19 49t-53 19h-139l82 137h133l-29 -51h66q59 0 91 -42.5t32 -111.5q0 -78 -68.5 -135t-181.5 -57q-58 0 -111.5 25t-80.5 55z" />
<glyph unicode="&#xba;" d="M106 1145q0 124 89 213q90 90 215 90q123 0 213 -90q88 -88 88 -213t-88 -213t-213 -88q-127 0 -215 88q-89 89 -89 213zM301 1133q0 -44 32.5 -75.5t76.5 -31.5t75 31.5t31 75.5v24q0 45 -31 77t-75 32t-76.5 -32.5t-32.5 -76.5v-24z" />
<glyph unicode="&#xbb;" horiz-adv-x="1191" d="M76 297l348 522l-348 522l162 107l419 -629l-419 -629zM526 297l348 522l-348 522l162 107l420 -629l-420 -629z" />
<glyph unicode="&#xbf;" d="M106 494v53q0 61 31 135t74 117q43 62 70 108q30 41 30 99v10q0 26 21 74l6 18h143q25 -70 25 -92v-10q0 -62 -29.5 -135.5t-70.5 -114.5l-72 -109q-33 -42 -33 -100v-66q0 -44 32 -75t77 -31q44 0 75 31t31 75v109h195v-96q0 -125 -88 -213t-213 -88q-127 0 -215 88 q-89 89 -89 213zM299 1339q0 44 33.5 77.5t77.5 33.5t77 -33.5t33 -77.5q0 -47 -32.5 -79.5t-77.5 -32.5t-78 32.5t-33 79.5z" />
<glyph unicode="&#xc0;" horiz-adv-x="1028" d="M63 0l353 1638h194l357 -1638h-199l-55 262h-400l-53 -262h-197zM223 1874l53 162l353 -133l-45 -138zM352 442h322l-162 772z" />
<glyph unicode="&#xc1;" horiz-adv-x="1028" d="M63 0l353 1638h194l357 -1638h-199l-55 262h-400l-53 -262h-197zM352 442h322l-162 772zM397 1903l353 133l53 -162l-361 -109z" />
<glyph unicode="&#xc2;" horiz-adv-x="1028" d="M63 0l353 1638h194l357 -1638h-199l-55 262h-400l-53 -262h-197zM270 1903l199 178h88l197 -178l-115 -125l-127 120l-127 -120zM352 442h322l-162 772z" />
<glyph unicode="&#xc3;" horiz-adv-x="1028" d="M63 0l353 1638h194l357 -1638h-199l-55 262h-400l-53 -262h-197zM211 1933l20 13l29 14q26 10 77 21t93 10q32 -3 94 -25q59 -21 92 -24q60 0 101 18l12 6l23 12l63 -135l-18 -12l-29 -14q-26 -10 -77 -21t-93 -10q-36 3 -98 24q-61 22 -88 25q-65 0 -101 -20l-12 -7 l-23 -10zM352 442h322l-162 772z" />
<glyph unicode="&#xc4;" horiz-adv-x="1028" d="M63 0l353 1638h194l357 -1638h-199l-55 262h-400l-53 -262h-197zM241 1894.5q0 38.5 29 67.5q29 31 70 31t70 -31q29 -29 29 -67.5t-29 -69.5q-29 -29 -70 -29t-70 29q-29 31 -29 69.5zM352 442h322l-162 772zM589 1894.5q0 38.5 29 67.5q29 31 70 31t70 -31 q29 -29 29 -67.5t-29 -69.5q-29 -29 -70 -29t-70 29q-29 31 -29 69.5z" />
<glyph unicode="&#xc5;" horiz-adv-x="1028" d="M63 0l353 1638h194l357 -1638h-199l-55 262h-400l-53 -262h-197zM277 1894q0 99 69 168t168 69t168 -69t69 -168t-69 -168t-168 -69t-168 69t-69 168zM352 442h322l-162 772zM432 1894.5q0 -34.5 23 -59.5q25 -23 59 -23t57 23q25 25 25 59.5t-25 57.5q-23 25 -57 25 t-59 -25q-23 -23 -23 -57.5z" />
<glyph unicode="&#xc6;" horiz-adv-x="1413" d="M43 0l455 1638h823v-182h-465v-803h363v-180h-363v-291h465v-182h-659v262h-351l-71 -262h-197zM362 442h300v1014h-21z" />
<glyph unicode="&#xc7;" horiz-adv-x="1024" d="M106 391v856q0 168 119 287t287 119q169 0 285 -119q118 -118 118 -287v-71h-194v84q0 88 -61.5 149t-147.5 61q-88 0 -149.5 -61t-61.5 -149v-881q0 -88 61.5 -149.5t149.5 -61.5q86 0 147.5 61.5t61.5 149.5v84h194v-72q0 -159 -104 -272q-107 -116 -258 -131l-21 -39 h66q59 0 91 -42.5t32 -111.5q0 -78 -68.5 -135t-181.5 -57q-58 0 -111.5 25t-80.5 55l-23 26l41 68q77 -80 174 -80q41 0 63.5 28.5t22.5 69.5q0 30 -19 49t-53 19h-139l78 133q-138 27 -227 139q-91 114 -91 256z" />
<glyph unicode="&#xc8;" horiz-adv-x="860" d="M106 0v1638h660v-182h-465v-803h363v-180h-363v-291h465v-182h-660zM236 1874l53 162l352 -133l-45 -138z" />
<glyph unicode="&#xc9;" horiz-adv-x="860" d="M106 0v1638h660v-182h-465v-803h363v-180h-363v-291h465v-182h-660zM227 1903l353 133l53 -162l-361 -109z" />
<glyph unicode="&#xca;" horiz-adv-x="860" d="M106 0v1638h660v-182h-465v-803h363v-180h-363v-291h465v-182h-660zM201 1903l198 178h88l197 -178l-115 -125l-127 120l-127 -120z" />
<glyph unicode="&#xcb;" horiz-adv-x="860" d="M106 0v1638h660v-182h-465v-803h363v-180h-363v-291h465v-182h-660zM166 1894.5q0 38.5 29 67.5q31 31 69.5 31t67.5 -31q31 -29 31 -67.5t-31 -69.5q-29 -29 -67.5 -29t-69.5 29q-29 31 -29 69.5zM514 1894.5q0 38.5 29 67.5q31 31 69.5 31t67.5 -31q31 -29 31 -67.5 t-31 -69.5q-29 -29 -67.5 -29t-69.5 29q-29 31 -29 69.5z" />
<glyph unicode="&#xcc;" horiz-adv-x="442" d="M-74 1874l54 162l352 -133l-45 -138zM125 0v1638h194v-1638h-194z" />
<glyph unicode="&#xcd;" horiz-adv-x="442" d="M111 1903l352 133l53 -162l-360 -109zM125 0v1638h194v-1638h-194z" />
<glyph unicode="&#xce;" horiz-adv-x="442" d="M-20 1903l198 178h88l197 -178l-115 -125l-127 120l-127 -120zM125 0v1638h194v-1638h-194z" />
<glyph unicode="&#xcf;" horiz-adv-x="442" d="M-51.5 1894.5q0.5 38.5 31.5 67.5q29 31 67.5 31t67.5 -31q31 -29 31 -67.5t-31 -69.5q-29 -29 -68 -29t-70 29q-29 31 -28.5 69.5zM125 0v1638h194v-1638h-194zM297 1894.5q0 38.5 29 67.5q31 31 69.5 31t67.5 -31q31 -29 31 -67.5t-31 -69.5q-29 -29 -67.5 -29 t-69.5 29q-29 31 -29 69.5z" />
<glyph unicode="&#xd0;" horiz-adv-x="1024" d="M-31 473v180h137v985h406q170 0 285 -118q118 -115 118 -285v-832q0 -168 -118 -286q-117 -117 -285 -117h-406v473h-137zM301 182h211q87 0 148 61t61 148v856q0 86 -61.5 147.5t-147.5 61.5h-211v-803h139v-180h-139v-291z" />
<glyph unicode="&#xd1;" horiz-adv-x="1075" d="M106 0v1638h195l471 -1130v1130h195v-1638h-195l-471 1133v-1133h-195zM233 1933l21 13l29 14q26 10 77 21t93 10q32 -3 94 -25q59 -21 92 -24q62 0 98 18l15 6l22 12l64 -135l-19 -12l-28 -14q-26 -10 -77 -21t-93 -10q-37 3 -99 24q-61 22 -88 25q-66 0 -98 -20l-14 -7 l-23 -10z" />
<glyph unicode="&#xd2;" horiz-adv-x="1024" d="M106 391v856q0 168 119 287t287 119q169 0 285 -119q118 -118 118 -287v-856q0 -169 -118 -287q-115 -118 -285 -118q-168 0 -287 116q-119 119 -119 289zM260 1874l54 162l352 -133l-45 -137zM301 379q0 -88 61.5 -149.5t149.5 -61.5q86 0 147.5 61.5t61.5 149.5v881 q0 88 -61.5 149t-147.5 61q-88 0 -149.5 -61t-61.5 -149v-881z" />
<glyph unicode="&#xd3;" horiz-adv-x="1024" d="M106 391v856q0 168 119 287t287 119q169 0 285 -119q118 -118 118 -287v-856q0 -169 -118 -287q-115 -118 -285 -118q-168 0 -287 116q-119 119 -119 289zM301 379q0 -88 61.5 -149.5t149.5 -61.5q86 0 147.5 61.5t61.5 149.5v881q0 88 -61.5 149t-147.5 61 q-88 0 -149.5 -61t-61.5 -149v-881zM360 1903l353 133l53 -162l-360 -109z" />
<glyph unicode="&#xd4;" horiz-adv-x="1024" d="M106 391v856q0 168 119 287t287 119q169 0 285 -119q118 -118 118 -287v-856q0 -169 -118 -287q-115 -118 -285 -118q-168 0 -287 116q-119 119 -119 289zM270 1903l199 178h88l197 -178l-115 -125l-127 121l-127 -121zM301 379q0 -88 61.5 -149.5t149.5 -61.5 q86 0 147.5 61.5t61.5 149.5v881q0 88 -61.5 149t-147.5 61q-88 0 -149.5 -61t-61.5 -149v-881z" />
<glyph unicode="&#xd5;" horiz-adv-x="1024" d="M106 391v856q0 168 119 287t287 119q169 0 285 -119q118 -118 118 -287v-856q0 -169 -118 -287q-115 -118 -285 -118q-168 0 -287 116q-119 119 -119 289zM209 1933l20 13l29 14q26 10 77 21t93 10q32 -3 94 -25q59 -21 92 -24q63 0 99 18l14 6l23 12l63 -135l-18 -12 l-29 -14q-26 -10 -77 -21t-93 -10q-36 3 -98 24q-61 22 -88 25q-67 0 -99 -20l-14 -7l-23 -10zM301 379q0 -88 61.5 -149.5t149.5 -61.5q86 0 147.5 61.5t61.5 149.5v881q0 88 -61.5 149t-147.5 61q-88 0 -149.5 -61t-61.5 -149v-881z" />
<glyph unicode="&#xd6;" horiz-adv-x="1024" d="M106 391v856q0 168 119 287t287 119q169 0 285 -119q118 -118 118 -287v-856q0 -169 -118 -287q-115 -118 -285 -118q-168 0 -287 116q-119 119 -119 289zM239 1894.5q0 38.5 29 67.5q31 31 70 31t68 -31q31 -29 31 -67.5t-31 -69.5q-29 -29 -68 -29t-70 29 q-29 31 -29 69.5zM301 379q0 -88 61.5 -149.5t149.5 -61.5q86 0 147.5 61.5t61.5 149.5v881q0 88 -61.5 149t-147.5 61q-88 0 -149.5 -61t-61.5 -149v-881zM587 1894.5q0 38.5 29 67.5q31 31 70 31t68 -31q31 -29 31 -67.5t-31 -69.5q-29 -29 -68 -29t-70 29 q-29 31 -29 69.5z" />
<glyph unicode="&#xd7;" horiz-adv-x="1097" d="M68 373l350 395l-350 395l145 131l336 -379l336 379l147 -131l-352 -395l352 -395l-147 -131l-336 376l-336 -376z" />
<glyph unicode="&#xd8;" horiz-adv-x="1024" d="M94 35l64 155q-52 91 -52 201v856q0 168 119 287t287 119q120 0 223 -68l37 88l158 -69l-66 -160q51 -86 51 -197v-856q0 -169 -118 -287q-115 -118 -285 -118q-119 0 -225 65l-35 -86zM301 535l361 872q-63 63 -150 63q-88 0 -149.5 -61t-61.5 -149v-725zM360 229 q61 -61 152 -61q86 0 147.5 61.5t61.5 149.5v719z" />
<glyph unicode="&#xd9;" horiz-adv-x="1024" d="M106 391v1247h195v-1259q0 -88 61.5 -149.5t149.5 -61.5q86 0 147.5 61.5t61.5 149.5v1259h194v-1247q0 -169 -118 -287q-115 -118 -285 -118q-168 0 -287 116q-119 119 -119 289zM258 1874l54 162l352 -133l-45 -137z" />
<glyph unicode="&#xda;" horiz-adv-x="1024" d="M106 391v1247h195v-1259q0 -88 61.5 -149.5t149.5 -61.5q86 0 147.5 61.5t61.5 149.5v1259h194v-1247q0 -169 -118 -287q-115 -118 -285 -118q-168 0 -287 116q-119 119 -119 289zM360 1903l353 133l53 -162l-360 -109z" />
<glyph unicode="&#xdb;" horiz-adv-x="1024" d="M106 391v1247h195v-1259q0 -88 61.5 -149.5t149.5 -61.5q86 0 147.5 61.5t61.5 149.5v1259h194v-1247q0 -169 -118 -287q-115 -118 -285 -118q-168 0 -287 116q-119 119 -119 289zM270 1903l199 178h88l197 -178l-115 -125l-127 121l-127 -121z" />
<glyph unicode="&#xdc;" horiz-adv-x="1024" d="M106 391v1247h195v-1259q0 -88 61.5 -149.5t149.5 -61.5q86 0 147.5 61.5t61.5 149.5v1259h194v-1247q0 -169 -118 -287q-115 -118 -285 -118q-168 0 -287 116q-119 119 -119 289zM239 1894.5q0 38.5 29 67.5q31 31 70 31t68 -31q31 -29 31 -67.5t-31 -69.5 q-29 -29 -68 -29t-70 29q-29 31 -29 69.5zM587 1894.5q0 38.5 29 67.5q31 31 70 31t68 -31q31 -29 31 -67.5t-31 -69.5q-29 -29 -68 -29t-70 29q-29 31 -29 69.5z" />
<glyph unicode="&#xdd;" horiz-adv-x="962" d="M63 1638h201l217 -821l217 821h201l-321 -1165v-473h-195v473zM358 1903l353 133l53 -162l-361 -109z" />
<glyph unicode="&#xde;" horiz-adv-x="1024" d="M106 0v1638h195v-245h211q169 0 285 -119q118 -115 118 -285v-340q0 -169 -118 -287q-116 -116 -285 -116h-211v-246h-195zM301 428h211q86 0 147.5 61.5t61.5 147.5v364q0 87 -61 148t-148 61h-211v-782z" />
<glyph unicode="&#xe0;" horiz-adv-x="800" d="M63 205l240 1229h195l241 -1229h-182l-43 221h-227l-41 -221h-183zM133 1669l53 162l353 -133l-45 -137zM322 606h157l-78 412z" />
<glyph unicode="&#xe1;" horiz-adv-x="800" d="M63 205l240 1229h195l241 -1229h-182l-43 221h-227l-41 -221h-183zM262 1698l352 133l54 -162l-361 -108zM322 606h157l-78 412z" />
<glyph unicode="&#xe2;" horiz-adv-x="800" d="M63 205l240 1229h195l241 -1229h-182l-43 221h-227l-41 -221h-183zM160 1698l198 178h88l197 -178l-115 -125l-127 121l-127 -121zM322 606h157l-78 412z" />
<glyph unicode="&#xe3;" horiz-adv-x="800" d="M63 205l240 1229h195l241 -1229h-182l-43 221h-227l-41 -221h-183zM98 1729l21 12l28 14q26 10 77 21t93 10q33 -3 95 -25q59 -21 92 -24q62 0 98 18l14 6l23 13l63 -136l-18 -12l-29 -14q-26 -10 -77 -21t-93 -10q-32 3 -98 25q-57 21 -88 24q-66 0 -98 -20l-15 -6 l-22 -11zM322 606h157l-78 412z" />
<glyph unicode="&#xe4;" horiz-adv-x="800" d="M63 205l240 1229h195l241 -1229h-182l-43 221h-227l-41 -221h-183zM149 1689.5q0 38.5 29 67.5q31 31 70 31t68 -31q31 -29 31 -67.5t-31 -69.5q-29 -29 -68 -29t-70 29q-29 31 -29 69.5zM322 606h157l-78 412zM457 1689.5q0 38.5 29 67.5q31 31 69.5 31t67.5 -31 q31 -29 31 -67.5t-31 -69.5q-29 -29 -67.5 -29t-69.5 29q-29 31 -29 69.5z" />
<glyph unicode="&#xe5;" horiz-adv-x="800" d="M63 205l240 1229h195l241 -1229h-182l-43 221h-227l-41 -221h-183zM164 1690q0 99 69 168t168 69t168 -69t69 -168t-69 -168t-168 -69t-168 69t-69 168zM319 1689.5q0 -34.5 25 -59.5q25 -23 57.5 -23t57.5 23q25 25 25 59.5t-25 57.5q-25 25 -57.5 25t-57.5 -25 q-25 -23 -25 -57.5zM322 606h157l-78 412z" />
<glyph unicode="&#xe6;" horiz-adv-x="1124" d="M63 205l291 1229h676v-183h-313v-506h262v-180h-262v-178h313v-182h-508v221h-223l-55 -221h-181zM344 606h178v645h-18z" />
<glyph unicode="&#xe7;" d="M106 494v651q0 124 89 213q90 90 215 90q123 0 213 -90q88 -88 88 -213v-113h-195v125q0 45 -31 77t-75 32t-76.5 -32.5t-32.5 -76.5v-676q0 -44 32.5 -76t76.5 -32t75 32t31 76v125h195v-112q0 -111 -70 -193q-71 -83 -174 -104l-23 -43h66q59 0 91 -42.5t32 -111.5 q0 -78 -68.5 -135.5t-181.5 -57.5q-58 0 -112 25t-81 55l-22 27l41 68q77 -80 174 -80q41 0 63.5 28.5t22.5 69.5q0 30 -19 49t-53 19h-139l78 131q-99 25 -164.5 108t-65.5 187z" />
<glyph unicode="&#xe8;" horiz-adv-x="708" d="M106 205v1229h508v-183h-313v-506h262v-180h-262v-178h313v-182h-508zM160 1669l53 162l352 -133l-45 -137z" />
<glyph unicode="&#xe9;" horiz-adv-x="708" d="M106 205v1229h508v-183h-313v-506h262v-180h-262v-178h313v-182h-508zM193 1698l352 133l53 -162l-360 -108z" />
<glyph unicode="&#xea;" horiz-adv-x="708" d="M106 205v1229h508v-183h-313v-506h262v-180h-262v-178h313v-182h-508zM121 1698l198 178h89l196 -178l-115 -125l-127 121l-126 -121z" />
<glyph unicode="&#xeb;" horiz-adv-x="708" d="M106 205v1229h508v-183h-313v-506h262v-180h-262v-178h313v-182h-508zM110 1689.5q0 38.5 29 67.5q29 31 70 31t70 -31q29 -29 29 -67.5t-29 -69.5q-29 -29 -70 -29t-70 29q-29 31 -29 69.5zM417 1689.5q0 38.5 29 67.5q29 31 70 31t70 -31q29 -29 29 -67.5t-29 -69.5 q-29 -29 -70 -29t-70 29q-29 31 -29 69.5z" />
<glyph unicode="&#xec;" horiz-adv-x="442" d="M-74 1669l54 162l352 -133l-45 -137zM125 205v1229h194v-1229h-194z" />
<glyph unicode="&#xed;" horiz-adv-x="442" d="M111 1698l352 133l53 -162l-360 -108zM125 205v1229h194v-1229h-194z" />
<glyph unicode="&#xee;" horiz-adv-x="442" d="M-20 1698l198 178h88l197 -178l-115 -125l-127 121l-127 -121zM125 205v1229h194v-1229h-194z" />
<glyph unicode="&#xef;" horiz-adv-x="442" d="M-37 1689.5q0 38.5 29 67.5q29 31 69.5 31t69.5 -31q29 -29 29 -67.5t-29 -69.5q-29 -29 -69.5 -29t-69.5 29q-29 31 -29 69.5zM125 205v1229h194v-1229h-194zM270 1689.5q0 38.5 29 67.5q29 31 69.5 31t69.5 -31q29 -29 29 -67.5t-29 -69.5q-29 -29 -69.5 -29t-69.5 29 q-29 31 -29 69.5z" />
<glyph unicode="&#xf0;" d="M20 565v180h86v689h304q125 0 213 -88t88 -213v-627q0 -125 -88 -213t-213 -88h-304v360h-86zM301 387h109q44 0 75 31.5t31 75.5v651q0 44 -31 75t-75 31h-109v-506h88v-180h-88v-178z" />
<glyph unicode="&#xf1;" horiz-adv-x="870" d="M106 205v1229h195l266 -715v715h195v-1229h-195l-266 717v-717h-195zM131 1729l21 12l28 14q26 10 77 21t93 10q32 -3 94 -25q58 -21 93 -24q62 0 98 18l14 6l23 13l63 -136l-18 -12l-29 -14q-26 -10 -77 -21t-93 -10q-32 3 -98 25q-57 21 -88 24q-67 0 -99 -20l-14 -6 l-22 -11z" />
<glyph unicode="&#xf2;" d="M106 494v651q0 124 89 213q90 90 215 90q123 0 213 -90q88 -88 88 -213v-651q0 -127 -88 -215q-89 -89 -213 -89q-126 0 -215 89t-89 215zM155 1669l54 162l352 -133l-45 -137zM301 481q0 -44 32.5 -76t76.5 -32t75 32t31 76v676q0 45 -31 77t-75 32t-76.5 -32.5 t-32.5 -76.5v-676z" />
<glyph unicode="&#xf3;" d="M106 494v651q0 124 89 213q90 90 215 90q123 0 213 -90q88 -88 88 -213v-651q0 -127 -88 -215q-89 -89 -213 -89q-126 0 -215 89t-89 215zM258 1698l352 133l54 -162l-361 -108zM301 481q0 -44 32.5 -76t76.5 -32t75 32t31 76v676q0 45 -31 77t-75 32t-76.5 -32.5 t-32.5 -76.5v-676z" />
<glyph unicode="&#xf4;" d="M106 494v651q0 124 89 213q90 90 215 90q123 0 213 -90q88 -88 88 -213v-651q0 -127 -88 -215q-89 -89 -213 -89q-126 0 -215 89t-89 215zM168 1698l199 178h88l197 -178l-115 -125l-127 121l-127 -121zM301 481q0 -44 32.5 -76t76.5 -32t75 32t31 76v676q0 45 -31 77 t-75 32t-76.5 -32.5t-32.5 -76.5v-676z" />
<glyph unicode="&#xf5;" d="M106 494v651q0 124 89 213q90 90 215 90q123 0 213 -90q88 -88 88 -213v-651q0 -127 -88 -215q-89 -89 -213 -89q-126 0 -215 89t-89 215zM106 1729l21 12l29 14q26 10 77 21t93 10q32 -3 94 -25q59 -21 92 -24q62 0 98 18l15 6l22 13l64 -136l-19 -12l-28 -14 q-26 -10 -77 -21t-93 -10q-34 3 -99 25q-57 21 -88 24q-66 0 -98 -20l-14 -6l-23 -11zM301 481q0 -44 32.5 -76t76.5 -32t75 32t31 76v676q0 45 -31 77t-75 32t-76.5 -32.5t-32.5 -76.5v-676z" />
<glyph unicode="&#xf6;" d="M106 494v651q0 124 89 213q90 90 215 90q123 0 213 -90q88 -88 88 -213v-651q0 -127 -88 -215q-89 -89 -213 -89q-126 0 -215 89t-89 215zM157 1689.5q0 38.5 29 67.5q31 31 70 31t68 -31q31 -29 31 -67.5t-31 -69.5q-29 -29 -68 -29t-70 29q-29 31 -29 69.5zM301 481 q0 -44 32.5 -76t76.5 -32t75 32t31 76v676q0 45 -31 77t-75 32t-76.5 -32.5t-32.5 -76.5v-676zM465 1689.5q0 38.5 29 67.5q31 31 69.5 31t67.5 -31q31 -29 31 -67.5t-31 -69.5q-29 -29 -67.5 -29t-69.5 29q-29 31 -29 69.5z" />
<glyph unicode="&#xf7;" horiz-adv-x="921" d="M51 627v180h819v-180h-819zM350 303q0 47 33 80t78 33t77.5 -33t32.5 -80q0 -45 -31.5 -77.5t-78.5 -32.5t-79 32.5t-32 77.5zM350.5 1132.5q0.5 47.5 32.5 79.5t78 32t78 -32t32 -79.5t-32 -79.5q-31 -31 -78.5 -31t-79.5 31q-31 32 -30.5 79.5z" />
<glyph unicode="&#xf8;" d="M94 238l45 118q-33 62 -33 138v651q0 124 89 213q90 90 215 90q72 0 137 -35l20 53l158 -65l-47 -121q33 -62 33 -135v-651q0 -127 -88 -215q-89 -89 -213 -89q-76 0 -138 33l-20 -51zM301 774l178 465q-30 27 -69 27q-44 0 -76.5 -32.5t-32.5 -76.5v-383zM338 397 q30 -24 72 -24q44 0 75 32t31 76v377z" />
<glyph unicode="&#xf9;" d="M106 494v940h195v-953q0 -44 32.5 -76t76.5 -32t75 32t31 76v953h195v-940q0 -127 -88 -215q-89 -89 -213 -89q-126 0 -215 89t-89 215zM155 1669l54 162l352 -133l-45 -137z" />
<glyph unicode="&#xfa;" d="M106 494v940h195v-953q0 -44 32.5 -76t76.5 -32t75 32t31 76v953h195v-940q0 -127 -88 -215q-89 -89 -213 -89q-126 0 -215 89t-89 215zM258 1698l352 133l54 -162l-361 -108z" />
<glyph unicode="&#xfb;" d="M106 494v940h195v-953q0 -44 32.5 -76t76.5 -32t75 32t31 76v953h195v-940q0 -127 -88 -215q-89 -89 -213 -89q-126 0 -215 89t-89 215zM168 1698l199 178h88l197 -178l-115 -125l-127 121l-127 -121z" />
<glyph unicode="&#xfc;" d="M106 494v940h195v-953q0 -44 32.5 -76t76.5 -32t75 32t31 76v953h195v-940q0 -127 -88 -215q-89 -89 -213 -89q-126 0 -215 89t-89 215zM157 1689.5q0 38.5 29 67.5q31 31 70 31t68 -31q31 -29 31 -67.5t-31 -69.5q-29 -29 -68 -29t-70 29q-29 31 -29 69.5zM465 1689.5 q0 38.5 29 67.5q31 31 69.5 31t67.5 -31q31 -29 31 -67.5t-31 -69.5q-29 -29 -67.5 -29t-69.5 29q-29 31 -29 69.5z" />
<glyph unicode="&#xfd;" horiz-adv-x="798" d="M74 1434h180l145 -564l146 564h180l-227 -869v-360h-195v360zM276 1698l353 133l53 -162l-360 -108z" />
<glyph unicode="&#xfe;" d="M106 205v1229h195v-174h109q124 0 213 -89q88 -88 88 -213v-278q0 -125 -88 -213t-213 -88h-109v-174h-195zM301 561h109q44 0 75 31.5t31 75.5v303q0 44 -31 75t-75 31h-109v-516z" />
<glyph unicode="&#xff;" horiz-adv-x="798" d="M74 1434h180l145 -564l146 564h180l-227 -869v-360h-195v360zM147 1689.5q0 38.5 29 67.5q29 31 69.5 31t69.5 -31q29 -29 29 -67.5t-29 -69.5q-29 -29 -69.5 -29t-69.5 29q-29 31 -29 69.5zM454 1689.5q0 38.5 29 67.5q29 31 70 31t70 -31q29 -29 29 -67.5t-29 -69.5 q-29 -29 -70 -29t-70 29q-29 31 -29 69.5z" />
<glyph unicode="&#x152;" horiz-adv-x="1474" d="M106 391v856q0 168 119 287t287 119q107 0 209 -60v45h659v-182h-465v-803h363v-180h-363v-291h465v-182h-659v43q-92 -57 -209 -57q-168 0 -287 116q-119 119 -119 289zM301 379q0 -88 61.5 -149.5t149.5 -61.5q85 0 146.5 58.5t62.5 142.5v891q0 88 -61.5 149 t-147.5 61q-88 0 -149.5 -61t-61.5 -149v-881z" />
<glyph unicode="&#x153;" horiz-adv-x="1118" d="M106 494v651q0 124 89 213q90 90 215 90q50 0 106 -21v7h508v-183h-313v-506h262v-180h-262v-178h313v-182h-508v4q-52 -19 -106 -19q-126 0 -215 89t-89 215zM301 481q0 -44 32.5 -76t76.5 -32t75 32t31 76v676q0 45 -31 77t-75 32t-76.5 -32.5t-32.5 -76.5v-676z" />
<glyph unicode="&#x178;" horiz-adv-x="962" d="M63 1638h201l217 -821l217 821h201l-321 -1165v-473h-195v473zM209 1894.5q0 38.5 29 67.5q29 31 69.5 31t69.5 -31q29 -29 29 -67.5t-29 -69.5q-29 -29 -69.5 -29t-69.5 29q-29 31 -29 69.5zM557 1894.5q0 38.5 29 67.5q29 31 69.5 31t69.5 -31q29 -29 29 -67.5 t-29 -69.5q-29 -29 -69.5 -29t-69.5 29q-29 31 -29 69.5z" />
<glyph unicode="&#x2c6;" horiz-adv-x="675" d="M96 1698l199 178h88l197 -178l-115 -125l-127 121l-127 -121z" />
<glyph unicode="&#x2dc;" horiz-adv-x="409" d="M-98 1729l20 12l29 14q26 10 77 21t93 10q32 -3 94 -25q59 -21 92 -24q63 0 99 18l14 6l22 13l64 -136l-19 -12l-28 -14q-26 -10 -77 -21t-93 -10q-34 3 -99 25q-57 21 -88 24q-66 0 -98 -20l-14 -6l-23 -11z" />
<glyph unicode="&#x2000;" horiz-adv-x="1065" />
<glyph unicode="&#x2001;" horiz-adv-x="2131" />
<glyph unicode="&#x2002;" horiz-adv-x="1065" />
<glyph unicode="&#x2003;" horiz-adv-x="2131" />
<glyph unicode="&#x2004;" horiz-adv-x="710" />
<glyph unicode="&#x2005;" horiz-adv-x="532" />
<glyph unicode="&#x2006;" horiz-adv-x="355" />
<glyph unicode="&#x2007;" horiz-adv-x="355" />
<glyph unicode="&#x2008;" horiz-adv-x="266" />
<glyph unicode="&#x2009;" horiz-adv-x="426" />
<glyph unicode="&#x200a;" horiz-adv-x="118" />
<glyph unicode="&#x2010;" horiz-adv-x="630" d="M59 682v180h512v-180h-512z" />
<glyph unicode="&#x2011;" horiz-adv-x="630" d="M59 682v180h512v-180h-512z" />
<glyph unicode="&#x2012;" horiz-adv-x="630" d="M59 682v180h512v-180h-512z" />
<glyph unicode="&#x2013;" horiz-adv-x="716" d="M59 682v180h598v-180h-598z" />
<glyph unicode="&#x2014;" horiz-adv-x="1126" d="M59 682v180h1008v-180h-1008z" />
<glyph unicode="&#x2018;" horiz-adv-x="409" d="M106 1069v131q0 52 15.5 110.5t34.5 92.5l14 31h131v-365h-195z" />
<glyph unicode="&#x2019;" horiz-adv-x="409" d="M106 1069v365h195v-129q0 -53 -14.5 -112.5t-32.5 -92.5l-14 -31h-134z" />
<glyph unicode="&#x201a;" horiz-adv-x="409" d="M106 205v364h195v-131q0 -53 -14.5 -111t-32.5 -91l-14 -31h-134z" />
<glyph unicode="&#x201c;" horiz-adv-x="768" d="M106 1069v131q0 52 15.5 110.5t34.5 92.5l14 31h131v-365h-195zM465 1069v131q0 53 14.5 111.5t32.5 91.5l16 31h131v-365h-194z" />
<glyph unicode="&#x201d;" horiz-adv-x="768" d="M106 1069v365h195v-129q0 -53 -14.5 -112.5t-32.5 -92.5l-14 -31h-134zM465 1069v365h194v-129q0 -50 -14.5 -109t-30.5 -96l-16 -31h-133z" />
<glyph unicode="&#x201e;" horiz-adv-x="768" d="M106 205v364h195v-131q0 -53 -14.5 -111t-32.5 -91l-14 -31h-134zM465 205v364h194v-131q0 -99 -45 -202l-16 -31h-133z" />
<glyph unicode="&#x2022;" horiz-adv-x="436" d="M106 776q0 47 33 79t78 32q47 0 80 -33t33 -78t-33 -77.5t-80 -32.5q-45 0 -78 32t-33 78z" />
<glyph unicode="&#x2026;" horiz-adv-x="1249" d="M94 303q0 47 33 80t78 33t77.5 -33t32.5 -80q0 -44 -33 -77t-77 -33t-77.5 33t-33.5 77zM494 303q0 47 32.5 80t77.5 33t78 -33t33 -80q0 -45 -32 -77.5t-79 -32.5t-78.5 32.5t-31.5 77.5zM893 303q0 47 33 80t78 33t77.5 -33t32.5 -80q0 -44 -33 -77t-77 -33t-77.5 33 t-33.5 77z" />
<glyph unicode="&#x202f;" horiz-adv-x="426" />
<glyph unicode="&#x2039;" horiz-adv-x="741" d="M76 819l418 629l163 -107l-348 -522l348 -522l-163 -107z" />
<glyph unicode="&#x203a;" horiz-adv-x="741" d="M76 297l348 522l-348 522l162 107l419 -629l-419 -629z" />
<glyph unicode="&#x205f;" horiz-adv-x="532" />
<glyph unicode="&#x20ac;" horiz-adv-x="1263" d="M35 567v183h76l-3 36t-2 33q0 7 1 18.5t2 28.5t2 31h-76v182h127q76 165 229 267q156 102 344 102q259 0 441 -182l-129 -129q-129 129 -312 129q-224 0 -356 -187h500v-182h-572q-6 -41 -6 -78q0 -7 4 -69h447v-183h-377q126 -194 360 -194q186 0 312 129l129 -129 q-183 -183 -441 -183q-190 0 -346 105q-155 105 -231 272h-123z" />
<glyph unicode="&#x2122;" horiz-adv-x="1349" d="M55 1456v182h453v-182h-127v-801h-195v801h-131zM637 655v983h194l109 -229l107 229h194v-983h-194v562l-23 -43h-166l-27 49v-568h-194z" />
<glyph unicode="&#x25fc;" horiz-adv-x="1433" d="M0 0v1434h1434v-1434h-1434z" />
</font>
</defs>
</svg>
