<?xml version="1.0" standalone="no"?>
<!DOCTYPE svg PUBLIC "-//W3C//DTD SVG 1.1//EN" "http://www.w3.org/Graphics/SVG/1.1/DTD/svg11.dtd" >
<svg>
<metadata>
Created by FontForge 20110222 at Wed Jul  2 07:04:10 2014
 By Orthosie Webhosting
Copyright (c) 2011 by Fabio Duarte Martins. All rights reserved.
</metadata>
<defs>
<font id="Catorze27Style1Medium" horiz-adv-x="400" >
  <font-face 
    font-family="Catorze27Style1Medium"
    font-weight="500"
    font-stretch="normal"
    units-per-em="1000"
    panose-1="0 0 0 0 0 0 0 0 0 0"
    ascent="928"
    descent="-72"
    x-height="700"
    cap-height="800"
    bbox="-51 -250 1002 1029"
    underline-thickness="50"
    underline-position="-50"
    unicode-range="U+0008-222B"
  />
<missing-glyph horiz-adv-x="500" 
d="M450 750v-750h-400v750h400zM100 700v-650h300v650h-300z" />
    <glyph glyph-name=".notdef" horiz-adv-x="500" 
d="M450 750v-750h-400v750h400zM100 700v-650h300v650h-300z" />
    <glyph glyph-name=".null" horiz-adv-x="0" 
 />
    <glyph glyph-name="nonmarkingreturn" horiz-adv-x="333" 
 />
    <glyph glyph-name="NULL" horiz-adv-x="0" 
 />
    <glyph glyph-name="NULL" horiz-adv-x="0" 
 />
    <glyph glyph-name="NULL" horiz-adv-x="0" 
 />
    <glyph glyph-name="CR" unicode="&#x9;" horiz-adv-x="250" 
 />
    <glyph glyph-name="CR" unicode="&#xd;" horiz-adv-x="250" 
 />
    <glyph glyph-name="space" unicode=" " horiz-adv-x="250" 
 />
    <glyph glyph-name="exclam" unicode="!" horiz-adv-x="200" 
d="M73 107q-11 11 -11 27t11 26q11 11 27 11t27 -11q11 -10 11 -26t-11 -27t-27 -11t-27 11zM68 470v230h64v-230l-9 -231h-46q-9 191 -9 231z" />
    <glyph glyph-name="quotedbl" unicode="&#x22;" horiz-adv-x="375" 
d="M68 597v103h64v-103l-9 -112h-46q-9 83 -9 112zM242 597v103h65v-103l-9 -112h-46q-10 79 -10 112z" />
    <glyph glyph-name="numbersign" unicode="#" horiz-adv-x="511" 
d="M128 493h-91v61h105l34 155l67 -19l-30 -136h139l34 155l67 -19l-30 -136h64v-61h-77l-40 -186h92v-61h-105l-34 -156l-69 19l30 137h-137l-34 -156l-69 19l30 137h-62v61h75zM338 493h-138l-40 -186h137z" />
    <glyph glyph-name="dollar" unicode="$" horiz-adv-x="390" 
d="M226 25h-62v73q-45 11 -73.5 46.5t-28.5 82.5v47h65v-51q0 -28 20 -47.5t48 -19.5t47.5 19.5t19.5 47.5v4q0 19 -9 34l-159 229q-32 35 -32 83q0 45 28.5 81t73.5 47v74h62v-74q44 -11 72.5 -46.5t28.5 -81.5v-47h-65v51q0 28 -19.5 47.5t-47.5 19.5t-48 -19.5t-20 -47.5
v-4q0 -21 12 -37l160 -229q28 -34 28 -80q0 -47 -28 -82.5t-73 -46.5v-73z" />
    <glyph glyph-name="percent" unicode="%" horiz-adv-x="760" 
d="M68 477v96q0 55 38 93q39 39 94 39q56 0 93 -39q39 -38 39 -93v-96q0 -55 -39 -94q-38 -38 -93 -38q-54 0 -94 38q-38 40 -38 94zM132 577v-104q0 -28 20 -47.5t48 -19.5t47.5 19.5t19.5 47.5v104q0 28 -19.5 47.5t-47.5 19.5t-48 -19.5t-20 -47.5zM428 177v96
q0 55 38 93q39 39 94 39q56 0 93 -39q39 -38 39 -93v-96q0 -55 -39 -94q-38 -38 -93 -38q-54 0 -94 38q-38 40 -38 94zM492 277v-104q0 -28 20 -47.5t48 -19.5t47.5 19.5t19.5 47.5v104q0 28 -19.5 47.5t-47.5 19.5t-48 -19.5t-20 -47.5zM564 676l-315 -631l-58 29l316 631z
" />
    <glyph glyph-name="ampersand" unicode="&#x26;" 
d="M132 577v-139q0 -28 20 -48t48 -20h170v-61h-38v-82q0 -55 -39 -94q-38 -38 -93 -38q-54 0 -94 38q-38 40 -38 94v11q0 62 47 101q-47 41 -47 103v131q0 55 38 93q39 39 94 39q56 0 93 -39q39 -38 39 -93v-52h-65v56q0 28 -19.5 47.5t-47.5 19.5t-48 -19.5t-20 -47.5z
M267 309h-67q-28 0 -48 -19.5t-20 -47.5v-19q0 -28 20 -47.5t48 -19.5t47.5 19.5t19.5 47.5v86z" />
    <glyph glyph-name="quotesingle" unicode="'" horiz-adv-x="200" 
d="M68 597v103h64v-103l-9 -112h-46q-9 83 -9 112z" />
    <glyph glyph-name="parenleft" unicode="(" horiz-adv-x="241" 
d="M104 814l15 47l60 -22q-7 -18 -15 -49q-8 -36 -23 -146q-14 -117 -14 -244q0 -136 13 -241q14 -115 26 -153l13 -45l-60 -22q-1 3 -16 52q-8 30 -25 153q-16 116 -16 256q0 131 14 251q13 109 28 163z" />
    <glyph glyph-name="parenright" unicode=")" horiz-adv-x="241" 
d="M75 794l-13 45l60 22q5 -14 15 -52q9 -29 26 -154q16 -115 16 -255q0 -136 -15 -251q-13 -109 -28 -163l-14 -47l-60 22q7 20 14 48q10 36 23 146q15 114 15 245q0 135 -13 240q-14 117 -26 154z" />
    <glyph glyph-name="asterisk" unicode="*" horiz-adv-x="385" 
d="M173 497l-20 -34l-46 26l20 35l29 39l-48 -5h-40v53h40l48 -6l-29 39l-20 36l46 26l20 -35l20 -45l19 45l20 35l46 -27l-20 -35l-29 -39l48 6h40v-53h-40l-48 5l29 -39l20 -35l-46 -26l-20 34l-20 45z" />
    <glyph glyph-name="plus" unicode="+" horiz-adv-x="512" 
d="M224 347h-193v62h193v191h65v-191h192v-62h-192v-197h-65v197z" />
    <glyph glyph-name="comma" unicode="," horiz-adv-x="200" 
d="M68 10v157h64v-57q0 -20 -14 -84l-5 -16h-45z" />
    <glyph glyph-name="hyphen" unicode="-" horiz-adv-x="312" 
d="M281 347h-250v62h250v-62z" />
    <glyph glyph-name="period" unicode="." horiz-adv-x="214" 
d="M73 107q-11 11 -11 27t11 26q11 11 27 11t27 -11q11 -10 11 -26t-11 -27t-27 -11t-27 11z" />
    <glyph glyph-name="slash" unicode="/" horiz-adv-x="580" 
d="M519 785l-400 -800l-58 30l400 800z" />
    <glyph glyph-name="zero" unicode="0" horiz-adv-x="500" 
d="M68 177v446q0 76 53 129t129 53t129 -53t53 -129v-446q0 -76 -53 -129t-129 -53t-129 53t-53 129zM132 627v-454q0 -49 34.5 -83t83.5 -34t83 34t34 83v454q0 48 -34 82q-35 35 -83 35q-49 0 -84 -35q-34 -34 -34 -82z" />
    <glyph glyph-name="one" unicode="1" horiz-adv-x="315" 
d="M237 0h-65v739h-124v61h189v-800z" />
    <glyph glyph-name="two" unicode="2" horiz-adv-x="500" 
d="M432 0h-364v61l285 501q15 27 15 57v8q0 47 -35 82t-83 35t-83 -35q-34 -34 -34 -82v-41h-65v37q0 76 53 129t129 53t129 -53q54 -52 54 -129q0 -51 -29 -97l-265 -465h293v-61z" />
    <glyph glyph-name="three" unicode="3" horiz-adv-x="500" 
d="M332 739h-259v61h344v-61l-185 -185h18q76 0 129 -54q53 -53 53 -129v-194q0 -76 -53 -129t-129 -53t-129 53t-53 129v37h64v-41q0 -49 34.5 -83t83.5 -34t83 34t34 83v202q0 49 -34 83t-83 34h-104v62z" />
    <glyph glyph-name="four" unicode="4" horiz-adv-x="488" 
d="M356 242h-288v62l288 496h65v-800h-65v242zM356 670l-213 -366h213v366z" />
    <glyph glyph-name="five" unicode="5" horiz-adv-x="500" 
d="M367 173v202q0 49 -34 83t-83 34h-177v308h344v-61h-279v-185h112q76 0 129 -54q53 -53 53 -129v-194q0 -76 -53 -129t-129 -53t-129 53t-53 129v37h64v-41q0 -49 34.5 -83t83.5 -34t83 34t34 83z" />
    <glyph glyph-name="six" unicode="6" horiz-adv-x="500" 
d="M250 551q76 0 129 -54q53 -53 53 -129v-191q0 -76 -53 -129t-129 -53t-129 53t-53 129v446q0 76 53 129t129 53t129 -53t53 -129v-29h-65v33q0 48 -34 82q-35 35 -83 35q-49 0 -84 -35q-34 -34 -34 -82v-120q52 44 118 44zM132 377v-204q0 -49 34.5 -83t83.5 -34t83 34
t34 83v199q0 49 -34 83.5t-83 34.5q-48 0 -82 -33t-36 -80z" />
    <glyph glyph-name="seven" unicode="7" horiz-adv-x="449" 
d="M306 739h-282v61h350v-61l-182 -739h-67z" />
    <glyph glyph-name="eight" unicode="8" horiz-adv-x="485" 
d="M242 -5q-78 2 -129 53q-52 52 -52 129t54 128l85 97l-80 92q-56 53 -56 129q0 77 51 129q53 53 127 53q75 0 126 -53q52 -52 52 -129q0 -78 -56 -129l-80 -92l86 -97q54 -53 54 -128q0 -76 -53 -129t-129 -53zM243 56q48 0 82 34t34 83v4q0 45 -28 76l-89 101l-88 -101
q-28 -31 -28 -76v-4q0 -49 34 -83t83 -34zM355 623v4q0 48 -32.5 82.5t-80.5 34.5q-47 0 -80 -35q-33 -34 -33 -82v-4q-1 -39 31 -78l82 -94l83 94q30 35 30 78z" />
    <glyph glyph-name="nine" unicode="9" horiz-adv-x="500" 
d="M68 432v191q0 76 53 129t129 53t129 -53t53 -129v-446q0 -76 -53 -129t-129 -53t-129 53t-53 129v29h64v-33q0 -49 34 -83t84 -34q49 0 83 34t34 83v118q-53 -42 -117 -42q-76 0 -129 53q-53 55 -53 130zM367 428v199q0 49 -34 83t-83 34t-83.5 -34t-34.5 -83v-199
q0 -50 34 -84t84 -34q49 0 83 34.5t34 83.5z" />
    <glyph glyph-name="colon" unicode=":" horiz-adv-x="214" 
d="M73 107q-11 11 -11 27t11 26q11 11 27 11t27 -11q11 -10 11 -26t-11 -27t-27 -11t-27 11zM73 542q-11 11 -11 27t11 26q11 11 27 11t27 -11q11 -10 11 -26t-11 -27t-27 -11t-27 11z" />
    <glyph glyph-name="semicolon" unicode=";" horiz-adv-x="214" 
d="M68 10v157h64v-57q0 -20 -14 -84l-5 -16h-45zM73 542q-11 11 -11 27t11 26q11 11 27 11t27 -11q11 -10 11 -26t-11 -27t-27 -11t-27 11z" />
    <glyph glyph-name="less" unicode="&#x3c;" horiz-adv-x="350" 
d="M43 400l204 306l54 -36l-180 -270l180 -270l-54 -36z" />
    <glyph glyph-name="equal" unicode="=" horiz-adv-x="462" 
d="M431 246h-400v62h400v-62zM431 442h-400v62h400v-62z" />
    <glyph glyph-name="greater" unicode="&#x3e;" horiz-adv-x="350" 
d="M223 400l-180 270l55 36l203 -306l-203 -306l-55 36z" />
    <glyph glyph-name="question" unicode="?" 
d="M132 578v-52h-64v48q0 54 38 94q39 39 94 39q56 0 93 -39q39 -39 39 -94v-34q2 -45 -50 -132.5t-50 -118.5v-5l-7 -45h-50q-8 40 -8 45v5q0 65 50 129q50 66 50 122v38q0 28 -19.5 48t-47.5 20t-48 -20t-20 -48zM173 107q-11 11 -11 27t11 26q11 11 27 11t27 -11
q11 -10 11 -26t-11 -27t-27 -11t-27 11z" />
    <glyph glyph-name="at" unicode="@" horiz-adv-x="800" 
d="M267 327v146q0 55 39 93q39 39 94 39q56 0 93 -39q39 -38 39 -93v-152q2 -26 22 -43.5t46 -17.5q28 0 47.5 19.5t19.5 47.5v150q0 110 -78 188q-78 79 -189 79t-190 -79q-78 -78 -78 -188v-148q0 -111 78 -190q79 -78 190 -78h175v-61h-175q-138 0 -235 97t-97 236v140
q0 138 97 235t235 97t235 -97t97 -235v-146q0 -55 -39 -94q-38 -38 -93 -38q-61 0 -100 45q-40 -45 -100 -45q-54 0 -94 38q-39 39 -39 94zM332 477v-154q0 -28 20 -47.5t48 -19.5t48 19.5t20 47.5v154q0 28 -20 47.5t-48 19.5t-48 -19.5t-20 -47.5z" />
    <glyph glyph-name="A" unicode="A" horiz-adv-x="503" 
d="M218 800h65l172 -800h-65l-30 142h-217l-30 -142h-66zM347 204l-96 452l-95 -452h191z" />
    <glyph glyph-name="B" unicode="B" horiz-adv-x="500" 
d="M250 0h-182v800h182q76 0 129 -54q53 -53 53 -129v-131q0 -96 -81 -152q37 -24 59 -64t22 -87q0 -75 -53 -130q-53 -53 -129 -53zM250 739h-118v-374h123q48 2 79 36q33 35 33 82v138q0 49 -34 83.5t-83 34.5zM250 304h-118v-243h118q49 0 83 34.5t34 83.5v7
q0 49 -34 83.5t-83 34.5z" />
    <glyph glyph-name="C" unicode="C" horiz-adv-x="500" 
d="M132 627v-454q0 -49 34.5 -83t83.5 -34t83 34t34 83v41h65v-37q0 -76 -53 -129t-129 -53t-129 53t-53 129v446q0 76 53 129t129 53t129 -53t53 -129v-37h-65v41q0 48 -34 82q-35 35 -83 35q-49 0 -84 -35q-34 -34 -34 -82z" />
    <glyph glyph-name="D" unicode="D" horiz-adv-x="500" 
d="M250 0h-182v800h182q76 0 129 -54q53 -53 53 -129v-434q0 -75 -53 -130q-53 -53 -129 -53zM250 739h-118v-678h118q49 0 83 34.5t34 83.5v442q0 49 -34 83.5t-83 34.5z" />
    <glyph glyph-name="E" unicode="E" horiz-adv-x="420" 
d="M366 0h-298v800h298v-61h-234v-433h184v-62h-184v-183h234v-61z" />
    <glyph glyph-name="F" unicode="F" horiz-adv-x="415" 
d="M132 0h-64v800h320v-61h-256v-408h206v-62h-206v-269z" />
    <glyph glyph-name="G" unicode="G" horiz-adv-x="500" 
d="M132 627v-454q0 -49 34.5 -83t83.5 -34t83 34t34 83v71h-117v62h182v-129q0 -76 -53 -129t-129 -53t-129 53t-53 129v446q0 76 53 129t129 53t129 -53t53 -129v-37h-65v41q0 48 -34 82q-35 35 -83 35q-49 0 -84 -35q-34 -34 -34 -82z" />
    <glyph glyph-name="H" unicode="H" horiz-adv-x="500" 
d="M432 0h-65v244h-235v-244h-64v800h64v-494h235v494h65v-800z" />
    <glyph glyph-name="I" unicode="I" horiz-adv-x="214" 
d="M139 0h-65v800h65v-800z" />
    <glyph glyph-name="J" unicode="J" horiz-adv-x="200" 
d="M0 -250h-51v61h51q28 0 48 20t20 48v921h64v-917q0 -55 -39 -94q-37 -39 -93 -39z" />
    <glyph glyph-name="K" unicode="K" horiz-adv-x="500" 
d="M132 0h-64v800h64v-421l228 421h74l-177 -326l181 -474h-70l-152 398l-84 -154v-244z" />
    <glyph glyph-name="L" unicode="L" horiz-adv-x="418" 
d="M371 0h-303v800h64v-739h239v-61z" />
    <glyph glyph-name="M" unicode="M" horiz-adv-x="550" 
d="M417 800h66v-800h-66v673l-110 -184h-65l-110 185v-674h-64v800h64l143 -237z" />
    <glyph glyph-name="N" unicode="N" horiz-adv-x="525" 
d="M457 0h-65l-260 629v-629h-64v800h64l260 -628v628h65v-800z" />
    <glyph glyph-name="O" unicode="O" horiz-adv-x="500" 
d="M68 177v446q0 76 53 129t129 53t129 -53t53 -129v-446q0 -76 -53 -129t-129 -53t-129 53t-53 129zM132 627v-454q0 -49 34.5 -83t83.5 -34t83 34t34 83v454q0 48 -34 82q-35 35 -83 35q-49 0 -84 -35q-34 -34 -34 -82z" />
    <glyph glyph-name="P" unicode="P" horiz-adv-x="500" 
d="M132 0h-64v800h182q76 0 129 -54q53 -53 53 -129v-190q0 -75 -53 -130q-53 -53 -129 -53h-118v-244zM250 739h-118v-433h118q49 0 83 34t34 83v198q0 49 -34 83.5t-83 34.5z" />
    <glyph glyph-name="Q" unicode="Q" horiz-adv-x="500" 
d="M282 -150h-64v148q-63 10 -108 61q-42 51 -42 118v446q0 76 53 129t129 53t129 -53t53 -129v-446q0 -68 -43 -118q-45 -51 -107 -61v-148zM132 627v-454q0 -49 34.5 -83t83.5 -34t83 34t34 83v454q0 48 -34 82q-35 35 -83 35q-49 0 -84 -35q-34 -34 -34 -82z" />
    <glyph glyph-name="R" unicode="R" horiz-adv-x="500" 
d="M132 244v-244h-64v800h182q76 0 129 -54q53 -53 53 -129v-190q0 -97 -81 -152q81 -56 81 -152v-123h-65v127q0 47 -33 81q-31 34 -79 36h-123zM250 739h-118v-433h123q47 2 79 35q33 35 33 82v198q0 49 -34 83.5t-83 34.5z" />
    <glyph glyph-name="S" unicode="S" horiz-adv-x="490" 
d="M62 177v37h65v-41q0 -49 34 -83t84 -34q49 0 83 34t34 83v4q0 45 -28 76l-210 241q-56 51 -56 129q0 77 51 129q53 53 126 53q74 0 125 -53q52 -52 52 -129v-37h-65v41q0 48 -33 82q-32 35 -79 35t-80 -35q-32 -35 -32 -82v-4q-1 -41 30 -78l210 -240q54 -51 54 -128
q0 -76 -53 -129t-129 -53q-75 0 -130 53q-53 53 -53 129z" />
    <glyph glyph-name="T" unicode="T" horiz-adv-x="406" 
d="M170 739h-137v61h339v-61h-137v-739h-65v739z" />
    <glyph glyph-name="U" unicode="U" horiz-adv-x="500" 
d="M132 800v-627q0 -49 34.5 -83t83.5 -34t83 34t34 83v627h65v-623q0 -76 -53 -129t-129 -53t-129 53t-53 129v623h64z" />
    <glyph glyph-name="V" unicode="V" horiz-adv-x="487" 
d="M276 0h-65l-164 800h66l131 -629l130 629h65z" />
    <glyph glyph-name="W" unicode="W" horiz-adv-x="550" 
d="M132 0h-64v800h64v-674l110 185h65l110 -184v673h66v-800h-66l-142 237z" />
    <glyph glyph-name="X" unicode="X" horiz-adv-x="476" 
d="M351 800h70l-147 -398l152 -402h-70l-119 318l-117 -318h-69l151 410l-146 390h69l115 -305z" />
    <glyph glyph-name="Y" unicode="Y" horiz-adv-x="470" 
d="M267 0h-64v244l-156 556h68l120 -441l120 441h68l-156 -556v-244z" />
    <glyph glyph-name="Z" unicode="Z" horiz-adv-x="490" 
d="M348 739h-275v61h344v-61l-280 -678h285v-61h-354v61z" />
    <glyph glyph-name="bracketleft" unicode="[" horiz-adv-x="325" 
d="M257 789h-125v-778h125v-61h-189v900h189v-61z" />
    <glyph glyph-name="backslash" unicode="\" horiz-adv-x="580" 
d="M119 815l400 -800l-58 -30l-400 800z" />
    <glyph glyph-name="bracketright" unicode="]" horiz-adv-x="325" 
d="M68 11h124v778h-124v61h189v-900h-189v61z" />
    <glyph glyph-name="underscore" unicode="_" horiz-adv-x="500" 
d="M469 -57h-438v57h438v-57z" />
    <glyph glyph-name="grave" unicode="`" horiz-adv-x="250" 
d="M52 880l165 -59l-16 -47l-167 51z" />
    <glyph glyph-name="a" unicode="a" horiz-adv-x="391" 
d="M163 700h65l115 -600h-61l-23 122h-128l-23 -122h-61zM247 284l-52 273l-52 -273h104z" />
    <glyph glyph-name="b" unicode="b" 
d="M200 100h-132v600h132q56 0 93 -39q39 -39 39 -94v-131q0 -62 -48 -102q48 -40 48 -101q0 -55 -39 -94q-37 -39 -93 -39zM200 639h-68v-274h73q26 2 44 21.5t18 46.5v138q0 28 -19.5 48t-47.5 20zM205 304h-73v-143h68q28 0 47.5 20t19.5 48v7q0 27 -18 46.5t-44 21.5z
" />
    <glyph glyph-name="c" unicode="c" 
d="M132 577v-354q0 -28 20 -47.5t48 -19.5t47.5 19.5t19.5 47.5v56h65v-52q0 -55 -39 -94q-38 -38 -93 -38q-54 0 -94 38q-38 40 -38 94v346q0 55 38 93q39 39 94 39q56 0 93 -39q39 -38 39 -93v-52h-65v56q0 28 -19.5 47.5t-47.5 19.5t-48 -19.5t-20 -47.5z" />
    <glyph glyph-name="d" unicode="d" 
d="M200 100h-132v600h132q56 0 93 -39q39 -39 39 -94v-334q0 -55 -39 -94q-37 -39 -93 -39zM200 639h-68v-478h68q28 0 47.5 20t19.5 48v342q0 28 -19.5 48t-47.5 20z" />
    <glyph glyph-name="e" unicode="e" horiz-adv-x="354" 
d="M300 100h-232v600h232v-61h-168v-288h143v-62h-143v-128h168v-61z" />
    <glyph glyph-name="f" unicode="f" horiz-adv-x="327" 
d="M132 100h-64v600h232v-61h-168v-288h143v-62h-143v-189z" />
    <glyph glyph-name="g" unicode="g" 
d="M132 577v-354q0 -28 20 -47.5t48 -19.5t47.5 19.5t19.5 47.5v68h-67v62h132v-126q0 -55 -39 -94q-38 -38 -93 -38q-54 0 -94 38q-38 40 -38 94v346q0 55 38 93q39 39 94 39q56 0 93 -39q39 -38 39 -93v-52h-65v56q0 28 -19.5 47.5t-47.5 19.5t-48 -19.5t-20 -47.5z" />
    <glyph glyph-name="h" unicode="h" 
d="M332 100h-65v189h-135v-189h-64v600h64v-349h135v349h65v-600z" />
    <glyph glyph-name="i" unicode="i" horiz-adv-x="214" 
d="M139 100h-65v600h65v-600z" />
    <glyph glyph-name="j" unicode="j" horiz-adv-x="200" 
d="M0 -55h-26v61h26q28 0 48 19.5t20 47.5v627h64v-623q0 -55 -39 -93q-37 -39 -93 -39z" />
    <glyph glyph-name="k" unicode="k" 
d="M132 100h-64v600h64v-271l134 271h72l-121 -244l121 -356h-69l-93 274l-44 -89v-185z" />
    <glyph glyph-name="l" unicode="l" horiz-adv-x="318" 
d="M275 100h-207v600h64v-539h143v-61z" />
    <glyph glyph-name="m" unicode="m" horiz-adv-x="450" 
d="M382 100h-65v461l-63 -119h-58l-64 120v-462h-64v600h64l93 -178l92 178h65v-600z" />
    <glyph glyph-name="n" unicode="n" horiz-adv-x="425" 
d="M357 100h-65l-160 429v-429h-64v600h64l160 -428v428h65v-600z" />
    <glyph glyph-name="o" unicode="o" 
d="M68 227v346q0 55 38 93q39 39 94 39q56 0 93 -39q39 -38 39 -93v-346q0 -55 -39 -94q-38 -38 -93 -38q-54 0 -94 38q-38 40 -38 94zM132 577v-354q0 -28 20 -47.5t48 -19.5t47.5 19.5t19.5 47.5v354q0 28 -19.5 47.5t-47.5 19.5t-48 -19.5t-20 -47.5z" />
    <glyph glyph-name="p" unicode="p" 
d="M132 100h-64v600h132q56 0 93 -39q39 -39 39 -94v-145q0 -55 -39 -94q-37 -39 -93 -39h-68v-189zM200 639h-68v-288h68q28 0 47.5 19.5t19.5 47.5v153q0 28 -19.5 48t-47.5 20z" />
    <glyph glyph-name="q" unicode="q" 
d="M232 0h-65v99q-43 11 -71 47t-28 81v346q0 55 38 93q39 39 94 39q56 0 93 -39q39 -38 39 -93v-346q0 -45 -28.5 -81t-71.5 -47v-99zM132 577v-354q0 -28 20 -47.5t48 -19.5t47.5 19.5t19.5 47.5v354q0 28 -19.5 47.5t-47.5 19.5t-48 -19.5t-20 -47.5z" />
    <glyph glyph-name="r" unicode="r" 
d="M132 100h-64v189v411h132q56 0 93 -39q39 -39 39 -94v-145q0 -62 -48 -102q48 -40 48 -102v-118h-65v122q0 28 -19.5 47.5t-47.5 19.5h-68v-189zM200 639h-68v-288h68q28 0 47.5 19.5t19.5 47.5v153q0 28 -19.5 48t-47.5 20z" />
    <glyph glyph-name="s" unicode="s" horiz-adv-x="390" 
d="M62 227v47h65v-51q0 -28 20 -47.5t48 -19.5t47.5 19.5t19.5 47.5v4q0 19 -9 34l-159 229q-32 35 -32 83q0 55 39 93q39 39 94 39t93 -39q39 -38 39 -93v-47h-65v51q0 28 -19.5 47.5t-47.5 19.5t-48 -19.5t-20 -47.5v-4q0 -21 12 -37l160 -229q28 -34 28 -80
q0 -55 -39 -94q-38 -38 -93 -38q-54 0 -94 38q-39 39 -39 94z" />
    <glyph glyph-name="t" unicode="t" horiz-adv-x="306" 
d="M120 639h-87v61h239v-61h-87v-539h-65v539z" />
    <glyph glyph-name="u" unicode="u" 
d="M132 700v-477q0 -28 20 -47.5t48 -19.5t47.5 19.5t19.5 47.5v477h65v-473q0 -55 -39 -94q-38 -38 -93 -38q-54 0 -94 38q-38 40 -38 94v473h64z" />
    <glyph glyph-name="v" unicode="v" horiz-adv-x="391" 
d="M228 100h-65l-116 600h61l87 -457l87 457h61z" />
    <glyph glyph-name="w" unicode="w" horiz-adv-x="450" 
d="M68 700h64v-463l64 121h58l63 -119v461h65v-600h-65l-92 178l-93 -178h-64v600z" />
    <glyph glyph-name="x" unicode="x" horiz-adv-x="391" 
d="M263 700h68l-100 -305l100 -295h-69l-68 205l-65 -205h-68l99 303l-99 297h68l68 -206z" />
    <glyph glyph-name="y" unicode="y" horiz-adv-x="364" 
d="M214 100h-65v189l-110 411h62l81 -307l81 307h62l-111 -411v-189z" />
    <glyph glyph-name="z" unicode="z" 
d="M260 639h-187v61h254v-61l-193 -478h198v-61h-264v61z" />
    <glyph glyph-name="braceleft" unicode="{" horiz-adv-x="381" 
d="M183 850h130v-61h-123l1 -314q0 -41 -27 -66l-9 -9l9 -9q27 -29 27 -66v-314h122v-61h-129q-25 0 -41.5 16.5t-16.5 41.5v317q0 11 -9 20l-55 55l55 55q9 9 9 20l-1 317q0 25 17 41.5t41 16.5z" />
    <glyph glyph-name="bar" unicode="|" horiz-adv-x="214" 
d="M139 -50h-65v900h65v-900z" />
    <glyph glyph-name="braceright" unicode="}" horiz-adv-x="381" 
d="M198 -50h-130v61h122l-1 314q0 39 27 66l9 9l-9 9q-27 27 -27 66v314h-121v61h129q24 0 40.5 -16.5t16.5 -41.5v-317q0 -9 9 -20l55 -55l-55 -55q-9 -11 -9 -20l1 -317q0 -25 -16.5 -41.5t-40.5 -16.5z" />
    <glyph glyph-name="nbspace" unicode="&#xa0;" horiz-adv-x="250" 
 />
    <glyph glyph-name="exclamdown" unicode="&#xa1;" horiz-adv-x="200" 
d="M73 639q-17 16 -9.5 37t26.5 26.5t37 -9.5q11 -11 11 -27t-11 -27q-11 -10 -27 -10t-27 10zM132 100h-64v230l9 231h46q9 -191 9 -231v-230z" />
    <glyph glyph-name="cent" unicode="&#xa2;" 
d="M231 25h-62v73q-45 11 -73 46.5t-28 82.5v346q0 46 28.5 81.5t72.5 46.5v74h62v-74q44 -11 72.5 -46.5t28.5 -81.5v-52h-65v56q0 28 -19.5 47.5t-47.5 19.5t-48 -19.5t-20 -47.5v-354q0 -28 20 -47.5t48 -19.5t47.5 19.5t19.5 47.5v56h65v-52q0 -47 -28 -82.5t-73 -46.5
v-73z" />
    <glyph glyph-name="sterling" unicode="&#xa3;" horiz-adv-x="390" 
d="M353 100h-332v61h62v412q0 55 39 93q39 39 94 39q56 0 93 -39q39 -38 39 -93v-52h-65v56q0 28 -19.5 47.5t-47.5 19.5t-48 -19.5t-20 -47.5v-175h137v-61h-137v-180h205v-61z" />
    <glyph glyph-name="currency" unicode="&#xa4;" horiz-adv-x="500" 
d="M432 109h-65q0 37 -26 66t-62 30h-54q-38 0 -65.5 -28.5t-27.5 -67.5h-64q0 79 63 127q-63 48 -63 127v74q0 79 63 127q-63 48 -63 127h64q0 -39 27.5 -67.5t65.5 -28.5h50q38 0 65 28.5t27 67.5h65q0 -79 -64 -127q64 -48 64 -127v-74q0 -79 -64 -127q64 -48 64 -127z
M132 441v-82q0 -37 25.5 -63.5t63.5 -28.5h54q38 0 65 27t27 65v82q0 38 -27 65t-65 27h-54q-37 -1 -63 -28t-26 -64z" />
    <glyph glyph-name="yen" unicode="&#xa5;" horiz-adv-x="384" 
d="M153 312h-109v61h92l-87 327h62l81 -307l81 307h62l-89 -327h93v-61h-109l-6 -23v-63h115v-62h-115v-64h-65v64h-115v62h115v63z" />
    <glyph glyph-name="brokenbar" unicode="&#xa6;" horiz-adv-x="214" 
d="M139 -50h-65v410h65v-410zM74 850h65v-410h-65v410z" />
    <glyph glyph-name="section" unicode="&#xa7;" horiz-adv-x="415" 
d="M62 127v47h65v-51q0 -28 20 -47.5t48 -19.5t47.5 19.5t19.5 47.5v4q0 19 -9 34l-159 229q-32 35 -32 83q0 71 61 111l-4 6q-31 34 -31 83q0 55 38 93q39 39 94 39q56 0 93 -39q39 -38 39 -93v-47h-65v51q0 28 -19.5 47.5t-47.5 19.5t-48 -19.5t-20 -47.5v-4q0 -21 12 -37
l160 -229q28 -34 28 -80q0 -71 -60 -111l7 -9q28 -34 28 -80q0 -55 -39 -94q-38 -38 -93 -38q-54 0 -94 38q-39 39 -39 94zM127 477v-4q0 -21 12 -37l118 -169q30 19 30 56v4q0 19 -9 34l-120 172q-31 -21 -31 -56z" />
    <glyph glyph-name="dieresis" unicode="&#xa8;" 
d="M101 801q-23 23 1 47t47 1t-1 -47t-47 -1zM251 801q-23 23 1 47t47 1t-1 -47t-47 -1z" />
    <glyph glyph-name="copyright" unicode="&#xa9;" horiz-adv-x="800" 
d="M68 327v146q0 138 97 235t235 97t235 -97t97 -235v-146q0 -138 -97 -235t-235 -97t-235 97t-97 235zM132 477v-154q0 -111 78 -189q79 -78 190 -78t189 78t78 189v154q0 110 -78 188q-78 79 -189 79t-190 -79q-78 -78 -78 -188zM332 477v-154q0 -28 20 -47.5t48 -19.5
t48 19.5t20 47.5v22h64v-18q0 -55 -39 -94q-38 -38 -93 -38q-54 0 -94 38q-39 39 -39 94v146q0 55 39 93q39 39 94 39q56 0 93 -39q39 -38 39 -93v-18h-64v22q0 28 -20 47.5t-48 19.5t-48 -19.5t-20 -47.5z" />
    <glyph glyph-name="ordfeminine" unicode="&#xaa;" 
d="M332 449h-65v9q-30 -18 -67 -18q-55 0 -94 39q-38 40 -38 94q0 55 38 93q39 39 94 39q34 0 67 -18v13h65v-251zM132 577v-8q0 -28 20 -48t48 -20t47.5 20t19.5 48v13q-2 26 -21.5 44t-45.5 18q-28 0 -48 -19.5t-20 -47.5z" />
    <glyph glyph-name="guillemotleft" unicode="&#xab;" horiz-adv-x="570" 
d="M43 400l204 306l54 -36l-180 -270l180 -270l-54 -36zM263 400l204 306l54 -36l-180 -270l180 -270l-54 -36z" />
    <glyph glyph-name="logicalnot" unicode="&#xac;" horiz-adv-x="499" 
d="M366 347h-335v62h400v-209h-65v147z" />
    <glyph glyph-name="registered" unicode="&#xae;" horiz-adv-x="800" 
d="M68 327v146q0 138 97 235t235 97t235 -97t97 -235v-146q0 -138 -97 -235t-235 -97t-235 97t-97 235zM132 477v-154q0 -111 78 -189q79 -78 190 -78t189 78t78 189v154q0 110 -78 188q-78 79 -189 79t-190 -79q-78 -78 -78 -188zM332 200h-65v400h133q56 0 93 -39
q39 -39 39 -94v-45q0 -62 -48 -102q48 -40 48 -102v-18h-64v22q0 28 -20 47.5t-48 19.5h-68v-89zM400 539h-68v-188h68q28 0 48 19.5t20 47.5v53q0 28 -20 48t-48 20z" />
    <glyph glyph-name="overscore" unicode="&#xaf;" horiz-adv-x="200" 
d="M214 796h-228v54h228v-54z" />
    <glyph glyph-name="degree" unicode="&#xb0;" 
d="M106 479q-38 40 -38 94q0 55 38 93q39 39 94 39q56 0 93 -39q39 -38 39 -93t-39 -94q-37 -39 -93 -39q-55 0 -94 39zM132 577v-8q0 -28 20 -48t48 -20t47.5 20t19.5 48v8q0 28 -19.5 47.5t-47.5 19.5t-48 -19.5t-20 -47.5z" />
    <glyph glyph-name="plusminus" unicode="&#xb1;" horiz-adv-x="512" 
d="M224 447h-178v62h178v176h65v-176h177v-62h-177v-182h-65v182zM466 96h-420v62h420v-62z" />
    <glyph glyph-name="acute" unicode="&#xb4;" horiz-adv-x="250" 
d="M217 825l-167 -51l-16 47l165 59z" />
    <glyph glyph-name="mu" unicode="&#xb5;" horiz-adv-x="450" 
d="M382 100h-65v461l-63 -119h-58l-64 120v-462h-64v600h64l93 -178l92 178h65v-600z" />
    <glyph glyph-name="paragraph" unicode="&#xb6;" horiz-adv-x="422" 
d="M200 700h189v-61h-57v-418q0 -55 -39 -94q-37 -39 -93 -39h-26v61h26q28 0 47.5 20t19.5 48v72h-67q-55 0 -94 39q-38 40 -38 94v145q0 54 38 94q39 39 94 39z" />
    <glyph glyph-name="middot" unicode="&#xb7;" horiz-adv-x="214" 
d="M73 273q-11 11 -11 27t11 26q11 11 27 11t27 -11q11 -10 11 -26t-11 -27t-27 -11t-27 11z" />
    <glyph glyph-name="cedilla" unicode="&#xb8;" horiz-adv-x="525" 
d="M187 -63l35 63h45l-16 -32h26q26 0 41.5 -19t15.5 -49q0 -34 -27.5 -57.5t-75.5 -23.5q-23 0 -45.5 10t-33.5 22l-9 11l15 25q31 -34 73 -34q23 0 35.5 13.5t12.5 33.5q0 15 -10.5 26t-27.5 11h-54z" />
    <glyph glyph-name="ordmasculine" unicode="&#xba;" 
d="M106 479q-38 40 -38 94q0 55 38 93q39 39 94 39q56 0 93 -39q39 -38 39 -93t-39 -94q-37 -39 -93 -39q-55 0 -94 39zM132 577v-8q0 -28 20 -48t48 -20t47.5 20t19.5 48v8q0 28 -19.5 47.5t-47.5 19.5t-48 -19.5t-20 -47.5z" />
    <glyph glyph-name="guillemotright" unicode="&#xbb;" horiz-adv-x="570" 
d="M443 400l-180 270l55 36l203 -306l-203 -306l-55 36zM223 400l-180 270l55 36l203 -306l-203 -306l-55 36z" />
    <glyph glyph-name="questiondown" unicode="&#xbf;" 
d="M267 225v52h65v-48q0 -55 -39 -94q-37 -39 -93 -39q-55 0 -94 39q-38 40 -38 94v34q0 61 49 132q50 70 50 119v5l8 45h50q7 -35 7 -45v-5q2 -37 -24 -84t-52 -91.5t-24 -75.5v-38q0 -28 20 -48t48 -20t47.5 20t19.5 48zM227 696q11 -11 11 -27t-11 -27q-11 -10 -27 -10
t-27 10q-17 16 -9.5 37t26.5 26.5t37 -9.5z" />
    <glyph glyph-name="Agrave" unicode="&#xc0;" horiz-adv-x="503" 
d="M218 800h65l172 -800h-65l-30 142h-217l-30 -142h-66zM347 204l-96 452l-95 -452h191zM156 980l141 -59l-16 -47l-167 51z" />
    <glyph glyph-name="Aacute" unicode="&#xc1;" horiz-adv-x="503" 
d="M218 800h65l172 -800h-65l-30 142h-217l-30 -142h-66zM347 204l-96 452l-95 -452h191zM387 925l-167 -51l-16 47l165 59z" />
    <glyph glyph-name="Acircumflex" unicode="&#xc2;" horiz-adv-x="503" 
d="M218 800h65l172 -800h-65l-30 142h-217l-30 -142h-66zM347 204l-96 452l-95 -452h191zM266 1006l94 -86l-38 -43l-71 68l-71 -68l-38 43l94 86h30z" />
    <glyph glyph-name="Atilde" unicode="&#xc3;" horiz-adv-x="503" 
d="M218 800h65l172 -800h-65l-30 142h-217l-30 -142h-66zM347 204l-96 452l-95 -452h191zM147 895l-7 -4l-22 45l7 4q37 22 82 22q17 0 45 -12t45 -12q14 0 28 3.5t21 6.5t7 4l6 3l23 -46l-7 -3q-37 -22 -82 -22q-17 0 -46 12t-44 12q-14 0 -28 -3t-21 -6t-7 -4z" />
    <glyph glyph-name="Adieresis" unicode="&#xc4;" horiz-adv-x="503" 
d="M218 800h65l172 -800h-65l-30 142h-217l-30 -142h-66zM347 204l-96 452l-95 -452h191zM142 901q-23 23 1 47t47 1t-1 -47t-47 -1zM312 901q-23 23 1 47t47 1t-1 -47t-47 -1z" />
    <glyph glyph-name="Aring" unicode="&#xc5;" horiz-adv-x="503" 
d="M218 800h65l172 -800h-65l-30 142h-217l-30 -142h-66zM347 204l-96 452l-95 -452h191zM177 851q-30 31 -30 74t30 73q31 31 74 31t73 -31q31 -30 31 -73t-31 -74q-30 -30 -73 -30t-74 30zM251 975q-20 0 -35 -15t-15 -35t15 -35t35 -15t35 15t15 35t-14.5 35t-35.5 15z
" />
    <glyph glyph-name="AE" unicode="&#xc6;" horiz-adv-x="680" 
d="M625 0h-298v142h-185l-39 -142h-66l221 800h367v-61h-233v-433h183v-62h-183v-183h233v-61zM327 739h-21l-147 -535h168v535z" />
    <glyph glyph-name="Ccedilla" unicode="&#xc7;" horiz-adv-x="500" 
d="M132 627v-454q0 -49 34.5 -83t83.5 -34t83 34t34 83v41h65v-37q0 -72 -49 -124q-48 -52 -119 -57l-13 -28h26q26 0 41.5 -19t15.5 -49q0 -34 -27.5 -57.5t-75.5 -23.5q-23 0 -45.5 10t-33.5 22l-9 11l15 25q31 -34 73 -34q23 0 35.5 13.5t12.5 33.5q0 15 -10.5 26
t-27.5 11h-54l33 61q-65 10 -109 60q-43 50 -43 119v446q0 76 53 129t129 53t129 -53t53 -129v-37h-65v41q0 48 -34 82q-35 35 -83 35q-49 0 -84 -35q-34 -34 -34 -82z" />
    <glyph glyph-name="Egrave" unicode="&#xc8;" horiz-adv-x="420" 
d="M366 0h-298v800h298v-61h-234v-433h184v-62h-184v-183h234v-61zM142 980l165 -59l-16 -47l-167 51z" />
    <glyph glyph-name="Eacute" unicode="&#xc9;" horiz-adv-x="420" 
d="M366 0h-298v800h298v-61h-234v-433h184v-62h-184v-183h234v-61zM301 925l-167 -51l-16 47l165 59z" />
    <glyph glyph-name="Ecircumflex" unicode="&#xca;" horiz-adv-x="420" 
d="M234 1006l94 -86l-38 -43l-71 68l-71 -68l-38 43l94 86h30zM366 0h-298v800h298v-61h-234v-433h184v-62h-184v-183h234v-61z" />
    <glyph glyph-name="Edieresis" unicode="&#xcb;" horiz-adv-x="420" 
d="M366 0h-298v800h298v-61h-234v-433h184v-62h-184v-183h234v-61zM107 901q-23 23 1 47t47 1t-1 -47t-47 -1zM277 901q-23 23 1 47t47 1t-1 -47t-47 -1z" />
    <glyph glyph-name="Igrave" unicode="&#xcc;" horiz-adv-x="214" 
d="M139 0h-65v800h65v-800zM-17 980l165 -59l-16 -47l-167 51z" />
    <glyph glyph-name="Iacute" unicode="&#xcd;" horiz-adv-x="214" 
d="M139 0h-65v800h65v-800zM249 925l-167 -51l-16 47l165 59z" />
    <glyph glyph-name="Icircumflex" unicode="&#xce;" horiz-adv-x="214" 
d="M122 1006l94 -86l-38 -43l-71 68l-71 -68l-38 43l94 86h30zM139 0h-65v800h65v-800z" />
    <glyph glyph-name="Idieresis" unicode="&#xcf;" horiz-adv-x="214" 
d="M-2 901q-23 23 1 47t47 1t-1 -47t-47 -1zM168 901q-23 23 1 47t47 1t-1 -47t-47 -1zM139 0h-65v800h65v-800z" />
    <glyph glyph-name="Eth" unicode="&#xd0;" horiz-adv-x="500" 
d="M68 244h-78v62h78v494h182q76 0 129 -54q53 -53 53 -129v-434q0 -75 -53 -130q-53 -53 -129 -53h-182v244zM250 739h-118v-433h78v-62h-78v-183h118q49 0 83 34.5t34 83.5v442q0 49 -34 83.5t-83 34.5z" />
    <glyph glyph-name="Ntilde" unicode="&#xd1;" horiz-adv-x="525" 
d="M457 0h-65l-260 629v-629h-64v800h64l260 -628v628h65v-800zM159 895l-7 -4l-22 45l7 4q37 22 82 22q17 0 45 -12t45 -12q14 0 28 3.5t21 6.5t7 4l6 3l23 -46l-7 -3q-37 -22 -82 -22q-17 0 -46 12t-44 12q-14 0 -28 -3t-21 -6t-7 -4z" />
    <glyph glyph-name="Ograve" unicode="&#xd2;" horiz-adv-x="500" 
d="M68 177v446q0 76 53 129t129 53t129 -53t53 -129v-446q0 -76 -53 -129t-129 -53t-129 53t-53 129zM132 627v-454q0 -49 34.5 -83t83.5 -34t83 34t34 83v454q0 48 -34 82q-35 35 -83 35q-49 0 -84 -35q-34 -34 -34 -82zM152 980l165 -59l-16 -47l-167 51z" />
    <glyph glyph-name="Oacute" unicode="&#xd3;" horiz-adv-x="500" 
d="M68 177v446q0 76 53 129t129 53t129 -53t53 -129v-446q0 -76 -53 -129t-129 -53t-129 53t-53 129zM132 627v-454q0 -49 34.5 -83t83.5 -34t83 34t34 83v454q0 48 -34 82q-35 35 -83 35q-49 0 -84 -35q-34 -34 -34 -82zM367 925l-167 -51l-16 47l165 59z" />
    <glyph glyph-name="Ocircumflex" unicode="&#xd4;" horiz-adv-x="500" 
d="M265 1006l94 -86l-38 -43l-71 68l-71 -68l-38 43l94 86h30zM68 177v446q0 76 53 129t129 53t129 -53t53 -129v-446q0 -76 -53 -129t-129 -53t-129 53t-53 129zM132 627v-454q0 -49 34.5 -83t83.5 -34t83 34t34 83v454q0 48 -34 82q-35 35 -83 35q-49 0 -84 -35
q-34 -34 -34 -82z" />
    <glyph glyph-name="Otilde" unicode="&#xd5;" horiz-adv-x="500" 
d="M68 177v446q0 76 53 129t129 53t129 -53t53 -129v-446q0 -76 -53 -129t-129 -53t-129 53t-53 129zM132 627v-454q0 -49 34.5 -83t83.5 -34t83 34t34 83v454q0 48 -34 82q-35 35 -83 35q-49 0 -84 -35q-34 -34 -34 -82zM147 895l-7 -4l-22 45l7 4q37 22 82 22q17 0 45 -12
t45 -12q14 0 28 3.5t21 6.5t7 4l6 3l23 -46l-7 -3q-37 -22 -82 -22q-17 0 -46 12t-44 12q-14 0 -28 -3t-21 -6t-7 -4z" />
    <glyph glyph-name="Odieresis" unicode="&#xd6;" horiz-adv-x="500" 
d="M68 177v446q0 76 53 129t129 53t129 -53t53 -129v-446q0 -76 -53 -129t-129 -53t-129 53t-53 129zM132 627v-454q0 -49 34.5 -83t83.5 -34t83 34t34 83v454q0 48 -34 82q-35 35 -83 35q-49 0 -84 -35q-34 -34 -34 -82zM141 901q-23 23 1 47t47 1t-1 -47t-47 -1zM311 901
q-23 23 1 47t47 1t-1 -47t-47 -1z" />
    <glyph glyph-name="multiply" unicode="&#xd7;" horiz-adv-x="544" 
d="M271 327l-175 -198l-48 42l181 204l-181 204l48 42l175 -198l176 198l49 -42l-182 -204l182 -204l-49 -42z" />
    <glyph glyph-name="Oslash" unicode="&#xd8;" horiz-adv-x="500" 
d="M68 177v446q0 76 53 129t129 53q65 0 114 -40l19 46l53 -22l-29 -73q25 -41 25 -93v-446q0 -76 -53 -129t-129 -53q-66 0 -115 40l-18 -46l-53 22l29 73q-25 41 -25 93zM132 627v-445l207 520q-34 42 -89 42q-49 0 -84 -35q-34 -34 -34 -82zM250 56q49 0 83 34t34 83v443
l-207 -519q33 -41 90 -41z" />
    <glyph glyph-name="Ugrave" unicode="&#xd9;" horiz-adv-x="500" 
d="M132 800v-627q0 -49 34.5 -83t83.5 -34t83 34t34 83v627h65v-623q0 -76 -53 -129t-129 -53t-129 53t-53 129v623h64zM151 980l165 -59l-16 -47l-167 51z" />
    <glyph glyph-name="Uacute" unicode="&#xda;" horiz-adv-x="500" 
d="M132 800v-627q0 -49 34.5 -83t83.5 -34t83 34t34 83v627h65v-623q0 -76 -53 -129t-129 -53t-129 53t-53 129v623h64zM367 925l-167 -51l-16 47l165 59z" />
    <glyph glyph-name="Ucircumflex" unicode="&#xdb;" horiz-adv-x="500" 
d="M265 1006l94 -86l-38 -43l-71 68l-71 -68l-38 43l94 86h30zM132 800v-627q0 -49 34.5 -83t83.5 -34t83 34t34 83v627h65v-623q0 -76 -53 -129t-129 -53t-129 53t-53 129v623h64z" />
    <glyph glyph-name="Udieresis" unicode="&#xdc;" horiz-adv-x="500" 
d="M132 800v-627q0 -49 34.5 -83t83.5 -34t83 34t34 83v627h65v-623q0 -76 -53 -129t-129 -53t-129 53t-53 129v623h64zM141 901q-23 23 1 47t47 1t-1 -47t-47 -1zM311 901q-23 23 1 47t47 1t-1 -47t-47 -1z" />
    <glyph glyph-name="Yacute" unicode="&#xdd;" horiz-adv-x="470" 
d="M267 0h-64v244l-156 556h68l120 -441l120 441h68l-156 -556v-244zM366 925l-167 -51l-16 47l165 59z" />
    <glyph glyph-name="Thorn" unicode="&#xde;" horiz-adv-x="500" 
d="M68 0v800h64v-130h118q76 0 129 -54q53 -53 53 -129v-174q0 -75 -53 -130q-53 -53 -129 -53h-118v-130h-64zM250 609h-118v-418h118q49 0 83 34.5t34 83.5v182q0 49 -34 83.5t-83 34.5z" />
    <glyph glyph-name="agrave" unicode="&#xe0;" horiz-adv-x="391" 
d="M163 700h65l115 -600h-61l-23 122h-128l-23 -122h-61zM247 284l-52 273l-52 -273h104zM84 880l165 -59l-16 -47l-167 51z" />
    <glyph glyph-name="aacute" unicode="&#xe1;" horiz-adv-x="391" 
d="M163 700h65l115 -600h-61l-23 122h-128l-23 -122h-61zM247 284l-52 273l-52 -273h104zM325 825l-167 -51l-16 47l165 59z" />
    <glyph glyph-name="acircumflex" unicode="&#xe2;" horiz-adv-x="391" 
d="M163 700h65l115 -600h-61l-23 122h-128l-23 -122h-61zM247 284l-52 273l-52 -273h104zM210 906l94 -86l-38 -43l-71 68l-71 -68l-38 43l94 86h30z" />
    <glyph glyph-name="atilde" unicode="&#xe3;" horiz-adv-x="391" 
d="M163 700h65l115 -600h-61l-23 122h-128l-23 -122h-61zM247 284l-52 273l-52 -273h104zM92 795l-7 -4l-22 45l7 4q37 22 82 22q16 0 45 -12t45 -12q14 0 28 3.5t21 6.5t7 4l6 3l23 -46l-7 -3q-37 -22 -82 -22q-18 0 -46 12q-29 12 -44 12q-14 0 -28 -3t-21 -6t-7 -4z" />
    <glyph glyph-name="adieresis" unicode="&#xe4;" horiz-adv-x="391" 
d="M163 700h65l115 -600h-61l-23 122h-128l-23 -122h-61zM247 284l-52 273l-52 -273h104zM96 801q-23 23 1 47t47 1t-1 -47t-47 -1zM246 801q-23 23 1 47t47 1t-1 -47t-47 -1z" />
    <glyph glyph-name="aring" unicode="&#xe5;" horiz-adv-x="391" 
d="M163 700h65l115 -600h-61l-23 122h-128l-23 -122h-61zM121 751q-30 31 -30 74t30 73q31 31 74 31t73 -31q31 -30 31 -73t-31 -74q-30 -30 -73 -30t-74 30zM247 284l-52 273l-52 -273h104zM195 875q-20 0 -35 -15t-15 -35t15 -35t35 -15t35 15t15 35t-14.5 35t-35.5 15z
" />
    <glyph glyph-name="ae" unicode="&#xe6;" horiz-adv-x="548" 
d="M494 100h-232v122h-125l-29 -122h-61l141 600h306v-61h-167v-288h142v-62h-142v-128h167v-61zM262 639h-24l-86 -355h110v355z" />
    <glyph glyph-name="ccedilla" unicode="&#xe7;" 
d="M132 577v-354q0 -28 20 -47.5t48 -19.5t47.5 19.5t19.5 47.5v56h65v-52q0 -50 -32.5 -87t-80.5 -44l-14 -28h26q26 0 41.5 -19t15.5 -49q0 -34 -27.5 -57.5t-75.5 -23.5q-23 0 -45.5 10t-33.5 22l-9 11l15 25q31 -34 73 -34q23 0 35.5 13.5t12.5 33.5q0 15 -10.5 26
t-27.5 11h-54l33 60q-45 9 -75.5 45.5t-30.5 84.5v346q0 55 38 93q39 39 94 39q56 0 93 -39q39 -38 39 -93v-52h-65v56q0 28 -19.5 47.5t-47.5 19.5t-48 -19.5t-20 -47.5z" />
    <glyph glyph-name="egrave" unicode="&#xe8;" horiz-adv-x="354" 
d="M300 100h-232v600h232v-61h-168v-288h143v-62h-143v-128h168v-61zM109 880l165 -59l-16 -47l-167 51z" />
    <glyph glyph-name="eacute" unicode="&#xe9;" horiz-adv-x="354" 
d="M300 100h-232v600h232v-61h-168v-288h143v-62h-143v-128h168v-61zM288 825l-167 -51l-16 47l165 59z" />
    <glyph glyph-name="ecircumflex" unicode="&#xea;" horiz-adv-x="354" 
d="M198 906l94 -86l-38 -43l-71 68l-71 -68l-38 43l94 86h30zM300 100h-232v600h232v-61h-168v-288h143v-62h-143v-128h168v-61z" />
    <glyph glyph-name="edieresis" unicode="&#xeb;" horiz-adv-x="354" 
d="M300 100h-232v600h232v-61h-168v-288h143v-62h-143v-128h168v-61zM84 801q-23 23 1 47t47 1t-1 -47t-47 -1zM234 801q-23 23 1 47t47 1t-1 -47t-47 -1z" />
    <glyph glyph-name="igrave" unicode="&#xec;" horiz-adv-x="214" 
d="M139 100h-65v600h65v-600zM-17 880l165 -59l-16 -47l-167 51z" />
    <glyph glyph-name="iacute" unicode="&#xed;" horiz-adv-x="214" 
d="M139 100h-65v600h65v-600zM249 825l-167 -51l-16 47l165 59z" />
    <glyph glyph-name="icircumflex" unicode="&#xee;" horiz-adv-x="214" 
d="M122 906l94 -86l-38 -43l-71 68l-71 -68l-38 43l94 86h30zM139 100h-65v600h65v-600z" />
    <glyph glyph-name="idieresis" unicode="&#xef;" horiz-adv-x="214" 
d="M6 801q-23 23 1 47t47 1t-1 -47t-47 -1zM156 801q-23 23 1 47t47 1t-1 -47t-47 -1zM139 100h-65v600h65v-600z" />
    <glyph glyph-name="eth" unicode="&#xf0;" 
d="M68 289h-53v62h53v349h132q56 0 93 -39q39 -39 39 -94v-334q0 -55 -39 -94q-37 -39 -93 -39h-132v189zM200 639h-68v-288h53v-62h-53v-128h68q28 0 47.5 20t19.5 48v342q0 28 -19.5 48t-47.5 20z" />
    <glyph glyph-name="ntilde" unicode="&#xf1;" horiz-adv-x="425" 
d="M357 100h-65l-160 429v-429h-64v600h64l160 -428v428h65v-600zM109 795l-7 -4l-22 45l7 4q37 22 82 22q17 0 45 -12t45 -12q14 0 28 3.5t21 6.5t7 4l6 3l23 -46l-7 -3q-37 -22 -82 -22q-17 0 -46 12t-44 12q-14 0 -28 -3t-21 -6t-7 -4z" />
    <glyph glyph-name="ograve" unicode="&#xf2;" 
d="M68 227v346q0 55 38 93q39 39 94 39q56 0 93 -39q39 -38 39 -93v-346q0 -55 -39 -94q-38 -38 -93 -38q-54 0 -94 38q-38 40 -38 94zM132 577v-354q0 -28 20 -47.5t48 -19.5t47.5 19.5t19.5 47.5v354q0 28 -19.5 47.5t-47.5 19.5t-48 -19.5t-20 -47.5zM101 880l165 -59
l-16 -47l-167 51z" />
    <glyph glyph-name="oacute" unicode="&#xf3;" 
d="M68 227v346q0 55 38 93q39 39 94 39q56 0 93 -39q39 -38 39 -93v-346q0 -55 -39 -94q-38 -38 -93 -38q-54 0 -94 38q-38 40 -38 94zM132 577v-354q0 -28 20 -47.5t48 -19.5t47.5 19.5t19.5 47.5v354q0 28 -19.5 47.5t-47.5 19.5t-48 -19.5t-20 -47.5zM317 825l-167 -51
l-16 47l165 59z" />
    <glyph glyph-name="ocircumflex" unicode="&#xf4;" 
d="M215 906l94 -86l-38 -43l-71 68l-71 -68l-38 43l94 86h30zM68 227v346q0 55 38 93q39 39 94 39q56 0 93 -39q39 -38 39 -93v-346q0 -55 -39 -94q-38 -38 -93 -38q-54 0 -94 38q-38 40 -38 94zM132 577v-354q0 -28 20 -47.5t48 -19.5t47.5 19.5t19.5 47.5v354
q0 28 -19.5 47.5t-47.5 19.5t-48 -19.5t-20 -47.5z" />
    <glyph glyph-name="otilde" unicode="&#xf5;" 
d="M68 227v346q0 55 38 93q39 39 94 39q56 0 93 -39q39 -38 39 -93v-346q0 -55 -39 -94q-38 -38 -93 -38q-54 0 -94 38q-38 40 -38 94zM132 577v-354q0 -28 20 -47.5t48 -19.5t47.5 19.5t19.5 47.5v354q0 28 -19.5 47.5t-47.5 19.5t-48 -19.5t-20 -47.5zM97 795l-7 -4
l-22 45l7 4q37 22 82 22q17 0 45 -12t45 -12q14 0 28 3.5t21 6.5t7 4l6 3l23 -46l-7 -3q-37 -22 -82 -22q-17 0 -46 12q-28 12 -44 12q-14 0 -28 -3t-21 -6t-7 -4z" />
    <glyph glyph-name="odieresis" unicode="&#xf6;" 
d="M68 227v346q0 55 38 93q39 39 94 39q56 0 93 -39q39 -38 39 -93v-346q0 -55 -39 -94q-38 -38 -93 -38q-54 0 -94 38q-38 40 -38 94zM132 577v-354q0 -28 20 -47.5t48 -19.5t47.5 19.5t19.5 47.5v354q0 28 -19.5 47.5t-47.5 19.5t-48 -19.5t-20 -47.5zM101 801
q-23 23 1 47t47 1t-1 -47t-47 -1zM251 801q-23 23 1 47t47 1t-1 -47t-47 -1z" />
    <glyph glyph-name="divide" unicode="&#xf7;" horiz-adv-x="450" 
d="M198 107q-11 11 -11 27t11 26q11 11 27 11t27 -11q11 -10 11 -26t-11 -27t-27 -11t-27 11zM198 542q-11 11 -11 27t11 26q11 11 27 11t27 -11q11 -10 11 -26t-11 -27t-27 -11t-27 11zM425 319h-400v62h400v-62z" />
    <glyph glyph-name="oslash" unicode="&#xf8;" 
d="M68 227v346q0 55 38 93q39 39 94 39q41 0 73 -22l10 28l53 -22l-20 -54q16 -28 16 -62v-346q0 -55 -39 -94q-38 -38 -93 -38q-41 0 -73 22l-10 -28l-53 22l19 53q-15 28 -15 63zM132 577v-280l118 324q-20 23 -50 23q-28 0 -48 -19.5t-20 -47.5zM200 156q28 0 47.5 19.5
t19.5 47.5v277l-118 -322q22 -22 51 -22z" />
    <glyph glyph-name="ugrave" unicode="&#xf9;" 
d="M132 700v-477q0 -28 20 -47.5t48 -19.5t47.5 19.5t19.5 47.5v477h65v-473q0 -55 -39 -94q-38 -38 -93 -38q-54 0 -94 38q-38 40 -38 94v473h64zM101 880l165 -59l-16 -47l-167 51z" />
    <glyph glyph-name="uacute" unicode="&#xfa;" 
d="M132 700v-477q0 -28 20 -47.5t48 -19.5t47.5 19.5t19.5 47.5v477h65v-473q0 -55 -39 -94q-38 -38 -93 -38q-54 0 -94 38q-38 40 -38 94v473h64zM317 825l-167 -51l-16 47l165 59z" />
    <glyph glyph-name="ucircumflex" unicode="&#xfb;" 
d="M215 906l94 -86l-38 -43l-71 68l-71 -68l-38 43l94 86h30zM132 700v-477q0 -28 20 -47.5t48 -19.5t47.5 19.5t19.5 47.5v477h65v-473q0 -55 -39 -94q-38 -38 -93 -38q-54 0 -94 38q-38 40 -38 94v473h64z" />
    <glyph glyph-name="udieresis" unicode="&#xfc;" 
d="M132 700v-477q0 -28 20 -47.5t48 -19.5t47.5 19.5t19.5 47.5v477h65v-473q0 -55 -39 -94q-38 -38 -93 -38q-54 0 -94 38q-38 40 -38 94v473h64zM101 801q-23 23 1 47t47 1t-1 -47t-47 -1zM251 801q-23 23 1 47t47 1t-1 -47t-47 -1z" />
    <glyph glyph-name="yacute" unicode="&#xfd;" horiz-adv-x="384" 
d="M224 100h-65v189l-110 411h62l81 -307l81 307h62l-111 -411v-189zM322 825l-167 -51l-16 47l165 59z" />
    <glyph glyph-name="thorn" unicode="&#xfe;" 
d="M132 100h-64v600h64v-90h68q56 0 93 -39q39 -39 39 -94v-154q0 -55 -39 -94q-37 -39 -93 -39h-68v-90zM200 549h-68v-298h68q28 0 47.5 20t19.5 48v162q0 28 -19.5 48t-47.5 20z" />
    <glyph glyph-name="ydieresis" unicode="&#xff;" horiz-adv-x="384" 
d="M224 100h-65v189l-110 411h62l81 -307l81 307h62l-111 -411v-189zM243 801q-23 23 1 47t47 1t-1 -47t-47 -1zM93 801q-23 23 1 47t47 1t-1 -47t-47 -1z" />
    <glyph glyph-name="Amacron" unicode="&#x100;" horiz-adv-x="503" 
d="M218 800h65l172 -800h-65l-30 142h-217l-30 -142h-66zM347 204l-96 452l-95 -452h191zM380 896h-258v54h258v-54z" />
    <glyph glyph-name="amacron" unicode="&#x101;" horiz-adv-x="391" 
d="M163 700h65l115 -600h-61l-23 122h-128l-23 -122h-61zM247 284l-52 273l-52 -273h104zM309 796h-228v54h228v-54z" />
    <glyph glyph-name="Abreve" unicode="&#x102;" horiz-adv-x="503" 
d="M218 800h65l172 -800h-65l-30 142h-217l-30 -142h-66zM347 204l-96 452l-95 -452h191zM316 975v16h54v-16q0 -47 -30.5 -75.5t-88.5 -28.5t-88.5 28.5t-30.5 75.5v16h54v-16q0 -22 17.5 -36t47.5 -14t47.5 14t17.5 36z" />
    <glyph glyph-name="abreve" unicode="&#x103;" horiz-adv-x="391" 
d="M163 700h65l115 -600h-61l-23 122h-128l-23 -122h-61zM260 875v16h54v-16q0 -47 -30.5 -75.5t-88.5 -28.5t-88.5 28.5t-30.5 75.5v16h54v-16q0 -22 17.5 -36t47.5 -14t47.5 14t17.5 36zM247 284l-52 273l-52 -273h104z" />
    <glyph glyph-name="Aogonek" unicode="&#x104;" horiz-adv-x="512" 
d="M218 800h65l172 -800q-64 -61 -64 -93q0 -26 25 -26q16 0 31 15l5 5l30 -18l-8 -12q-7 -9 -24.5 -20t-33.5 -11q-78 0 -78 71q0 45 50 95l-28 136h-217l-30 -142h-66zM347 204l-96 452l-95 -452h191z" />
    <glyph glyph-name="aogonek" unicode="&#x105;" horiz-adv-x="391" 
d="M163 700h65l115 -600h-61l-23 122h-128l-23 -122h-61zM247 284l-52 273l-52 -273h104z" />
    <glyph glyph-name="Cacute" unicode="&#x106;" horiz-adv-x="500" 
d="M132 627v-454q0 -49 34.5 -83t83.5 -34t83 34t34 83v41h65v-37q0 -76 -53 -129t-129 -53t-129 53t-53 129v446q0 76 53 129t129 53t129 -53t53 -129v-37h-65v41q0 48 -34 82q-35 35 -83 35q-49 0 -84 -35q-34 -34 -34 -82zM367 925l-167 -51l-16 47l165 59z" />
    <glyph glyph-name="cacute" unicode="&#x107;" 
d="M132 577v-354q0 -28 20 -47.5t48 -19.5t47.5 19.5t19.5 47.5v56h65v-52q0 -55 -39 -94q-38 -38 -93 -38q-54 0 -94 38q-38 40 -38 94v346q0 55 38 93q39 39 94 39q56 0 93 -39q39 -38 39 -93v-52h-65v56q0 28 -19.5 47.5t-47.5 19.5t-48 -19.5t-20 -47.5zM317 825
l-167 -51l-16 47l165 59z" />
    <glyph glyph-name="Ccircumflex" unicode="&#x108;" horiz-adv-x="500" 
d="M132 627v-454q0 -49 34.5 -83t83.5 -34t83 34t34 83v41h65v-37q0 -76 -53 -129t-129 -53t-129 53t-53 129v446q0 76 53 129t129 53t129 -53t53 -129v-37h-65v41q0 48 -34 82q-35 35 -83 35q-49 0 -84 -35q-34 -34 -34 -82zM265 1006l94 -86l-38 -43l-71 68l-71 -68
l-38 43l94 86h30z" />
    <glyph glyph-name="ccircumflex" unicode="&#x109;" 
d="M132 577v-354q0 -28 20 -47.5t48 -19.5t47.5 19.5t19.5 47.5v56h65v-52q0 -55 -39 -94q-38 -38 -93 -38q-54 0 -94 38q-38 40 -38 94v346q0 55 38 93q39 39 94 39q56 0 93 -39q39 -38 39 -93v-52h-65v56q0 28 -19.5 47.5t-47.5 19.5t-48 -19.5t-20 -47.5zM215 906l94 -86
l-38 -43l-71 68l-71 -68l-38 43l94 86h30z" />
    <glyph glyph-name="Cdotaccent" unicode="&#x10a;" horiz-adv-x="500" 
d="M132 627v-454q0 -49 34.5 -83t83.5 -34t83 34t34 83v41h65v-37q0 -76 -53 -129t-129 -53t-129 53t-53 129v446q0 76 53 129t129 53t129 -53t53 -129v-37h-65v41q0 48 -34 82q-35 35 -83 35q-49 0 -84 -35q-34 -34 -34 -82zM223 898q-17 16 -9.5 37t26.5 26.5t37 -9.5
q17 -16 9.5 -37t-26.5 -26.5t-37 9.5z" />
    <glyph glyph-name="cdotaccent" unicode="&#x10b;" 
d="M132 577v-354q0 -28 20 -47.5t48 -19.5t47.5 19.5t19.5 47.5v56h65v-52q0 -55 -39 -94q-38 -38 -93 -38q-54 0 -94 38q-38 40 -38 94v346q0 55 38 93q39 39 94 39q56 0 93 -39q39 -38 39 -93v-52h-65v56q0 28 -19.5 47.5t-47.5 19.5t-48 -19.5t-20 -47.5zM173 798
q-17 16 -9.5 37t26.5 26.5t37 -9.5q17 -16 9.5 -37t-26.5 -26.5t-37 9.5z" />
    <glyph glyph-name="Ccaron" unicode="&#x10c;" horiz-adv-x="500" 
d="M132 627v-454q-1 -48 34 -83q34 -34 84 -34q49 0 83 34t34 83v41h65v-37q0 -76 -53 -129t-129 -53t-129 53t-53 129v446q0 76 53 129t129 53t129 -53t53 -129v-37h-65v41q0 48 -34 82q-35 35 -83 35q-49 0 -84 -35q-34 -34 -34 -82zM235 877l-94 87l38 42l71 -67l71 67
l38 -42l-94 -87h-30z" />
    <glyph glyph-name="ccaron" unicode="&#x10d;" 
d="M132 577v-354q0 -28 20 -47.5t48 -19.5t47.5 19.5t19.5 47.5v56h65v-52q0 -55 -39 -94q-38 -38 -93 -38q-54 0 -94 38q-38 40 -38 94v346q0 55 38 93q39 39 94 39q56 0 93 -39q39 -38 39 -93v-52h-65v56q0 28 -19.5 47.5t-47.5 19.5t-48 -19.5t-20 -47.5zM185 777l-94 87
l38 42l71 -67l71 67l38 -42l-94 -87h-30z" />
    <glyph glyph-name="Dcaron" unicode="&#x10e;" horiz-adv-x="500" 
d="M220 877l-94 87l38 42l71 -67l71 67l38 -42l-94 -87h-30zM250 0h-182v800h182q76 0 129 -54q53 -53 53 -129v-434q0 -75 -53 -130q-53 -53 -129 -53zM250 739h-118v-678h118q49 0 83 34.5t34 83.5v442q0 49 -34 83.5t-83 34.5z" />
    <glyph glyph-name="dcaron" unicode="&#x10f;" 
d="M173 777l-94 87l38 42l71 -67l71 67l38 -42l-94 -87h-30zM200 100h-132v600h132q56 0 93 -39q39 -39 39 -94v-334q0 -55 -39 -94q-37 -39 -93 -39zM200 639h-68v-478h68q28 0 47.5 20t19.5 48v342q0 28 -19.5 48t-47.5 20z" />
    <glyph glyph-name="Dcroat" unicode="&#x110;" horiz-adv-x="500" 
d="M68 244h-78v62h78v494h182q76 0 129 -54q53 -53 53 -129v-434q0 -75 -53 -130q-53 -53 -129 -53h-182v244zM250 739h-118v-433h78v-62h-78v-183h118q49 0 83 34.5t34 83.5v442q0 49 -34 83.5t-83 34.5z" />
    <glyph glyph-name="dslash" unicode="&#x111;" horiz-adv-x="405" 
d="M72 289h-67v62h67v349h133q55 0 93 -39q39 -39 39 -94v-334q0 -55 -39 -94q-38 -39 -93 -39h-133v189zM205 639h-68v-288h68v-62h-68v-128h68q28 0 47.5 20t19.5 48v342q0 28 -19.5 48t-47.5 20z" />
    <glyph glyph-name="Emacron" unicode="&#x112;" horiz-adv-x="420" 
d="M366 0h-298v800h298v-61h-234v-433h184v-62h-184v-183h234v-61zM342 896h-258v54h258v-54z" />
    <glyph glyph-name="emacron" unicode="&#x113;" horiz-adv-x="354" 
d="M300 100h-232v600h232v-61h-168v-288h143v-62h-143v-128h168v-61zM297 796h-228v54h228v-54z" />
    <glyph glyph-name="Ebreve" unicode="&#x114;" horiz-adv-x="420" 
d="M216 871v54q30 0 47.5 14t17.5 36v16h54v-16q0 -47 -30.5 -75.5t-88.5 -28.5zM216 925v-54q-58 0 -88.5 28.5t-30.5 75.5v16h54v-16q0 -22 17.5 -36t47.5 -14zM366 0h-298v800h298v-61h-234v-433h184v-62h-184v-183h234v-61z" />
    <glyph glyph-name="ebreve" unicode="&#x115;" horiz-adv-x="354" 
d="M184 771v54q30 0 47.5 14t17.5 36v16h54v-16q0 -47 -30.5 -75.5t-88.5 -28.5zM184 825v-54q-58 0 -88.5 28.5t-30.5 75.5v16h54v-16q0 -22 17.5 -36t47.5 -14zM300 100h-232v600h232v-61h-168v-288h143v-62h-143v-128h168v-61z" />
    <glyph glyph-name="Edotaccent" unicode="&#x116;" horiz-adv-x="420" 
d="M366 0h-298v800h298v-61h-234v-433h184v-62h-184v-183h234v-61zM192 898q-17 16 -9.5 37t26.5 26.5t37 -9.5q17 -16 9.5 -37t-26.5 -26.5t-37 9.5z" />
    <glyph glyph-name="edotaccent" unicode="&#x117;" horiz-adv-x="354" 
d="M300 100h-232v600h232v-61h-168v-288h143v-62h-143v-128h168v-61zM159 798q-17 16 -9.5 37t26.5 26.5t37 -9.5q17 -16 9.5 -37t-26.5 -26.5t-37 9.5z" />
    <glyph glyph-name="Eogonek" unicode="&#x118;" horiz-adv-x="420" 
d="M292 0h-224v800h298v-61h-234v-433h184v-62h-184v-183h234l-1 -61q-64 -61 -64 -93q0 -26 25 -26q16 0 31 15l5 5l30 -18l-8 -12q-7 -9 -24.5 -20t-33.5 -11q-78 0 -78 71q0 42 44 89z" />
    <glyph glyph-name="eogonek" unicode="&#x119;" horiz-adv-x="354" 
d="M227 100h-159v600h232v-61h-168v-288h143v-62h-143v-128h168v-61q-64 -61 -64 -93q0 -26 25 -26q16 0 31 15l5 5l30 -18l-8 -12q-7 -9 -24.5 -20t-33.5 -11q-78 0 -78 71q0 39 44 89z" />
    <glyph glyph-name="Ecaron" unicode="&#x11a;" horiz-adv-x="420" 
d="M204 877l-94 87l38 42l71 -67l71 67l38 -42l-94 -87h-30zM366 0h-298v800h298v-61h-234v-433h184v-62h-184v-183h234v-61z" />
    <glyph glyph-name="ecaron" unicode="&#x11b;" horiz-adv-x="354" 
d="M171 777l-94 87l38 42l71 -67l71 67l38 -42l-94 -87h-30zM300 100h-232v600h232v-61h-168v-288h143v-62h-143v-128h168v-61z" />
    <glyph glyph-name="Gcircumflex" unicode="&#x11c;" horiz-adv-x="500" 
d="M132 627v-454q0 -49 34.5 -83t83.5 -34t83 34t34 83v71h-117v62h182v-129q0 -76 -53 -129t-129 -53t-129 53t-53 129v446q0 76 53 129t129 53t129 -53t53 -129v-37h-65v41q0 48 -34 82q-35 35 -83 35q-49 0 -84 -35q-34 -34 -34 -82zM265 1006l94 -86l-38 -43l-71 68
l-71 -68l-38 43l94 86h30z" />
    <glyph glyph-name="gcircumflex" unicode="&#x11d;" 
d="M132 577v-354q0 -28 20 -47.5t48 -19.5t47.5 19.5t19.5 47.5v68h-67v62h132v-126q0 -55 -39 -94q-38 -38 -93 -38q-54 0 -94 38q-38 40 -38 94v346q0 55 38 93q39 39 94 39q56 0 93 -39q39 -38 39 -93v-52h-65v56q0 28 -19.5 47.5t-47.5 19.5t-48 -19.5t-20 -47.5z
M215 906l94 -86l-38 -43l-71 68l-71 -68l-38 43l94 86h30z" />
    <glyph glyph-name="Gbreve" unicode="&#x11e;" horiz-adv-x="500" 
d="M132 627v-454q0 -49 34.5 -83t83.5 -34t83 34t34 83v71h-117v62h182v-129q0 -76 -53 -129t-129 -53t-129 53t-53 129v446q0 76 53 129t129 53t129 -53t53 -129v-37h-65v41q0 48 -34 82q-35 35 -83 35q-49 0 -84 -35q-34 -34 -34 -82zM315 975v16h54v-16
q0 -47 -30.5 -75.5t-88.5 -28.5t-88.5 28.5t-30.5 75.5v16h54v-16q0 -22 17.5 -36t47.5 -14t47.5 14t17.5 36z" />
    <glyph glyph-name="gbreve" unicode="&#x11f;" 
d="M132 577v-354q0 -28 20 -47.5t48 -19.5t47.5 19.5t19.5 47.5v68h-67v62h132v-126q0 -55 -39 -94q-38 -38 -93 -38q-54 0 -94 38q-38 40 -38 94v346q0 55 38 93q39 39 94 39q56 0 93 -39q39 -38 39 -93v-52h-65v56q0 28 -19.5 47.5t-47.5 19.5t-48 -19.5t-20 -47.5z
M200 771v54q30 0 47.5 14t17.5 36v16h54v-16q0 -47 -30.5 -75.5t-88.5 -28.5zM200 825v-54q-58 0 -88.5 28.5t-30.5 75.5v16h54v-16q0 -22 17.5 -36t47.5 -14z" />
    <glyph glyph-name="Gdotaccent" unicode="&#x120;" horiz-adv-x="500" 
d="M132 627v-454q0 -49 34.5 -83t83.5 -34t83 34t34 83v71h-117v62h182v-129q0 -76 -53 -129t-129 -53t-129 53t-53 129v446q0 76 53 129t129 53t129 -53t53 -129v-37h-65v41q0 48 -34 82q-35 35 -83 35q-49 0 -84 -35q-34 -34 -34 -82zM223 898q-17 16 -9.5 37t26.5 26.5
t37 -9.5q17 -16 9.5 -37t-26.5 -26.5t-37 9.5z" />
    <glyph glyph-name="gdotaccent" unicode="&#x121;" 
d="M132 577v-354q0 -28 20 -47.5t48 -19.5t47.5 19.5t19.5 47.5v68h-67v62h132v-126q0 -55 -39 -94q-38 -38 -93 -38q-54 0 -94 38q-38 40 -38 94v346q0 55 38 93q39 39 94 39q56 0 93 -39q39 -38 39 -93v-52h-65v56q0 28 -19.5 47.5t-47.5 19.5t-48 -19.5t-20 -47.5z
M173 798q-17 16 -9.5 37t26.5 26.5t37 -9.5q17 -16 9.5 -37t-26.5 -26.5t-37 9.5z" />
    <glyph glyph-name="Gcommaaccent" unicode="&#x122;" horiz-adv-x="500" 
d="M132 627v-454q0 -49 34.5 -83t83.5 -34t83 34t34 83v71h-117v62h182v-129q0 -76 -53 -129t-129 -53t-129 53t-53 129v446q0 76 53 129t129 53t129 -53t53 -129v-37h-65v41q0 48 -34 82q-35 35 -83 35q-49 0 -84 -35q-34 -34 -34 -82zM218 -207v157h64v-57q0 -24 -14 -83
l-5 -17h-45z" />
    <glyph glyph-name="gcommaaccent" unicode="&#x123;" 
d="M132 577v-354q0 -28 20 -47.5t48 -19.5t47.5 19.5t19.5 47.5v68h-67v62h132v-126q0 -55 -39 -94q-38 -38 -93 -38q-54 0 -94 38q-38 40 -38 94v346q0 55 38 93q39 39 94 39q56 0 93 -39q39 -38 39 -93v-52h-65v56q0 28 -19.5 47.5t-47.5 19.5t-48 -19.5t-20 -47.5z
M168 -107v157h64v-57q0 -24 -14 -83l-5 -17h-45z" />
    <glyph glyph-name="Hcircumflex" unicode="&#x124;" horiz-adv-x="500" 
d="M265 1006l94 -86l-38 -43l-71 68l-71 -68l-38 43l94 86h30zM432 0h-65v244h-235v-244h-64v800h64v-494h235v494h65v-800z" />
    <glyph glyph-name="hcircumflex" unicode="&#x125;" 
d="M215 906l94 -86l-38 -43l-71 68l-71 -68l-38 43l94 86h30zM332 100h-65v189h-135v-189h-64v600h64v-349h135v349h65v-600z" />
    <glyph glyph-name="Hbar" unicode="&#x126;" horiz-adv-x="500" 
d="M68 502h-47v54h47v244h64v-244h235v244h65v-244h47v-54h-47v-502h-65v244h-235v-244h-64v502zM367 502h-235v-196h235v196z" />
    <glyph glyph-name="hbar" unicode="&#x127;" 
d="M68 557h-38v54h38v89h64v-89h135v89h65v-89h38v-54h-38v-457h-65v189h-135v-189h-64v457zM267 557h-135v-206h135v206z" />
    <glyph glyph-name="Itilde" unicode="&#x128;" horiz-adv-x="214" 
d="M4 895l-7 -4l-22 45l7 4q37 22 82 22q16 0 45 -12t45 -12q14 0 28 3.5t21 6.5t7 4l6 3l23 -46l-7 -3q-37 -22 -82 -22q-18 0 -46 12t-44 12q-14 0 -28 -3t-21 -6t-7 -4zM139 0h-65v800h65v-800z" />
    <glyph glyph-name="itilde" unicode="&#x129;" horiz-adv-x="214" 
d="M4 795l-7 -4l-22 45l7 4q37 22 82 22q16 0 45 -12t45 -12q14 0 28 3.5t21 6.5t7 4l6 3l23 -46l-7 -3q-37 -22 -82 -22q-18 0 -46 12t-44 12q-14 0 -28 -3t-21 -6t-7 -4zM139 100h-65v600h65v-600z" />
    <glyph glyph-name="Imacron" unicode="&#x12a;" horiz-adv-x="214" 
d="M139 0h-65v800h65v-800zM221 896h-228v54h228v-54z" />
    <glyph glyph-name="imacron" unicode="&#x12b;" horiz-adv-x="214" 
d="M139 100h-65v600h65v-600zM221 796h-228v54h228v-54z" />
    <glyph glyph-name="Ibreve" unicode="&#x12c;" horiz-adv-x="214" 
d="M107 871v54q30 0 47.5 14t17.5 36v16h54v-16q0 -47 -30.5 -75.5t-88.5 -28.5zM107 925v-54q-58 0 -88.5 28.5t-30.5 75.5v16h54v-16q0 -22 17.5 -36t47.5 -14zM139 0h-65v800h65v-800z" />
    <glyph glyph-name="ibreve" unicode="&#x12d;" horiz-adv-x="214" 
d="M107 771v54q30 0 47.5 14t17.5 36v16h54v-16q0 -47 -30.5 -75.5t-88.5 -28.5zM107 825v-54q-58 0 -88.5 28.5t-30.5 75.5v16h54v-16q0 -22 17.5 -36t47.5 -14zM139 100h-65v600h65v-600z" />
    <glyph glyph-name="Iogonek" unicode="&#x12e;" horiz-adv-x="214" 
d="M74 800h65v-800q-64 -61 -64 -93q0 -26 25 -26q16 0 31 15l5 5l30 -18l-8 -12q-7 -9 -24.5 -20t-33.5 -11q-78 0 -78 71q0 47 52 96v793z" />
    <glyph glyph-name="iogonek" unicode="&#x12f;" horiz-adv-x="214" 
d="M74 700h65v-600q-64 -61 -64 -93q0 -26 25 -26q16 0 31 15l5 5l30 -18l-8 -12q-7 -9 -24.5 -20t-33.5 -11q-78 0 -78 71q0 44 52 96v593z" />
    <glyph glyph-name="Idot" unicode="&#x130;" horiz-adv-x="214" 
d="M80 898q-17 16 -9.5 37t26.5 26.5t37 -9.5q17 -16 9.5 -37t-26.5 -26.5t-37 9.5zM139 0h-65v800h65v-800z" />
    <glyph glyph-name="dotlessi" unicode="&#x131;" horiz-adv-x="214" 
d="M139 100h-65v600h65v-600z" />
    <glyph glyph-name="Jcircumflex" unicode="&#x134;" horiz-adv-x="200" 
d="M115 1006l94 -86l-38 -43l-71 68l-71 -68l-38 43l94 86h30zM0 -250h-51v61h51q28 0 48 20t20 48v921h64v-917q0 -55 -39 -94q-37 -39 -93 -39z" />
    <glyph glyph-name="jcircumflex" unicode="&#x135;" horiz-adv-x="200" 
d="M115 906l94 -86l-38 -43l-71 68l-71 -68l-38 43l94 86h30zM0 -55h-26v61h26q28 0 48 19.5t20 47.5v627h64v-623q0 -55 -39 -93q-37 -39 -93 -39z" />
    <glyph glyph-name="Kcommaaccent" unicode="&#x136;" horiz-adv-x="500" 
d="M132 0h-64v800h64v-421l228 421h74l-177 -326l181 -474h-70l-152 398l-84 -154v-244zM213 -207v157h64v-57q0 -41 -14 -83l-5 -17h-45z" />
    <glyph glyph-name="kcommaaccent" unicode="&#x137;" 
d="M132 100h-64v600h64v-271l134 271h72l-121 -244l121 -356h-69l-93 274l-44 -89v-185zM168 -107v157h64v-57q0 -24 -14 -83l-5 -17h-45z" />
    <glyph glyph-name="kgreenlandic" unicode="&#x138;" 
d="M132 100h-64v600h64v-271l134 271h72l-121 -244l121 -356h-69l-93 274l-44 -89v-185z" />
    <glyph glyph-name="Lacute" unicode="&#x139;" horiz-adv-x="418" 
d="M371 0h-303v800h64v-739h239v-61zM258 925l-167 -51l-16 47l165 59z" />
    <glyph glyph-name="lacute" unicode="&#x13a;" horiz-adv-x="318" 
d="M275 100h-207v600h64v-539h143v-61zM258 825l-167 -51l-16 47l165 59z" />
    <glyph glyph-name="Lcommaaccent" unicode="&#x13b;" horiz-adv-x="418" 
d="M371 0h-303v800h64v-739h239v-61zM199 -207v157h64v-57q0 -41 -14 -83l-5 -17h-45z" />
    <glyph glyph-name="lcommaaccent" unicode="&#x13c;" horiz-adv-x="318" 
d="M275 100h-207v600h64v-539h143v-61zM140 -107v157h64v-57q0 -24 -14 -83l-5 -17h-45z" />
    <glyph glyph-name="Lcaron" unicode="&#x13d;" horiz-adv-x="418" 
d="M85 877l-94 87l38 42l71 -67l71 67l38 -42l-94 -87h-30zM371 0h-303v800h64v-739h239v-61z" />
    <glyph glyph-name="lcaron" unicode="&#x13e;" horiz-adv-x="318" 
d="M85 777l-94 87l38 42l71 -67l71 67l38 -42l-94 -87h-30zM275 100h-207v600h64v-539h143v-61z" />
    <glyph glyph-name="Ldot" unicode="&#x13f;" horiz-adv-x="418" 
d="M288 273q-11 11 -11 27t11 26q11 11 27 11t27 -11q11 -10 11 -26t-11 -27t-27 -11t-27 11zM371 0h-303v800h64v-739h239v-61z" />
    <glyph glyph-name="ldot" unicode="&#x140;" horiz-adv-x="318" 
d="M275 100h-207v600h64v-539h143v-61zM239 373q-17 16 -9.5 37t26.5 26.5t37 -9.5q17 -16 9.5 -37t-26.5 -26.5t-37 9.5z" />
    <glyph glyph-name="Lslash" unicode="&#x141;" horiz-adv-x="418" 
d="M68 229l-82 -33l-23 57l105 42v505h64v-479l82 33l23 -57l-105 -42v-194h239v-61h-303v229z" />
    <glyph glyph-name="lslash" unicode="&#x142;" horiz-adv-x="318" 
d="M68 273l-58 -23l-23 57l81 33v360h64v-334l58 24l23 -57l-81 -33v-139h143v-61h-207v173z" />
    <glyph glyph-name="Nacute" unicode="&#x143;" horiz-adv-x="525" 
d="M457 0h-65l-260 629v-629h-64v800h64l260 -628v628h65v-800zM367 925l-167 -51l-16 47l165 59z" />
    <glyph glyph-name="nacute" unicode="&#x144;" horiz-adv-x="425" 
d="M357 100h-65l-160 429v-429h-64v600h64l160 -428v428h65v-600zM317 825l-167 -51l-16 47l165 59z" />
    <glyph glyph-name="Ncommaaccent" unicode="&#x145;" horiz-adv-x="525" 
d="M457 0h-65l-260 629v-629h-64v800h64l260 -628v628h65v-800zM228 -207v157h64v-57q0 -24 -14 -83l-5 -17h-45z" />
    <glyph glyph-name="ncommaaccent" unicode="&#x146;" horiz-adv-x="425" 
d="M357 100h-65l-160 429v-429h-64v600h64l160 -428v428h65v-600zM178 -107v157h64v-57q0 -24 -14 -83l-5 -17h-45z" />
    <glyph glyph-name="Ncaron" unicode="&#x147;" horiz-adv-x="525" 
d="M247 877l-94 87l38 42l71 -67l71 67l38 -42l-94 -87h-30zM457 0h-65l-260 629v-629h-64v800h64l260 -628v628h65v-800z" />
    <glyph glyph-name="ncaron" unicode="&#x148;" horiz-adv-x="425" 
d="M197 777l-94 87l38 42l71 -67l71 67l38 -42l-94 -87h-30zM357 100h-65l-160 429v-429h-64v600h64l160 -428v428h65v-600z" />
    <glyph glyph-name="Eng" unicode="&#x14a;" horiz-adv-x="525" 
d="M393 -121l-1 121l-260 629v-629h-64v800h64l261 -630v630h64v-917q0 -55 -39 -94q-38 -39 -93 -39h-51v61h51q28 0 48 20t20 48z" />
    <glyph glyph-name="eng" unicode="&#x14b;" horiz-adv-x="425" 
d="M293 73l-1 27l-160 429v-429h-64v600h64l161 -431v431h64v-623q0 -55 -39 -93q-38 -39 -93 -39h-26v61h26q27 0 48 20t20 47z" />
    <glyph glyph-name="Omacron" unicode="&#x14c;" horiz-adv-x="500" 
d="M68 177v446q0 76 53 129t129 53t129 -53t53 -129v-446q0 -76 -53 -129t-129 -53t-129 53t-53 129zM132 627v-454q0 -49 34.5 -83t83.5 -34t83 34t34 83v454q0 48 -34 82q-35 35 -83 35q-49 0 -84 -35q-34 -34 -34 -82zM379 896h-258v54h258v-54z" />
    <glyph glyph-name="omacron" unicode="&#x14d;" 
d="M68 227v346q0 55 38 93q39 39 94 39q56 0 93 -39q39 -38 39 -93v-346q0 -55 -39 -94q-38 -38 -93 -38q-54 0 -94 38q-38 40 -38 94zM132 577v-354q0 -28 20 -47.5t48 -19.5t47.5 19.5t19.5 47.5v354q0 28 -19.5 47.5t-47.5 19.5t-48 -19.5t-20 -47.5zM314 796h-228v54
h228v-54z" />
    <glyph glyph-name="Obreve" unicode="&#x14e;" horiz-adv-x="500" 
d="M68 177v446q0 76 53 129t129 53t129 -53t53 -129v-446q0 -76 -53 -129t-129 -53t-129 53t-53 129zM132 627v-454q0 -49 34.5 -83t83.5 -34t83 34t34 83v454q0 48 -34 82q-35 35 -83 35q-49 0 -84 -35q-34 -34 -34 -82zM250 871v54q30 0 47.5 14t17.5 36v16h54v-16
q0 -47 -30.5 -75.5t-88.5 -28.5zM250 925v-54q-58 0 -88.5 28.5t-30.5 75.5v16h54v-16q0 -22 17.5 -36t47.5 -14z" />
    <glyph glyph-name="obreve" unicode="&#x14f;" 
d="M68 227v346q0 55 38 93q39 39 94 39q56 0 93 -39q39 -38 39 -93v-346q0 -55 -39 -94q-38 -38 -93 -38q-54 0 -94 38q-38 40 -38 94zM132 577v-354q0 -28 20 -47.5t48 -19.5t47.5 19.5t19.5 47.5v354q0 28 -19.5 47.5t-47.5 19.5t-48 -19.5t-20 -47.5zM200 771v54
q30 0 47.5 14t17.5 36v16h54v-16q0 -47 -30.5 -75.5t-88.5 -28.5zM200 825v-54q-58 0 -88.5 28.5t-30.5 75.5v16h54v-16q0 -22 17.5 -36t47.5 -14z" />
    <glyph glyph-name="Ohungarumlaut" unicode="&#x150;" horiz-adv-x="500" 
d="M68 177v446q0 76 53 129t129 53t129 -53t53 -129v-446q0 -76 -53 -129t-129 -53t-129 53t-53 129zM132 627v-454q0 -49 34.5 -83t83.5 -34t83 34t34 83v454q0 48 -34 82q-35 35 -83 35q-49 0 -84 -35q-34 -34 -34 -82zM257 936l-76 -61l-32 38l73 66zM402 936l-76 -61
l-33 38l73 66z" />
    <glyph glyph-name="ohungarumlaut" unicode="&#x151;" 
d="M68 227v346q0 55 38 93q39 39 94 39q56 0 93 -39q39 -38 39 -93v-346q0 -55 -39 -94q-38 -38 -93 -38q-54 0 -94 38q-38 40 -38 94zM132 577v-354q0 -28 20 -47.5t48 -19.5t47.5 19.5t19.5 47.5v354q0 28 -19.5 47.5t-47.5 19.5t-48 -19.5t-20 -47.5zM202 836l-76 -61
l-32 38l73 66zM347 836l-76 -61l-33 38l73 66z" />
    <glyph glyph-name="OE" unicode="&#x152;" horiz-adv-x="720" 
d="M666 0h-298v38q-50 -43 -118 -43q-76 0 -129 53t-53 129v446q0 76 53 129t129 53q68 0 118 -43v38h298v-61h-234v-433h184v-62h-184v-183h234v-61zM132 627v-454q0 -49 34.5 -83t83.5 -34t83 34t34 83v454q0 48 -34 82q-35 35 -83 35q-49 0 -84 -35q-34 -34 -34 -82z" />
    <glyph glyph-name="oe" unicode="&#x153;" horiz-adv-x="554" 
d="M500 100h-232v14q-31 -19 -68 -19q-54 0 -94 38q-38 40 -38 94v346q0 55 38 93q39 39 94 39q37 0 68 -19v14h232v-61h-168v-288h143v-62h-143v-128h168v-61zM132 577v-354q0 -28 20 -47.5t48 -19.5t47.5 19.5t19.5 47.5v354q0 28 -19.5 47.5t-47.5 19.5t-48 -19.5
t-20 -47.5z" />
    <glyph glyph-name="Racute" unicode="&#x154;" horiz-adv-x="500" 
d="M132 244v-244h-64v800h182q76 0 129 -54q53 -53 53 -129v-190q0 -97 -81 -152q81 -56 81 -152v-123h-65v127q0 47 -33 81q-31 34 -79 36h-123zM250 739h-118v-433h123q47 2 79 35q33 35 33 82v198q0 49 -34 83.5t-83 34.5zM341 925l-167 -51l-16 47l165 59z" />
    <glyph glyph-name="racute" unicode="&#x155;" 
d="M132 100h-64v189v411h132q56 0 93 -39q39 -39 39 -94v-145q0 -62 -48 -102q48 -40 48 -102v-118h-65v122q0 28 -19.5 47.5t-47.5 19.5h-68v-189zM200 639h-68v-288h73q26 2 44 21.5t18 45.5v153q0 28 -19.5 48t-47.5 20zM291 825l-167 -51l-16 47l165 59z" />
    <glyph glyph-name="Rcommaaccent" unicode="&#x156;" horiz-adv-x="500" 
d="M132 244v-244h-64v800h182q76 0 129 -54q53 -53 53 -129v-190q0 -97 -81 -152q81 -56 81 -152v-123h-65v127q0 47 -33 81q-31 34 -79 36h-123zM250 739h-118v-433h118q49 0 83 34t34 83v198q0 49 -34 83.5t-83 34.5zM218 -207v157h64v-57q0 -24 -14 -83l-5 -17h-45z" />
    <glyph glyph-name="rcommaaccent" unicode="&#x157;" 
d="M205 289h-137v411h132q56 0 93 -39q39 -39 39 -94v-145q0 -62 -48 -102q48 -40 48 -102v-118h-65v122q0 26 -18 45.5t-44 21.5zM200 639h-68v-288h73q26 2 44 21.5t18 45.5v153q0 28 -19.5 48t-47.5 20zM132 100h-64v189h64v-189zM168 -107v157h64v-57q0 -24 -14 -83
l-5 -17h-45z" />
    <glyph glyph-name="Rcaron" unicode="&#x158;" horiz-adv-x="500" 
d="M132 244v-244h-64v800h182q76 0 129 -54q53 -53 53 -129v-190q0 -97 -81 -152q81 -56 81 -152v-123h-65v127q0 49 -34 83t-83 34h-118zM250 739h-118v-433h118q49 0 83 34t34 83v198q0 49 -34 83.5t-83 34.5zM210 877l-94 87l38 42l71 -67l71 67l38 -42l-94 -87h-30z" />
    <glyph glyph-name="rcaron" unicode="&#x159;" 
d="M132 100h-64v189v411h132q56 0 93 -39q39 -39 39 -94v-145q0 -62 -48 -102q48 -40 48 -102v-118h-65v122q0 28 -19.5 47.5t-47.5 19.5h-68v-189zM200 639h-68v-288h73q26 2 44 21.5t18 45.5v153q0 28 -19.5 48t-47.5 20zM175 777l-94 87l38 42l71 -67l71 67l38 -42
l-94 -87h-30z" />
    <glyph glyph-name="Sacute" unicode="&#x15a;" horiz-adv-x="490" 
d="M62 177v37h65v-41q0 -49 34 -83t84 -34q49 0 83 34t34 83v4q0 45 -28 76l-210 241q-56 51 -56 129q0 77 51 129q53 53 126 53q74 0 125 -53q52 -52 52 -129v-37h-65v41q0 48 -33 82q-32 35 -79 35t-80 -35q-32 -35 -32 -82v-4q-1 -41 30 -78l210 -240q54 -51 54 -128
q0 -76 -53 -129t-129 -53q-75 0 -130 53q-53 53 -53 129zM367 925l-167 -51l-16 47l165 59z" />
    <glyph glyph-name="sacute" unicode="&#x15b;" horiz-adv-x="390" 
d="M62 227v47h65v-51q0 -28 20 -47.5t48 -19.5t47.5 19.5t19.5 47.5v4q0 19 -9 34l-159 229q-32 35 -32 83q0 55 39 93q39 39 94 39t93 -39q39 -38 39 -93v-47h-65v51q0 28 -19.5 47.5t-47.5 19.5t-48 -19.5t-20 -47.5v-4q0 -21 12 -37l160 -229q28 -34 28 -80
q0 -55 -39 -94q-38 -38 -93 -38q-54 0 -94 38q-39 39 -39 94zM311 825l-167 -51l-16 47l165 59z" />
    <glyph glyph-name="Scircumflex" unicode="&#x15c;" horiz-adv-x="490" 
d="M62 177v37h65v-41q0 -49 34 -83t84 -34q49 0 83 34t34 83v4q0 45 -28 76l-210 241q-56 51 -56 129q0 77 51 129q53 53 126 53q74 0 125 -53q52 -52 52 -129v-37h-65v41q0 48 -33 82q-32 35 -79 35t-80 -35q-32 -35 -32 -82v-4q-1 -41 30 -78l210 -240q54 -51 54 -128
q0 -76 -53 -129t-129 -53q-75 0 -130 53q-53 53 -53 129zM260 1006l94 -86l-38 -43l-71 68l-71 -68l-38 43l94 86h30z" />
    <glyph glyph-name="scircumflex" unicode="&#x15d;" horiz-adv-x="390" 
d="M62 227v47h65v-51q0 -28 20 -47.5t48 -19.5t47.5 19.5t19.5 47.5v4q0 19 -9 34l-159 229q-32 35 -32 83q0 55 39 93q39 39 94 39t93 -39q39 -38 39 -93v-47h-65v51q0 28 -19.5 47.5t-47.5 19.5t-48 -19.5t-20 -47.5v-4q0 -21 12 -37l160 -229q28 -34 28 -80
q0 -55 -39 -94q-38 -38 -93 -38q-54 0 -94 38q-39 39 -39 94zM210 906l94 -86l-38 -43l-71 68l-71 -68l-38 43l94 86h30z" />
    <glyph glyph-name="Scedilla" unicode="&#x15e;" horiz-adv-x="490" 
d="M62 177v37h65v-41q0 -49 34 -83t84 -34q49 0 83 34t34 83v4q0 45 -28 76l-210 241q-56 51 -56 129q0 77 51 129q53 53 126 53q74 0 125 -53q52 -52 52 -129v-37h-65v41q0 48 -33 82q-32 35 -79 35t-80 -35q-32 -35 -32 -82v-4q-1 -41 30 -78l210 -240q54 -51 54 -128
q0 -70 -47 -122t-115 -59l-14 -28h26q26 0 41.5 -19t15.5 -49q0 -34 -27.5 -57.5t-75.5 -23.5q-23 0 -45.5 10t-33.5 22l-9 11l15 25q31 -34 73 -34q23 0 35.5 13.5t12.5 33.5q0 15 -10.5 26t-27.5 11h-54l33 60q-66 9 -113 60q-45 51 -45 120z" />
    <glyph glyph-name="scedilla" unicode="&#x15f;" horiz-adv-x="390" 
d="M62 227v47h65v-51q0 -28 20 -47.5t48 -19.5t47.5 19.5t19.5 47.5v4q0 19 -9 34l-159 229q-32 35 -32 83q0 55 39 93q39 39 94 39t93 -39q39 -38 39 -93v-47h-65v51q0 28 -19.5 47.5t-47.5 19.5t-48 -19.5t-20 -47.5v-4q0 -21 12 -37l160 -229q28 -34 28 -80
q0 -48 -31 -85t-77 -45l-14 -29h26q26 0 41.5 -19t15.5 -49q0 -34 -27.5 -57.5t-75.5 -23.5q-23 0 -45.5 10t-33.5 22l-9 11l15 25q31 -34 73 -34q23 0 35.5 13.5t12.5 33.5q0 15 -10.5 26t-27.5 11h-54l33 59q-48 8 -80 45t-32 86z" />
    <glyph glyph-name="Scaron" unicode="&#x160;" horiz-adv-x="490" 
d="M62 177v37h65v-41q0 -49 34 -83t84 -34q49 0 83 34t34 83v4q0 45 -28 76l-210 241q-56 51 -56 129q0 77 51 129q53 53 126 53q74 0 125 -53q52 -52 52 -129v-37h-65v41q0 48 -33 82q-32 35 -79 35t-80 -35q-32 -35 -32 -82v-4q-1 -41 30 -78l210 -240q54 -51 54 -128
q0 -76 -53 -129t-129 -53q-75 0 -130 53q-53 53 -53 129zM230 877l-94 87l38 42l71 -67l71 67l38 -42l-94 -87h-30z" />
    <glyph glyph-name="scaron" unicode="&#x161;" horiz-adv-x="390" 
d="M62 227v47h65v-51q0 -28 20 -47.5t48 -19.5t47.5 19.5t19.5 47.5v4q0 19 -9 34l-159 229q-32 35 -32 83q0 55 39 93q39 39 94 39t93 -39q39 -38 39 -93v-47h-65v51q0 28 -19.5 47.5t-47.5 19.5t-48 -19.5t-20 -47.5v-4q0 -21 12 -37l160 -229q28 -34 28 -80
q0 -55 -39 -94q-38 -38 -93 -38q-54 0 -94 38q-39 39 -39 94zM180 777l-94 87l38 42l71 -67l71 67l38 -42l-94 -87h-30z" />
    <glyph glyph-name="Tcommaaccent" unicode="&#x162;" horiz-adv-x="406" 
d="M170 739h-137v61h339v-61h-137v-739h-65v739zM170 -207v157h64v-57q0 -24 -14 -83l-5 -17h-45z" />
    <glyph glyph-name="tcommaaccent" unicode="&#x163;" horiz-adv-x="306" 
d="M120 639h-87v61h239v-61h-87v-539h-65v539zM121 -107v157h64v-57q0 -41 -14 -83l-5 -17h-45z" />
    <glyph glyph-name="Tcaron" unicode="&#x164;" horiz-adv-x="406" 
d="M188 877l-94 87l38 42l71 -67l71 67l38 -42l-94 -87h-30zM170 739h-137v61h339v-61h-137v-739h-65v739z" />
    <glyph glyph-name="tcaron" unicode="&#x165;" horiz-adv-x="306" 
d="M138 777l-94 87l38 42l71 -67l71 67l38 -42l-94 -87h-30zM120 639h-87v61h239v-61h-87v-539h-65v539z" />
    <glyph glyph-name="Tbar" unicode="&#x166;" horiz-adv-x="406" 
d="M170 739h-137v61h339v-61h-137v-433h97v-54h-97v-252h-65v252h-96v54h96v433z" />
    <glyph glyph-name="tbar" unicode="&#x167;" horiz-adv-x="306" 
d="M120 639h-87v61h239v-61h-87v-288h82v-54h-82v-197h-65v197h-81v54h81v288z" />
    <glyph glyph-name="Utilde" unicode="&#x168;" horiz-adv-x="500" 
d="M147 895l-7 -4l-22 45l7 4q37 22 82 22q17 0 45 -12t45 -12q14 0 28 3.5t21 6.5t7 4l6 3l23 -46l-7 -3q-37 -22 -82 -22q-17 0 -46 12t-44 12q-14 0 -28 -3t-21 -6t-7 -4zM132 800v-627q0 -49 34.5 -83t83.5 -34t83 34t34 83v627h65v-623q0 -76 -53 -129t-129 -53
t-129 53t-53 129v623h64z" />
    <glyph glyph-name="utilde" unicode="&#x169;" 
d="M97 795l-7 -4l-22 45l7 4q37 22 82 22q17 0 45 -12t45 -12q14 0 28 3.5t21 6.5t7 4l6 3l23 -46l-7 -3q-37 -22 -82 -22q-17 0 -46 12q-28 12 -44 12q-14 0 -28 -3t-21 -6t-7 -4zM132 700v-477q0 -28 20 -47.5t48 -19.5t47.5 19.5t19.5 47.5v477h65v-473q0 -55 -39 -94
q-38 -38 -93 -38q-54 0 -94 38q-38 40 -38 94v473h64z" />
    <glyph glyph-name="Umacron" unicode="&#x16a;" horiz-adv-x="500" 
d="M132 800v-627q0 -49 34.5 -83t83.5 -34t83 34t34 83v627h65v-623q0 -76 -53 -129t-129 -53t-129 53t-53 129v623h64zM379 896h-258v54h258v-54z" />
    <glyph glyph-name="umacron" unicode="&#x16b;" 
d="M132 700v-477q0 -28 20 -47.5t48 -19.5t47.5 19.5t19.5 47.5v477h65v-473q0 -55 -39 -94q-38 -38 -93 -38q-54 0 -94 38q-38 40 -38 94v473h64zM314 796h-228v54h228v-54z" />
    <glyph glyph-name="Ubreve" unicode="&#x16c;" horiz-adv-x="500" 
d="M132 800v-627q0 -49 34.5 -83t83.5 -34t83 34t34 83v627h65v-623q0 -76 -53 -129t-129 -53t-129 53t-53 129v623h64zM315 975v16h54v-16q0 -47 -30.5 -75.5t-88.5 -28.5t-88.5 28.5t-30.5 75.5v16h54v-16q0 -22 17.5 -36t47.5 -14t47.5 14t17.5 36z" />
    <glyph glyph-name="ubreve" unicode="&#x16d;" 
d="M200 771v54q30 0 47.5 14t17.5 36v16h54v-16q0 -47 -30.5 -75.5t-88.5 -28.5zM200 825v-54q-58 0 -88.5 28.5t-30.5 75.5v16h54v-16q0 -22 17.5 -36t47.5 -14zM132 700v-477q0 -28 20 -47.5t48 -19.5t47.5 19.5t19.5 47.5v477h65v-473q0 -55 -39 -94q-38 -38 -93 -38
q-54 0 -94 38q-38 40 -38 94v473h64z" />
    <glyph glyph-name="Uring" unicode="&#x16e;" horiz-adv-x="500" 
d="M176 851q-30 31 -30 74t30 73q31 31 74 31t73 -31q31 -30 31 -73t-31 -74q-30 -30 -73 -30t-74 30zM250 975q-20 0 -35 -15t-15 -35t15 -35t35 -15t35 15t15 35t-14.5 35t-35.5 15zM132 800v-627q0 -49 34.5 -83t83.5 -34t83 34t34 83v627h65v-623q0 -76 -53 -129
t-129 -53t-129 53t-53 129v623h64z" />
    <glyph glyph-name="uring" unicode="&#x16f;" 
d="M126 751q-30 31 -30 74t30 73q31 31 74 31t73 -31q31 -30 31 -73t-31 -74q-30 -30 -73 -30t-74 30zM200 875q-20 0 -35 -15t-15 -35t15 -35t35 -15t35 15t15 35t-14.5 35t-35.5 15zM132 700v-477q0 -28 20 -47.5t48 -19.5t47.5 19.5t19.5 47.5v477h65v-473q0 -55 -39 -94
q-38 -38 -93 -38q-54 0 -94 38q-38 40 -38 94v473h64z" />
    <glyph glyph-name="Uhungarumlaut" unicode="&#x170;" horiz-adv-x="500" 
d="M132 800v-627q0 -49 34.5 -83t83.5 -34t83 34t34 83v627h65v-623q0 -76 -53 -129t-129 -53t-129 53t-53 129v623h64zM257 936l-76 -61l-32 38l73 66zM402 936l-76 -61l-33 38l73 66z" />
    <glyph glyph-name="uhungarumlaut" unicode="&#x171;" 
d="M132 700v-477q0 -28 20 -47.5t48 -19.5t47.5 19.5t19.5 47.5v477h65v-473q0 -55 -39 -94q-38 -38 -93 -38q-54 0 -94 38q-38 40 -38 94v473h64zM202 836l-76 -61l-32 38l73 66zM347 836l-76 -61l-33 38l73 66z" />
    <glyph glyph-name="Uogonek" unicode="&#x172;" horiz-adv-x="500" 
d="M132 800v-627q0 -49 34.5 -83t83.5 -34t83 34t34 83v627h65v-623q0 -65 -39 -114q-39 -50 -100 -63q-12 -11 -38 -42q-21 -28 -21 -46q0 -26 25 -26q16 0 31 15l5 5l30 -18l-8 -12q-7 -9 -24.5 -20t-33.5 -11q-78 0 -78 71q0 39 38 82q-63 10 -108 61q-43 49 -43 118v623
h64z" />
    <glyph glyph-name="uogonek" unicode="&#x173;" 
d="M132 700v-477q0 -28 20 -47.5t48 -19.5t47.5 19.5t19.5 47.5v477h65v-473q0 -45 -26.5 -80t-68.5 -47q-58 -58 -58 -87q0 -26 25 -26q16 0 31 15l5 5l30 -18l-8 -12q-7 -9 -24.5 -20t-33.5 -11q-78 0 -78 71q0 39 39 82q-43 12 -70 47.5t-27 80.5v473h64z" />
    <glyph glyph-name="Wcircumflex" unicode="&#x174;" horiz-adv-x="550" 
d="M132 0h-64v800h64v-674l110 185h65l110 -184v673h66v-800h-66l-142 237zM290 1006l94 -86l-38 -43l-71 68l-71 -68l-38 43l94 86h30z" />
    <glyph glyph-name="wcircumflex" unicode="&#x175;" horiz-adv-x="450" 
d="M240 906l94 -86l-38 -43l-71 68l-71 -68l-38 43l94 86h30zM68 700h64v-463l64 121h58l63 -119v461h65v-600h-65l-92 178l-93 -178h-64v600z" />
    <glyph glyph-name="Ycircumflex" unicode="&#x176;" horiz-adv-x="470" 
d="M250 1006l94 -86l-38 -43l-71 68l-71 -68l-38 43l94 86h30zM267 0h-64v244l-156 556h68l120 -441l120 441h68l-156 -556v-244z" />
    <glyph glyph-name="ycircumflex" unicode="&#x177;" horiz-adv-x="384" 
d="M206 906l94 -86l-38 -43l-71 68l-71 -68l-38 43l94 86h30zM224 100h-65v189l-110 411h62l81 -307l81 307h62l-111 -411v-189z" />
    <glyph glyph-name="Ydieresis" unicode="&#x178;" horiz-adv-x="470" 
d="M267 0h-64v244l-156 556h68l120 -441l120 441h68l-156 -556v-244zM296 901q-23 23 1 47t47 1t-1 -47t-47 -1zM126 901q-23 23 1 47t47 1t-1 -47t-47 -1z" />
    <glyph glyph-name="Zacute" unicode="&#x179;" horiz-adv-x="490" 
d="M348 739h-275v61h344v-61l-280 -678h285v-61h-354v61zM336 925l-167 -51l-16 47l165 59z" />
    <glyph glyph-name="zacute" unicode="&#x17a;" 
d="M260 639h-187v61h254v-61l-193 -478h198v-61h-264v61zM317 825l-167 -51l-16 47l165 59z" />
    <glyph glyph-name="Zdotaccent" unicode="&#x17b;" horiz-adv-x="490" 
d="M348 739h-275v61h344v-61l-280 -678h285v-61h-354v61zM218 898q-17 16 -9.5 37t26.5 26.5t37 -9.5q17 -16 9.5 -37t-26.5 -26.5t-37 9.5z" />
    <glyph glyph-name="zdotaccent" unicode="&#x17c;" 
d="M260 639h-187v61h254v-61l-193 -478h198v-61h-264v61zM173 798q-17 16 -9.5 37t26.5 26.5t37 -9.5q17 -16 9.5 -37t-26.5 -26.5t-37 9.5z" />
    <glyph glyph-name="Zcaron" unicode="&#x17d;" horiz-adv-x="490" 
d="M230 877l-94 87l38 42l71 -67l71 67l38 -42l-94 -87h-30zM348 739h-275v61h344v-61l-280 -678h285v-61h-354v61z" />
    <glyph glyph-name="zcaron" unicode="&#x17e;" 
d="M185 777l-94 87l38 42l71 -67l71 67l38 -42l-94 -87h-30zM260 639h-187v61h254v-61l-193 -478h198v-61h-264v61z" />
    <glyph glyph-name="florin" unicode="&#x192;" horiz-adv-x="355" 
d="M268 700h75v-61h-75q-28 0 -47.5 -20t-19.5 -48v-110h102v-62h-102v-266q0 -55 -39 -94t-94 -39h-38v61h38q28 0 48 20t20 48v270h-78v62h78v106q0 54 38 94q39 39 94 39z" />
    <glyph glyph-name="AEacute" unicode="&#x1fc;" horiz-adv-x="680" 
d="M625 0h-298v142h-185l-39 -142h-66l221 800h367v-61h-233v-433h183v-62h-183v-183h233v-61zM327 739h-21l-147 -535h168v535zM526 925l-167 -51l-16 47l165 59z" />
    <glyph glyph-name="aeacute" unicode="&#x1fd;" horiz-adv-x="548" 
d="M494 100h-232v122h-125l-29 -122h-61l141 600h306v-61h-167v-288h142v-62h-142v-128h167v-61zM262 639h-24l-86 -355h110v355zM435 825l-167 -51l-16 47l165 59z" />
    <glyph glyph-name="Oslashacute" unicode="&#x1fe;" horiz-adv-x="500" 
d="M68 177v446q0 76 53 129t129 53q65 0 114 -40l19 46l53 -22l-29 -73q25 -41 25 -93v-446q0 -76 -53 -129t-129 -53q-66 0 -115 40l-18 -46l-53 22l29 73q-25 41 -25 93zM132 627v-445l207 520q-34 42 -89 42q-49 0 -84 -35q-34 -34 -34 -82zM250 56q49 0 83 34t34 83v443
l-207 -519q33 -41 90 -41zM367 925l-167 -51l-16 47l165 59z" />
    <glyph glyph-name="oslashacute" unicode="&#x1ff;" 
d="M68 227v346q0 55 38 93q39 39 94 39q40 0 75 -23l10 28l49 -20l-19 -52q17 -29 17 -65v-346q0 -55 -39 -94q-38 -38 -93 -38q-43 0 -75 23l-10 -28l-49 20l19 52q-17 29 -17 65zM132 577v-286l120 328q-22 25 -52 25q-28 0 -48 -19.5t-20 -47.5zM200 156q28 0 47.5 19.5
t19.5 47.5v283l-119 -326q20 -24 52 -24zM317 825l-167 -51l-16 47l165 59z" />
    <glyph glyph-name="Scommaaccent" unicode="&#x218;" horiz-adv-x="490" 
d="M62 177v37h65v-41q0 -49 34 -83t84 -34q49 0 83 34t34 83v4q0 45 -28 76l-210 241q-56 51 -56 129q0 77 51 129q53 53 126 53q74 0 125 -53q52 -52 52 -129v-37h-65v41q0 48 -33 82q-32 35 -79 35t-80 -35q-32 -35 -32 -82v-4q-1 -41 30 -78l210 -240q54 -51 54 -128
q0 -76 -53 -129t-129 -53q-75 0 -130 53q-53 53 -53 129zM218 -207v157h64v-57q0 -24 -14 -83l-5 -17h-45z" />
    <glyph glyph-name="scommaaccent" unicode="&#x219;" horiz-adv-x="390" 
d="M62 227v47h65v-51q0 -28 20 -47.5t48 -19.5t47.5 19.5t19.5 47.5v4q0 19 -9 34l-159 229q-32 35 -32 83q0 55 39 93q39 39 94 39t93 -39q39 -38 39 -93v-47h-65v51q0 28 -19.5 47.5t-47.5 19.5t-48 -19.5t-20 -47.5v-4q0 -21 12 -37l160 -229q28 -34 28 -80
q0 -55 -39 -94q-38 -38 -93 -38q-54 0 -94 38q-39 39 -39 94zM168 -107v157h64v-57q0 -24 -14 -83l-5 -17h-45z" />
    <glyph glyph-name="uni021A" unicode="&#x21a;" horiz-adv-x="406" 
d="M170 739h-137v61h339v-61h-137v-739h-65v739zM170 -207v157h64v-57q0 -24 -14 -83l-5 -17h-45z" />
    <glyph glyph-name="uni021B" unicode="&#x21b;" horiz-adv-x="306" 
d="M120 639h-87v61h239v-61h-87v-539h-65v539zM121 -107v157h64v-57q0 -41 -14 -83l-5 -17h-45z" />
    <glyph glyph-name="circumflex" unicode="&#x2c6;" horiz-adv-x="330" 
d="M180 906l94 -86l-38 -43l-71 68l-71 -68l-38 43l94 86h30z" />
    <glyph glyph-name="caron" unicode="&#x2c7;" horiz-adv-x="330" 
d="M150 777l-94 87l38 42l71 -67l71 67l38 -42l-94 -87h-30z" />
    <glyph glyph-name="breve" unicode="&#x2d8;" horiz-adv-x="330" 
d="M165 771v54q30 0 47.5 14t17.5 36v16h54v-16q0 -47 -30.5 -75.5t-88.5 -28.5zM165 825v-54q-58 0 -88.5 28.5t-30.5 75.5v16h54v-16q0 -22 17.5 -36t47.5 -14z" />
    <glyph glyph-name="dotaccent" unicode="&#x2d9;" horiz-adv-x="214" 
d="M73 798q-17 16 -9.5 37t26.5 26.5t37 -9.5q17 -16 9.5 -37t-26.5 -26.5t-37 9.5z" />
    <glyph glyph-name="ring" unicode="&#x2da;" horiz-adv-x="330" 
d="M91 751q-30 31 -30 74t30 73q31 31 74 31t73 -31q31 -30 31 -73t-31 -74q-30 -30 -73 -30t-74 30zM165 875q-20 0 -35 -15t-15 -35t15 -35t35 -15t35 15t15 35t-14.5 35t-35.5 15z" />
    <glyph glyph-name="ogonek" unicode="&#x2db;" horiz-adv-x="200" 
d="M73 102l16 15l54 -17q-64 -61 -64 -93q0 -26 25 -26q16 0 31 15l5 5l30 -18l-8 -12q-7 -9 -24.5 -20t-33.5 -11q-78 0 -78 71q0 22 14.5 48.5t32.5 42.5z" />
    <glyph glyph-name="tilde" unicode="&#x2dc;" horiz-adv-x="200" 
d="M-3 795l-7 -4l-22 45l7 4q37 22 82 22q17 0 45 -12t45 -12q14 0 28 3.5t21 6.5t7 4l6 3l23 -46l-7 -3q-37 -22 -82 -22q-17 0 -46 12t-44 12q-14 0 -28 -3t-21 -6t-7 -4z" />
    <glyph glyph-name="hungarumlaut" unicode="&#x2dd;" horiz-adv-x="350" 
d="M172 836l-76 -61l-32 38l73 66zM317 836l-76 -61l-33 38l73 66z" />
    <glyph glyph-name="uni037E" unicode="&#x37e;" horiz-adv-x="214" 
d="M68 10v157h64v-57q0 -20 -14 -84l-5 -16h-45zM73 542q-11 11 -11 27t11 26q11 11 27 11t27 -11q11 -10 11 -26t-11 -27t-27 -11t-27 11z" />
    <glyph glyph-name="tonos" unicode="&#x384;" horiz-adv-x="200" 
d="M131 850l-6 -85h-50q-6 64 -6 85v75h62v-75z" />
    <glyph glyph-name="Alphatonos" unicode="&#x386;" horiz-adv-x="503" 
d="M218 800h65l172 -800h-65l-30 142h-217l-30 -142h-66zM347 204l-96 452l-95 -452h191zM282 950l-6 -85h-50q-6 65 -6 85v75h62v-75z" />
    <glyph glyph-name="Epsilontonos" unicode="&#x388;" horiz-adv-x="420" 
d="M366 0h-298v800h298v-61h-234v-433h184v-62h-184v-183h234v-61zM248 950l-6 -85h-50q-6 65 -6 85v75h62v-75z" />
    <glyph glyph-name="Etatonos" unicode="&#x389;" horiz-adv-x="500" 
d="M432 0h-65v244h-235v-244h-64v800h64v-494h235v494h65v-800zM281 950l-6 -85h-50q-6 65 -6 85v75h62v-75z" />
    <glyph glyph-name="Iotatonos" unicode="&#x38a;" horiz-adv-x="214" 
d="M136 950l-6 -85h-50q-6 65 -6 85v75h62v-75zM139 0h-65v800h65v-800z" />
    <glyph glyph-name="Omicrontonos" unicode="&#x38c;" horiz-adv-x="500" 
d="M68 177v446q0 76 53 129t129 53t129 -53t53 -129v-446q0 -76 -53 -129t-129 -53t-129 53t-53 129zM132 627v-454q0 -49 34.5 -83t83.5 -34t83 34t34 83v454q0 48 -34 82q-35 35 -83 35q-49 0 -84 -35q-34 -34 -34 -82zM281 950l-6 -85h-50q-6 65 -6 85v75h62v-75z" />
    <glyph glyph-name="Upsilontonos" unicode="&#x38e;" horiz-adv-x="470" 
d="M267 0h-64v244l-156 556h68l120 -441l120 441h68l-156 -556v-244zM266 950l-6 -85h-50q-6 65 -6 85v75h62v-75z" />
    <glyph glyph-name="Omegatonos" unicode="&#x38f;" horiz-adv-x="500" 
d="M338 61h94v-61h-161v61l90 273q6 18 6 39v254q0 48 -34 82q-35 35 -83 35q-49 0 -84 -35q-34 -34 -34 -82v-254q0 -19 7 -39l90 -273v-61h-161v61h94l-84 256q-10 24 -10 60v246q0 76 53 129t129 53t129 -53t53 -129v-246q0 -36 -10 -60zM281 950l-6 -85h-50q-6 65 -6 85
v75h62v-75z" />
    <glyph glyph-name="iotadieresistonos" unicode="&#x390;" horiz-adv-x="214" 
d="M-27 801q-23 23 1 47t47 1t-1 -47t-47 -1zM193 801q-15 14 -8 33t23.5 24t31.5 -9q15 -15 8.5 -33.5t-23 -23t-32.5 8.5zM137 850l-6 -85h-49q-6 64 -6 85v75h61v-75zM139 100h-65v600h65v-600z" />
    <glyph glyph-name="Alpha" unicode="&#x391;" horiz-adv-x="503" 
d="M218 800h65l172 -800h-65l-30 142h-217l-30 -142h-66zM347 204l-96 452l-95 -452h191z" />
    <glyph glyph-name="Beta" unicode="&#x392;" horiz-adv-x="500" 
d="M250 0h-182v800h182q76 0 129 -54q53 -53 53 -129v-131q0 -96 -81 -152q37 -24 59 -64t22 -87q0 -75 -53 -130q-53 -53 -129 -53zM250 739h-118v-374h123q48 2 79 36q33 35 33 82v138q0 49 -34 83.5t-83 34.5zM250 304h-118v-243h118q49 0 83 34.5t34 83.5v7
q0 49 -34 83.5t-83 34.5z" />
    <glyph glyph-name="Gamma" unicode="&#x393;" horiz-adv-x="415" 
d="M132 0h-64v800h320v-61h-256v-739z" />
    <glyph glyph-name="increment" unicode="&#x394;" horiz-adv-x="503" 
d="M218 800h65l172 -800h-408zM377 61l-126 595l-125 -595h251z" />
    <glyph glyph-name="increment" unicode="&#x2206;" horiz-adv-x="503" 
d="M218 800h65l172 -800h-408zM377 61l-126 595l-125 -595h251z" />
    <glyph glyph-name="Epsilon" unicode="&#x395;" horiz-adv-x="420" 
d="M366 0h-298v800h298v-61h-234v-433h184v-62h-184v-183h234v-61z" />
    <glyph glyph-name="Zeta" unicode="&#x396;" horiz-adv-x="490" 
d="M348 739h-275v61h344v-61l-280 -678h285v-61h-354v61z" />
    <glyph glyph-name="Eta" unicode="&#x397;" horiz-adv-x="500" 
d="M432 0h-65v244h-235v-244h-64v800h64v-494h235v494h65v-800z" />
    <glyph glyph-name="Theta" unicode="&#x398;" horiz-adv-x="500" 
d="M68 177v446q0 76 53 129t129 53t129 -53t53 -129v-446q0 -76 -53 -129t-129 -53t-129 53t-53 129zM132 627v-454q0 -49 34.5 -83t83.5 -34t83 34t34 83v454q0 48 -34 82q-35 35 -83 35q-49 0 -84 -35q-34 -34 -34 -82zM315 244h-133v62h133v-62z" />
    <glyph glyph-name="Iota" unicode="&#x399;" horiz-adv-x="214" 
d="M139 0h-65v800h65v-800z" />
    <glyph glyph-name="Kappa" unicode="&#x39a;" horiz-adv-x="500" 
d="M132 0h-64v800h64v-421l228 421h74l-177 -326l181 -474h-70l-152 398l-84 -154v-244z" />
    <glyph glyph-name="Lambda" unicode="&#x39b;" horiz-adv-x="503" 
d="M218 800h65l172 -800h-65l-139 656l-138 -656h-66z" />
    <glyph glyph-name="Mu" unicode="&#x39c;" horiz-adv-x="550" 
d="M417 800h66v-800h-66v673l-110 -184h-65l-110 185v-674h-64v800h64l143 -237z" />
    <glyph glyph-name="Nu" unicode="&#x39d;" horiz-adv-x="525" 
d="M457 0h-65l-260 629v-629h-64v800h64l260 -628v628h65v-800z" />
    <glyph glyph-name="Xi" unicode="&#x39e;" horiz-adv-x="372" 
d="M290 244h-209v62h209v-62zM345 0h-318v61h318v-61zM343 739h-315v61h315v-61z" />
    <glyph glyph-name="Omicron" unicode="&#x39f;" horiz-adv-x="500" 
d="M68 177v446q0 76 53 129t129 53t129 -53t53 -129v-446q0 -76 -53 -129t-129 -53t-129 53t-53 129zM132 627v-454q0 -49 34.5 -83t83.5 -34t83 34t34 83v454q0 48 -34 82q-35 35 -83 35q-49 0 -84 -35q-34 -34 -34 -82z" />
    <glyph glyph-name="Pi" unicode="&#x3a0;" horiz-adv-x="500" 
d="M432 0h-65v739h-235v-739h-64v800h364v-800z" />
    <glyph glyph-name="Rho" unicode="&#x3a1;" horiz-adv-x="500" 
d="M132 0h-64v800h182q76 0 129 -54q53 -53 53 -129v-190q0 -75 -53 -130q-53 -53 -129 -53h-118v-244zM250 739h-118v-433h118q49 0 83 34t34 83v198q0 49 -34 83.5t-83 34.5z" />
    <glyph glyph-name="Sigma" unicode="&#x3a3;" horiz-adv-x="480" 
d="M422 0h-354v61l152 218l-147 460v61h344v-61h-277l139 -433v-62l-133 -183h276v-61z" />
    <glyph glyph-name="Tau" unicode="&#x3a4;" horiz-adv-x="406" 
d="M170 739h-137v61h339v-61h-137v-739h-65v739z" />
    <glyph glyph-name="Upsilon" unicode="&#x3a5;" horiz-adv-x="470" 
d="M267 0h-64v244l-156 556h68l120 -441l120 441h68l-156 -556v-244z" />
    <glyph glyph-name="Phi" unicode="&#x3a6;" horiz-adv-x="680" 
d="M240 695h67v105h65v-105h68q76 0 129 -54q53 -53 53 -129v-224q0 -75 -53 -130q-53 -53 -129 -53h-68v-105h-65v105h-67q-75 0 -130 53q-53 55 -53 130v224q0 76 53 129q54 54 130 54zM240 166h67v468h-67q-49 0 -84 -35q-34 -34 -34 -83v-232q0 -50 34 -84t84 -34z
M440 634h-68v-468h68q49 0 83 34.5t34 83.5v232q0 49 -34 83.5t-83 34.5z" />
    <glyph glyph-name="Chi" unicode="&#x3a7;" horiz-adv-x="500" 
d="M363 800h69l-148 -393l154 -407h-70l-118 315l-118 -315h-70l153 407l-147 393h69l113 -301z" />
    <glyph glyph-name="Psi" unicode="&#x3a8;" horiz-adv-x="525" 
d="M307 0h-65v239q-76 12 -125 70t-49 136v355h64v-359q0 -50 31 -89t79 -50v498h65v-498q48 11 79 50t31 89v359h66v-355q0 -77 -50 -136q-49 -58 -126 -70v-239z" />
    <glyph glyph-name="Omega" unicode="&#x3a9;" horiz-adv-x="500" 
d="M271 61l90 273q6 18 6 39v254q0 48 -34 82q-35 35 -83 35q-49 0 -84 -35q-34 -34 -34 -82v-254q0 -19 7 -39l90 -273v-61h-161v61h94l-84 256q-10 24 -10 60v246q0 76 53 129t129 53t129 -53t53 -129v-246q0 -36 -10 -60l-84 -256h94v-61h-161v61z" />
    <glyph glyph-name="Omega" unicode="&#x2126;" horiz-adv-x="500" 
d="M271 61l90 273q6 18 6 39v254q0 48 -34 82q-35 35 -83 35q-49 0 -84 -35q-34 -34 -34 -82v-254q0 -19 7 -39l90 -273v-61h-161v61h94l-84 256q-10 24 -10 60v246q0 76 53 129t129 53t129 -53t53 -129v-246q0 -36 -10 -60l-84 -256h94v-61h-161v61z" />
    <glyph glyph-name="Iotadieresis" unicode="&#x3aa;" horiz-adv-x="214" 
d="M-4 901q-23 23 1 47t47 1t-1 -47t-47 -1zM166 901q-23 23 1 47t47 1t-1 -47t-47 -1zM139 0h-65v800h65v-800z" />
    <glyph glyph-name="Upsilondieresis" unicode="&#x3ab;" horiz-adv-x="470" 
d="M267 0h-64v244l-156 556h68l120 -441l120 441h68l-156 -556v-244zM296 901q-23 23 1 47t47 1t-1 -47t-47 -1zM126 901q-23 23 1 47t47 1t-1 -47t-47 -1z" />
    <glyph glyph-name="alphatonos" unicode="&#x3ac;" horiz-adv-x="391" 
d="M163 700h65l115 -600h-61l-23 122h-128l-23 -122h-61zM247 284l-52 273l-52 -273h104zM226 850l-6 -85h-50q-6 64 -6 85v75h62v-75z" />
    <glyph glyph-name="epsilontonos" unicode="&#x3ad;" horiz-adv-x="354" 
d="M300 100h-232v600h232v-61h-168v-288h143v-62h-143v-128h168v-61zM214 850l-6 -85h-50q-6 64 -6 85v75h62v-75z" />
    <glyph glyph-name="etatonos" unicode="&#x3ae;" 
d="M332 100h-65v189h-135v-189h-64v600h64v-349h135v349h65v-600zM231 850l-6 -85h-50q-6 64 -6 85v75h62v-75z" />
    <glyph glyph-name="iotatonos" unicode="&#x3af;" horiz-adv-x="214" 
d="M139 100h-65v600h65v-600zM136 850l-6 -85h-50q-6 64 -6 85v75h62v-75z" />
    <glyph glyph-name="upsilondieresistonos" unicode="&#x3b0;" horiz-adv-x="384" 
d="M224 100h-65v189l-110 411h62l81 -307l81 307h62l-111 -411v-189zM222 850l-5 -85h-50q-6 64 -6 85v75h61v-75zM59 801q-15 14 -8 33t23.5 24t31.5 -9q15 -15 8.5 -33.5t-23 -23t-32.5 8.5zM278 801q-14 14 -7.5 33t23 24t32.5 -9q23 -23 -1 -47t-47 -1z" />
    <glyph glyph-name="alpha" unicode="&#x3b1;" horiz-adv-x="391" 
d="M163 700h65l115 -600h-61l-23 122h-128l-23 -122h-61zM247 284l-52 273l-52 -273h104z" />
    <glyph glyph-name="beta" unicode="&#x3b2;" 
d="M200 100h-132v600h132q56 0 93 -39q39 -39 39 -94v-131q0 -62 -48 -102q48 -40 48 -101q0 -55 -39 -94q-37 -39 -93 -39zM200 639h-68v-274h73q26 2 44 21.5t18 46.5v138q0 28 -19.5 48t-47.5 20zM205 304h-73v-143h68q28 0 47.5 20t19.5 48v7q0 27 -18 46.5t-44 21.5z
" />
    <glyph glyph-name="gamma" unicode="&#x3b3;" horiz-adv-x="327" 
d="M132 100h-64v600h232v-61h-168v-539z" />
    <glyph glyph-name="delta" unicode="&#x3b4;" horiz-adv-x="391" 
d="M163 700h65l115 -600h-296zM270 161l-75 396l-76 -396h151z" />
    <glyph glyph-name="epsilon" unicode="&#x3b5;" horiz-adv-x="354" 
d="M300 100h-232v600h232v-61h-168v-288h143v-62h-143v-128h168v-61z" />
    <glyph glyph-name="zeta" unicode="&#x3b6;" 
d="M260 639h-187v61h254v-61l-193 -478h198v-61h-264v61z" />
    <glyph glyph-name="eta" unicode="&#x3b7;" 
d="M332 100h-65v189h-135v-189h-64v600h64v-349h135v349h65v-600z" />
    <glyph glyph-name="theta" unicode="&#x3b8;" 
d="M68 227v346q0 55 38 93q39 39 94 39q56 0 93 -39q39 -38 39 -93v-346q0 -55 -39 -94q-38 -38 -93 -38q-54 0 -94 38q-38 40 -38 94zM132 577v-221h135v221q0 28 -19.5 47.5t-47.5 19.5t-48 -19.5t-20 -47.5zM132 294v-71q0 -28 20 -47.5t48 -19.5t47.5 19.5t19.5 47.5v71
h-135z" />
    <glyph glyph-name="iota" unicode="&#x3b9;" horiz-adv-x="214" 
d="M139 100h-65v600h65v-600z" />
    <glyph glyph-name="kappa" unicode="&#x3ba;" 
d="M132 100h-64v600h64v-271l134 271h72l-121 -244l121 -356h-69l-93 274l-44 -89v-185z" />
    <glyph glyph-name="lambda" unicode="&#x3bb;" horiz-adv-x="391" 
d="M163 700h65l115 -600h-61l-87 457l-87 -457h-61z" />
    <glyph glyph-name="uni03BC" unicode="&#x3bc;" horiz-adv-x="450" 
d="M382 100h-65v461l-63 -119h-58l-64 120v-462h-64v600h64l93 -178l92 178h65v-600z" />
    <glyph glyph-name="nu" unicode="&#x3bd;" horiz-adv-x="425" 
d="M357 100h-65l-160 429v-429h-64v600h64l160 -428v428h65v-600z" />
    <glyph glyph-name="xi" unicode="&#x3be;" horiz-adv-x="365" 
d="M286 289h-207v62h207v-62zM311 100h-257v61h257v-61zM311 639h-257v61h257v-61z" />
    <glyph glyph-name="omicron" unicode="&#x3bf;" 
d="M68 227v346q0 55 38 93q39 39 94 39q56 0 93 -39q39 -38 39 -93v-346q0 -55 -39 -94q-38 -38 -93 -38q-54 0 -94 38q-38 40 -38 94zM132 577v-354q0 -28 20 -47.5t48 -19.5t47.5 19.5t19.5 47.5v354q0 28 -19.5 47.5t-47.5 19.5t-48 -19.5t-20 -47.5z" />
    <glyph glyph-name="pi" unicode="&#x3c0;" 
d="M332 100h-65v539h-135v-539h-64v600h264v-600z" />
    <glyph glyph-name="rho" unicode="&#x3c1;" 
d="M200 289h-132v411h132q56 0 93 -39q39 -39 39 -94v-145q0 -55 -39 -94q-37 -39 -93 -39zM200 639h-68v-288h68q28 0 47.5 19.5t19.5 47.5v153q0 28 -19.5 48t-47.5 20zM132 100h-64v189h64v-189z" />
    <glyph glyph-name="uni03C2" unicode="&#x3c2;" 
d="M327 700v-61h-182l100 -279v-61l-86 -138h173v-61h-264v61l117 172l-112 306v61h254z" />
    <glyph glyph-name="sigma" unicode="&#x3c3;" 
d="M327 700v-61h-182l100 -279v-61l-86 -138h173v-61h-264v61l117 172l-112 306v61h254z" />
    <glyph glyph-name="tau" unicode="&#x3c4;" horiz-adv-x="306" 
d="M120 639h-87v61h239v-61h-87v-539h-65v539z" />
    <glyph glyph-name="upsilon" unicode="&#x3c5;" horiz-adv-x="384" 
d="M224 100h-65v189l-110 411h62l81 -307l81 307h62l-111 -411v-189z" />
    <glyph glyph-name="phi" unicode="&#x3c6;" horiz-adv-x="540" 
d="M302 100h-64v90h-48q-55 0 -94 39t-39 94v154q0 55 39 94t94 39h48v90h64v-90h48q55 0 94 -39t39 -94v-154q0 -55 -39 -94t-94 -39h-48v-90zM190 251h48v298h-48q-28 0 -48 -20t-20 -48v-162q0 -28 20 -48t48 -20zM350 549h-48v-298h48q28 0 47.5 20t19.5 48v162
q0 28 -19.5 48t-47.5 20z" />
    <glyph glyph-name="chi" unicode="&#x3c7;" 
d="M269 700h69l-101 -300l101 -300h-69l-67 198l-66 -198h-68l100 300l-100 300h68l66 -198z" />
    <glyph glyph-name="psi" unicode="&#x3c8;" horiz-adv-x="525" 
d="M294 100h-65v142q-69 10 -116 65q-45 54 -45 127v266h64v-270q0 -45 27.5 -80t69.5 -46v396h65v-396q43 11 70.5 46t27.5 80v270h65v-266q0 -72 -47 -128q-47 -55 -116 -65v-141z" />
    <glyph glyph-name="omega" unicode="&#x3c9;" 
d="M132 577v-204q0 -1 2 -15l45 -197v-61h-111v61h45l-43 195q-2 10 -2 21v196q0 55 38 93q39 39 94 39q56 0 93 -39q39 -38 39 -93v-196q0 -11 -2 -21l-43 -195h45v-61h-111v61l45 197q1 3 1 15v204q0 28 -19.5 47.5t-47.5 19.5t-48 -19.5t-20 -47.5z" />
    <glyph glyph-name="iotadieresis" unicode="&#x3ca;" horiz-adv-x="214" 
d="M139 100h-65v600h65v-600zM8 801q-23 23 1 47t47 1t-1 -47t-47 -1zM158 801q-23 23 1 47t47 1t-1 -47t-47 -1z" />
    <glyph glyph-name="upsilondieresis" unicode="&#x3cb;" horiz-adv-x="384" 
d="M224 100h-65v189l-110 411h62l81 -307l81 307h62l-111 -411v-189zM243 801q-23 23 1 47t47 1t-1 -47t-47 -1zM93 801q-23 23 1 47t47 1t-1 -47t-47 -1z" />
    <glyph glyph-name="omicrontonos" unicode="&#x3cc;" 
d="M68 227v346q0 55 38 93q39 39 94 39q56 0 93 -39q39 -38 39 -93v-346q0 -55 -39 -94q-38 -38 -93 -38q-54 0 -94 38q-38 40 -38 94zM132 577v-354q0 -28 20 -47.5t48 -19.5t47.5 19.5t19.5 47.5v354q0 28 -19.5 47.5t-47.5 19.5t-48 -19.5t-20 -47.5zM231 850l-6 -85h-50
q-6 64 -6 85v75h62v-75z" />
    <glyph glyph-name="upsilontonos" unicode="&#x3cd;" horiz-adv-x="384" 
d="M224 100h-65v189l-110 411h62l81 -307l81 307h62l-111 -411v-189zM223 850l-6 -85h-50q-6 64 -6 85v75h62v-75z" />
    <glyph glyph-name="omegatonos" unicode="&#x3ce;" 
d="M132 577v-204q0 -1 2 -15l45 -197v-61h-111v61h45l-43 195q-2 10 -2 21v196q0 55 38 93q39 39 94 39q56 0 93 -39q39 -38 39 -93v-196q0 -11 -2 -21l-43 -195h45v-61h-111v61l45 197q1 3 1 15v204q0 28 -19.5 47.5t-47.5 19.5t-48 -19.5t-20 -47.5zM231 850l-6 -85h-50
q-6 64 -6 85v75h62v-75z" />
    <glyph glyph-name="afii10023" unicode="&#x401;" horiz-adv-x="420" 
d="M366 0h-298v800h298v-61h-234v-433h184v-62h-184v-183h234v-61zM107 901q-23 23 1 47t47 1t-1 -47t-47 -1zM277 901q-23 23 1 47t47 1t-1 -47t-47 -1z" />
    <glyph glyph-name="afii10051" unicode="&#x402;" horiz-adv-x="602" 
d="M170 739h-137v61h339v-61h-137v-226q49 42 117 42q76 0 129 -53q54 -52 54 -129v-190q0 -76 -54 -130q-53 -53 -129 -53h-25v61h25q49 0 83 34q35 35 35 84v198q0 47 -35 82t-83 35t-82 -33q-33 -32 -35 -79v-382h-65v739z" />
    <glyph glyph-name="afii10052" unicode="&#x403;" horiz-adv-x="415" 
d="M132 0h-64v800h320v-61h-256v-739zM315 925l-167 -51l-16 47l165 59z" />
    <glyph glyph-name="afii10053" unicode="&#x404;" horiz-adv-x="500" 
d="M132 627v-211h184v-62h-184v-181q0 -49 34.5 -83t83.5 -34t83 34t34 83v41h65v-37q0 -76 -53 -129t-129 -53t-129 53t-53 129v446q0 76 53 129t129 53t129 -53t53 -129v-37h-65v41q0 48 -34 82q-35 35 -83 35q-49 0 -84 -35q-34 -34 -34 -82z" />
    <glyph glyph-name="afii10054" unicode="&#x405;" horiz-adv-x="490" 
d="M62 177v37h65v-41q0 -49 34 -83t84 -34q49 0 83 34t34 83v4q0 45 -28 76l-210 241q-56 51 -56 129q0 77 51 129q53 53 126 53q74 0 125 -53q52 -52 52 -129v-37h-65v41q0 48 -33 82q-32 35 -79 35t-80 -35q-32 -35 -32 -82v-4q-1 -41 30 -78l210 -240q54 -51 54 -128
q0 -76 -53 -129t-129 -53q-75 0 -130 53q-53 53 -53 129z" />
    <glyph glyph-name="afii10055" unicode="&#x406;" horiz-adv-x="214" 
d="M139 0h-65v800h65v-800z" />
    <glyph glyph-name="afii10056" unicode="&#x407;" horiz-adv-x="214" 
d="M8 901q-23 23 1 47t47 1t-1 -47t-47 -1zM158 901q-23 23 1 47t47 1t-1 -47t-47 -1zM139 0h-65v800h65v-800z" />
    <glyph glyph-name="afii10057" unicode="&#x408;" horiz-adv-x="200" 
d="M0 -250h-51v61h51q28 0 48 20t20 48v921h64v-917q0 -55 -39 -94q-37 -39 -93 -39z" />
    <glyph glyph-name="afii10058" unicode="&#x409;" horiz-adv-x="743" 
d="M53 0h-26v61h26q28 0 48 20t20 48v671h315v-435h67q77 0 129 -54q54 -53 54 -128q0 -76 -54 -130q-53 -53 -129 -53h-132v739h-185v-606q0 -55 -39 -94t-94 -39zM503 304h-67v-243h67q49 0 83 34q35 35 35 84v7q0 48 -35 83t-83 35z" />
    <glyph glyph-name="afii10059" unicode="&#x40a;" horiz-adv-x="690" 
d="M450 0h-133v304h-185v-304h-64v800h64v-435h185v435h65v-435h68q76 0 129 -54q53 -53 53 -128t-53 -130q-53 -53 -129 -53zM450 304h-68v-243h68q49 0 83 34.5t34 83.5v7q0 49 -34 83.5t-83 34.5z" />
    <glyph glyph-name="afii10060" unicode="&#x40b;" horiz-adv-x="602" 
d="M170 739h-137v61h339v-61h-137v-226q49 42 117 42q76 0 129 -53q54 -52 54 -129v-373h-65v377q0 47 -35 82t-83 35t-82 -33q-33 -32 -35 -79v-382h-65v739z" />
    <glyph glyph-name="afii10061" unicode="&#x40c;" horiz-adv-x="500" 
d="M132 0h-64v800h64v-421l228 421h74l-177 -326l181 -474h-70l-152 398l-84 -154v-244zM347 925l-167 -51l-16 47l165 59z" />
    <glyph glyph-name="afii10062" unicode="&#x40e;" horiz-adv-x="466" 
d="M300 975v16h54v-16q0 -47 -30.5 -75.5t-88.5 -28.5t-88.5 28.5t-30.5 75.5v16h54v-16q0 -22 17.5 -36t47.5 -14t47.5 14t17.5 36zM199 227l-147 573h66l115 -446l119 446h66l-188 -704q-11 -42 -47.5 -69t-78.5 -27h-53v61h53q20 0 38.5 14.5t24.5 34.5z" />
    <glyph glyph-name="afii10145" unicode="&#x40f;" horiz-adv-x="500" 
d="M282 -150h-64v150h-150v800h64v-739h235v739h65v-800h-150v-150z" />
    <glyph glyph-name="afii10017" unicode="&#x410;" horiz-adv-x="503" 
d="M218 800h65l172 -800h-65l-30 142h-217l-30 -142h-66zM347 204l-96 452l-95 -452h191z" />
    <glyph glyph-name="afii10018" unicode="&#x411;" horiz-adv-x="500" 
d="M250 0h-182v800h342v-61h-278v-374h118q76 0 129 -54q53 -53 53 -128t-53 -130q-53 -53 -129 -53zM250 304h-118v-243h118q49 0 83 34.5t34 83.5v7q0 49 -34 83.5t-83 34.5z" />
    <glyph glyph-name="afii10019" unicode="&#x412;" horiz-adv-x="500" 
d="M250 0h-182v800h182q76 0 129 -54q53 -53 53 -129v-131q0 -96 -81 -152q37 -24 59 -64t22 -87q0 -75 -53 -130q-53 -53 -129 -53zM250 739h-118v-374h123q48 2 79 36q33 35 33 82v138q0 49 -34 83.5t-83 34.5zM250 304h-118v-243h118q49 0 83 34.5t34 83.5v7
q0 49 -34 83.5t-83 34.5z" />
    <glyph glyph-name="afii10020" unicode="&#x413;" horiz-adv-x="415" 
d="M132 0h-64v800h320v-61h-256v-739z" />
    <glyph glyph-name="afii10021" unicode="&#x414;" horiz-adv-x="620" 
d="M57 -125v186h66l149 739h216v-739h74v-186h-64v125h-376v-125h-65zM422 739h-96l-137 -678h233v678z" />
    <glyph glyph-name="afii10022" unicode="&#x415;" horiz-adv-x="420" 
d="M366 0h-298v800h298v-61h-234v-433h184v-62h-184v-183h234v-61z" />
    <glyph glyph-name="afii10024" unicode="&#x416;" horiz-adv-x="800" 
d="M738 0h-70l-152 398l-84 -154v-244h-65v244l-83 153l-152 -397h-70l181 473l-177 327h74l227 -419v419h65v-421l228 421h74l-177 -326z" />
    <glyph glyph-name="afii10025" unicode="&#x417;" horiz-adv-x="500" 
d="M367 556v71q0 49 -34 83t-83 34t-83.5 -34t-34.5 -83v-41h-64v37q0 76 53 129t129 53t129 -53t53 -129v-63q0 -96 -81 -152q81 -55 81 -152v-79q0 -76 -53 -129t-129 -53t-129 53t-53 129v37h64v-41q0 -49 34.5 -83t83.5 -34t83 34t34 83v87q0 46 -33 81q-31 34 -79 36
h-84v62h79q49 0 83 34t34 83z" />
    <glyph glyph-name="afii10026" unicode="&#x418;" horiz-adv-x="525" 
d="M68 800h64v-629l260 629h65v-800h-65v627l-260 -627h-64v800z" />
    <glyph glyph-name="afii10027" unicode="&#x419;" horiz-adv-x="525" 
d="M68 800h64v-629l260 629h65v-800h-65v627l-260 -627h-64v800zM262 871v54q30 0 47.5 14t17.5 36v16h54v-16q0 -47 -30.5 -75.5t-88.5 -28.5zM262 925v-54q-58 0 -88.5 28.5t-30.5 75.5v16h54v-16q0 -22 17.5 -36t47.5 -14z" />
    <glyph glyph-name="afii10028" unicode="&#x41a;" horiz-adv-x="500" 
d="M132 0h-64v800h64v-421l228 421h74l-177 -326l181 -474h-70l-152 398l-84 -154v-244z" />
    <glyph glyph-name="afii10029" unicode="&#x41b;" horiz-adv-x="553" 
d="M53 0h-26v61h26q28 0 48 20t20 48v671h365v-800h-65v739h-235v-606q0 -55 -39 -94t-94 -39z" />
    <glyph glyph-name="afii10030" unicode="&#x41c;" horiz-adv-x="550" 
d="M417 800h66v-800h-66v673l-110 -184h-65l-110 185v-674h-64v800h64l143 -237z" />
    <glyph glyph-name="afii10031" unicode="&#x41d;" horiz-adv-x="500" 
d="M432 0h-65v244h-235v-244h-64v800h64v-494h235v494h65v-800z" />
    <glyph glyph-name="afii10032" unicode="&#x41e;" horiz-adv-x="500" 
d="M68 177v446q0 76 53 129t129 53t129 -53t53 -129v-446q0 -76 -53 -129t-129 -53t-129 53t-53 129zM132 627v-454q0 -49 34.5 -83t83.5 -34t83 34t34 83v454q0 48 -34 82q-35 35 -83 35q-49 0 -84 -35q-34 -34 -34 -82z" />
    <glyph glyph-name="afii10033" unicode="&#x41f;" horiz-adv-x="500" 
d="M432 0h-65v739h-235v-739h-64v800h364v-800z" />
    <glyph glyph-name="afii10034" unicode="&#x420;" horiz-adv-x="500" 
d="M132 0h-64v800h182q76 0 129 -54q53 -53 53 -129v-190q0 -75 -53 -130q-53 -53 -129 -53h-118v-244zM250 739h-118v-433h118q49 0 83 34t34 83v198q0 49 -34 83.5t-83 34.5z" />
    <glyph glyph-name="afii10035" unicode="&#x421;" horiz-adv-x="500" 
d="M132 627v-454q0 -49 34.5 -83t83.5 -34t83 34t34 83v41h65v-37q0 -76 -53 -129t-129 -53t-129 53t-53 129v446q0 76 53 129t129 53t129 -53t53 -129v-37h-65v41q0 48 -34 82q-35 35 -83 35q-49 0 -84 -35q-34 -34 -34 -82z" />
    <glyph glyph-name="afii10036" unicode="&#x422;" horiz-adv-x="406" 
d="M170 739h-137v61h339v-61h-137v-739h-65v739z" />
    <glyph glyph-name="afii10037" unicode="&#x423;" horiz-adv-x="466" 
d="M199 227l-147 573h66l115 -446l119 446h66l-188 -704q-11 -42 -47.5 -69t-78.5 -27h-53v61h53q20 0 38.5 14.5t24.5 34.5z" />
    <glyph glyph-name="afii10038" unicode="&#x424;" horiz-adv-x="680" 
d="M240 695h67v105h65v-105h68q76 0 129 -54q53 -53 53 -129v-224q0 -75 -53 -130q-53 -53 -129 -53h-68v-105h-65v105h-67q-75 0 -130 53q-53 55 -53 130v224q0 76 53 129q54 54 130 54zM240 166h67v468h-67q-49 0 -84 -35q-34 -34 -34 -83v-232q0 -50 34 -84t84 -34z
M440 634h-68v-468h68q49 0 83 34.5t34 83.5v232q0 49 -34 83.5t-83 34.5z" />
    <glyph glyph-name="afii10039" unicode="&#x425;" horiz-adv-x="500" 
d="M363 800h69l-148 -393l154 -407h-70l-118 315l-118 -315h-70l153 407l-147 393h69l113 -301z" />
    <glyph glyph-name="afii10040" unicode="&#x426;" horiz-adv-x="575" 
d="M468 0h-400v800h64v-739h235v739h65v-739h100v-186h-64v125z" />
    <glyph glyph-name="afii10041" unicode="&#x427;" horiz-adv-x="500" 
d="M432 0h-65v283q-53 -42 -117 -42q-76 0 -129 53q-53 55 -53 130v376h64v-380q0 -50 34 -84t84 -34q46 0 81 33q34 33 36 80v385h65v-800z" />
    <glyph glyph-name="afii10042" unicode="&#x428;" horiz-adv-x="650" 
d="M582 0h-514v800h64v-739h160v739h65v-739h160v739h65v-800z" />
    <glyph glyph-name="afii10043" unicode="&#x429;" horiz-adv-x="725" 
d="M617 0h-549v800h64v-739h160v739h65v-739h160v739h65v-739h100v-186h-65v125z" />
    <glyph glyph-name="afii10044" unicode="&#x42a;" horiz-adv-x="543" 
d="M303 0h-182v739h-94v61h159v-435h117q77 0 129 -54q54 -53 54 -128q0 -76 -54 -130q-53 -53 -129 -53zM303 304h-117v-243h117q49 0 83 34q35 35 35 84v7q0 48 -35 83t-83 35z" />
    <glyph glyph-name="afii10045" unicode="&#x42b;" horiz-adv-x="675" 
d="M250 0h-182v800h64v-435h118q76 0 129 -54q53 -53 53 -128t-53 -130q-53 -53 -129 -53zM607 0h-65v800h65v-800zM250 304h-118v-243h118q49 0 83 34.5t34 83.5v7q0 49 -34 83.5t-83 34.5z" />
    <glyph glyph-name="afii10046" unicode="&#x42c;" horiz-adv-x="500" 
d="M250 0h-182v800h64v-435h118q76 0 129 -54q53 -53 53 -128t-53 -130q-53 -53 -129 -53zM250 304h-118v-243h118q49 0 83 34.5t34 83.5v7q0 49 -34 83.5t-83 34.5z" />
    <glyph glyph-name="afii10047" unicode="&#x42d;" horiz-adv-x="500" 
d="M368 173v181h-184v62h184v211q0 47 -35 82t-83 35t-83 -35q-34 -34 -34 -82v-41h-65v37q0 76 53 129t129 53t129 -53t53 -129v-446q0 -76 -53 -129t-129 -53t-129 53t-53 129v37h65v-41q0 -49 34 -83t83 -34t83.5 34t34.5 83z" />
    <glyph glyph-name="afii10048" unicode="&#x42e;" horiz-adv-x="675" 
d="M243 177v67h-111v-244h-64v800h64v-494h111v317q0 76 53 129t129 53t129 -53t53 -129v-446q0 -76 -53 -129t-129 -53t-129 53t-53 129zM307 627v-454q0 -49 34.5 -83t83.5 -34t83 34t34 83v454q0 48 -34 82q-35 35 -83 35q-49 0 -84 -35q-34 -34 -34 -82z" />
    <glyph glyph-name="afii10049" unicode="&#x42f;" horiz-adv-x="500" 
d="M432 800v-800h-65v244h-117q-49 0 -83.5 -34t-34.5 -83v-127h-64v123q0 46 21.5 86.5t58.5 65.5q-80 56 -80 152v190q0 76 53 129q53 54 129 54h182zM250 306h117v433h-117q-49 0 -84 -35q-34 -34 -34 -83v-198q0 -49 34.5 -83t83.5 -34z" />
    <glyph glyph-name="afii10065" unicode="&#x430;" horiz-adv-x="391" 
d="M163 700h65l115 -600h-61l-23 122h-128l-23 -122h-61zM247 284l-52 273l-52 -273h104z" />
    <glyph glyph-name="afii10066" unicode="&#x431;" 
d="M68 100v600h242v-61h-178v-274h68q56 0 93 -39q39 -39 39 -93q0 -55 -39 -94q-37 -39 -93 -39h-132zM200 304h-68v-143h68q28 0 47.5 20t19.5 48v7q0 28 -19.5 48t-47.5 20z" />
    <glyph glyph-name="afii10067" unicode="&#x432;" 
d="M200 100h-132v600h132q56 0 93 -39q39 -39 39 -94v-131q0 -62 -48 -102q48 -40 48 -101q0 -55 -39 -94q-37 -39 -93 -39zM200 639h-68v-274h73q26 2 44 21.5t18 46.5v138q0 28 -19.5 48t-47.5 20zM205 304h-73v-143h68q28 0 47.5 20t19.5 48v7q0 27 -18 46.5t-44 21.5z
" />
    <glyph glyph-name="afii10068" unicode="&#x433;" horiz-adv-x="327" 
d="M132 100h-64v600h232v-61h-168v-539z" />
    <glyph glyph-name="afii10069" unicode="&#x434;" horiz-adv-x="520" 
d="M57 0v161h66l74 539h190v-539h75v-161h-64v100h-276v-100h-65zM188 161h134v478h-67z" />
    <glyph glyph-name="afii10070" unicode="&#x435;" horiz-adv-x="354" 
d="M300 100h-232v600h232v-61h-168v-288h143v-62h-143v-128h168v-61z" />
    <glyph glyph-name="afii10072" unicode="&#x436;" horiz-adv-x="600" 
d="M538 100h-68l-94 274l-44 -89v-185h-65v187l-44 87l-93 -274h-68l121 356l-121 244h72l133 -269v269h65v-271l134 271h72l-121 -244z" />
    <glyph glyph-name="afii10073" unicode="&#x437;" 
d="M267 498v79q0 28 -19.5 47.5t-47.5 19.5t-48 -19.5t-20 -47.5v-47h-64v43q0 55 38 93q39 39 94 39q56 0 93 -39q39 -38 39 -93v-71q0 -62 -48 -102q48 -40 48 -102v-71q0 -55 -39 -94q-38 -38 -93 -38q-54 0 -94 38q-38 40 -38 94v43h64v-47q0 -28 20 -47.5t48 -19.5
t47.5 19.5t19.5 47.5v79q0 28 -19.5 47.5t-47.5 19.5h-50v62h50q28 0 47.5 19.5t19.5 47.5z" />
    <glyph glyph-name="afii10074" unicode="&#x438;" horiz-adv-x="425" 
d="M293 700h64v-600h-64v429l-160 -429h-65v600h65v-428z" />
    <glyph glyph-name="afii10075" unicode="&#x439;" horiz-adv-x="425" 
d="M293 700h64v-600h-64v429l-160 -429h-65v600h65v-428zM212 771v54q30 0 47.5 14t17.5 36v16h54v-16q0 -47 -30.5 -75.5t-88.5 -28.5zM212 825v-54q-58 0 -88.5 28.5t-30.5 75.5v16h54v-16q0 -22 17.5 -36t47.5 -14z" />
    <glyph glyph-name="afii10076" unicode="&#x43a;" 
d="M132 100h-64v600h64v-271l134 271h72l-121 -244l121 -356h-69l-93 274l-44 -89v-185z" />
    <glyph glyph-name="afii10077" unicode="&#x43b;" horiz-adv-x="425" 
d="M25 100h-16v61h16q28 0 47.5 20t19.5 48v471h265v-600h-65v539h-135v-406q0 -55 -39 -94q-38 -39 -93 -39z" />
    <glyph glyph-name="afii10078" unicode="&#x43c;" horiz-adv-x="450" 
d="M382 100h-65v461l-63 -119h-58l-64 120v-462h-64v600h64l93 -178l92 178h65v-600z" />
    <glyph glyph-name="afii10079" unicode="&#x43d;" 
d="M332 100h-65v189h-135v-189h-64v600h64v-349h135v349h65v-600z" />
    <glyph glyph-name="afii10080" unicode="&#x43e;" 
d="M68 227v346q0 55 38 93q39 39 94 39q56 0 93 -39q39 -38 39 -93v-346q0 -55 -39 -94q-38 -38 -93 -38q-54 0 -94 38q-38 40 -38 94zM132 577v-354q0 -28 20 -47.5t48 -19.5t47.5 19.5t19.5 47.5v354q0 28 -19.5 47.5t-47.5 19.5t-48 -19.5t-20 -47.5z" />
    <glyph glyph-name="afii10081" unicode="&#x43f;" 
d="M332 100h-65v539h-135v-539h-64v600h264v-600z" />
    <glyph glyph-name="afii10082" unicode="&#x440;" 
d="M132 100h-64v600h132q56 0 93 -39q39 -39 39 -94v-145q0 -55 -39 -94q-37 -39 -93 -39h-68v-189zM200 639h-68v-288h68q28 0 47.5 19.5t19.5 47.5v153q0 28 -19.5 48t-47.5 20z" />
    <glyph glyph-name="afii10083" unicode="&#x441;" 
d="M132 577v-354q0 -28 20 -47.5t48 -19.5t47.5 19.5t19.5 47.5v56h65v-52q0 -55 -39 -94q-38 -38 -93 -38q-54 0 -94 38q-38 40 -38 94v346q0 55 38 93q39 39 94 39q56 0 93 -39q39 -38 39 -93v-52h-65v56q0 28 -19.5 47.5t-47.5 19.5t-48 -19.5t-20 -47.5z" />
    <glyph glyph-name="afii10084" unicode="&#x442;" horiz-adv-x="306" 
d="M120 639h-87v61h239v-61h-87v-539h-65v539z" />
    <glyph glyph-name="afii10085" unicode="&#x443;" horiz-adv-x="372" 
d="M98 100h-50v65h50q10 0 19 7t12 17l29 103l-109 408h62l81 -307l81 307h62l-143 -528q-8 -29 -35.5 -50.5t-58.5 -21.5z" />
    <glyph glyph-name="afii10086" unicode="&#x444;" horiz-adv-x="540" 
d="M302 100h-64v90h-48q-55 0 -94 39t-39 94v154q0 55 39 94t94 39h48v90h64v-90h48q55 0 94 -39t39 -94v-154q0 -55 -39 -94t-94 -39h-48v-90zM190 251h48v298h-48q-28 0 -48 -20t-20 -48v-162q0 -28 20 -48t48 -20zM350 549h-48v-298h48q28 0 47.5 20t19.5 48v162
q0 28 -19.5 48t-47.5 20z" />
    <glyph glyph-name="afii10087" unicode="&#x445;" 
d="M269 700h69l-101 -300l101 -300h-69l-67 198l-66 -198h-68l100 300l-100 300h68l66 -198z" />
    <glyph glyph-name="afii10088" unicode="&#x446;" horiz-adv-x="515" 
d="M392 100h-324v600h64v-539h160v539h65v-539h100v-186h-65v125z" />
    <glyph glyph-name="afii10089" unicode="&#x447;" 
d="M332 100h-65v202q-30 -18 -67 -18q-55 0 -94 39q-38 40 -38 94v283h64v-287q0 -28 20 -48t48 -20q26 0 45.5 18t21.5 44v293h65v-600z" />
    <glyph glyph-name="afii10090" unicode="&#x448;" horiz-adv-x="600" 
d="M532 100h-464v600h64v-539h135v539h65v-539h136v539h64v-600z" />
    <glyph glyph-name="afii10091" unicode="&#x449;" horiz-adv-x="665" 
d="M542 100h-474v600h64v-539h135v539h65v-539h136v539h64v-539h75v-186h-65v125z" />
    <glyph glyph-name="afii10092" unicode="&#x44a;" horiz-adv-x="415" 
d="M92 639h-83v61h148v-335h68q55 0 93 -39q39 -39 39 -93q0 -55 -39 -94q-38 -39 -93 -39h-133v539zM225 304h-68v-143h68q28 0 47.5 20t19.5 48v7q0 28 -19.5 48t-47.5 20z" />
    <glyph glyph-name="afii10093" unicode="&#x44b;" horiz-adv-x="557" 
d="M68 100v600h64v-335h68q56 0 93 -39q39 -39 39 -93q0 -55 -39 -94q-37 -39 -93 -39h-132zM482 100h-65v600h65v-600zM200 304h-68v-143h68q28 0 47.5 20t19.5 48v7q0 28 -19.5 48t-47.5 20z" />
    <glyph glyph-name="afii10094" unicode="&#x44c;" horiz-adv-x="390" 
d="M68 100v600h64v-335h68q56 0 93 -39q39 -39 39 -93q0 -55 -39 -94q-37 -39 -93 -39h-132zM200 304h-68v-143h68q28 0 47.5 20t19.5 48v7q0 28 -19.5 48t-47.5 20z" />
    <glyph glyph-name="afii10095" unicode="&#x44d;" 
d="M267 366h-142v62h142v149q0 28 -19.5 47.5t-47.5 19.5t-48 -19.5t-20 -47.5v-56h-64v52q0 55 38 93q39 39 94 39q56 0 93 -39q39 -38 39 -93v-346q0 -55 -39 -94q-38 -38 -93 -38q-54 0 -94 38q-38 40 -38 94v52h64v-56q0 -28 20 -47.5t48 -19.5t47.5 19.5t19.5 47.5v143
z" />
    <glyph glyph-name="afii10096" unicode="&#x44e;" horiz-adv-x="565" 
d="M233 227v62h-101v-189h-64v600h64v-349h101v222q0 55 38 93q39 39 94 39t93 -39q39 -38 39 -93v-346q0 -55 -39 -94q-38 -38 -93 -38q-54 0 -94 38q-38 40 -38 94zM297 577v-354q0 -28 20 -47.5t48 -19.5t47.5 19.5t19.5 47.5v354q0 28 -19.5 47.5t-47.5 19.5t-48 -19.5
t-20 -47.5z" />
    <glyph glyph-name="afii10097" unicode="&#x44f;" 
d="M200 700h132v-600h-64v189h-74q-26 -2 -43.5 -21.5t-17.5 -45.5v-122h-65v118q0 61 47 102q-47 39 -47 102v145q0 54 38 94q39 39 94 39zM200 351h68v288h-68q-28 0 -47.5 -20t-19.5 -48v-153q0 -28 19.5 -47.5t47.5 -19.5z" />
    <glyph glyph-name="afii10071" unicode="&#x451;" horiz-adv-x="354" 
d="M300 100h-232v600h232v-61h-168v-288h143v-62h-143v-128h168v-61zM84 801q-23 23 1 47t47 1t-1 -47t-47 -1zM234 801q-23 23 1 47t47 1t-1 -47t-47 -1z" />
    <glyph glyph-name="afii10099" unicode="&#x452;" horiz-adv-x="453" 
d="M120 639h-87v61h239v-61h-87v-153q31 19 68 19q55 0 93 -39q39 -38 39 -93v-140q0 -55 -39 -94q-38 -39 -93 -39h-10v61h10q28 0 47.5 20t19.5 48v148q0 28 -19.5 47.5t-47.5 19.5q-26 0 -46 -18t-22 -44v-282h-65v539z" />
    <glyph glyph-name="afii10100" unicode="&#x453;" horiz-adv-x="327" 
d="M132 100h-64v600h232v-61h-168v-539zM274 825l-167 -51l-16 47l165 59z" />
    <glyph glyph-name="afii10101" unicode="&#x454;" 
d="M132 366v-143q0 -28 20 -47.5t48 -19.5t47.5 19.5t19.5 47.5v56h65v-52q0 -55 -39 -94q-38 -38 -93 -38q-54 0 -94 38q-38 40 -38 94v346q0 55 38 93q39 39 94 39q56 0 93 -39q39 -38 39 -93v-52h-65v56q0 28 -19.5 47.5t-47.5 19.5t-48 -19.5t-20 -47.5v-149h143v-62
h-143z" />
    <glyph glyph-name="afii10102" unicode="&#x455;" horiz-adv-x="390" 
d="M62 227v47h65v-51q0 -28 20 -47.5t48 -19.5t47.5 19.5t19.5 47.5v4q0 19 -9 34l-159 229q-32 35 -32 83q0 55 39 93q39 39 94 39t93 -39q39 -38 39 -93v-47h-65v51q0 28 -19.5 47.5t-47.5 19.5t-48 -19.5t-20 -47.5v-4q0 -21 12 -37l160 -229q28 -34 28 -80
q0 -55 -39 -94q-38 -38 -93 -38q-54 0 -94 38q-39 39 -39 94z" />
    <glyph glyph-name="afii10103" unicode="&#x456;" horiz-adv-x="214" 
d="M139 100h-65v600h65v-600z" />
    <glyph glyph-name="afii10104" unicode="&#x457;" horiz-adv-x="214" 
d="M139 100h-65v600h65v-600zM8 801q-23 23 1 47t47 1t-1 -47t-47 -1zM158 801q-23 23 1 47t47 1t-1 -47t-47 -1z" />
    <glyph glyph-name="afii10105" unicode="&#x458;" horiz-adv-x="200" 
d="M0 -55h-26v61h26q28 0 48 19.5t20 47.5v627h64v-623q0 -55 -39 -93q-37 -39 -93 -39z" />
    <glyph glyph-name="afii10106" unicode="&#x459;" horiz-adv-x="625" 
d="M435 100h-133v539h-135v-406q0 -55 -39 -94q-38 -39 -93 -39h-16v61h16q28 0 47.5 20t19.5 48v471h265v-335h68q55 0 93 -39q39 -39 39 -93q0 -55 -39 -94q-38 -39 -93 -39zM435 304h-68v-143h68q28 0 47.5 20t19.5 48v7q0 28 -19.5 48t-47.5 20z" />
    <glyph glyph-name="afii10107" unicode="&#x45a;" horiz-adv-x="590" 
d="M400 100h-132v204h-136v-204h-64v600h64v-335h136v335h64v-335h68q56 0 93 -39q39 -39 39 -93q0 -55 -39 -94q-37 -39 -93 -39zM400 304h-68v-143h68q28 0 47.5 20t19.5 48v7q0 28 -19.5 48t-47.5 20z" />
    <glyph glyph-name="afii10108" unicode="&#x45b;" horiz-adv-x="453" 
d="M120 639h-87v61h239v-61h-87v-153q31 19 68 19q55 0 93 -39q39 -38 39 -93v-273h-65v277q0 28 -19.5 47.5t-47.5 19.5q-26 0 -46 -18t-22 -44v-282h-65v539z" />
    <glyph glyph-name="afii10109" unicode="&#x45c;" 
d="M132 100h-64v600h64v-271l134 271h72l-121 -244l121 -356h-69l-93 274l-44 -89v-185zM291 825l-167 -51l-16 47l165 59z" />
    <glyph glyph-name="afii10110" unicode="&#x45e;" horiz-adv-x="372" 
d="M256 875v16h54v-16q0 -47 -30.5 -75.5t-88.5 -28.5t-88.5 28.5t-30.5 75.5v16h54v-16q0 -22 17.5 -36t47.5 -14t47.5 14t17.5 36zM98 100h-50v65h50q10 0 19 7t12 17l29 103l-109 408h62l81 -307l81 307h62l-143 -528q-8 -29 -35.5 -50.5t-58.5 -21.5z" />
    <glyph glyph-name="afii10193" unicode="&#x45f;" 
d="M232 0h-65v100h-99v600h64v-539h135v539h65v-600h-100v-100z" />
    <glyph glyph-name="afii10146" unicode="&#x462;" horiz-adv-x="602" 
d="M170 739h-137v61h339v-61h-137v-374h117q76 0 129 -54q54 -53 54 -128q0 -76 -54 -130q-53 -53 -129 -53h-182v739zM352 304h-117v-243h117q49 0 83 34q35 35 35 84v7q0 48 -35 83t-83 35z" />
    <glyph glyph-name="afii10194" unicode="&#x463;" horiz-adv-x="443" 
d="M120 639h-87v61h239v-61h-87v-274h68q55 0 93 -39q39 -39 39 -93q0 -55 -39 -94q-38 -39 -93 -39h-133v539zM253 304h-68v-143h68q28 0 47.5 20t19.5 48v7q0 28 -19.5 48t-47.5 20z" />
    <glyph glyph-name="afii10147" unicode="&#x472;" horiz-adv-x="500" 
d="M68 177v446q0 76 53 129t129 53t129 -53t53 -129v-446q0 -76 -53 -129t-129 -53t-129 53t-53 129zM181 324l152 -38q1 -1 9 -1q10 0 17 3l8 4v335q0 48 -34 82q-35 35 -83 35q-49 0 -84 -35q-34 -34 -34 -82v-305q17 4 31 4q4 0 18 -2zM132 256v-83q0 -49 34.5 -83
t83.5 -34t83 34t34 83v54q-15 -3 -30 -3q-4 0 -18 2l-152 38q-1 1 -8 1t-27 -9z" />
    <glyph glyph-name="afii10195" unicode="&#x473;" 
d="M68 227v346q0 55 38 93q39 39 94 39q56 0 93 -39q39 -38 39 -93v-346q0 -55 -39 -94q-38 -38 -93 -38q-54 0 -94 38q-38 40 -38 94zM185 366l56 -28q6 -2 9 -2q1 0 9 2l8 4v235q0 28 -19.5 47.5t-47.5 19.5t-48 -19.5t-20 -47.5v-205q3 1 17 1q23 0 36 -7zM132 306v-83
q0 -28 20 -47.5t48 -19.5t47.5 19.5t19.5 47.5v54q-3 -1 -16 -1q-22 0 -36 8l-56 28q-8 3 -18 -1z" />
    <glyph glyph-name="afii10148" unicode="&#x474;" horiz-adv-x="487" 
d="M276 0h-65l-164 800h66l131 -629l130 629h65z" />
    <glyph glyph-name="afii10196" unicode="&#x475;" horiz-adv-x="391" 
d="M228 100h-65l-116 600h61l87 -457l87 457h61z" />
    <glyph glyph-name="afii10050" unicode="&#x490;" horiz-adv-x="415" 
d="M68 800h255v125h65v-186h-256v-739h-64v800z" />
    <glyph glyph-name="afii10098" unicode="&#x491;" horiz-adv-x="327" 
d="M68 700h167v100h65v-161h-168v-539h-64v600z" />
    <glyph glyph-name="afii10846" unicode="&#x4d9;" 
d="M267 385v192q0 28 -19.5 47.5t-47.5 19.5t-48 -19.5t-20 -47.5v-56h-64v52q0 55 38 93q39 39 94 39q56 0 93 -39q39 -38 39 -93v-346q0 -55 -39 -94q-38 -38 -93 -38q-54 0 -94 38q-38 40 -38 94v158h199zM267 223v101h-135v-101q0 -28 20 -47.5t48 -19.5t47.5 19.5
t19.5 47.5z" />
    <glyph glyph-name="Wgrave" unicode="&#x1e80;" horiz-adv-x="550" 
d="M132 0h-64v800h64v-674l110 185h65l110 -184v673h66v-800h-66l-142 237zM177 980l165 -59l-16 -47l-167 51z" />
    <glyph glyph-name="wgrave" unicode="&#x1e81;" horiz-adv-x="450" 
d="M68 700h64v-463l64 121h58l63 -119v461h65v-600h-65l-92 178l-93 -178h-64v600zM132 880l160 -59l-16 -47l-167 51z" />
    <glyph glyph-name="Wacute" unicode="&#x1e82;" horiz-adv-x="550" 
d="M132 0h-64v800h64v-674l110 185h65l110 -184v673h66v-800h-66l-142 237zM391 925l-167 -51l-16 47l165 59z" />
    <glyph glyph-name="wacute" unicode="&#x1e83;" horiz-adv-x="450" 
d="M68 700h64v-463l64 121h58l63 -119v461h65v-600h-65l-92 178l-93 -178h-64v600zM341 825l-167 -51l-16 47l165 59z" />
    <glyph glyph-name="Wdieresis" unicode="&#x1e84;" horiz-adv-x="550" 
d="M132 0h-64v800h64v-674l110 185h65l110 -184v673h66v-800h-66l-142 237zM336 901q-23 23 1 47t47 1t-1 -47t-47 -1zM166 901q-23 23 1 47t47 1t-1 -47t-47 -1z" />
    <glyph glyph-name="wdieresis" unicode="&#x1e85;" horiz-adv-x="450" 
d="M68 700h64v-463l64 121h58l63 -119v461h65v-600h-65l-92 178l-93 -178h-64v600zM276 801q-23 23 1 47t47 1t-1 -47t-47 -1zM126 801q-23 23 1 47t47 1t-1 -47t-47 -1z" />
    <glyph glyph-name="Ygrave" unicode="&#x1ef2;" horiz-adv-x="470" 
d="M267 0h-64v244l-156 556h68l120 -441l120 441h68l-156 -556v-244zM122 980l165 -59l-16 -47l-167 51z" />
    <glyph glyph-name="ygrave" unicode="&#x1ef3;" horiz-adv-x="384" 
d="M224 100h-65v189l-110 411h62l81 -307l81 307h62l-111 -411v-189zM79 880l165 -59l-16 -47l-167 51z" />
    <glyph glyph-name="figuredash" unicode="&#x2012;" horiz-adv-x="350" 
d="M92 311h-61v98h227v36h61v-98h-227v-36z" />
    <glyph glyph-name="endash" unicode="&#x2013;" horiz-adv-x="350" 
d="M319 347h-288v62h288v-62z" />
    <glyph glyph-name="emdash" unicode="&#x2014;" horiz-adv-x="550" 
d="M519 347h-488v62h488v-62z" />
    <glyph glyph-name="quoteleft" unicode="&#x2018;" horiz-adv-x="200" 
d="M132 700v-157h-64v56q0 21 14 85l5 16h45z" />
    <glyph glyph-name="quoteright" unicode="&#x2019;" horiz-adv-x="200" 
d="M68 543v157h64v-57q0 -24 -14 -83l-5 -17h-45z" />
    <glyph glyph-name="quotesinglbase" unicode="&#x201a;" horiz-adv-x="200" 
d="M68 100v157h64v-56q0 -21 -14 -85l-5 -16h-45z" />
    <glyph glyph-name="quotedblleft" unicode="&#x201c;" horiz-adv-x="375" 
d="M307 700v-157h-65v56q0 36 15 85l5 16h45zM132 700v-157h-64v56q0 21 14 85l5 16h45z" />
    <glyph glyph-name="quotedblright" unicode="&#x201d;" horiz-adv-x="375" 
d="M242 543v157h65v-57q0 -41 -14 -83l-5 -17h-46zM68 543v157h64v-57q0 -24 -14 -83l-5 -17h-45z" />
    <glyph glyph-name="quotedblbase" unicode="&#x201e;" horiz-adv-x="375" 
d="M242 100v157h65v-56q0 -39 -14 -85l-5 -16h-46zM68 100v157h64v-56q0 -21 -14 -85l-5 -16h-45z" />
    <glyph glyph-name="dagger" unicode="&#x2020;" horiz-adv-x="332" 
d="M132 589h-99v61h99v130h65v-130h102v-61h-102v-589h-65v589z" />
    <glyph glyph-name="daggerdbl" unicode="&#x2021;" horiz-adv-x="332" 
d="M132 589h-99v61h99v130h65v-130h102v-61h-102v-378h102v-61h-102v-150h-65v150h-99v61h99v378z" />
    <glyph glyph-name="bullet" unicode="&#x2022;" horiz-adv-x="212" 
d="M68 380q0 17 11 28t27 11t27 -11.5t11 -27.5q1 -23 -18.5 -32.5t-39 0t-18.5 32.5z" />
    <glyph glyph-name="ellipsis" unicode="&#x2026;" horiz-adv-x="610" 
d="M73 107q-11 11 -11 27t11 26q11 11 27 11t27 -11q11 -10 11 -26t-11 -27t-27 -11t-27 11zM268 107q-11 11 -11 27t11 26q11 11 27 11t27 -11q11 -10 11 -26t-11 -27t-27 -11t-27 11zM463 107q-11 11 -11 27t11 26q11 11 27 11t27 -11q11 -10 11 -26t-11 -27t-27 -11
t-27 11z" />
    <glyph glyph-name="perthousand" unicode="&#x2030;" horiz-adv-x="1069" 
d="M68 477v96q0 55 38 93q39 39 94 39q56 0 93 -39q39 -38 39 -93v-96q0 -55 -39 -94q-38 -38 -93 -38q-54 0 -94 38q-38 40 -38 94zM132 577v-104q0 -28 20 -47.5t48 -19.5t47.5 19.5t19.5 47.5v104q0 28 -19.5 47.5t-47.5 19.5t-48 -19.5t-20 -47.5zM428 177v96
q0 55 38 93q39 39 94 39q56 0 93 -39q39 -38 39 -93v-96q0 -55 -39 -94q-38 -38 -93 -38q-54 0 -94 38q-38 40 -38 94zM492 277v-104q0 -28 20 -47.5t48 -19.5t47.5 19.5t19.5 47.5v104q0 28 -19.5 47.5t-47.5 19.5t-48 -19.5t-20 -47.5zM564 676l-315 -631l-58 29l316 631z
M737 177v96q0 55 38 93q39 39 94 39t94 -39q39 -38 39 -93v-96q0 -55 -39 -94q-40 -38 -94 -38t-94 38q-38 40 -38 94zM802 277v-104q0 -28 19.5 -47.5t47.5 -19.5t48 19.5t20 47.5v104q0 28 -20 47.5t-48 19.5t-47.5 -19.5t-19.5 -47.5z" />
    <glyph glyph-name="guilsinglleft" unicode="&#x2039;" horiz-adv-x="350" 
d="M43 400l204 306l54 -36l-180 -270l180 -270l-54 -36z" />
    <glyph glyph-name="guilsinglright" unicode="&#x203a;" horiz-adv-x="350" 
d="M223 400l-180 270l55 36l203 -306l-203 -306l-55 36z" />
    <glyph glyph-name="exclamdbl" unicode="&#x203c;" horiz-adv-x="375" 
d="M73 107q-11 11 -11 27t11 26q11 11 27 11t27 -11q11 -10 11 -26t-11 -27t-27 -11t-27 11zM68 470v230h64v-230l-9 -231h-46q-9 191 -9 231zM248 107q-11 11 -11 27t11 26q11 11 27 11t27 -11q11 -10 11 -26t-11 -27t-27 -11t-27 11zM243 470v230h64v-230l-9 -231h-46
q-9 191 -9 231z" />
    <glyph glyph-name="fraction" unicode="&#x2044;" horiz-adv-x="580" 
d="M519 785l-400 -800l-58 30l400 800z" />
    <glyph glyph-name="colonmonetary" unicode="&#x20a1;" horiz-adv-x="725" 
d="M179 162l-88 -177l-58 30l98 196q-65 83 -65 189q0 127 89 216q91 89 216 89h7l55 110l58 -30l-45 -90q53 -13 103 -48l84 168l58 -30l-315 -629q96 2 166 70l43 -44q-89 -87 -214 -87q-20 0 -25 1l-55 -111l-58 30l47 94q-56 17 -101 53zM307 164l214 428
q-45 36 -103 47l-210 -419q43 -40 99 -56zM131 400q0 -67 32 -123l183 365q-93 -9 -154 -79t-61 -163z" />
    <glyph glyph-name="franc" unicode="&#x20a3;" horiz-adv-x="327" 
d="M68 162h-61v62h61v476h232v-61h-168v-263h143v-62h-143v-90h59v-62h-59v-62h-64v62z" />
    <glyph glyph-name="lira" unicode="&#x20a4;" horiz-adv-x="378" 
d="M83 455h-57v61h57v51q0 55 39 94t94 39h132v-61h-132q-28 0 -48 -20t-20 -48v-55h137v-61h-137v-101h137v-62h-137v-131h205v-61h-332v61h62v131h-57v62h57v101z" />
    <glyph glyph-name="Euro" unicode="&#x20ac;" horiz-adv-x="642" 
d="M71 457h-48v61h66q35 84 111 135q76 52 171 52q125 0 214 -88l-43 -43q-71 70 -171 70q-67 0 -123 -34t-87 -92h280v-61h-304q-6 -29 -6 -57q0 -29 5 -51h237v-61h-216q31 -61 88 -96.5t126 -35.5q100 0 171 70l43 -44q-89 -87 -214 -87q-95 0 -174 53q-77 54 -110 140
h-64v61h47q-4 19 -4 51q0 30 5 57z" />
    <glyph glyph-name="afii61352" unicode="&#x2116;" horiz-adv-x="925" 
d="M631 479q-38 40 -38 94q0 55 38 93q39 39 94 39t93 -39q39 -38 39 -93t-39 -94q-38 -39 -93 -39t-94 39zM657 577v-8q0 -28 20 -48t48 -20t47.5 20t19.5 48v8q0 28 -19.5 47.5t-47.5 19.5t-48 -19.5t-20 -47.5zM457 0h-65l-260 629v-629h-64v800h64l260 -628v628h65v-800
z" />
    <glyph glyph-name="trademark" unicode="&#x2122;" horiz-adv-x="659" 
d="M591 320h-65v339l-38 -72h-57l-40 75v-342h-65v480h65l68 -133l67 133h65v-480zM101 739h-68v61h200v-61h-67v-419h-65v419z" />
    <glyph glyph-name="estimated" unicode="&#x212e;" horiz-adv-x="500" 
d="M132 367v-94q0 -49 34.5 -83t83.5 -34t83 34t34 83v25h65v-21q0 -76 -53 -129t-129 -53t-129 53t-53 129v246q0 76 53 129t129 53t129 -53t53 -129v-156h-300zM132 527v-94h235v94q0 48 -34 82q-35 35 -83 35q-49 0 -84 -35q-34 -34 -34 -82z" />
    <glyph glyph-name="product" unicode="&#x220f;" horiz-adv-x="500" 
d="M432 0h-65v739h-235v-739h-64v800h364v-800z" />
    <glyph glyph-name="summation" unicode="&#x2211;" horiz-adv-x="480" 
d="M422 0h-354v61l152 218l-147 460v61h344v-61h-277l139 -433v-62l-133 -183h276v-61z" />
    <glyph glyph-name="minus" unicode="&#x2212;" horiz-adv-x="462" 
d="M431 347h-400v62h400v-62z" />
    <glyph glyph-name="uni2215" unicode="&#x2215;" horiz-adv-x="580" 
d="M519 785l-400 -800l-58 30l400 800z" />
    <glyph glyph-name="infinity" unicode="&#x221e;" horiz-adv-x="785" 
d="M326 505l66 -66l67 66q44 50 108 50q65 0 110 -46q46 -45 46 -109t-46 -110q-45 -45 -110 -45q-64 0 -108 50l-67 65l-66 -65q-44 -50 -108 -50t-111 45q-45 46 -45 110t45 109q46 46 111 46q64 0 108 -50zM567 490q-46 0 -74 -40l-36 -50l36 -50q29 -41 74 -40
q38 0 64.5 26.5t26.5 63.5t-26.5 63.5t-64.5 26.5zM218 310q46 0 74 40l36 50l-36 50q-30 40 -74 40q-38 0 -64.5 -26.5t-26.5 -63.5t26.5 -63.5t64.5 -26.5z" />
    <glyph glyph-name="integral" unicode="&#x222b;" horiz-adv-x="590" 
d="M527 750v-50h-64v54q0 28 -20 47.5t-48 19.5t-48 -19.5t-20 -47.5v-704q0 -55 -39 -94q-38 -39 -93 -39t-94 39t-39 94v50h65v-54q0 -28 20 -47.5t48 -19.5t47.5 19.5t19.5 47.5v704q0 55 39 94t94 39t93 -39q39 -39 39 -94z" />
    <glyph glyph-name="CR.001" horiz-adv-x="333" 
 />
    <glyph glyph-name="zero.onum" 
d="M68 227v346q0 55 38 93q39 39 94 39q56 0 93 -39q39 -38 39 -93v-346q0 -55 -39 -94q-38 -38 -93 -38q-54 0 -94 38q-38 40 -38 94zM132 577v-354q0 -28 20 -47.5t48 -19.5t47.5 19.5t19.5 47.5v354q0 28 -19.5 47.5t-47.5 19.5t-48 -19.5t-20 -47.5z" />
    <glyph glyph-name="one.onum" horiz-adv-x="302" 
d="M225 100h-65v539h-112v61h177v-600z" />
    <glyph glyph-name="two.onum" 
d="M332 100h-264v61l193 379q6 14 6 29v8q0 28 -19.5 47.5t-47.5 19.5t-48 -19.5t-20 -47.5v-51h-64v47q0 55 38 93q39 39 94 39q56 0 93 -39q39 -38 39 -93q0 -37 -19 -68l-176 -344h195v-61z" />
    <glyph glyph-name="three.onum" 
d="M245 639h-176v61h258v-61l-107 -134q48 -8 80 -45t32 -86v-147q0 -55 -39 -94q-38 -38 -93 -38q-54 0 -94 38q-38 40 -38 94v52h64v-56q0 -28 20 -47.5t48 -19.5t47.5 19.5t19.5 47.5v155q0 28 -19.5 48t-47.5 20h-60v61z" />
    <glyph glyph-name="four.onum" horiz-adv-x="374" 
d="M241 289h-200v62l200 349h65v-600h-65v189zM241 569l-125 -218h125v218z" />
    <glyph glyph-name="five.onum" 
d="M267 223v155q0 28 -19.5 48t-47.5 20h-127v254h254v-61h-189v-132h62q56 0 93 -39q39 -39 39 -94v-147q0 -55 -39 -94q-38 -38 -93 -38q-54 0 -94 38q-38 40 -38 94v52h64v-56q0 -28 20 -47.5t48 -19.5t47.5 19.5t19.5 47.5z" />
    <glyph glyph-name="six.onum" 
d="M132 577v-89q31 19 68 19q56 0 93 -39q39 -39 39 -94v-147q0 -55 -39 -94q-38 -38 -93 -38q-54 0 -94 38q-38 40 -38 94v346q0 55 38 93q39 39 94 39q56 0 93 -39q39 -38 39 -93v-39h-65v43q0 28 -19.5 47.5t-47.5 19.5t-48 -19.5t-20 -47.5zM132 378v-155
q0 -28 20 -47.5t48 -19.5t47.5 19.5t19.5 47.5v155q0 28 -19.5 48t-47.5 20t-48 -20t-20 -48z" />
    <glyph glyph-name="seven.onum" horiz-adv-x="336" 
d="M211 639h-190v61h257v-61l-123 -539h-67z" />
    <glyph glyph-name="eight.onum" horiz-adv-x="390" 
d="M62 227q0 45 29 80l65 93l-62 90q-32 35 -32 83q0 55 39 93q39 39 94 39t93 -39q39 -38 39 -93q0 -49 -31 -83l-62 -90l65 -93q28 -34 28 -80q0 -55 -39 -94q-38 -38 -93 -38q-54 0 -94 38q-39 39 -39 94zM262 223v4q0 19 -9 34l-58 83l-58 -83q-10 -16 -10 -34v-4
q0 -28 20 -47.5t48 -19.5t47.5 19.5t19.5 47.5zM127 577v-4q0 -21 12 -37l56 -80l56 80q10 16 11 37v4q0 28 -19.5 47.5t-47.5 19.5t-48 -19.5t-20 -47.5z" />
    <glyph glyph-name="nine.onum" 
d="M268 223v89q-31 -19 -68 -19q-55 0 -94 39q-38 40 -38 94v147q0 55 38 93q39 39 94 39q56 0 93 -39q39 -38 39 -93v-346q0 -55 -39 -94q-38 -38 -93 -38q-54 0 -94 38q-38 40 -38 94v39h65v-43q0 -28 19.5 -47.5t47.5 -19.5t48 19.5t20 47.5zM133 577v-155
q0 -28 19.5 -48t47.5 -20t48 20t20 48v155q0 28 -20 47.5t-48 19.5t-47.5 -19.5t-19.5 -47.5z" />
    <glyph glyph-name="zero.lnum" horiz-adv-x="500" 
d="M68 177v446q0 76 53 129t129 53t129 -53t53 -129v-446q0 -76 -53 -129t-129 -53t-129 53t-53 129zM132 627v-454q0 -49 34.5 -83t83.5 -34t83 34t34 83v454q0 48 -34 82q-35 35 -83 35q-49 0 -84 -35q-34 -34 -34 -82z" />
    <glyph glyph-name="one.lnum" horiz-adv-x="315" 
d="M237 0h-65v739h-124v61h189v-800z" />
    <glyph glyph-name="two.lnum" horiz-adv-x="500" 
d="M432 0h-364v61l285 501q15 27 15 57v8q0 47 -35 82t-83 35t-83 -35q-34 -34 -34 -82v-41h-65v37q0 76 53 129t129 53t129 -53q54 -52 54 -129q0 -51 -29 -97l-265 -465h293v-61z" />
    <glyph glyph-name="three.lnum" horiz-adv-x="500" 
d="M367 556v71q0 49 -34 83t-83 34t-83.5 -34t-34.5 -83v-41h-64v37q0 76 53 129t129 53t129 -53t53 -129v-63q0 -96 -81 -152q81 -55 81 -152v-79q0 -76 -53 -129t-129 -53t-129 53t-53 129v37h64v-41q0 -49 34.5 -83t83.5 -34t83 34t34 83v87q0 46 -33 81q-31 34 -79 36
h-84v62h79q49 0 83 34t34 83z" />
    <glyph glyph-name="four.lnum" horiz-adv-x="488" 
d="M68 242v62l121 496h67l-122 -496h222v496h65v-800h-65v242h-288z" />
    <glyph glyph-name="five.lnum" horiz-adv-x="500" 
d="M367 173v133q0 49 -34 83.5t-83 34.5h-177v376h344v-61h-279v-254h112q76 0 129 -54q53 -53 53 -129v-125q0 -76 -53 -129t-129 -53t-129 53t-53 129v37h64v-41q0 -49 34.5 -83t83.5 -34t83 34t34 83z" />
    <glyph glyph-name="six.lnum" horiz-adv-x="500" 
d="M250 489q76 0 129 -53t53 -129v-130q0 -76 -53 -129t-129 -53t-129 53t-53 129v446q0 76 53 129t129 53t129 -53t53 -129v-37h-65v41q0 48 -34 82q-35 35 -83 35q-49 0 -84 -35q-34 -34 -34 -82v-181q49 43 118 43zM132 316v-143q0 -49 34.5 -83t83.5 -34t83 34t34 83
v138q0 48 -34 82q-35 35 -83 35t-82 -33q-34 -31 -36 -79z" />
    <glyph glyph-name="seven.lnum" horiz-adv-x="449" 
d="M306 739h-282v61h350v-61l-182 -739h-67z" />
    <glyph glyph-name="eight.lnum" horiz-adv-x="500" 
d="M68 177v82q0 46 21.5 86.5t58.5 64.5q-37 25 -58.5 65.5t-21.5 87.5v60q0 76 53 129t129 53t129 -53t53 -129v-60q0 -97 -81 -153q37 -24 59 -64t22 -87v-82q0 -76 -53 -129t-129 -53t-129 53t-53 129zM132 263v-90q0 -49 34.5 -83t83.5 -34t83 34t34 83v90q0 46 -33 80
q-32 35 -79 37h-5q-49 0 -84 -35q-34 -34 -34 -82zM132 627v-68q0 -50 34 -84t84 -34h5q48 2 79 36q33 35 33 82v68q0 48 -34 82q-35 35 -83 35q-49 0 -84 -35q-34 -34 -34 -82z" />
    <glyph glyph-name="nine.lnum" horiz-adv-x="500" 
d="M367 173v180q-49 -42 -117 -42q-76 0 -129 53t-53 129v130q0 76 53 129t129 53t129 -53t53 -129v-446q0 -76 -53 -129t-129 -53t-129 53t-53 129v37h64v-41q0 -49 34 -83t84 -34q49 0 83 34t34 83zM250 372q46 0 81 32q34 33 36 80v143q0 49 -34 83t-83 34t-83.5 -34
t-34.5 -83v-138q0 -49 34 -83t84 -34z" />
    <glyph glyph-name="zero.tnum" 
d="M68 227v346q0 55 38 93q39 39 94 39q56 0 93 -39q39 -38 39 -93v-346q0 -55 -39 -94q-38 -38 -93 -38q-54 0 -94 38q-38 40 -38 94zM132 577v-354q0 -28 20 -47.5t48 -19.5t47.5 19.5t19.5 47.5v354q0 28 -19.5 47.5t-47.5 19.5t-48 -19.5t-20 -47.5z" />
    <glyph glyph-name="one.tnum" horiz-adv-x="302" 
d="M225 100h-65v539h-112v61h177v-600z" />
    <glyph glyph-name="two.tnum" 
d="M332 100h-264v61l193 379q6 14 6 29v8q0 28 -19.5 47.5t-47.5 19.5t-48 -19.5t-20 -47.5v-51h-64v47q0 55 38 93q39 39 94 39q56 0 93 -39q39 -38 39 -93q0 -37 -19 -68l-176 -344h195v-61z" />
    <glyph glyph-name="three.tnum" 
d="M267 498v79q0 28 -19.5 47.5t-47.5 19.5t-48 -19.5t-20 -47.5v-47h-64v43q0 55 38 93q39 39 94 39q56 0 93 -39q39 -38 39 -93v-71q0 -62 -48 -102q48 -40 48 -102v-71q0 -55 -39 -94q-38 -38 -93 -38q-54 0 -94 38q-38 40 -38 94v43h64v-47q0 -28 20 -47.5t48 -19.5
t47.5 19.5t19.5 47.5v79q0 28 -19.5 47.5t-47.5 19.5h-50v62h50q28 0 47.5 19.5t19.5 47.5z" />
    <glyph glyph-name="four.tnum" horiz-adv-x="374" 
d="M241 289h-200v62l65 349h66l-65 -349h134v349h65v-600h-65v189z" />
    <glyph glyph-name="five.tnum" 
d="M267 223v118q0 28 -19.5 48t-47.5 20h-127v291h254v-61h-189v-169h62q56 0 93 -39q39 -39 39 -94v-110q0 -55 -39 -94q-38 -38 -93 -38q-54 0 -94 38q-38 40 -38 94v43h64v-47q0 -28 20 -47.5t48 -19.5t47.5 19.5t19.5 47.5z" />
    <glyph glyph-name="six.tnum" 
d="M132 577v-93q31 19 68 19q56 0 93 -39q39 -38 39 -93v-144q0 -55 -39 -94q-38 -38 -93 -38q-54 0 -94 38q-38 40 -38 94v346q0 55 38 93q39 39 94 39q56 0 93 -39q39 -38 39 -93v-39h-65v43q0 28 -19.5 47.5t-47.5 19.5t-48 -19.5t-20 -47.5zM132 380v-157
q0 -28 20 -47.5t48 -19.5t47.5 19.5t19.5 47.5v152q0 28 -19.5 47.5t-47.5 19.5q-26 0 -46 -18t-22 -44z" />
    <glyph glyph-name="seven.tnum" horiz-adv-x="336" 
d="M211 639h-190v61h257v-61l-123 -539h-67z" />
    <glyph glyph-name="eight.tnum" 
d="M68 512v61q0 55 38 93q39 39 94 39q56 0 93 -39q39 -38 39 -93v-61q0 -62 -48 -102q48 -40 48 -102v-81q0 -55 -39 -94q-38 -38 -93 -38q-54 0 -94 38q-38 40 -38 94v81q0 61 47 102q-47 39 -47 102zM132 312v-89q0 -28 20 -47.5t48 -19.5t47.5 19.5t19.5 47.5v89
q0 26 -18 45.5t-44 21.5h-11q-26 -2 -44 -21.5t-18 -45.5zM132 577v-69q0 -26 18 -45.5t44 -21.5h6q28 0 47.5 19.5t19.5 47.5v69q0 28 -19.5 47.5t-47.5 19.5t-48 -19.5t-20 -47.5z" />
    <glyph glyph-name="nine.tnum" 
d="M267 223v92q-30 -18 -67 -18q-55 0 -94 39q-38 40 -38 94v143q0 55 38 93q39 39 94 39q56 0 93 -39q39 -38 39 -93v-346q0 -55 -39 -94q-38 -38 -93 -38q-54 0 -94 38q-38 40 -38 94v39h64v-43q0 -28 20 -47.5t48 -19.5t47.5 19.5t19.5 47.5zM132 577v-151q0 -28 20 -48
t48 -20t47.5 20t19.5 48v151q0 28 -19.5 47.5t-47.5 19.5t-48 -19.5t-20 -47.5z" />
    <glyph glyph-name="Dieresis" 
d="M91 801q-23 23 1 47t47 1t-1 -47t-47 -1zM261 801q-23 23 1 47t47 1t-1 -47t-47 -1z" />
    <glyph glyph-name="Ring" horiz-adv-x="330" 
d="M91 751q-30 31 -30 74t30 73q31 31 74 31t73 -31q31 -30 31 -73t-31 -74q-30 -30 -73 -30t-74 30zM165 875q-20 0 -35 -15t-15 -35t15 -35t35 -15t35 15t15 35t-14.5 35t-35.5 15z" />
    <glyph glyph-name="Macron" horiz-adv-x="200" 
d="M229 796h-258v54h258v-54z" />
    <glyph glyph-name="Breve" horiz-adv-x="330" 
d="M165 771v54q30 0 47.5 14t17.5 36v16h54v-16q0 -47 -30.5 -75.5t-88.5 -28.5zM165 825v-54q-58 0 -88.5 28.5t-30.5 75.5v16h54v-16q0 -22 17.5 -36t47.5 -14z" />
    <glyph glyph-name="Dotaccent" horiz-adv-x="214" 
d="M73 798q-17 16 -9.5 37t26.5 26.5t37 -9.5q17 -16 9.5 -37t-26.5 -26.5t-37 9.5z" />
    <glyph glyph-name="ampersandsmall" horiz-adv-x="540" 
d="M68 177q0 97 81 152q-37 24 -59 64.5t-22 87.5v142q0 76 53 129t129 53t129 -53t53 -129v-37h-65v41q0 48 -34 82q-35 35 -83 35q-49 0 -84 -35q-34 -34 -34 -82v-150q0 -47 33 -82q33 -33 80 -35h265v-61h-78v-122q0 -76 -53 -129t-129 -53t-129 53t-53 129zM132 181v-8
q0 -49 34.5 -83t83.5 -34t83 34t34 83v126h-122q-46 -1 -80 -37q-33 -34 -33 -81z" />
    <glyph glyph-name="exclamsmall" horiz-adv-x="200" 
d="M73 7q-11 11 -11 27t11 26q11 11 27 11t27 -11q11 -10 11 -26t-11 -27t-27 -11t-27 11zM68 470v330h64v-330l-9 -331h-46q-9 291 -9 331z" />
    <glyph glyph-name="exclamdownsmall" horiz-adv-x="200" 
d="M73 739q-17 16 -9.5 37t26.5 26.5t37 -9.5q11 -11 11 -27t-11 -27q-11 -10 -27 -10t-27 10zM132 0h-64v330l9 331h46q9 -291 9 -331v-330z" />
    <glyph glyph-name="questionsmall" horiz-adv-x="500" 
d="M132 627v-41h-64v37q0 76 53 129q53 54 129 54t129 -54q53 -53 53 -129v-73q0 -58 -38 -113l-91 -130q-21 -36 -21 -68v-25l-7 -75h-50q-7 57 -7 75v25q0 26 11 58.5t27 54.5l91 131q20 35 20 67v77q0 49 -34 83.5t-83 34.5t-84 -35q-34 -34 -34 -83zM223 7
q-11 11 -11 27t11 26q11 11 27 11t27 -11q11 -10 11 -26t-11 -27t-27 -11t-27 11z" />
    <glyph glyph-name="questiondownsmall" horiz-adv-x="500" 
d="M367 175v40h65v-36q0 -75 -53 -130q-53 -53 -129 -53t-129 53q-53 55 -53 130v73q0 57 38 112l91 131q21 36 21 68v25l7 75h50q7 -57 7 -75v-25q0 -26 -11 -58.5t-27 -54.5l-91 -131q-21 -36 -21 -67v-77q0 -50 34 -84t84 -34q49 0 83 34.5t34 83.5zM277 795
q17 -16 9.5 -37t-26.5 -26.5t-37 9.5q-17 16 -9.5 37t26.5 26.5t37 -9.5z" />
    <glyph glyph-name="Tilde" horiz-adv-x="200" 
d="M-3 795l-7 -4l-22 45l7 4q37 22 82 22q17 0 45 -12t45 -12q14 0 28 3.5t21 6.5t7 4l6 3l23 -46l-7 -3q-37 -22 -82 -22q-17 0 -46 12t-44 12q-14 0 -28 -3t-21 -6t-7 -4z" />
    <glyph glyph-name="Hungarumlaut" horiz-adv-x="350" 
d="M172 836l-76 -61l-32 38l73 66zM317 836l-76 -61l-33 38l73 66z" />
    <glyph glyph-name="Ogonek" horiz-adv-x="200" 
d="M73 102l16 15l54 -17q-64 -61 -64 -93q0 -22 21 -22q16 0 25 15l3 5l42 -22l-8 -12q-7 -9 -24.5 -20t-33.5 -11q-78 0 -78 71q0 22 14.5 48.5t32.5 42.5z" />
    <glyph glyph-name="Grave" horiz-adv-x="250" 
d="M52 880l165 -59l-16 -47l-167 51z" />
    <glyph glyph-name="idotaccent" horiz-adv-x="214" 
d="M80 798q-17 16 -9.5 37t26.5 26.5t37 -9.5q17 -16 9.5 -37t-26.5 -26.5t-37 9.5zM139 100h-65v600h65v-600z" />
    </font>
</defs>
</svg>
